<svg width="40" height="40" viewBox="0 0 40 40" fill="none" xmlns="http://www.w3.org/2000/svg">
<path d="M37.3315 17.1414C36.89 16.672 36.3506 16.3054 35.7516 16.0677C35.1525 15.83 34.5086 15.727 33.8653 15.766C34.2857 15.1771 34.6629 14.5585 34.9938 13.9151C35.0317 13.8419 35.0547 13.762 35.0616 13.6799C35.0684 13.5979 35.059 13.5152 35.0338 13.4368C35.0086 13.3584 34.9681 13.2857 34.9147 13.223C34.8614 13.1603 34.7961 13.1087 34.7227 13.0713C34.6493 13.0339 34.5693 13.0113 34.4872 13.005C34.405 12.9986 34.3225 13.0086 34.2442 13.0342C34.1659 13.0599 34.0935 13.1008 34.0311 13.1546C33.9687 13.2083 33.9175 13.2739 33.8806 13.3475C33.3211 14.4136 32.6394 15.4109 31.8493 16.3193C31.7954 16.3856 31.7554 16.462 31.7316 16.544C31.7079 16.6261 31.7009 16.7121 31.7111 16.7969C31.7213 16.8817 31.7485 16.9636 31.791 17.0376C31.8336 17.1117 31.8906 17.1765 31.9587 17.228C32.0445 17.2975 32.1485 17.3409 32.2583 17.3531C32.368 17.3653 32.479 17.3457 32.578 17.2968C33.1309 17.0624 33.7334 16.9692 34.3313 17.0257C34.9291 17.0821 35.5035 17.2865 36.0027 17.6203C35.0334 18.6385 32.2712 20.9628 28.4841 19.4122L28.3313 18.8191L30.5053 15.8222C30.6027 15.688 30.6427 15.5206 30.6167 15.3569C30.5907 15.1931 30.5006 15.0464 30.3665 14.9491C30.2323 14.8517 30.0649 14.8116 29.9011 14.8377C29.7374 14.8637 29.5907 14.9537 29.4933 15.0879L27.9264 17.2484L27.5721 15.8737L28.861 13.7015C28.9427 13.559 28.9651 13.3901 28.9233 13.2313C28.8815 13.0724 28.7789 12.9364 28.6376 12.8526C28.4963 12.7688 28.3278 12.744 28.1683 12.7835C28.0089 12.823 27.8714 12.9236 27.7856 13.0637L27.1319 14.1658L26.6613 12.3401C26.618 12.1817 26.5141 12.0467 26.372 11.9643C26.23 11.8819 26.0612 11.8586 25.9022 11.8996C25.7432 11.9406 25.6067 12.0424 25.5221 12.1832C25.4376 12.324 25.4118 12.4924 25.4504 12.652L25.9185 14.4681L24.8187 13.8193C24.6761 13.7388 24.5076 13.7175 24.3495 13.76C24.1914 13.8024 24.0562 13.9052 23.9731 14.0462C23.89 14.1872 23.8655 14.3553 23.9049 14.5142C23.9443 14.6731 24.0445 14.8102 24.184 14.896L26.3597 16.1798L26.7144 17.556L24.2974 16.4151C24.1481 16.3481 23.9784 16.3423 23.8248 16.399C23.6712 16.4558 23.546 16.5705 23.4762 16.7186C23.4063 16.8667 23.3973 17.0362 23.4511 17.1909C23.505 17.3455 23.6173 17.4728 23.764 17.5455L27.1201 19.1299L27.2735 19.7252C26.3307 20.9709 24.9461 21.8075 23.4049 22.0629C23.8984 18.3249 22.0727 16.3614 21.9891 16.2741C21.8975 16.1785 21.778 16.1144 21.6477 16.0911C21.5174 16.0677 21.3831 16.0863 21.264 16.1441C20.7221 16.4112 20.2046 16.7252 19.7175 17.0826C16.6306 15.052 16.1013 12.7499 16.026 11.7871C17.2091 11.5812 18.4234 11.6438 19.5792 11.9701C20.7349 12.2965 21.8025 12.8784 22.7032 13.6728C22.8206 13.7736 22.9712 13.8274 23.1259 13.8238C23.2806 13.8201 23.4285 13.7593 23.541 13.653C23.6535 13.5467 23.7227 13.4025 23.7351 13.2483C23.7475 13.094 23.7024 12.9406 23.6083 12.8177C21.4447 10.0925 23.0542 5.43792 23.7823 3.68927C25.2636 4.87427 28.9276 8.19153 28.352 11.5961C28.3289 11.7492 28.3635 11.9055 28.4489 12.0347C28.5343 12.1639 28.6646 12.2568 28.8146 12.2956C28.9645 12.3343 29.1235 12.3161 29.2609 12.2444C29.3982 12.1728 29.5041 12.0528 29.5581 11.9076C29.9627 10.7772 30.6161 9.7521 31.47 8.90803C32.3239 8.06396 33.3565 7.42247 34.4915 7.03094C35.029 8.33701 35.1111 9.78598 34.7247 11.1444C34.705 11.2241 34.7012 11.3069 34.7135 11.3881C34.7259 11.4692 34.7541 11.5472 34.7965 11.6174C34.839 11.6877 34.8949 11.7489 34.9611 11.7975C35.0272 11.8461 35.1023 11.8813 35.182 11.9009C35.2617 11.9205 35.3445 11.9242 35.4257 11.9118C35.5068 11.8994 35.5847 11.8711 35.6549 11.8286C35.7251 11.786 35.7863 11.7301 35.8349 11.6639C35.8834 11.5977 35.9185 11.5226 35.938 11.4429C36.7712 8.05572 35.3594 5.99518 35.299 5.90912C35.2224 5.80068 35.1133 5.71936 34.9875 5.67686C34.8617 5.63436 34.7256 5.63287 34.5989 5.67261C32.5211 6.28051 30.7124 7.57807 29.4708 9.3515C28.4942 5.43915 24.1161 2.35931 23.8934 2.2052C23.8184 2.15715 23.7343 2.12502 23.6464 2.11078C23.5584 2.09653 23.4685 2.10049 23.3822 2.1224C23.2958 2.14431 23.2149 2.18371 23.1444 2.23816C23.0739 2.29261 23.0154 2.36095 22.9723 2.43895C22.8515 2.68034 20.4894 7.47895 21.5386 11.3901C19.5958 10.4394 17.3873 10.1783 15.2764 10.6497C15.1462 10.6759 15.0278 10.7429 14.9383 10.841C14.8487 10.939 14.7927 11.0631 14.7784 11.1951C14.761 11.3528 14.4387 14.9138 18.7038 17.9034C17.8977 18.6591 17.2354 19.5549 16.7492 20.5472C15.2007 16.7987 10.3961 14.4418 10.1525 14.3243C10.0707 14.2879 9.98222 14.2688 9.89266 14.2683C9.80309 14.2677 9.7144 14.2858 9.63219 14.3214C9.54997 14.3569 9.47603 14.4091 9.41505 14.4747C9.35406 14.5403 9.30735 14.6179 9.27788 14.7025C8.8619 16.1066 8.60757 17.5537 8.51983 19.0155C8.51317 19.1795 8.5713 19.3395 8.68166 19.461C8.79203 19.5825 8.94576 19.6556 9.10963 19.6647C9.27351 19.6738 9.43437 19.618 9.55744 19.5094C9.68052 19.4008 9.75594 19.2482 9.76739 19.0844C9.83565 17.9789 10.0044 16.8819 10.2715 15.8069C11.914 16.7447 16.0363 19.451 15.9747 22.9452C15.9748 23.1003 16.0325 23.2498 16.1365 23.3648C16.2405 23.4797 16.3835 23.5521 16.5377 23.5677C16.692 23.5833 16.8466 23.5412 16.9715 23.4494C17.0965 23.3577 17.183 23.2228 17.2143 23.071C17.5749 21.1892 18.6077 19.5029 20.1202 18.3267C20.509 18.0177 20.9233 17.7421 21.3586 17.5027C22.979 19.8141 22.1945 23.9993 20.1432 27.0965C20.0726 27.2171 20.0442 27.3578 20.0624 27.4963C20.0807 27.6348 20.1445 27.7633 20.244 27.8615C20.3434 27.9597 20.4727 28.0219 20.6114 28.0384C20.7502 28.0549 20.8904 28.0247 21.0101 27.9525C21.5216 27.6381 22.1029 27.4551 22.7023 27.42C23.3017 27.3849 23.9004 27.4988 24.4451 27.7515C23.6405 28.9041 21.2589 31.6141 17.2837 30.6492L17.043 30.085L18.742 26.7953C18.8153 26.6483 18.8279 26.4783 18.7769 26.3222C18.7259 26.166 18.6154 26.0362 18.4694 25.9608C18.3235 25.8854 18.1537 25.8705 17.9968 25.9193C17.8399 25.9681 17.7085 26.0767 17.6311 26.2216L16.4067 28.5931L15.8495 27.2871L16.7974 24.9463C16.8575 24.7931 16.8547 24.6224 16.7897 24.4713C16.7247 24.3201 16.6027 24.2007 16.4502 24.1389C16.2977 24.0772 16.127 24.078 15.9752 24.1413C15.8233 24.2046 15.7025 24.3252 15.639 24.477L15.1577 25.6652L14.4177 23.9307C14.3523 23.7786 14.2293 23.6588 14.0756 23.5973C13.922 23.5358 13.7502 23.5378 13.598 23.6027C13.4458 23.6677 13.3256 23.7903 13.2637 23.9438C13.2018 24.0972 13.2032 24.269 13.2678 24.4214L14.0036 26.1464L12.8191 25.6702C12.6659 25.6109 12.4954 25.6143 12.3446 25.6798C12.1939 25.7452 12.075 25.8674 12.0137 26.0199C11.9524 26.1724 11.9536 26.3429 12.0171 26.4945C12.0806 26.6461 12.2012 26.7666 12.3529 26.8299L14.6973 27.7723L15.2551 29.0798L12.694 28.3151C12.5362 28.2707 12.3671 28.2902 12.2234 28.3692C12.0798 28.4483 11.9729 28.5807 11.926 28.7379C11.8791 28.8951 11.8958 29.0644 11.9726 29.2093C12.0493 29.3542 12.18 29.4632 12.3364 29.5126L15.8927 30.5747L16.1379 31.1495C16.019 31.3523 15.8943 31.5516 15.7543 31.748C13.659 34.6686 10.3857 34.5071 9.07953 34.303C9.27548 33.7339 9.60894 33.222 10.0503 32.8129C10.4916 32.4037 11.0272 32.1098 11.6094 31.9574C11.7471 31.9241 11.8694 31.845 11.9562 31.7331C12.043 31.6212 12.0893 31.4831 12.0873 31.3415C12.0854 31.1999 12.0355 31.0631 11.9456 30.9536C11.8558 30.8441 11.7315 30.7684 11.593 30.7388C5.41071 29.4168 4.09846 26.1816 3.82196 24.9817C4.95984 24.5995 6.16926 24.4788 7.36021 24.6288C8.55116 24.7787 9.69296 25.1952 10.7006 25.8475C10.8316 25.9336 10.9901 25.9673 11.1448 25.9419C11.2994 25.9166 11.4389 25.8341 11.5356 25.7108C11.6323 25.5874 11.6791 25.4323 11.6668 25.276C11.6545 25.1198 11.5839 24.9739 11.4691 24.8673C10.5566 23.9506 9.98891 22.7468 9.86201 21.4597C9.85014 21.3785 9.82241 21.3004 9.78037 21.2299C9.73834 21.1595 9.68284 21.098 9.61704 21.0489C9.55124 20.9999 9.47643 20.9643 9.39687 20.9442C9.31732 20.9241 9.23458 20.9199 9.15339 20.9317C9.07219 20.9436 8.99413 20.9713 8.92366 21.0134C8.85318 21.0554 8.79168 21.1109 8.74265 21.1767C8.69363 21.2425 8.65804 21.3173 8.63793 21.3969C8.61782 21.4764 8.61357 21.5591 8.62543 21.6403C8.72521 22.3701 8.92163 23.0834 9.20954 23.7613C7.14766 23.1136 4.92678 23.1867 2.91193 23.9685C2.78699 24.0139 2.67975 24.0978 2.60578 24.2082C2.5318 24.3186 2.49495 24.4498 2.50056 24.5825C2.5091 24.7928 2.78681 29.4135 9.64594 31.5253C9.10683 31.882 8.65502 32.3557 8.32407 32.911C7.99313 33.4663 7.79155 34.0891 7.73432 34.733C7.71993 34.8797 7.75794 35.0268 7.84161 35.1483C7.92528 35.2697 8.04922 35.3576 8.19148 35.3964C10.2875 35.8725 13.7779 35.7652 16.0316 33.3616L17.4468 37.4854C17.4753 37.5662 17.52 37.6404 17.5781 37.7034C17.6363 37.7664 17.7067 37.8168 17.7851 37.8517C17.8634 37.8865 17.948 37.905 18.0337 37.9059C18.1195 37.9069 18.2045 37.8904 18.2836 37.8573L20.6499 36.8478C20.7289 36.8135 20.8 36.7634 20.8588 36.7005C20.9177 36.6376 20.9629 36.5633 20.9918 36.4821C21.0207 36.401 21.0326 36.3148 21.0268 36.2289C21.0211 36.143 20.9977 36.0592 20.9582 35.9827L18.9262 32.1085C23.4825 32.1006 25.8229 27.9155 25.8495 27.8668C25.9199 27.7372 25.9421 27.5869 25.9122 27.4425C25.8824 27.298 25.8025 27.1688 25.6866 27.0776C25.1832 26.6738 24.5954 26.3885 23.9667 26.2429C23.3381 26.0972 22.6847 26.095 22.055 26.2363C22.5199 25.3172 22.8859 24.3514 23.1471 23.3551C24.4886 23.223 25.7667 22.7196 26.8379 21.9013L27.6177 26.1957C27.6337 26.28 27.6667 26.3601 27.7147 26.4311C27.7627 26.5022 27.8248 26.5627 27.897 26.6089C27.9693 26.6551 28.0502 26.6861 28.1348 26.6999C28.2195 26.7137 28.306 26.71 28.3892 26.6891L30.8807 26.0471C30.9639 26.025 31.0417 25.986 31.1092 25.9326C31.1767 25.8793 31.2326 25.8126 31.2733 25.7368C31.3141 25.6609 31.3388 25.5775 31.346 25.4917C31.3532 25.406 31.3428 25.3196 31.3152 25.238L29.888 21.1008C34.3969 21.7775 37.3393 17.9905 37.373 17.9462C37.4619 17.8286 37.5065 17.6834 37.4989 17.5362C37.4914 17.389 37.4321 17.2492 37.3315 17.1414ZM18.4112 36.4438L16.9522 32.2004C17.0853 31.96 17.1609 31.8645 17.4402 31.9667L19.5367 35.9637L18.4112 36.4438ZM29.9127 25.0058L28.728 25.311L27.926 20.8958C28.0929 20.6802 28.1809 20.5953 28.4404 20.7378L29.9127 25.0058Z" fill="white"/>
</svg>
