<svg width="41" height="40" viewBox="0 0 41 40" fill="none" xmlns="http://www.w3.org/2000/svg">
<g clip-path="url(#clip0_850_823)">
<path d="M31.3337 34.1837C31.2697 34.1854 31.2061 34.1735 31.147 34.1487C31.088 34.1239 31.0349 34.0869 30.9912 34.04C30.9475 33.9961 30.913 33.9439 30.8897 33.8865C30.8664 33.829 30.8548 33.7676 30.8556 33.7056C30.8556 33.6419 30.8631 33.5781 30.8875 33.5225C30.91 33.4646 30.9455 33.4126 30.9912 33.3706C31.1663 33.1875 31.485 33.1875 31.6681 33.3706C31.7121 33.4143 31.7475 33.4658 31.7725 33.5225C31.7956 33.5775 31.8044 33.6412 31.8044 33.7056C31.805 33.7676 31.7933 33.8291 31.7699 33.8865C31.7465 33.9439 31.7119 33.9961 31.6681 34.04C31.6248 34.085 31.5729 34.1209 31.5155 34.1456C31.458 34.1703 31.3963 34.1833 31.3337 34.1837ZM33.4925 31.475C33.5881 31.3869 33.6362 31.2681 33.6362 31.1406C33.6362 31.0131 33.5881 30.8856 33.4925 30.7981C33.4018 30.7134 33.2823 30.6663 33.1581 30.6663C33.034 30.6663 32.9145 30.7134 32.8237 30.7981C32.7281 30.885 32.6806 31.0131 32.6806 31.1406C32.6806 31.2681 32.7281 31.3875 32.8237 31.475C32.8631 31.5225 32.9194 31.5544 32.9756 31.5787C33.0319 31.6031 33.0944 31.6106 33.1588 31.6106C33.2206 31.6113 33.282 31.5997 33.3393 31.5764C33.3966 31.5531 33.4487 31.5186 33.4925 31.475ZM36.3531 25.0381C36.3986 24.9934 36.4347 24.9401 36.4593 24.8813C36.4839 24.8225 36.4964 24.7594 36.4963 24.6956C36.4969 24.6329 36.4861 24.5706 36.4644 24.5119C36.439 24.4559 36.4039 24.4049 36.3606 24.3612C36.2691 24.2747 36.1479 24.2265 36.0219 24.2265C35.8959 24.2265 35.7747 24.2747 35.6831 24.3612C35.5946 24.4504 35.5434 24.57 35.54 24.6956C35.5397 24.7899 35.5674 24.8822 35.6194 24.9608C35.6715 25.0395 35.7456 25.101 35.8325 25.1376C35.9194 25.1742 36.0152 25.1843 36.1079 25.1666C36.2005 25.1489 36.2858 25.1042 36.3531 25.0381ZM20.835 36.3425C20.9231 36.2469 20.9706 36.1269 20.9706 35.9994C20.9706 35.8719 20.9231 35.7525 20.835 35.665C20.7667 35.5989 20.6807 35.554 20.5875 35.5356C20.4942 35.5172 20.3977 35.5261 20.3094 35.5612C20.2519 35.5839 20.2004 35.6194 20.1588 35.665C20.0706 35.7531 20.015 35.8719 20.015 35.9994C20.0148 36.0622 20.0271 36.1245 20.051 36.1826C20.075 36.2407 20.1102 36.2935 20.1546 36.338C20.1991 36.3825 20.2518 36.4178 20.3099 36.4418C20.368 36.4659 20.4303 36.4782 20.4931 36.4781C20.6201 36.4777 20.7422 36.4292 20.835 36.3425ZM38.1294 23.6125C38.1872 23.5899 38.2392 23.5544 38.2812 23.5087C38.3273 23.4662 38.3639 23.4145 38.3885 23.3568C38.4132 23.2992 38.4254 23.237 38.4244 23.1744C38.4236 23.1113 38.4102 23.049 38.385 22.9912C38.3609 22.932 38.3256 22.8779 38.2812 22.8319C38.1056 22.6569 37.7875 22.6569 37.6038 22.8319C37.5644 22.88 37.5244 22.9275 37.5 22.9912C37.477 23.0494 37.4661 23.1118 37.4681 23.1744C37.4681 23.3019 37.5163 23.4212 37.6119 23.5087C37.6554 23.5535 37.7073 23.5892 37.7647 23.6138C37.8221 23.6383 37.8838 23.6513 37.9463 23.6519C38.0093 23.6513 38.0716 23.6379 38.1294 23.6125ZM34.3531 33.7131C34.398 33.6696 34.4338 33.6177 34.4584 33.5603C34.4831 33.5029 34.4962 33.4412 34.4969 33.3787C34.4949 33.2527 34.4432 33.1325 34.3531 33.0444C34.2625 32.9563 34.1411 32.907 34.0147 32.907C33.8883 32.907 33.7669 32.9563 33.6763 33.0444C33.6327 33.0884 33.5983 33.1406 33.575 33.198C33.5517 33.2554 33.54 33.3168 33.5406 33.3787C33.5404 33.4416 33.5526 33.5039 33.5765 33.562C33.6005 33.6201 33.6357 33.6729 33.6801 33.7174C33.7246 33.7618 33.7774 33.797 33.8355 33.821C33.8936 33.8449 33.9559 33.8571 34.0187 33.8569C34.0815 33.8578 34.1437 33.8454 34.2013 33.8207C34.2589 33.7959 34.3106 33.7592 34.3531 33.7131ZM18.2137 35.96C18.3094 35.8644 18.3575 35.745 18.3575 35.6175C18.3575 35.49 18.3019 35.37 18.2137 35.2831C18.0387 35.0994 17.72 35.0994 17.5362 35.2831C17.4487 35.37 17.4006 35.49 17.4006 35.6175C17.4006 35.745 17.4487 35.8644 17.5362 35.96C17.6319 36.0481 17.7512 36.0956 17.8787 36.0956C18.0063 36.0956 18.1262 36.0475 18.2137 35.96ZM27.5906 29.0612C27.6856 28.9656 27.7338 28.8462 27.7338 28.7187C27.7338 28.5912 27.6856 28.4719 27.5981 28.3844C27.4144 28.2006 27.0962 28.2006 26.9206 28.3844C26.8337 28.4725 26.7775 28.5912 26.7775 28.7187C26.7772 28.813 26.8049 28.9053 26.8569 28.984C26.909 29.0626 26.9831 29.1241 27.07 29.1607C27.1569 29.1973 27.2527 29.2074 27.3454 29.1897C27.438 29.172 27.5233 29.1273 27.5906 29.0612ZM15.9988 20.8912C15.9988 20.8284 15.9865 20.7662 15.9625 20.7082C15.9385 20.6501 15.9033 20.5974 15.8589 20.553C15.8145 20.5085 15.7617 20.4733 15.7037 20.4493C15.6456 20.4253 15.5834 20.413 15.5206 20.4131H0.978125C0.851318 20.4131 0.729705 20.4635 0.64004 20.5531C0.550374 20.6428 0.5 20.7644 0.5 20.8912C0.5 21.018 0.550374 21.1396 0.64004 21.2293C0.729705 21.319 0.851318 21.3694 0.978125 21.3694H15.5206C15.5834 21.3694 15.6456 21.3571 15.7037 21.3331C15.7617 21.3091 15.8145 21.2739 15.8589 21.2295C15.9033 21.1851 15.9385 21.1323 15.9625 21.0743C15.9865 21.0163 15.9988 20.954 15.9988 20.8912ZM13.035 22.4219C13.1618 22.4219 13.2834 22.4722 13.3731 22.5619C13.4628 22.6516 13.5131 22.7732 13.5131 22.9C13.5131 23.0268 13.4628 23.1484 13.3731 23.2381C13.2834 23.3277 13.1618 23.3781 13.035 23.3781H10.2669C10.1401 23.3781 10.0185 23.3277 9.92879 23.2381C9.83912 23.1484 9.78875 23.0268 9.78875 22.9C9.78875 22.7732 9.83912 22.6516 9.92879 22.5619C10.0185 22.4722 10.1401 22.4219 10.2669 22.4219H13.035ZM6.43937 25.9431C6.31273 25.9431 6.19128 25.8928 6.10173 25.8032C6.01218 25.7137 5.96187 25.5922 5.96187 25.4656C5.96187 25.339 6.01218 25.2175 6.10173 25.128C6.19128 25.0384 6.31273 24.9881 6.43937 24.9881H8.05C8.17664 24.9881 8.29809 25.0384 8.38764 25.128C8.47719 25.2175 8.5275 25.339 8.5275 25.4656C8.5275 25.5922 8.47719 25.7137 8.38764 25.8032C8.29809 25.8928 8.17664 25.9431 8.05 25.9431H6.43937ZM5.97437 29.0812C5.97437 28.8175 6.18813 28.6037 6.4525 28.6037H8.64125C8.76789 28.6037 8.88935 28.654 8.97889 28.7436C9.06844 28.8331 9.11875 28.9546 9.11875 29.0812C9.11875 29.2079 9.06844 29.3293 8.97889 29.4189C8.88935 29.5084 8.76789 29.5587 8.64125 29.5587H6.4525C6.38974 29.5588 6.32758 29.5465 6.26958 29.5226C6.21157 29.4986 6.15886 29.4634 6.11445 29.4191C6.07005 29.3747 6.03482 29.3221 6.01078 29.2641C5.98675 29.2061 5.97437 29.144 5.97437 29.0812ZM5.30875 23.3512C5.37295 23.3489 5.43696 23.3595 5.49696 23.3825C5.55696 23.4055 5.61171 23.4403 5.65795 23.4849C5.70419 23.5295 5.74097 23.583 5.76609 23.6421C5.79121 23.7012 5.80416 23.7648 5.80416 23.829C5.80416 23.8933 5.79121 23.9569 5.76609 24.016C5.74097 24.0751 5.70419 24.1286 5.65795 24.1732C5.61171 24.2178 5.55696 24.2526 5.49696 24.2756C5.43696 24.2985 5.37295 24.3092 5.30875 24.3069H4.3C4.17328 24.3069 4.05174 24.2565 3.96214 24.1669C3.87253 24.0773 3.82219 23.9558 3.82219 23.829C3.82219 23.7023 3.87253 23.5808 3.96214 23.4912C4.05174 23.4016 4.17328 23.3512 4.3 23.3512H5.30875ZM5.49125 30.6706C5.49125 30.7334 5.47888 30.7955 5.45484 30.8535C5.43081 30.9115 5.39558 30.9641 5.35117 31.0085C5.30677 31.0528 5.25405 31.088 5.19605 31.1119C5.13804 31.1359 5.07588 31.1482 5.01312 31.1481H3.71063C3.64792 31.1481 3.58583 31.1358 3.52789 31.1118C3.46996 31.0878 3.41732 31.0526 3.37298 31.0082C3.32864 30.9639 3.29347 30.9113 3.26947 30.8533C3.24548 30.7954 3.23313 30.7333 3.23313 30.6706C3.23313 30.6079 3.24548 30.5458 3.26947 30.4879C3.29347 30.4299 3.32864 30.3773 3.37298 30.333C3.41732 30.2886 3.46996 30.2534 3.52789 30.2295C3.58583 30.2055 3.64792 30.1931 3.71063 30.1931H5.01312C5.2775 30.1931 5.49125 30.4069 5.49125 30.6706ZM40.0438 17.865C37.368 17.7392 34.6865 17.8364 32.0269 18.1556L31.155 14.8894C31.1184 14.7711 31.0375 14.6717 30.9292 14.6118C30.8209 14.5519 30.6936 14.5363 30.5741 14.5683C30.4545 14.6002 30.352 14.6772 30.288 14.7831C30.2239 14.8889 30.2034 15.0155 30.2306 15.1362L32.1738 22.4144C32.1856 22.459 32.1839 22.5061 32.169 22.5497C32.1541 22.5934 32.1266 22.6317 32.09 22.6598C32.0534 22.6878 32.0093 22.7044 31.9632 22.7075C31.9172 22.7105 31.8713 22.6999 31.8313 22.6769C31.8046 22.6617 31.7814 22.6413 31.7628 22.6169C31.7442 22.5925 31.7307 22.5647 31.7231 22.535L29.3769 13.7469L30.1594 13.5375C30.3969 13.4736 30.6186 13.3611 30.8103 13.207C31.002 13.0529 31.1596 12.8607 31.2731 12.6425C31.2931 12.655 31.31 12.6719 31.3306 12.6837C31.5334 12.8017 31.7576 12.8783 31.9902 12.9091C32.2227 12.9399 32.4591 12.9242 32.6856 12.8631L33.7225 12.5862C33.9599 12.5223 34.1815 12.4097 34.373 12.2555C34.5645 12.1013 34.7219 11.9089 34.835 11.6906C34.8556 11.7037 34.8725 11.72 34.8931 11.7325C35.3056 11.9706 35.7844 12.0356 36.2481 11.9119L37.2837 11.635C37.5106 11.5754 37.7234 11.4713 37.9097 11.3287C38.096 11.1861 38.252 11.0078 38.3688 10.8044C38.4867 10.6018 38.5633 10.3778 38.5942 10.1455C38.625 9.91313 38.6096 9.67696 38.5487 9.4506L38.3994 8.88873C37.2456 4.56623 32.6769 1.96185 27.8994 2.70373L27.7219 2.03935C27.64 1.73487 27.4407 1.47528 27.1677 1.31747C26.8948 1.15966 26.5704 1.11651 26.2656 1.19748C25.9613 1.2794 25.7017 1.47855 25.5438 1.75134C25.3859 2.02414 25.3425 2.34838 25.4231 2.6531L25.6031 3.32748C21.14 5.08623 18.5144 9.59248 19.6606 13.8912L19.8106 14.4531C19.9341 14.9099 20.2334 15.2992 20.6431 15.536C21.0527 15.7728 21.5394 15.8378 21.9969 15.7169L23.0338 15.44C23.2711 15.3759 23.4925 15.2632 23.6841 15.109C23.8756 14.9548 24.033 14.7625 24.1462 14.5444C24.1669 14.5575 24.1837 14.5737 24.2044 14.5862C24.4072 14.7042 24.6313 14.7808 24.8639 14.8116C25.0965 14.8424 25.3329 14.8267 25.5594 14.7656L26.595 14.4887C26.8219 14.4291 27.0347 14.325 27.221 14.1824C27.4072 14.0398 27.5633 13.8616 27.68 13.6581C27.6919 13.6369 27.6987 13.6144 27.71 13.5931C27.9225 13.7275 28.1612 13.8194 28.4137 13.855L29.6562 18.5C28.2744 18.7319 26.9625 18.9944 25.7025 19.2544C23.2619 19.7575 20.9569 20.2331 18.2875 20.4137C18.1802 20.4215 18.0787 20.4651 17.9992 20.5377C17.9198 20.6102 17.8671 20.7073 17.8496 20.8135C17.8321 20.9196 17.8509 21.0285 17.9029 21.1227C17.9549 21.2168 18.0371 21.2907 18.1362 21.3325C18.735 21.5812 19.5331 21.845 20.3781 22.125C22.3819 22.7875 25.7362 23.8969 25.6513 24.8762C25.6038 25.4194 23.1619 25.8469 21.7031 26.1025C19.0969 26.5581 16.6356 26.9894 16.3706 28.435C16.1781 29.4719 17.4381 30.1169 18.6569 30.7406C19.1594 30.9975 20.3363 31.5994 20.31 31.8525C20.24 32.5 16.2012 33.0025 14.0319 33.2731C9.80875 33.7987 5.82 34.2962 5.44312 36.0837C5.26625 36.9075 5.8475 37.7569 7.27312 38.7569C7.37707 38.8294 7.50552 38.8579 7.63038 38.836C7.75524 38.8141 7.86634 38.7436 7.93937 38.64C7.97545 38.5886 8.00105 38.5306 8.01471 38.4694C8.02836 38.4081 8.0298 38.3448 8.01894 38.2829C8.00809 38.2211 7.98515 38.162 7.95144 38.1091C7.91774 38.0561 7.87392 38.0104 7.8225 37.9744C6.405 36.98 6.34 36.4612 6.37812 36.2831C6.615 35.1606 11.1494 34.5956 14.1506 34.2219C18.5956 33.6681 21.1175 33.29 21.2612 31.955C21.3569 31.0487 20.2569 30.4856 19.0931 29.8906C18.4487 29.5606 17.2488 28.9462 17.3113 28.6094C17.4563 27.8175 20.0062 27.3706 21.8687 27.045C24.4525 26.5931 26.4925 26.2362 26.6037 24.9606C26.7556 23.2275 23.6663 22.2062 20.6787 21.2181L20.4981 21.1587C22.3631 20.9212 24.0931 20.5644 25.8956 20.1925C27.175 19.9287 28.5044 19.6619 29.9038 19.4287L30.7994 22.7831C30.8813 23.0906 31.0781 23.3469 31.3531 23.5056C31.488 23.5846 31.6373 23.6359 31.7923 23.6564C31.9473 23.6769 32.1048 23.6662 32.2556 23.625C32.56 23.5431 32.8195 23.3439 32.9774 23.0711C33.1353 22.7983 33.1787 22.4741 33.0981 22.1694L32.2762 19.0919C34.8392 18.7919 37.4224 18.7016 40 18.8219C40.2962 18.8294 40.4875 18.6294 40.4994 18.3656C40.5053 18.2388 40.4607 18.1148 40.3752 18.021C40.2898 17.9271 40.1705 17.871 40.0438 17.865ZM33.4762 11.6631L32.44 11.94C32.3347 11.9684 32.2248 11.9756 32.1166 11.9612C32.0085 11.9468 31.9043 11.9111 31.81 11.8562C31.7157 11.8019 31.6331 11.7294 31.5671 11.6429C31.501 11.5564 31.4527 11.4577 31.425 11.3525L31.275 10.7906C30.6956 8.62185 29.9613 6.62873 29.2056 5.17935C28.9031 4.59873 28.6119 4.13935 28.3288 3.78185C30.6513 4.07248 32.9819 6.59498 33.9137 10.0869L34.0638 10.6475C34.1201 10.86 34.0899 11.0863 33.9798 11.2766C33.8697 11.467 33.6886 11.606 33.4762 11.6631ZM37.4762 9.13498L37.6256 9.69748C37.6831 9.91123 37.6538 10.1344 37.5431 10.3262C37.4887 10.4208 37.4161 10.5036 37.3294 10.5698C37.2427 10.636 37.1437 10.6843 37.0381 10.7119L36.0025 10.9887C35.8973 11.017 35.7875 11.0243 35.6795 11.0101C35.5714 10.9958 35.4673 10.9604 35.373 10.9058C35.2786 10.8512 35.196 10.7786 35.1299 10.692C35.0638 10.6054 35.0154 10.5066 34.9875 10.4012L34.8375 9.83998C34.0731 6.97935 32.415 4.71185 30.5088 3.5806C33.825 3.93123 36.6488 6.03498 37.4762 9.13498ZM26.3488 2.40685C26.3327 2.34701 26.3411 2.28325 26.372 2.22958C26.4029 2.17591 26.4539 2.13671 26.5138 2.1206C26.5735 2.10509 26.6369 2.1137 26.6904 2.14457C26.7438 2.17544 26.783 2.2261 26.7994 2.2856L26.9619 2.8931C26.9013 2.9081 26.6 2.99123 26.5119 3.01685L26.3488 2.40685ZM26.855 13.18C26.8006 13.2745 26.7279 13.3573 26.6412 13.4235C26.5545 13.4897 26.4555 13.538 26.35 13.5656L25.3144 13.8425C25.2091 13.8711 25.0993 13.8786 24.9911 13.8646C24.883 13.8505 24.7787 13.8151 24.6843 13.7605C24.5899 13.7059 24.5073 13.633 24.4412 13.5463C24.3752 13.4595 24.3269 13.3605 24.2994 13.255L24.1494 12.6944C23.5675 10.5169 23.6313 8.27873 24.3237 6.55373C24.3711 6.43612 24.3697 6.30453 24.32 6.18791C24.2703 6.07128 24.1764 5.97918 24.0588 5.93185C23.9411 5.88453 23.8096 5.88586 23.6929 5.93556C23.5763 5.98526 23.4842 6.07925 23.4369 6.19685C22.6688 8.10998 22.5919 10.5675 23.225 12.9406L23.375 13.5012C23.4313 13.7138 23.4011 13.94 23.291 14.1304C23.1809 14.3207 22.9999 14.4597 22.7875 14.5169L21.7512 14.7937C21.5388 14.8502 21.3125 14.8201 21.1222 14.7099C20.9319 14.5998 20.7931 14.4186 20.7362 14.2062L20.5863 13.6444C19.5719 9.8431 21.9075 5.85185 25.8775 4.2481C25.785 4.73123 25.7531 5.34248 25.7844 6.0931C25.8531 7.72623 26.2094 9.81998 26.7881 11.9881L26.9375 12.5469V12.5506C26.9956 12.765 26.9656 12.9881 26.855 13.18ZM27.8619 12.305L27.7125 11.7431C26.47 7.0906 26.6075 4.14123 27.0056 3.8631C27.007 3.86241 27.0085 3.86198 27.01 3.86185C27.5175 3.89623 29.1075 6.38373 30.35 11.0387L30.5 11.6006C30.5565 11.8131 30.5264 12.0393 30.4162 12.2296C30.3061 12.4199 30.1249 12.5587 29.9125 12.6156L28.8763 12.8925C28.6639 12.9484 28.4379 12.9181 28.2479 12.808C28.0578 12.6979 27.919 12.5171 27.8619 12.305Z" fill="white"/>
</g>
<defs>
<clipPath id="clip0_850_823">
<rect width="40" height="40" fill="white" transform="translate(0.5)"/>
</clipPath>
</defs>
</svg>
