<svg width="41" height="40" viewBox="0 0 41 40" fill="none" xmlns="http://www.w3.org/2000/svg">
<g clip-path="url(#clip0_3555_1571)">
<path d="M35.3607 12.8584C38.9272 13.3257 39.6838 16.1293 39.6838 20.6463V32.3282H1.31641V19.0888C1.31641 15.1948 3.3745 12.8584 6.17988 12.8584" stroke="white" stroke-linejoin="round"/>
<path d="M6.17988 12.8583H10.5029M10.5029 12.8583V8.18551C10.5029 7.66632 10.7191 6.62793 11.5838 6.62793C12.4483 6.62793 15.9068 6.62793 17.528 6.62793C17.8882 6.62793 18.6087 6.93945 18.6087 8.18551C18.6087 9.43158 18.7184 11.8199 18.7184 12.8583M10.5029 12.8583H18.7184M35.4704 12.8583H18.7184M1.31641 26.0977H39.1433M38.6029 32.328V38.5584H36.4415V32.328M2.39717 32.328V38.5584H4.55872V32.328" stroke="white" stroke-linejoin="round"/>
<path d="M22.3915 12.8586V8.18587C22.3915 7.66667 22.6077 6.62829 23.4723 6.62829C24.3369 6.62829 27.7954 6.62829 29.4166 6.62829C29.7768 6.62829 30.4973 6.9398 30.4973 8.18587C30.4973 9.43193 30.4973 11.8202 30.4973 12.8586M33.7396 12.8586V4.29192C33.7396 3.25353 33.3073 1.17676 31.5781 1.17676C29.8488 1.17676 16.087 1.17676 9.42227 1.17676C8.70178 1.43636 7.26074 2.42282 7.26074 4.29192C7.26074 6.16102 7.26074 10.7818 7.26074 12.8586" stroke="white" stroke-linejoin="round"/>
</g>
<defs>
<clipPath id="clip0_3555_1571">
<rect width="40" height="40" fill="white" transform="translate(0.5)"/>
</clipPath>
</defs>
</svg>
