<svg width="40" height="40" viewBox="0 0 40 40" fill="none" xmlns="http://www.w3.org/2000/svg">
<path d="M31.3389 24.4531H30.0625V21.9173C30.0593 21.2178 29.8139 20.541 29.3681 20.002C28.9223 19.4629 28.3037 19.0948 27.6172 18.9602C27.407 18.3211 27.0441 17.7428 26.56 17.2757C26.0758 16.8085 25.4849 16.4665 24.8387 16.2793C24.1924 16.0921 23.5102 16.0654 22.8513 16.2016C22.1924 16.3377 21.5766 16.6325 21.0574 17.0604C20.9362 15.964 20.5453 14.9148 19.9197 14.0064C19.294 13.098 18.4531 12.3587 17.472 11.8546L17.1295 3.90625H17.7384C17.841 3.90625 17.9426 3.88603 18.0374 3.84674C18.1322 3.80746 18.2184 3.74988 18.2909 3.67729C18.3635 3.6047 18.421 3.51853 18.4603 3.4237C18.4995 3.32887 18.5197 3.22724 18.5196 3.12461C18.5188 2.42053 18.2388 1.7455 17.741 1.24761C17.2432 0.74972 16.5682 0.469618 15.8641 0.46875H13.7556C13.0515 0.469618 12.3765 0.74972 11.8787 1.24761C11.3808 1.7455 11.1008 2.42053 11.1 3.12461C11.1 3.22724 11.1201 3.32887 11.1594 3.4237C11.1986 3.51853 11.2561 3.6047 11.3287 3.67729C11.4012 3.74988 11.4874 3.80746 11.5822 3.84674C11.677 3.88603 11.7786 3.90625 11.8813 3.90625H12.493L12.1401 11.8546C11.0418 12.4187 10.1207 13.2752 9.47842 14.3296C8.8361 15.384 8.49751 16.5953 8.50001 17.8299V35.6034C8.50537 36.2294 8.75654 36.8282 9.19937 37.2707C9.6422 37.7132 10.2412 37.9639 10.8672 37.9688H16.8188C16.9393 38.4151 17.2029 38.8096 17.5691 39.0918C17.9353 39.374 18.3839 39.5284 18.8462 39.5312H27.957C29.1054 39.5312 30.0625 38.6192 30.0625 37.4707V33.7534C31.1563 33.5398 32.1226 32.8727 32.8268 31.8221C33.552 30.7402 33.9688 29.2891 33.9688 27.8405V27.0617C33.9626 26.3681 33.6829 25.705 33.1904 25.2165C32.6979 24.728 32.0326 24.4537 31.3389 24.4531ZM21.5724 18.7805C21.8634 18.3618 22.2724 18.0392 22.7474 17.854C23.2224 17.6687 23.7419 17.6291 24.2394 17.7403C24.737 17.8515 25.1902 18.1083 25.5412 18.4781C25.8922 18.8479 26.1252 19.3139 26.2102 19.8166C26.244 20.0028 26.3433 20.1709 26.49 20.2905C26.6368 20.4101 26.8215 20.4733 27.0107 20.4688H27.0276C27.2763 20.4612 27.5222 20.5229 27.7378 20.6471C27.9533 20.7713 28.1301 20.953 28.2484 21.1719H26.7205C26.2891 21.1719 25.9219 21.4859 25.9219 21.9173V28.0997C25.9244 28.1144 25.9254 28.1293 25.9249 28.1442C25.9235 28.1502 25.9258 28.1559 25.9238 28.1617C25.9213 28.1688 25.9211 28.1758 25.9181 28.182C25.9155 28.1883 25.9125 28.1945 25.9092 28.2005C25.9065 28.2049 25.9043 28.2094 25.9014 28.2132C25.8962 28.2207 25.8904 28.2278 25.8842 28.2345C25.883 28.2356 25.8819 28.2372 25.881 28.2382C25.8517 28.2669 25.8142 28.2856 25.7737 28.2916C25.7621 28.2934 25.7505 28.2942 25.7388 28.294C25.733 28.294 25.7184 28.293 25.7127 28.2923C25.6617 28.2822 25.6157 28.2548 25.5826 28.2147C25.5495 28.1746 25.5314 28.1242 25.5313 28.0722V21.9173C25.5326 21.8176 25.5136 21.7186 25.4755 21.6264C25.4374 21.5341 25.381 21.4506 25.3096 21.3809C25.2382 21.3112 25.1534 21.2567 25.0603 21.2208C24.9673 21.1848 24.8678 21.1682 24.7681 21.1719H18.3438V20.2436C18.343 20.0537 18.3797 19.8656 18.4518 19.6899C18.5239 19.5142 18.6299 19.3545 18.7637 19.2198C18.8976 19.0852 19.0567 18.9783 19.232 18.9052C19.4073 18.8321 19.5952 18.7943 19.7851 18.794C19.8834 18.794 19.9815 18.8043 20.0777 18.8247C20.1113 18.8359 20.1457 18.8447 20.1805 18.8509C20.3026 18.886 20.4196 18.9371 20.5283 19.0028C20.698 19.1055 20.9004 19.1396 21.0944 19.0983C21.2883 19.057 21.4593 18.9433 21.5724 18.7805ZM16.7813 27.6323C16 27.0652 15.6106 26.3163 15.6106 25.5283C15.6106 24.7093 16 23.9445 16.7813 23.3798V27.6323ZM13.9468 6.48438H15.6758L15.8075 9.53125H13.8153L13.9468 6.48438ZM13.7556 2.03125H15.8641C16.161 2.03125 16.4306 2.10938 16.6277 2.34375H12.9922C13.1891 2.10938 13.4587 2.03125 13.7556 2.03125ZM15.5656 3.90625L15.6089 4.92188H14.0136L14.057 3.90625H15.5656ZM13.2163 13.0813C13.353 13.0219 13.4702 12.9253 13.5545 12.8024C13.6387 12.6796 13.6867 12.5355 13.6929 12.3866L13.7476 11.0938H15.8738L15.9285 12.3807C15.9346 12.5302 15.9825 12.6749 16.0668 12.7986C16.151 12.9222 16.2682 13.0197 16.4051 13.0801C17.2396 13.4266 17.9662 13.9904 18.5091 14.7127C19.0521 15.435 19.3918 16.2895 19.4928 17.1875H10.1297C10.2307 16.2898 10.5702 15.4355 11.113 14.7134C11.6558 13.9913 12.3821 13.4277 13.2163 13.0813ZM10.0625 35.6033V34.4531H13.6589C13.8661 34.4531 14.0648 34.3708 14.2113 34.2243C14.3579 34.0778 14.4402 33.8791 14.4402 33.6719C14.4402 33.4647 14.3579 33.266 14.2113 33.1194C14.0648 32.9729 13.8661 32.8906 13.6589 32.8906H10.0625V18.75H17.1751C16.9141 19.1406 16.7813 19.6905 16.7813 20.2436V21.5561C15.0625 22.3842 14.0481 23.8686 14.0481 25.5282C14.0481 27.1445 15.0625 28.6141 16.7813 29.4631V32.8906H15.9699C15.7627 32.8906 15.5639 32.9729 15.4174 33.1194C15.2709 33.266 15.1886 33.4647 15.1886 33.6719C15.1886 33.8791 15.2709 34.0778 15.4174 34.2243C15.5639 34.3708 15.7627 34.4531 15.9699 34.4531H16.7813V36.4062H10.8672C10.6555 36.4018 10.4536 36.3159 10.3037 36.1663C10.1538 36.0167 10.0674 35.815 10.0625 35.6033ZM27.957 37.9688H18.8462C18.78 37.9708 18.7141 37.9594 18.6525 37.9352C18.5909 37.9109 18.5349 37.8744 18.4878 37.8278C18.4408 37.7812 18.4038 37.7255 18.379 37.6641C18.3543 37.6027 18.3423 37.5369 18.3438 37.4707V35.5469H24.8424C25.0496 35.5469 25.2484 35.4646 25.3949 35.3181C25.5414 35.1715 25.6237 34.9728 25.6237 34.7656C25.6237 34.5584 25.5414 34.3597 25.3949 34.2132C25.2484 34.0667 25.0496 33.9844 24.8424 33.9844H18.3438V22.7344H23.9688V28.0997C23.971 28.4635 24.0855 28.8178 24.2965 29.1142C24.5075 29.4106 24.8048 29.6347 25.1479 29.7559C25.1496 29.7566 25.1557 29.7571 25.1576 29.7577C25.2081 29.7755 25.2619 29.7912 25.3144 29.8045C25.3183 29.8055 25.3234 29.8062 25.3274 29.8073C25.3787 29.8198 25.4313 29.8302 25.4842 29.838C25.4883 29.8387 25.4925 29.8391 25.4966 29.8396C25.5501 29.8474 25.6045 29.8526 25.6595 29.8552H25.6621C25.6791 29.856 25.6959 29.8494 25.7127 29.8497C25.7233 29.8497 25.7338 29.8438 25.7444 29.8438H25.7467C26.0185 29.8448 26.2868 29.7826 26.5304 29.6621C26.774 29.5416 26.9863 29.3661 27.1505 29.1495C27.1528 29.1462 27.1551 29.1445 27.1575 29.1416C27.1709 29.1234 27.1841 29.106 27.1966 29.0874C27.2044 29.0755 27.2122 29.064 27.22 29.0518C27.2267 29.0413 27.225 29.0312 27.2315 29.0205C27.4001 28.7432 27.4877 28.4242 27.4844 28.0997V22.7344H28.5V33.9844H27.1908C26.9836 33.9844 26.7849 34.0667 26.6384 34.2132C26.4919 34.3597 26.4095 34.5584 26.4095 34.7656C26.4095 34.9728 26.4919 35.1715 26.6384 35.3181C26.7849 35.4646 26.9836 35.5469 27.1908 35.5469H28.5V37.4707C28.5 37.7578 28.2438 37.9688 27.957 37.9688ZM32.4063 27.8405C32.4063 28.987 32.086 30.1211 31.529 30.9521C31.2292 31.3992 30.7656 31.9102 30.0625 32.1406V26.0156H31.3389C31.6183 26.0157 31.8865 26.1253 32.0861 26.3209C32.2856 26.5164 32.4005 26.7824 32.4063 27.0617V27.8405Z" fill="white"/>
</svg>
