<svg width="41" height="40" viewBox="0 0 41 40" fill="none" xmlns="http://www.w3.org/2000/svg">
<path d="M13.0262 35.625H11.75V36.875H13.0262V35.625Z" fill="white"/>
<path d="M38 33.1249H36.75V32.1874C36.7499 31.8273 36.6255 31.4783 36.3977 31.1994C36.1699 30.9205 35.8528 30.7288 35.5 30.6568V24.9999H34.25V25.6249H6.75V20.6249H10.5V21.8749C10.5025 22.3714 10.7008 22.8469 11.0519 23.198C11.403 23.5491 11.8785 23.7475 12.375 23.7499C12.8723 23.7499 13.3492 23.5524 13.7008 23.2007C14.0525 22.8491 14.25 22.3722 14.25 21.8749V20.6249H15.6131C15.7019 20.8862 15.8502 21.1233 16.0463 21.3174C16.2188 21.495 16.4255 21.6359 16.6538 21.7317C16.8821 21.8274 17.1274 21.8762 17.375 21.8749C17.7614 21.8733 18.1379 21.7524 18.4529 21.5286C18.768 21.3049 19.0062 20.9892 19.135 20.6249H25.5V23.7499C25.5025 24.2464 25.7008 24.7219 26.0519 25.073C26.403 25.4241 26.8785 25.6225 27.375 25.6249C27.8723 25.6249 28.3492 25.4274 28.7008 25.0757C29.0525 24.7241 29.25 24.2472 29.25 23.7499V20.6249H34.25V21.2499H35.5V11.2499C35.4988 10.858 35.3745 10.4764 35.1447 10.1589C34.915 9.84144 34.5913 9.60415 34.2194 9.48055C34.2373 9.34184 34.2475 9.20226 34.25 9.06242C34.25 7.12492 31.2694 4.24367 30.93 3.92117L30.5 3.51367L30.07 3.92117C29.7306 4.24367 26.75 7.12492 26.75 9.06242C26.75 9.16617 26.7644 9.27055 26.7731 9.37492H24.2269C24.2356 9.27055 24.25 9.16617 24.25 9.06242C24.25 7.12492 21.2694 4.24367 20.93 3.92117L20.5 3.51367L20.07 3.92117C19.7306 4.24367 16.75 7.12492 16.75 9.06242C16.75 9.16617 16.7644 9.27055 16.7731 9.37492H14.2269C14.2356 9.27055 14.25 9.16617 14.25 9.06242C14.25 7.12492 11.2694 4.24367 10.93 3.92117L10.5 3.51367L10.07 3.92117C9.73063 4.24367 6.75 7.12492 6.75 9.06242C6.75248 9.20226 6.7627 9.34184 6.78062 9.48055C6.40872 9.60415 6.08503 9.84144 5.85526 10.1589C5.62547 10.4764 5.50121 10.858 5.5 11.2499V30.6568C5.14718 30.7288 4.83006 30.9205 4.60229 31.1994C4.37452 31.4783 4.25007 31.8273 4.25 32.1874V33.1249H3C2.66848 33.1249 2.35054 33.2566 2.11612 33.491C1.8817 33.7255 1.75 34.0434 1.75 34.3749V35.6249C1.75 35.9564 1.8817 36.2744 2.11612 36.5088C2.35054 36.7432 2.66848 36.8749 3 36.8749H10.5V35.6249H3V34.3749H38V35.6249H14.2762V36.8749H38C38.3315 36.8749 38.6495 36.7432 38.8839 36.5088C39.1183 36.2744 39.25 35.9564 39.25 35.6249V34.3749C39.25 34.0434 39.1183 33.7255 38.8839 33.491C38.6495 33.2566 38.3315 33.1249 38 33.1249ZM14.25 19.3749V16.2499C14.2499 16.1666 14.2668 16.0842 14.2997 16.0077C14.3326 15.9311 14.3807 15.8622 14.4412 15.8049C14.4977 15.7472 14.5652 15.7015 14.6397 15.6706C14.7143 15.6396 14.7943 15.6241 14.875 15.6249C15.0408 15.6249 15.1997 15.6908 15.3169 15.808C15.4342 15.9252 15.5 16.0842 15.5 16.2499V19.3749H14.25ZM19.25 19.3749V15.9374C19.25 15.8545 19.2829 15.7751 19.3415 15.7165C19.4001 15.6578 19.4796 15.6249 19.5625 15.6249H25.1875C25.2704 15.6249 25.3499 15.6578 25.4085 15.7165C25.4671 15.7751 25.5 15.8545 25.5 15.9374V19.3749H19.25ZM34.25 19.3749H29.25V15.9374C29.25 15.8545 29.2829 15.7751 29.3415 15.7165C29.4001 15.6578 29.4796 15.6249 29.5625 15.6249H34.25V19.3749ZM28 9.06242C28 8.12992 29.3937 6.38992 30.5 5.25367C31.6069 6.3893 33 8.12867 33 9.06242C32.9997 9.16688 32.9932 9.27123 32.9806 9.37492H31.125V8.12492C31.125 7.95916 31.0592 7.80019 30.9419 7.68298C30.8247 7.56577 30.6658 7.49992 30.5 7.49992C30.3342 7.49992 30.1753 7.56577 30.0581 7.68298C29.9408 7.80019 29.875 7.95916 29.875 8.12492V9.37492H28.0194C28.0068 9.27123 28.0003 9.16688 28 9.06242ZM18 9.06242C18 8.12992 19.3937 6.38992 20.5 5.25367C21.6069 6.3893 23 8.12867 23 9.06242C22.9997 9.16688 22.9932 9.27123 22.9806 9.37492H21.125V8.12492C21.125 7.95916 21.0592 7.80019 20.9419 7.68298C20.8247 7.56577 20.6658 7.49992 20.5 7.49992C20.3342 7.49992 20.1753 7.56577 20.0581 7.68298C19.9408 7.80019 19.875 7.95916 19.875 8.12492V9.37492H18.0194C18.0068 9.27123 18.0003 9.16688 18 9.06242ZM10.5 5.25367C11.6069 6.3893 13 8.12867 13 9.06242C12.9997 9.16688 12.9932 9.27123 12.9806 9.37492H11.125V8.12492C11.125 7.95916 11.0592 7.80019 10.9419 7.68298C10.8247 7.56577 10.6658 7.49992 10.5 7.49992C10.3342 7.49992 10.1753 7.56577 10.0581 7.68298C9.94085 7.80019 9.875 7.95916 9.875 8.12492V9.37492H8.01937C8.00675 9.27123 8.00028 9.16688 8 9.06242C8 8.12992 9.39375 6.38992 10.5 5.25367ZM6.75 11.2499C6.75 11.0842 6.81585 10.9252 6.93306 10.808C7.05027 10.6908 7.20924 10.6249 7.375 10.6249H33.625C33.7908 10.6249 33.9497 10.6908 34.0669 10.808C34.1842 10.9252 34.25 11.0842 34.25 11.2499V14.3749H29.5625C29.1481 14.3749 28.7507 14.5395 28.4576 14.8326C28.1646 15.1256 28 15.523 28 15.9374V23.7499C28 23.9157 27.9342 24.0747 27.8169 24.1919C27.6997 24.3091 27.5408 24.3749 27.375 24.3749C27.2916 24.3751 27.209 24.3583 27.1324 24.3254C27.0558 24.2925 26.9867 24.2443 26.9294 24.1837C26.872 24.127 26.8266 24.0595 26.7958 23.985C26.765 23.9105 26.7494 23.8305 26.75 23.7499V15.9374C26.75 15.523 26.5854 15.1256 26.2924 14.8326C25.9993 14.5395 25.6019 14.3749 25.1875 14.3749H19.5625C19.1481 14.3749 18.7507 14.5395 18.4576 14.8326C18.1646 15.1256 18 15.523 18 15.9374V19.9999C18 20.1657 17.9342 20.3247 17.8169 20.4419C17.6997 20.5591 17.5408 20.6249 17.375 20.6249C17.2916 20.6251 17.209 20.6083 17.1324 20.5754C17.0558 20.5425 16.9867 20.4943 16.9294 20.4337C16.872 20.377 16.8266 20.3095 16.7958 20.235C16.765 20.1605 16.7494 20.0805 16.75 19.9999V16.2499C16.75 15.7526 16.5525 15.2757 16.2008 14.9241C15.8492 14.5725 15.3723 14.3749 14.875 14.3749C14.3786 14.3777 13.9033 14.5762 13.5523 14.9272C13.2012 15.2782 13.0028 15.7535 13 16.2499V21.8749C13 22.0407 12.9342 22.1997 12.8169 22.3169C12.6997 22.4341 12.5408 22.4999 12.375 22.4999C12.2916 22.5001 12.209 22.4833 12.1324 22.4504C12.0558 22.4175 11.9867 22.3693 11.9294 22.3087C11.872 22.252 11.8266 22.1845 11.7958 22.11C11.765 22.0355 11.7494 21.9555 11.75 21.8749V15.9374C11.75 15.523 11.5854 15.1256 11.2924 14.8326C10.9993 14.5395 10.6019 14.3749 10.1875 14.3749H6.75V11.2499ZM6.75 15.6249H10.1875C10.2704 15.6249 10.3499 15.6578 10.4085 15.7165C10.4671 15.7751 10.5 15.8545 10.5 15.9374V19.3749H6.75V15.6249ZM34.25 26.8749V30.6249H6.75V26.8749H34.25ZM5.5 33.1249V32.1874C5.5 32.1045 5.53292 32.0251 5.59153 31.9664C5.65013 31.9078 5.72962 31.8749 5.8125 31.8749H35.1875C35.2704 31.8749 35.3499 31.9078 35.4085 31.9664C35.4671 32.0251 35.5 32.1045 35.5 32.1874V33.1249H5.5Z" fill="white"/>
<path d="M35.5 22.5H34.25V23.75H35.5V22.5Z" fill="white"/>
<path d="M21.75 11.875H20.5V13.125H21.75V11.875Z" fill="white"/>
<path d="M31.75 11.25H30.5V12.5H31.75V11.25Z" fill="white"/>
<path d="M10.5 12.5H9.25V13.75H10.5V12.5Z" fill="white"/>
<path d="M19.875 23.125H18.625V24.375H19.875V23.125Z" fill="white"/>
<path d="M33 21.875H31.75V23.125H33V21.875Z" fill="white"/>
<path d="M9.25 21.875H8V23.125H9.25V21.875Z" fill="white"/>
<path d="M11.125 27.5H9.875V28.75H11.125V27.5Z" fill="white"/>
<path d="M22.375 28.125H21.125V29.375H22.375V28.125Z" fill="white"/>
<path d="M31.75 28.75H30.5V30H31.75V28.75Z" fill="white"/>
</svg>
