<svg width="40" height="40" viewBox="0 0 40 40" fill="none" xmlns="http://www.w3.org/2000/svg">
<path d="M2.64144 34.4581H37.3584C37.5586 34.4581 37.7505 34.3786 37.8921 34.237C38.0336 34.0955 38.1131 33.9035 38.1131 33.7034C38.1131 33.5032 38.0336 33.3113 37.8921 33.1697C37.7505 33.0282 37.5586 32.9487 37.3584 32.9487H36.9433C37.2029 32.5034 37.3622 31.9932 37.3622 31.4415V19.6302C37.3591 18.9806 37.1917 18.3424 36.8755 17.7749C36.5593 17.2075 36.1047 16.7293 35.5539 16.3849C35.221 16.1768 34.9463 15.8876 34.7557 15.5444C34.5651 15.2012 34.4647 14.8152 34.4641 14.4226V9.87696C34.9109 9.61432 35.215 9.13357 35.215 8.57885V7.0513C35.215 6.21885 34.538 5.54187 33.7056 5.54187H30.1509C29.3184 5.54187 28.6414 6.21885 28.6414 7.0513V8.57885C28.6414 9.13734 28.9486 9.61885 29.3999 9.87998V14.4234C29.398 14.8156 29.2971 15.201 29.1064 15.5438C28.9157 15.8866 28.6416 16.1756 28.3094 16.3841C27.7578 16.7278 27.3026 17.206 26.9864 17.7737C26.6702 18.3415 26.5035 18.9803 26.5018 19.6302V23.0641C26.502 23.1892 26.5332 23.3123 26.5928 23.4223C26.6523 23.5323 26.7383 23.6258 26.8429 23.6944C26.9475 23.7629 27.0676 23.8044 27.1922 23.8151C27.3168 23.8257 27.4422 23.8052 27.5569 23.7555C27.5871 23.7419 27.6097 23.7177 27.6384 23.7004C27.695 23.6664 27.7524 23.6332 27.7984 23.5856C27.8014 23.5826 27.806 23.5811 27.8097 23.5781H29.1048C29.8422 23.5781 30.5162 23.243 30.9048 22.6875C31.1894 22.289 31.5652 22.0611 31.935 22.0611C32.4354 22.0611 32.7984 22.4573 32.9622 22.6822C33.3546 23.243 34.0263 23.5773 34.7584 23.5773H35.8528V25.3283H34.7584C34.0263 25.3283 33.3546 25.6634 32.9705 26.2128C32.7984 26.449 32.4354 26.8453 31.935 26.8453C31.5652 26.8453 31.1894 26.6173 30.9086 26.2241C30.5161 25.6634 29.8422 25.329 29.1048 25.329H29.0143C28.8141 25.329 28.6221 25.4086 28.4806 25.5501C28.3391 25.6916 28.2595 25.8836 28.2595 26.0838C28.2595 26.2839 28.3391 26.4759 28.4806 26.6174C28.6221 26.759 28.8141 26.8385 29.0143 26.8385H29.1048C29.3501 26.8385 29.5614 26.9321 29.6761 27.0951C30.2475 27.8951 31.0709 28.3555 31.935 28.3555C32.8014 28.3555 33.6029 27.9094 34.1992 27.0898C34.3078 26.9343 34.5222 26.8385 34.7577 26.8385H35.852V31.4422C35.8513 31.8382 35.695 32.2179 35.4169 32.4997C35.1388 32.7815 34.7611 32.9427 34.3652 32.9487H29.4671V32.5887C29.4671 31.4883 28.7418 30.5653 27.7463 30.2438V30.1585C27.7463 25.7683 24.6701 22.0905 20.5614 21.1472V20.3622C20.5614 19.2226 19.6346 18.2943 18.4935 18.2943C17.9443 18.2941 17.4174 18.5117 17.0284 18.8993C16.6393 19.287 16.4198 19.813 16.418 20.3622V21.1502C12.4988 22.0521 9.49728 25.44 9.25049 29.6083C9.24457 29.7073 9.2582 29.8064 9.29061 29.9001C9.32303 29.9938 9.37358 30.0802 9.43939 30.1544C9.50521 30.2285 9.58498 30.289 9.67417 30.3323C9.76336 30.3756 9.8602 30.4009 9.95917 30.4068C10.1586 30.4165 10.3538 30.3477 10.503 30.215C10.6521 30.0824 10.7433 29.8965 10.7569 29.6973C11.0014 25.566 14.4618 22.4189 18.4882 22.4158L18.5471 22.4181C22.7328 22.4453 26.2128 25.8521 26.2377 30.1132H12.1471C11.9469 30.1132 11.755 30.1927 11.6134 30.3342C11.4719 30.4758 11.3924 30.6677 11.3924 30.8679C11.3924 31.0681 11.4719 31.26 11.6134 31.4016C11.755 31.5431 11.9469 31.6226 12.1471 31.6226H26.9924C27.5252 31.6226 27.9584 32.0566 27.9584 32.5887V32.9487H10.649C10.6263 32.9245 10.6112 32.8958 10.5856 32.8732L8.04144 30.6468V25.5811C10.286 25.0453 11.9697 22.1555 12.0746 18.4158V18.0694C12.0746 17.237 11.3977 16.56 10.5652 16.56H4.00823C3.17578 16.56 2.49879 17.237 2.49879 18.0694V18.437C2.60295 22.1577 4.28747 25.046 6.532 25.5811V30.6468L3.98861 32.8732C3.96219 32.8958 3.94634 32.9245 3.9237 32.9487H2.64144C2.44127 32.9487 2.24931 33.0282 2.10777 33.1697C1.96623 33.3113 1.88672 33.5032 1.88672 33.7034C1.88672 33.9035 1.96623 34.0955 2.10777 34.237C2.24931 34.3786 2.44127 34.4581 2.64144 34.4581ZM30.1509 7.0513L33.7056 7.04979V8.57885H30.1509V7.0513ZM34.7584 22.0679C34.5222 22.0679 34.3078 21.9713 34.1909 21.8053C33.6022 20.997 32.8022 20.5509 31.935 20.5509C31.0709 20.5509 30.2475 21.0105 29.6716 21.8166C29.5614 21.9743 29.3501 22.0679 29.1056 22.0679H28.0112V19.6302C28.0112 18.8355 28.4286 18.083 29.1041 17.6679C29.6542 17.323 30.1082 16.8447 30.4238 16.2773C30.7394 15.7099 30.9065 15.0719 30.9094 14.4226V10.0905H32.9546V14.4226C32.9546 15.7373 33.6467 16.9811 34.7599 17.6679C35.0927 17.8763 35.3674 18.1655 35.5585 18.5086C35.7496 18.8517 35.8508 19.2375 35.8528 19.6302V22.0679H34.7584ZM17.9282 20.9238V20.3622C17.9357 20.2182 17.9982 20.0824 18.1028 19.9831C18.2074 19.8838 18.3462 19.8284 18.4905 19.8284C18.6348 19.8284 18.7735 19.8838 18.8782 19.9831C18.9828 20.0824 19.0453 20.2182 19.0528 20.3622V20.9238C18.6783 20.9001 18.3027 20.9001 17.9282 20.9238ZM4.00747 18.4158V18.0694H10.5645V18.3955C10.4754 21.5789 9.00445 24.169 7.28596 24.169C5.56747 24.169 4.09653 21.5788 4.00747 18.4158ZM7.28672 31.9924L8.37955 32.9487H6.19313L7.28672 31.9924Z" fill="white"/>
<path d="M22.3458 27.0913C22.4074 27.1689 22.4837 27.2337 22.5704 27.2819C22.6571 27.33 22.7524 27.3606 22.8509 27.3719C22.9494 27.3832 23.0492 27.3751 23.1445 27.3478C23.2398 27.3206 23.3289 27.2748 23.4065 27.2132C23.4842 27.1515 23.5489 27.0752 23.5971 26.9885C23.6452 26.9019 23.6758 26.8065 23.6871 26.708C23.6985 26.6095 23.6903 26.5098 23.663 26.4144C23.6358 26.3191 23.59 26.2301 23.5284 26.1524C22.8383 25.2859 21.9392 24.6091 20.9156 24.1856C20.7305 24.1092 20.5227 24.1094 20.3378 24.1861C20.1528 24.2629 20.006 24.41 19.9295 24.5951C19.8531 24.7801 19.8532 24.988 19.93 25.1729C20.0068 25.3578 20.1539 25.5046 20.339 25.5811C21.1255 25.906 21.8156 26.4257 22.3458 27.0913Z" fill="white"/>
</svg>
