<svg width="16" height="17" viewBox="0 0 16 17" fill="none" xmlns="http://www.w3.org/2000/svg">
<path fillRule="evenodd" clipRule="evenodd" d="M6.539 3.45384C6.36933 3.52484 6.174 3.44484 6.103 3.27484C6.032 3.10517 6.11233 2.90984 6.282 2.83884C6.50967 2.7435 6.74967 2.6665 7 2.61017V2.1665C7 1.6145 7.448 1.1665 8 1.1665C8.552 1.1665 9 1.6145 9 2.1665V2.61017C10.7523 3.00517 12 4.40984 12 5.99984C12 6.55184 11.552 6.99984 11 6.99984C10.448 6.99984 10 6.55184 10 5.99984C10 5.41784 9.58333 4.9505 9 4.70017V7.61017C10.7523 8.00517 12 9.40984 12 10.9998C12 12.5898 10.7523 13.9945 9 14.3895V14.8332C9 15.3852 8.552 15.8332 8 15.8332C7.448 15.8332 7 15.3852 7 14.8332V14.3895C5.24767 13.9945 4 12.5898 4 10.9998C4 10.4478 4.448 9.99984 5 9.99984C5.552 9.99984 6 10.4478 6 10.9998C6 11.5818 6.41667 12.0492 7 12.2995V9.3895C5.24767 8.9945 4 7.58984 4 5.99984C4 5.73117 4.03533 5.46817 4.10267 5.21417C4.14967 5.0365 4.33233 4.93017 4.51033 4.9775C4.688 5.0245 4.79433 5.20717 4.747 5.38517C4.69433 5.5835 4.66667 5.7895 4.66667 5.99984C4.66667 7.3695 5.832 8.53817 7.38567 8.78517C7.54767 8.81084 7.66667 8.9505 7.66667 9.11417V12.7575C7.66667 12.8592 7.62033 12.9552 7.54067 13.0185C7.461 13.0818 7.357 13.1052 7.258 13.0822C6.147 12.8242 5.33333 12.0028 5.33333 10.9998C5.33333 10.8158 5.184 10.6665 5 10.6665C4.816 10.6665 4.66667 10.8158 4.66667 10.9998C4.66667 12.3695 5.832 13.5382 7.38567 13.7852C7.54767 13.8108 7.66667 13.9505 7.66667 14.1142V14.8332C7.66667 15.0172 7.816 15.1665 8 15.1665C8.184 15.1665 8.33333 15.0172 8.33333 14.8332V14.1142C8.33333 13.9505 8.45233 13.8108 8.61433 13.7852C10.168 13.5382 11.3333 12.3695 11.3333 10.9998C11.3333 9.63017 10.168 8.4615 8.61433 8.2145C8.45233 8.18884 8.33333 8.04917 8.33333 7.8855V4.24217C8.33333 4.1405 8.37967 4.0445 8.45933 3.98117C8.539 3.91784 8.643 3.8945 8.742 3.9175C9.853 4.1755 10.6667 4.99684 10.6667 5.99984C10.6667 6.18384 10.816 6.33317 11 6.33317C11.184 6.33317 11.3333 6.18384 11.3333 5.99984C11.3333 4.63017 10.168 3.4615 8.61433 3.2145C8.45233 3.18884 8.33333 3.04917 8.33333 2.8855V2.1665C8.33333 1.9825 8.184 1.83317 8 1.83317C7.816 1.83317 7.66667 1.9825 7.66667 2.1665V2.8855C7.66667 3.04917 7.54767 3.18884 7.38567 3.2145C7.087 3.26217 6.803 3.3435 6.539 3.45384ZM5.29967 4.3455C5.18067 4.48584 4.97 4.50284 4.83 4.38384C4.68967 4.26484 4.67267 4.05417 4.79167 3.91384C4.87567 3.81517 4.96567 3.71984 5.06133 3.62917C5.19467 3.5025 5.40533 3.5075 5.53267 3.64084C5.65933 3.77417 5.654 3.9855 5.52067 4.11217C5.44233 4.1865 5.36867 4.2645 5.29967 4.3455ZM7.66667 4.24217V7.7575C7.66667 7.85917 7.62033 7.95517 7.54067 8.0185C7.461 8.08184 7.357 8.10517 7.258 8.08217C6.147 7.82417 5.33333 7.00284 5.33333 5.99984C5.33333 4.99684 6.147 4.1755 7.258 3.9175C7.357 3.8945 7.461 3.91784 7.54067 3.98117C7.62033 4.0445 7.66667 4.1405 7.66667 4.24217ZM7 4.70017C6.41667 4.95084 6 5.41784 6 5.99984C6 6.58184 6.41667 7.04917 7 7.2995V4.70017ZM8.33333 12.7575V9.24217C8.33333 9.1405 8.37967 9.0445 8.45933 8.98117C8.539 8.91784 8.643 8.8945 8.742 8.9175C9.853 9.1755 10.6667 9.99684 10.6667 10.9998C10.6667 12.0028 9.853 12.8242 8.742 13.0822C8.643 13.1052 8.539 13.0818 8.45933 13.0185C8.37967 12.9552 8.33333 12.8592 8.33333 12.7575ZM9 12.2995C9.58333 12.0488 10 11.5818 10 10.9998C10 10.4178 9.58333 9.9505 9 9.70017V12.2995Z" fill="white"/>
</svg>
