<svg width="40" height="40" viewBox="0 0 40 40" fill="none" xmlns="http://www.w3.org/2000/svg">
<path d="M2.5411 31.723C2.33649 31.917 2.17345 32.1506 2.06187 32.4096C1.9503 32.6685 1.89252 32.9475 1.89205 33.2294C1.89205 35.3057 3.57808 36.9955 5.65054 36.9955H20.8053C21.0054 36.9955 21.1974 36.916 21.3389 36.7744C21.4805 36.6329 21.56 36.4409 21.56 36.2408C21.56 36.0406 21.4805 35.8486 21.3389 35.7071C21.1974 35.5655 21.0054 35.486 20.8053 35.486H5.65129C5.05399 35.4844 4.48172 35.2459 4.06007 34.8229C3.63842 34.3998 3.40183 33.8267 3.40224 33.2294C3.40224 33.1531 3.41727 33.0775 3.44647 33.007C3.47568 32.9365 3.51848 32.8725 3.57244 32.8185C3.62641 32.7645 3.69047 32.7217 3.76098 32.6925C3.83148 32.6633 3.90705 32.6483 3.98337 32.6483H20.2702C20.4703 32.6483 20.6623 32.5688 20.8038 32.4272C20.9454 32.2857 21.0249 32.0937 21.0249 31.8936C21.0249 31.6934 20.9454 31.5015 20.8038 31.3599C20.6623 31.2184 20.4703 31.1389 20.2702 31.1389H17.9607C18.1034 30.8392 18.2264 30.5275 18.3403 30.2347C18.5087 29.803 18.9011 28.7917 19.1305 28.7917C19.1441 28.7917 19.1547 28.7849 19.1675 28.7841H19.9154C20.1156 28.7841 20.3076 28.7046 20.4491 28.5631C20.5906 28.4216 20.6702 28.2296 20.6702 28.0294C20.6702 27.8293 20.5906 27.6373 20.4491 27.4958C20.3076 27.3542 20.1156 27.2747 19.9154 27.2747H4.32978C4.17684 27.267 4.03271 27.2008 3.92718 27.0899C3.82166 26.9789 3.76281 26.8316 3.76281 26.6785C3.76281 26.5254 3.82166 26.3781 3.92718 26.2671C4.03271 26.1561 4.17684 26.09 4.32978 26.0823H19.6732C19.8733 26.0823 20.0653 26.0027 20.2068 25.8612C20.3484 25.7197 20.4279 25.5277 20.4279 25.3275C20.4279 25.1274 20.3484 24.9354 20.2068 24.7939C20.0653 24.6523 19.8733 24.5728 19.6732 24.5728H4.0362C3.93729 24.573 3.83967 24.5503 3.75102 24.5064C3.66237 24.4626 3.58509 24.3988 3.52525 24.32C3.46996 24.2501 3.43181 24.1682 3.41386 24.081C3.3959 23.9937 3.39864 23.9034 3.42186 23.8174C4.48148 19.8672 8.47997 17.1087 13.1464 17.1087C15.1071 17.1087 16.9992 17.6038 18.6173 18.5396C18.7031 18.5893 18.7978 18.6215 18.8961 18.6346C18.9943 18.6476 19.0942 18.6412 19.19 18.6157C19.2857 18.5901 19.3755 18.546 19.4542 18.4857C19.5329 18.4255 19.599 18.3503 19.6487 18.2645C19.6983 18.1787 19.7306 18.084 19.7436 17.9858C19.7567 17.8875 19.7502 17.7877 19.7247 17.6919C19.6992 17.5961 19.655 17.5063 19.5947 17.4276C19.5345 17.3489 19.4593 17.2829 19.3736 17.2332C17.5253 16.1645 15.372 15.5992 13.1464 15.5992C7.79771 15.5992 3.19997 18.8181 1.96525 23.4241C1.88085 23.7334 1.86943 24.0581 1.9319 24.3726C1.99438 24.687 2.12903 24.9827 2.32525 25.2362C2.40224 25.3366 2.49356 25.4204 2.58412 25.5049C2.32844 25.8818 2.20354 26.3321 2.22863 26.7868C2.25372 27.2416 2.4274 27.6755 2.72299 28.0219C2.70488 28.0385 2.6845 28.0506 2.66714 28.0672C2.16738 28.5711 1.88644 29.2518 1.88525 29.9615C1.88525 30.6294 2.1328 31.2483 2.5411 31.723ZM13.929 30.2392C14.0422 30.5306 14.166 30.8408 14.3071 31.1389H11.96C12.1026 30.8392 12.2264 30.5275 12.3396 30.2347C12.5079 29.803 12.9011 28.7917 13.1305 28.7917C13.3645 28.7917 13.76 29.806 13.929 30.2392ZM10.9328 29.6883C10.7645 30.1223 10.3698 31.1389 10.1336 31.1389C9.89884 31.1389 9.50412 30.1223 9.33507 29.6883C9.22186 29.3955 9.09808 29.0845 8.95544 28.7841H11.3124C11.1705 29.0838 11.0468 29.3955 10.9328 29.6883ZM7.13808 28.7925C7.36752 28.7925 7.75997 29.8038 7.92827 30.2355C8.04148 30.5291 8.16525 30.8392 8.3079 31.1396H5.96525C6.10563 30.843 6.2294 30.5328 6.34639 30.2324C6.51469 29.8015 6.9079 28.7925 7.13808 28.7925ZM16.9328 29.6891C16.7645 30.123 16.369 31.1396 16.1343 31.1396C15.8996 31.1396 15.5041 30.1253 15.3351 29.6921C15.2203 29.3977 15.0966 29.086 14.9532 28.7849H17.3124C17.1698 29.0845 17.0468 29.3962 16.9328 29.6891ZM5.31846 28.7849C5.18172 29.0802 5.0556 29.3802 4.94035 29.6845C4.78412 30.0838 4.48073 30.8619 4.24827 31.0755C4.00395 31.0085 3.78823 30.8634 3.63399 30.6625C3.47975 30.4615 3.39545 30.2156 3.39393 29.9623C3.39393 29.32 3.92073 28.7849 4.5562 28.7849H5.31846Z" fill="white"/>
<path d="M15.751 21.7162C15.9511 21.7162 16.1431 21.6367 16.2846 21.4951C16.4262 21.3536 16.5057 21.1616 16.5057 20.9615C16.5057 20.7613 16.4262 20.5694 16.2846 20.4278C16.1431 20.2863 15.9511 20.2068 15.751 20.2068H14.6959C14.4957 20.2068 14.3037 20.2863 14.1622 20.4278C14.0207 20.5694 13.9411 20.7613 13.9411 20.9615C13.9411 21.1616 14.0207 21.3536 14.1622 21.4951C14.3037 21.6367 14.4957 21.7162 14.6959 21.7162H15.751ZM18.9095 21.852H17.8544C17.6542 21.852 17.4622 21.9316 17.3207 22.0731C17.1792 22.2146 17.0996 22.4066 17.0996 22.6068C17.0996 22.8069 17.1792 22.9989 17.3207 23.1404C17.4622 23.282 17.6542 23.3615 17.8544 23.3615H18.9095C19.1096 23.3615 19.3016 23.282 19.4431 23.1404C19.5847 22.9989 19.6642 22.8069 19.6642 22.6068C19.6642 22.4066 19.5847 22.2146 19.4431 22.0731C19.3016 21.9316 19.1096 21.852 18.9095 21.852ZM11.5374 20.0709H12.5925C12.7926 20.0709 12.9846 19.9914 13.1261 19.8499C13.2677 19.7083 13.3472 19.5164 13.3472 19.3162C13.3472 19.116 13.2677 18.9241 13.1261 18.7825C12.9846 18.641 12.7926 18.5615 12.5925 18.5615H11.5374C11.3372 18.5615 11.1452 18.641 11.0037 18.7825C10.8622 18.9241 10.7827 19.116 10.7827 19.3162C10.7827 19.5164 10.8622 19.7083 11.0037 19.8499C11.1452 19.9914 11.3372 20.0709 11.5374 20.0709ZM7.12605 22.1524C6.92589 22.1524 6.73393 22.2319 6.59239 22.3735C6.45085 22.515 6.37134 22.707 6.37134 22.9071C6.37134 23.1073 6.45085 23.2993 6.59239 23.4408C6.73393 23.5823 6.92589 23.6619 7.12605 23.6619H8.1819C8.38207 23.6619 8.57403 23.5823 8.71557 23.4408C8.85711 23.2993 8.93662 23.1073 8.93662 22.9071C8.93662 22.707 8.85711 22.515 8.71557 22.3735C8.57403 22.2319 8.38207 22.1524 8.1819 22.1524H7.12605ZM10.1351 20.5773H9.86945C9.66929 20.5773 9.47732 20.6568 9.33579 20.7984C9.19425 20.9399 9.11473 21.1319 9.11473 21.332C9.11473 21.5322 9.19425 21.7242 9.33579 21.8657C9.47732 22.0072 9.66929 22.0868 9.86945 22.0868H10.1351C10.3353 22.0868 10.5272 22.0072 10.6688 21.8657C10.8103 21.7242 10.8898 21.5322 10.8898 21.332C10.8898 21.1319 10.8103 20.9399 10.6688 20.7984C10.5272 20.6568 10.3353 20.5773 10.1351 20.5773ZM12.8264 23.7954H13.8815C14.0817 23.7954 14.2737 23.7159 14.4152 23.5744C14.5567 23.4329 14.6362 23.2409 14.6362 23.0407C14.6362 22.8406 14.5567 22.6486 14.4152 22.5071C14.2737 22.3655 14.0817 22.286 13.8815 22.286H12.8264C12.6263 22.286 12.4343 22.3655 12.2928 22.5071C12.1512 22.6486 12.0717 22.8406 12.0717 23.0407C12.0717 23.2409 12.1512 23.4329 12.2928 23.5744C12.4343 23.7159 12.6263 23.7954 12.8264 23.7954ZM35.8513 11.7328H28.6136L27.1072 4.33355C27.0525 4.06288 26.931 3.81018 26.7537 3.59848C26.5764 3.38677 26.349 3.22279 26.0921 3.12148C25.8354 3.01936 25.5572 2.98306 25.2829 3.01588C25.0086 3.04871 24.7469 3.14961 24.5215 3.3094L21.3744 5.53355C21.2153 5.65076 21.1086 5.82566 21.0771 6.02068C21.0456 6.2157 21.0918 6.41531 21.2058 6.57664C21.3198 6.73798 21.4925 6.84818 21.6869 6.88358C21.8812 6.91899 22.0817 6.87677 22.2453 6.76601L25.3925 4.54186C25.4128 4.52667 25.4367 4.51708 25.4619 4.51404C25.487 4.51099 25.5125 4.5146 25.5359 4.5245C25.5595 4.53341 25.5804 4.54833 25.5966 4.56778C25.6127 4.58723 25.6235 4.61055 25.6279 4.63544L27.0725 11.7328H22.0151C20.7668 11.7328 19.751 12.7479 19.751 13.997C19.751 14.9207 20.3095 15.7147 21.1042 16.0664C22.9162 36.0302 21.1645 16.7502 22.8174 34.9328C22.8702 35.4949 23.1301 36.0173 23.5466 36.3985C23.963 36.7797 24.5064 36.9925 25.071 36.9954H32.7917C33.954 36.9954 34.9442 36.0898 35.0453 34.9358L36.7653 16.0649C37.1665 15.888 37.5078 15.5985 37.7476 15.2314C37.9874 14.8643 38.1155 14.4354 38.1162 13.997C38.1162 12.7479 37.1004 11.7328 35.8521 11.7328H35.8513ZM22.0144 13.2422H35.8513C36.0515 13.2422 36.2435 13.3217 36.385 13.4633C36.5265 13.6048 36.6061 13.7968 36.6061 13.997C36.6061 14.1971 36.5265 14.3891 36.385 14.5306C36.2435 14.6722 36.0515 14.7517 35.8513 14.7517H22.0144C21.5985 14.7517 21.2596 14.412 21.2596 13.997C21.2596 13.5819 21.5985 13.2422 22.0144 13.2422ZM23.4596 25.32H25.2128C25.9819 25.32 26.7072 24.8815 27.1049 24.1803C27.5321 23.4385 28.2159 22.9954 28.9344 22.9954C29.6528 22.9954 30.3359 23.4385 30.7608 24.1751C31.1608 24.8815 31.8861 25.32 32.6551 25.32H34.4023L34.3042 26.4068H32.6544C31.8861 26.4068 31.16 26.8453 30.7623 27.5494C30.3359 28.2943 29.6528 28.7388 28.9344 28.7388C28.2151 28.7388 27.5321 28.2936 27.1079 27.5524C26.7079 26.8453 25.9819 26.4068 25.2136 26.4068H23.5578L23.4596 25.32ZM32.6544 23.8105C32.4287 23.8105 32.2068 23.6656 32.071 23.4264C31.3713 22.2113 30.1985 21.4868 28.9344 21.4868C27.6695 21.4868 26.4966 22.2113 25.7947 23.4317C25.6619 23.6656 25.4393 23.8105 25.2136 23.8105H23.3223L22.637 16.2634H35.2302L34.5427 23.8105H32.6544ZM32.7902 35.486H25.0695C24.683 35.486 24.3532 35.1856 24.32 34.7992L23.6951 27.9162H25.2128C25.4393 27.9162 25.6619 28.0619 25.7955 28.2981C26.4936 29.5192 27.6672 30.2483 28.9344 30.2483C30.2008 30.2483 31.3744 29.5192 32.074 28.2958C32.2068 28.0619 32.4287 27.9162 32.6551 27.9162H34.1683L33.5411 34.8015C33.5232 34.9883 33.4365 35.1617 33.2979 35.2882C33.1593 35.4147 32.9786 35.4852 32.791 35.486H32.7902Z" fill="white"/>
</svg>
