<svg width="41" height="40" viewBox="0 0 41 40" fill="none" xmlns="http://www.w3.org/2000/svg">
<path d="M12.9996 17.0562C12.9205 17.0564 12.842 17.0415 12.7684 17.0124C12.692 16.9821 12.6224 16.937 12.5634 16.8798C12.5045 16.8225 12.4574 16.7542 12.4249 16.6787C12.3924 16.6033 12.3751 16.5221 12.374 16.44C12.3729 16.3578 12.3879 16.2762 12.4184 16.1999L12.4621 16.0749C12.4857 16.0218 12.5065 15.9676 12.5246 15.9124C12.555 15.8361 12.6001 15.7665 12.6574 15.7076C12.7146 15.6487 12.783 15.6016 12.8584 15.5691C12.9339 15.5366 13.015 15.5193 13.0971 15.5182C13.1792 15.517 13.2608 15.5321 13.3371 15.5624C13.4135 15.5928 13.4831 15.6379 13.542 15.6952C13.6009 15.7524 13.6479 15.8207 13.6804 15.8962C13.7129 15.9716 13.7302 16.0527 13.7314 16.1349C13.7325 16.217 13.7175 16.2986 13.6871 16.3749L13.6434 16.4999C13.6198 16.553 13.599 16.6072 13.5809 16.6624C13.5346 16.7787 13.4544 16.8784 13.3508 16.9486C13.2471 17.0188 13.1248 17.0563 12.9996 17.0562ZM11.4246 38.0187H11.3246C11.2262 38.0033 11.1329 37.9647 11.0525 37.906C10.972 37.8473 10.9068 37.7702 10.8621 37.6812L9.93089 35.8062C9.87255 35.7079 9.84229 35.5955 9.84339 35.4812C9.84339 35.3154 9.90924 35.1564 10.0264 35.0392C10.1437 34.922 10.3026 34.8562 10.4684 34.8562C10.5849 34.8554 10.6993 34.8871 10.7986 34.9479C10.898 35.0086 10.9785 35.0959 11.0309 35.1999L11.5934 36.3437L11.8059 36.1312C12.1948 35.7448 12.4812 35.2676 12.6395 34.7427C12.7977 34.2179 12.8227 33.6619 12.7121 33.1249L12.1996 30.5499C12.1399 30.2305 12.1565 29.9014 12.2481 29.5896C12.3397 29.2778 12.5037 28.9921 12.7267 28.7557C12.9497 28.5193 13.2254 28.3389 13.5313 28.2293C13.8373 28.1197 14.1648 28.0839 14.4871 28.1249C17.3067 28.3738 20.1476 28.0681 22.8496 27.2249C24.4021 26.7786 25.8959 26.1492 27.2996 25.3499C28.4981 24.6637 29.6012 23.8232 30.5809 22.8499C31.4137 22.0213 32.1905 21.1381 32.9059 20.2062C33.3059 19.6687 33.6746 19.1312 33.9996 18.6187C34.9966 17.0832 35.7335 15.3939 36.1809 13.6187C36.1941 13.5335 36.2248 13.4519 36.2711 13.3792C36.3174 13.3064 36.3782 13.244 36.4497 13.1959C36.5213 13.1478 36.602 13.115 36.6869 13.0996C36.7717 13.0842 36.8588 13.0865 36.9427 13.1064C37.0266 13.1263 37.1055 13.1633 37.1744 13.2152C37.2432 13.267 37.3007 13.3326 37.343 13.4077C37.3853 13.4828 37.4117 13.5659 37.4203 13.6517C37.429 13.7374 37.4198 13.8241 37.3934 13.9062C36.9176 15.8101 36.1298 17.6221 35.0621 19.2687C34.7184 19.8187 34.3246 20.3812 33.8996 20.9499C33.1486 21.9253 32.3366 22.8522 31.4684 23.7249C30.4096 24.7735 29.2183 25.6791 27.9246 26.4187C26.4374 27.2734 24.8532 27.9469 23.2059 28.4249C20.3364 29.321 17.3187 29.6438 14.3246 29.3749C14.1967 29.3598 14.067 29.3751 13.946 29.4195C13.8251 29.464 13.7163 29.5363 13.6286 29.6307C13.5409 29.7251 13.4767 29.8389 13.4413 29.9628C13.4058 30.0867 13.4001 30.2172 13.4246 30.3437L13.9371 32.9249C14.0856 33.6593 14.049 34.4191 13.8308 35.1359C13.6126 35.8527 13.2196 36.504 12.6871 37.0312L11.8684 37.8562C11.7474 37.9663 11.5881 38.0247 11.4246 38.0187ZM9.34964 33.8687C9.23422 33.8683 9.12116 33.836 9.02297 33.7753C8.92479 33.7147 8.84533 33.628 8.79339 33.5249L8.16839 32.3187L2.80589 29.6312C2.71762 29.5871 2.64103 29.5229 2.58237 29.4436C2.52371 29.3643 2.48465 29.2722 2.46839 29.1749C2.45304 29.0764 2.46148 28.9756 2.49301 28.881C2.52454 28.7864 2.57825 28.7008 2.64964 28.6312L3.49964 27.8062C4.02616 27.2747 4.6764 26.8823 5.392 26.6641C6.1076 26.4459 6.86617 26.4088 7.59964 26.5562L10.1684 27.0687C10.2936 27.0921 10.4226 27.0857 10.5449 27.0501C10.6672 27.0145 10.7794 26.9506 10.8725 26.8636C10.9656 26.7766 11.0369 26.669 11.0807 26.5493C11.1245 26.4297 11.1396 26.3014 11.1246 26.1749C10.8938 23.6328 11.1053 21.0699 11.7496 18.5999C11.7674 18.5193 11.8009 18.443 11.8483 18.3754C11.8956 18.3078 11.9559 18.2503 12.0257 18.2061C12.0954 18.162 12.1732 18.132 12.2545 18.1181C12.3359 18.1042 12.4192 18.1065 12.4996 18.1249C12.6604 18.1648 12.7987 18.2669 12.8842 18.4087C12.9698 18.5504 12.9955 18.7204 12.9559 18.8812C12.3493 21.2064 12.1526 23.6196 12.3746 26.0124C12.4164 26.3267 12.3851 26.6464 12.2832 26.9467C12.1813 27.247 12.0116 27.5197 11.7871 27.7437C11.5438 27.9825 11.2457 28.158 10.9188 28.255C10.592 28.3519 10.2463 28.3674 9.91214 28.2999L7.37464 27.7874C6.84248 27.6812 6.29231 27.7084 5.7732 27.8665C5.2541 28.0246 4.78221 28.3088 4.39964 28.6937L4.18089 28.9062L8.94964 31.2937C9.06987 31.3515 9.16685 31.4484 9.22464 31.5687L9.92464 32.9624C9.99877 33.11 10.0115 33.281 9.95993 33.4379C9.9084 33.5948 9.79684 33.725 9.64964 33.7999C9.55763 33.8494 9.454 33.8731 9.34964 33.8687ZM14.1184 14.4749C14.0203 14.4761 13.9236 14.4524 13.8371 14.4062C13.6899 14.3312 13.5784 14.2011 13.5269 14.0442C13.4753 13.8872 13.488 13.7163 13.5621 13.5687C13.7246 13.2374 13.9059 12.9062 14.0934 12.5812C14.8313 11.2845 15.737 10.0909 16.7871 9.03117C17.6576 8.16484 18.5824 7.35487 19.5559 6.60617C20.1309 6.17492 20.6934 5.78742 21.2434 5.43742C26.6559 2.01867 32.2246 1.87492 35.4246 5.07492C36.2217 5.89993 36.8387 6.88141 37.2368 7.95724C37.6348 9.03307 37.8052 10.1798 37.7371 11.3249C37.7371 11.4907 37.6713 11.6497 37.5541 11.7669C37.4369 11.8841 37.2779 11.9499 37.1121 11.9499C36.9464 11.9499 36.7874 11.8841 36.6702 11.7669C36.553 11.6497 36.4871 11.4907 36.4871 11.3249C36.5501 10.3496 36.4093 9.37184 36.0735 8.45396C35.7378 7.53607 35.2146 6.69818 34.5371 5.99367C31.7496 3.18742 26.8059 3.39992 21.9059 6.49992C21.3934 6.82492 20.8559 7.19367 20.3121 7.59992C19.3838 8.31508 18.5028 9.08962 17.6746 9.91867C16.7007 10.8978 15.8602 12.0011 15.1746 13.1999C14.9996 13.5062 14.8309 13.8249 14.6684 14.1312C14.6169 14.2333 14.5384 14.3194 14.4415 14.38C14.3445 14.4406 14.2327 14.4734 14.1184 14.4749Z" fill="white"/>
<path d="M14.6313 13.5125C14.5355 13.5109 14.4415 13.4874 14.3563 13.4437L10.7563 11.65C10.4483 11.4976 10.1811 11.2741 9.97675 10.9978C9.77241 10.7216 9.63682 10.4007 9.58123 10.0616C9.52564 9.72258 9.55163 9.37516 9.65707 9.04815C9.7625 8.72114 9.94434 8.42396 10.1875 8.18123C11.4759 6.88959 13.1382 6.03632 14.9387 5.7424C16.7392 5.44849 18.5865 5.72885 20.2188 6.54373C20.3138 6.59112 20.3951 6.66192 20.4552 6.74947C20.5152 6.83701 20.552 6.93841 20.562 7.04409C20.572 7.14978 20.5549 7.25627 20.5124 7.35353C20.4698 7.45079 20.4032 7.5356 20.3188 7.59998C19.3871 8.31348 18.5039 9.0881 17.675 9.91873C16.7008 10.8976 15.8602 12.0009 15.175 13.2C15.1199 13.2954 15.0407 13.3745 14.9452 13.4294C14.8497 13.4842 14.7414 13.5129 14.6313 13.5125ZM16.3375 6.87498C14.3616 6.87524 12.4666 7.65976 11.0688 9.05623C10.9673 9.15951 10.8913 9.28502 10.8468 9.42281C10.8023 9.5606 10.7906 9.70686 10.8125 9.84998C10.8352 9.99449 10.8925 10.1314 10.9796 10.2489C11.0666 10.3665 11.1809 10.4612 11.3125 10.525L14.3938 12.0625C15.0731 10.9619 15.8762 9.94276 16.7875 9.02498C17.4125 8.39998 18.0375 7.81873 18.725 7.26248C17.9554 7.00499 17.1491 6.87412 16.3375 6.87498ZM30.7938 30.9437C30.3907 30.9457 29.9951 30.8349 29.6517 30.624C29.3082 30.4131 29.0306 30.1103 28.85 29.75L27.05 26.1437C26.9778 26.0004 26.9635 25.8348 27.01 25.6812C27.0566 25.5276 27.1604 25.3979 27.3 25.3187C28.4999 24.6348 29.6034 23.7941 30.5813 22.8187C31.4141 21.9901 32.1908 21.1069 32.9063 20.175C32.9711 20.0908 33.0564 20.0246 33.1539 19.9825C33.2515 19.9404 33.3582 19.9239 33.4639 19.9346C33.5696 19.9452 33.6709 19.9826 33.7581 20.0433C33.8454 20.1039 33.9157 20.1858 33.9625 20.2812C34.5078 21.3602 34.8188 22.5423 34.875 23.75C34.8833 23.9157 34.8254 24.078 34.714 24.2011C34.6027 24.3241 34.447 24.3979 34.2813 24.4062C34.1155 24.4145 33.9532 24.3566 33.8302 24.2453C33.7071 24.1339 33.6333 23.9782 33.625 23.8125C33.5946 23.1295 33.4683 22.4541 33.25 21.8062C32.6938 22.475 32.1063 23.125 31.4875 23.7437C30.5692 24.6526 29.5501 25.4537 28.45 26.1312L29.9875 29.2562C30.058 29.3805 30.1556 29.4873 30.2731 29.5687C30.3906 29.65 30.525 29.7038 30.6661 29.726C30.8073 29.7483 30.9516 29.7383 31.0885 29.697C31.2253 29.6557 31.351 29.5841 31.4563 29.4875C32.3874 28.5582 33.0541 27.3976 33.3875 26.125C33.4298 25.9642 33.5342 25.8268 33.6778 25.743C33.8214 25.6592 33.9923 25.6358 34.1531 25.6781C34.3139 25.7204 34.4513 25.8248 34.5351 25.9684C34.6189 26.1119 34.6423 26.2829 34.6 26.4437C34.2063 27.9296 33.4281 29.2855 32.3438 30.375C31.9219 30.7609 31.3651 30.9652 30.7938 30.9437ZM34.5063 17.0625C33.0529 17.0641 31.6137 16.7778 30.2716 16.2199C28.9296 15.6621 27.7115 14.8439 26.6875 13.8125C26.5698 13.6948 26.5037 13.5352 26.5037 13.3687C26.5037 13.2023 26.5698 13.0427 26.6875 12.925C26.8052 12.8073 26.9648 12.7412 27.1313 12.7412C27.2977 12.7412 27.4573 12.8073 27.575 12.925C28.6389 13.9994 29.938 14.8118 31.3699 15.2977C32.8017 15.7837 34.3269 15.9299 35.825 15.725C35.9908 15.7034 36.1583 15.7486 36.2907 15.8506C36.4232 15.9526 36.5097 16.103 36.5313 16.2687C36.5528 16.4345 36.5076 16.602 36.4057 16.7345C36.3037 16.8669 36.1533 16.9534 35.9875 16.975C35.4964 17.0383 35.0014 17.0675 34.5063 17.0625ZM22.5125 15.0312C22.0028 15.0294 21.5051 14.8771 21.0816 14.5935C20.6582 14.3098 20.3279 13.9074 20.1323 13.4368C19.9367 12.9661 19.8845 12.4482 19.9821 11.948C20.0798 11.4477 20.323 10.9875 20.6813 10.625C20.7394 10.5664 20.8085 10.5199 20.8847 10.4882C20.9608 10.4564 21.0425 10.4401 21.125 10.4401C21.2075 10.4401 21.2892 10.4564 21.3654 10.4882C21.4415 10.5199 21.5107 10.5664 21.5688 10.625C21.6852 10.7421 21.7505 10.9005 21.7505 11.0656C21.7505 11.2307 21.6852 11.3891 21.5688 11.5062C21.3717 11.7637 21.275 12.0839 21.2964 12.4074C21.3178 12.7309 21.456 13.0356 21.6852 13.2648C21.9144 13.494 22.2191 13.6322 22.5426 13.6536C22.8661 13.675 23.1863 13.5782 23.4438 13.3812C23.5609 13.2648 23.7193 13.1995 23.8844 13.1995C24.0495 13.1995 24.2079 13.2648 24.325 13.3812C24.3836 13.4393 24.4301 13.5085 24.4618 13.5846C24.4935 13.6608 24.5099 13.7425 24.5099 13.825C24.5099 13.9075 24.4935 13.9892 24.4618 14.0653C24.4301 14.1415 24.3836 14.2106 24.325 14.2687C23.8447 14.7515 23.1935 15.0255 22.5125 15.0312Z" fill="white"/>
<path d="M25.2809 17.7998C24.9418 17.8011 24.6057 17.7349 24.2924 17.6051C23.9791 17.4753 23.6947 17.2844 23.4559 17.0436C22.9731 16.5576 22.7021 15.9004 22.7021 15.2154C22.7021 14.5304 22.9731 13.8732 23.4559 13.3873C23.573 13.2709 23.7314 13.2056 23.8966 13.2056C24.0617 13.2056 24.2201 13.2709 24.3372 13.3873C24.3958 13.4454 24.4423 13.5145 24.474 13.5907C24.5057 13.6669 24.522 13.7486 24.522 13.8311C24.522 13.9136 24.5057 13.9953 24.474 14.0714C24.4423 14.1476 24.3958 14.2167 24.3372 14.2748C24.1859 14.3906 24.061 14.5374 23.971 14.7053C23.8811 14.8733 23.828 15.0585 23.8154 15.2486C23.8028 15.4388 23.831 15.6294 23.8981 15.8077C23.9651 15.9861 24.0695 16.148 24.2042 16.2828C24.339 16.4175 24.5009 16.5219 24.6793 16.5889C24.8576 16.656 25.0482 16.6842 25.2383 16.6716C25.4285 16.659 25.6137 16.6059 25.7817 16.5159C25.9496 16.426 26.0964 16.3011 26.2122 16.1498C26.2703 16.0912 26.3394 16.0447 26.4156 16.013C26.4917 15.9813 26.5734 15.9649 26.6559 15.9649C26.7384 15.9649 26.8201 15.9813 26.8963 16.013C26.9724 16.0447 27.0416 16.0912 27.0997 16.1498C27.2161 16.2669 27.2814 16.4253 27.2814 16.5904C27.2814 16.7556 27.2161 16.914 27.0997 17.0311C26.6193 17.5182 25.9651 17.7947 25.2809 17.7998Z" fill="white"/>
<path d="M28.0564 20.5752C27.5454 20.5746 27.0461 20.4227 26.6213 20.1388C26.1966 19.8548 25.8654 19.4514 25.6695 18.9795C25.4737 18.5076 25.4219 17.9883 25.5208 17.487C25.6197 16.9857 25.8647 16.5249 26.2251 16.1627C26.2832 16.1041 26.3524 16.0576 26.4285 16.0259C26.5047 15.9942 26.5864 15.9778 26.6689 15.9778C26.7514 15.9778 26.8331 15.9942 26.9092 16.0259C26.9854 16.0576 27.0545 16.1041 27.1126 16.1627C27.229 16.2798 27.2944 16.4382 27.2944 16.6033C27.2944 16.7684 27.229 16.9268 27.1126 17.0439C26.9156 17.3014 26.8188 17.6216 26.8402 17.9451C26.8617 18.2686 26.9998 18.5733 27.2291 18.8025C27.4583 19.0317 27.763 19.1699 28.0865 19.1913C28.4099 19.2127 28.7302 19.1159 28.9876 18.9189C29.1047 18.8025 29.2631 18.7372 29.4283 18.7372C29.5934 18.7372 29.7518 18.8025 29.8689 18.9189C29.9275 18.977 29.974 19.0462 30.0057 19.1223C30.0374 19.1985 30.0538 19.2802 30.0538 19.3627C30.0538 19.4452 30.0374 19.5269 30.0057 19.603C29.974 19.6792 29.9275 19.7483 29.8689 19.8064C29.39 20.2921 28.7384 20.5685 28.0564 20.5752ZM18.8126 24.2689C18.3022 24.2671 17.8037 24.1144 17.3799 23.8299C16.9561 23.5455 16.6259 23.1421 16.4308 22.6704C16.2357 22.1987 16.1845 21.6799 16.2836 21.1792C16.3827 20.6785 16.6276 20.2183 16.9876 19.8564C17.1047 19.74 17.2631 19.6747 17.4283 19.6747C17.5934 19.6747 17.7518 19.74 17.8689 19.8564C17.9275 19.9145 17.974 19.9837 18.0057 20.0598C18.0374 20.136 18.0538 20.2177 18.0538 20.3002C18.0538 20.3827 18.0374 20.4644 18.0057 20.5405C17.974 20.6167 17.9275 20.6858 17.8689 20.7439C17.7176 20.8597 17.5927 21.0065 17.5027 21.1745C17.4128 21.3424 17.3597 21.5276 17.3471 21.7178C17.3345 21.9079 17.3627 22.0985 17.4298 22.2768C17.4968 22.4552 17.6012 22.6171 17.7359 22.7519C17.8707 22.8866 18.0326 22.991 18.211 23.0581C18.3893 23.1251 18.5799 23.1533 18.77 23.1407C18.9602 23.1281 19.1454 23.0751 19.3134 22.9851C19.4813 22.8951 19.6281 22.7703 19.7439 22.6189C19.802 22.5604 19.8711 22.5139 19.9473 22.4821C20.0234 22.4504 20.1051 22.4341 20.1876 22.4341C20.2701 22.4341 20.3518 22.4504 20.428 22.4821C20.5041 22.5139 20.5733 22.5604 20.6314 22.6189C20.7478 22.736 20.8131 22.8944 20.8131 23.0596C20.8131 23.2247 20.7478 23.3831 20.6314 23.5002C20.151 23.9874 19.4968 24.2639 18.8126 24.2689ZM20.6626 19.6502C20.3235 19.6515 19.9874 19.5853 19.6741 19.4555C19.3608 19.3256 19.0764 19.1348 18.8376 18.8939C18.5971 18.6541 18.4062 18.3692 18.276 18.0555C18.1457 17.7418 18.0787 17.4055 18.0787 17.0658C18.0787 16.7261 18.1457 16.3898 18.276 16.0761C18.4062 15.7624 18.5971 15.4775 18.8376 15.2377C18.9572 15.1353 19.111 15.0818 19.2683 15.0879C19.4256 15.0939 19.5748 15.1592 19.6861 15.2705C19.7974 15.3818 19.8626 15.531 19.8687 15.6883C19.8748 15.8456 19.8213 15.9994 19.7189 16.1189C19.4701 16.37 19.3308 16.7093 19.3314 17.0627C19.3304 17.3267 19.408 17.585 19.5542 17.8048C19.7004 18.0246 19.9087 18.196 20.1525 18.2972C20.3964 18.3983 20.6648 18.4247 20.9237 18.3729C21.1825 18.3212 21.4202 18.1936 21.6064 18.0064C21.6647 17.9482 21.7338 17.9019 21.81 17.8704C21.8861 17.8389 21.9677 17.8226 22.0501 17.8226C22.1325 17.8226 22.2141 17.8389 22.2903 17.8704C22.3664 17.9019 22.4356 17.9482 22.4939 18.0064C22.5522 18.0647 22.5984 18.1339 22.6299 18.21C22.6615 18.2862 22.6777 18.3678 22.6777 18.4502C22.6777 18.5326 22.6615 18.6142 22.6299 18.6903C22.5984 18.7665 22.5522 18.8357 22.4939 18.8939C22.2535 19.1344 21.968 19.325 21.6537 19.4548C21.3394 19.5845 21.0026 19.651 20.6626 19.6502Z" fill="white"/>
<path d="M23.437 22.4187C22.9261 22.4181 22.4268 22.2662 22.002 21.9822C21.5772 21.6983 21.246 21.2949 21.0502 20.823C20.8543 20.3511 20.8026 19.8317 20.9014 19.3304C21.0003 18.8292 21.2454 18.3684 21.6058 18.0062C21.6641 17.9479 21.7332 17.9017 21.8094 17.8701C21.8855 17.8386 21.9671 17.8223 22.0495 17.8223C22.1319 17.8223 22.2135 17.8386 22.2897 17.8701C22.3658 17.9017 22.435 17.9479 22.4933 18.0062C22.5515 18.0644 22.5978 18.1336 22.6293 18.2097C22.6609 18.2859 22.6771 18.3675 22.6771 18.4499C22.6771 18.5323 22.6609 18.6139 22.6293 18.6901C22.5978 18.7662 22.5515 18.8354 22.4933 18.8937C22.2963 19.1511 22.1995 19.4713 22.2209 19.7948C22.2423 20.1183 22.3805 20.423 22.6097 20.6522C22.8389 20.8815 23.1436 21.0196 23.4671 21.041C23.7906 21.0625 24.1108 20.9657 24.3683 20.7687C24.4878 20.6663 24.6416 20.6128 24.7989 20.6188C24.9562 20.6249 25.1054 20.6901 25.2168 20.8014C25.3281 20.9127 25.3933 21.0619 25.3993 21.2192C25.4054 21.3765 25.3519 21.5303 25.2495 21.6499C24.771 22.1361 24.1192 22.4126 23.437 22.4187ZM29.6495 8.9624C29.5163 9.09434 29.347 9.18391 29.163 9.21982C28.979 9.25573 28.7884 9.23638 28.6154 9.1642C28.4423 9.09203 28.2945 8.97026 28.1905 8.81424C28.0865 8.65821 28.031 8.4749 28.031 8.2874C28.031 8.0999 28.0865 7.9166 28.1905 7.76057C28.2945 7.60454 28.4423 7.48277 28.6154 7.4106C28.7884 7.33843 28.979 7.31908 29.163 7.35499C29.347 7.3909 29.5163 7.48046 29.6495 7.6124C29.8281 7.79164 29.9284 8.03436 29.9284 8.2874C29.9284 8.54044 29.8281 8.78317 29.6495 8.9624Z" fill="white"/>
</svg>
