<svg width="40" height="40" viewBox="0 0 40 40" fill="none" xmlns="http://www.w3.org/2000/svg">
<path d="M21.9711 6.54046C20.4287 6.95396 19.5777 8.48718 19.8056 10.0317C19.0572 10.5986 18.5706 11.4284 18.5141 12.3339C17.1667 12.6173 16.0327 13.5237 15.4526 14.7704C14.6202 14.3137 13.604 14.3011 12.6987 14.6778C12.1333 14.2204 11.4721 13.8716 10.7382 13.8821H10.7357C9.92665 13.8983 9.15053 14.2216 8.57508 14.7975C8.14728 15.2253 7.88728 15.7418 7.77918 16.2867C5.54574 16.4792 3.77528 18.3433 3.77528 20.6251C3.77592 20.9291 3.8194 21.2275 3.88265 21.5235C3.8119 21.6285 3.77453 21.7514 3.77528 21.8775C3.77778 23.6384 4.2413 25.3358 5.05213 26.9044C5.13988 27.107 5.23342 27.2506 5.30604 27.378C6.41767 29.3114 8.09037 31.0155 10.2182 32.317C10.0987 32.563 10.0253 32.8355 10.0253 33.1251C10.0253 33.3455 10.0712 33.553 10.1424 33.7501H6.01643C5.17123 33.7376 5.17123 35.0121 6.01643 35.0001H11.9002H38.1405C38.1822 35.0002 38.224 35.0001 38.265 34.9876C39.005 34.8383 38.8954 33.7488 38.1405 33.7499H29.908C29.9793 33.5527 30.0252 33.3452 30.0252 33.1249C30.0252 32.8403 29.9553 32.5716 29.8396 32.3289C30.5226 31.911 31.1644 31.4553 31.7512 30.9617C32.4358 30.4292 31.5856 29.4217 30.9456 30.0071C30.4125 30.4556 29.8223 30.8666 29.1975 31.2499H10.8796C9.19578 30.2208 7.85552 28.9362 6.8855 27.4999H11.6365C12.4817 27.5124 12.4817 26.2379 11.6365 26.2499H6.15064C5.94815 25.8419 5.77087 25.4246 5.62574 24.9999H14.3904C15.2356 25.0124 15.2356 23.7379 14.3904 23.7499H5.28883C5.2057 23.3374 5.14707 22.9208 5.11793 22.4999L34.9233 22.5001C34.8683 23.3071 34.7908 24.1129 34.5351 24.8829C34.2714 25.6739 35.4579 26.0694 35.7216 25.2784C36.0851 24.1839 36.2756 23.0388 36.2758 21.8751C36.2758 21.53 35.996 21.2501 35.6508 21.2501H35.0234C35.0229 21.2376 35.0238 21.2288 35.0234 21.2188C35.481 20.9473 35.943 20.6637 36.2123 20.1983C36.4975 19.7057 36.5289 19.1313 36.5199 18.5674C37.0125 18.2946 37.4924 17.9823 37.7773 17.4908H37.7798C38.415 16.3865 38.2051 15.0662 37.4453 14.0777C38.0804 12.6403 37.6509 10.9252 36.2612 10.1225H36.2587C36.1687 10.0712 36.0671 10.0426 35.9633 10.0401C35.68 9.91207 35.3831 9.83017 35.0746 9.79104C34.9821 9.73604 34.8771 9.70596 34.7695 9.70346C33.7215 9.67971 32.7777 10.2277 32.1816 11.0757C30.965 10.9396 29.7424 11.411 29.1152 12.4966C28.9827 12.726 28.908 12.9735 28.8637 13.2288C28.6752 12.8933 28.4096 12.6002 28.1288 12.328C28.283 11.7881 28.4015 11.2278 28.2558 10.6802C27.9281 9.46155 26.8594 8.68695 25.6386 8.5122C25.2363 7.4362 24.3011 6.71495 23.1679 6.55908C22.8032 6.46533 22.4119 6.46671 21.9711 6.54046ZM22.7968 7.68045H22.7993C23.6418 7.69295 24.3685 8.2517 24.5889 9.06457C24.5926 9.07832 24.5951 9.09714 24.5964 9.10089C24.6511 9.40076 24.9142 9.61733 25.2189 9.61358C26.0776 9.60108 26.827 10.1711 27.05 11.0003H27.0475C27.1568 11.4113 27.1232 11.8462 26.9522 12.2357C26.835 12.5035 26.9191 12.817 27.1549 12.99C27.4987 13.2425 27.7479 13.6056 27.858 14.0179H27.8555C27.9214 14.2653 27.9232 14.5233 27.8824 14.782C27.758 14.907 27.6433 15.0407 27.5528 15.1971C27.2675 15.6898 27.2361 16.2639 27.2451 16.8279C26.8128 17.0686 26.3964 17.347 26.1074 17.7435C25.8951 17.3443 25.6349 16.9753 25.3238 16.6473L23.3706 9.35968C23.3024 9.08605 23.0593 8.89205 22.7774 8.88605C22.3567 8.87355 22.047 9.27719 22.1621 9.68194L23.7198 15.4998C23.6795 15.4811 23.6434 15.456 23.6026 15.4385C23.1129 13.683 21.584 12.4174 19.7672 12.2648C19.8254 11.6725 20.1525 11.1303 20.6949 10.8242C20.9496 10.6793 21.0694 10.377 20.983 10.0968C20.9755 10.0731 20.973 10.0605 20.973 10.0605C20.9717 10.0605 20.9692 10.048 20.968 10.043C20.6984 9.03634 21.2853 8.01635 22.2912 7.7456C22.4528 7.7031 22.6235 7.68045 22.7968 7.68045ZM34.7402 10.9493C35.0542 10.9618 35.3615 11.0432 35.6337 11.201H35.6362H35.6387C36.5379 11.7226 36.8403 12.8553 36.3223 13.757C36.3173 13.7695 36.3136 13.772 36.3077 13.7795C36.1302 14.0303 36.1612 14.3729 36.3809 14.5876C36.9946 15.1873 37.1225 16.1166 36.6959 16.8606C36.4823 17.2291 36.1504 17.5144 35.7535 17.6687C35.4812 17.7749 35.3189 18.0558 35.3629 18.345C35.4275 18.7673 35.345 19.1985 35.1309 19.5681C34.9178 19.9364 34.5873 20.2216 34.191 20.3762C33.9187 20.4825 33.7564 20.7634 33.8004 21.0525C33.8104 21.1175 33.8091 21.1824 33.8129 21.2478H30.556L35.2631 13.0984C35.51 12.6836 35.2136 12.1573 34.7308 12.1536C34.5023 12.1536 34.2907 12.2735 34.1791 12.4734L29.1132 21.2478H27.5751C27.5738 21.0814 27.5061 20.9223 27.3871 20.8059C26.7735 20.2053 26.6459 19.2721 27.0746 18.5281C27.2878 18.1614 27.6194 17.8765 28.0145 17.7224C28.2869 17.6162 28.4491 17.3351 28.4052 17.0461C28.3405 16.624 28.4207 16.1926 28.6347 15.823C28.8478 15.4547 29.1808 15.1695 29.577 15.0149C29.8494 14.9086 30.0116 14.6276 29.9677 14.3386C29.9034 13.917 29.9837 13.487 30.1972 13.1179H30.1997C30.6293 12.3742 31.4989 12.0178 32.3261 12.2488C32.6145 12.33 32.9197 12.195 33.0537 11.9265C33.0612 11.9128 33.0665 11.9003 33.0732 11.8878C33.4164 11.2929 34.0533 10.9335 34.7402 10.9493ZM19.4081 13.4837C20.5568 13.4837 21.571 14.1065 22.1132 15.0582C21.9041 15.0332 21.6989 14.997 21.4833 14.997C21.1382 14.9972 20.8584 15.2769 20.8583 15.622V20.0776C20.7542 19.9275 20.6398 19.7842 20.5092 19.6528C20.106 19.2495 19.5587 19.0715 19.0102 18.935C18.874 18.3914 18.6987 17.8468 18.2997 17.4458C17.897 17.0428 17.3508 16.8647 16.8031 16.728C16.7145 16.3749 16.6022 16.0259 16.4296 15.7124C16.8242 14.4 18.0187 13.4845 19.4081 13.4837ZM10.7582 15.1292H10.7607C11.265 15.1167 11.7484 15.3204 12.1059 15.6761C12.1147 15.6886 12.1212 15.691 12.1377 15.7098C12.3354 15.9352 12.6652 15.9883 12.9238 15.8366C13.6626 15.399 14.5961 15.516 15.2041 16.1224C15.5039 16.4234 15.6922 16.8156 15.7388 17.2379C15.7704 17.5299 16.001 17.7607 16.293 17.7923C16.7169 17.8385 17.1118 18.0282 17.4136 18.3294C17.7136 18.6309 17.902 19.0247 17.9482 19.4476C17.9799 19.7396 18.2105 19.9701 18.5024 20.0018C18.9263 20.048 19.3212 20.2378 19.623 20.5389C19.8238 20.7406 19.9683 20.9834 20.0601 21.2469H15.9097L11.1928 16.5301C11.0747 16.4088 10.9126 16.3415 10.7436 16.3421C10.1847 16.3421 9.90961 17.023 10.309 17.4139L14.142 21.2469H9.77434C9.299 20.6445 9.21435 19.8217 9.6132 19.1473C9.76292 18.896 9.71833 18.5743 9.50583 18.3734C9.49083 18.3596 9.47458 18.3447 9.45946 18.3297C8.72219 17.5923 8.72219 16.4156 9.45946 15.6782C9.80297 15.3344 10.2676 15.1393 10.7582 15.1292ZM22.1083 16.4939C23.9664 16.8135 25.4433 18.1647 25.4433 19.9972C25.4433 20.4364 25.3347 20.8491 25.1796 21.2472H22.1083V16.4939ZM7.79924 17.5291C7.90487 18.024 8.11954 18.5051 8.45354 18.9207C8.13885 19.6774 8.09851 20.5078 8.35829 21.2472H5.09902C5.05614 21.0401 5.02627 20.8317 5.02577 20.6197C5.02577 19.0069 6.23532 17.7043 7.79924 17.5291ZM34.0248 26.7257C33.819 26.7407 33.6335 26.8553 33.5292 27.0333C33.2502 27.4898 32.9362 27.9329 32.5844 28.3592C31.9671 29.0073 33.0274 29.8818 33.5463 29.1525C33.9345 28.682 34.2855 28.1935 34.5961 27.6853C34.8552 27.2767 34.5719 26.7412 34.0883 26.7257C34.0672 26.7247 34.046 26.7247 34.0248 26.7257ZM11.9008 32.4972H28.1508C28.5078 32.4972 28.7758 32.7651 28.7758 33.1222C28.7758 33.4791 28.5078 33.7472 28.1508 33.7472H11.9008C11.5438 33.7472 11.2758 33.4791 11.2758 33.1222C11.2758 32.7651 11.5438 32.4972 11.9008 32.4972ZM1.82757 33.7472C0.994229 33.7897 1.0577 35.0396 1.89107 34.9972H3.08735C3.93204 35.0122 3.93702 33.7391 3.09235 33.7472C3.0911 33.7472 3.0886 33.7472 3.08735 33.7472H1.89107C1.86994 33.7461 1.84869 33.7461 1.82757 33.7472Z" fill="white"/>
</svg>
