<svg width="40" height="40" viewBox="0 0 40 40" fill="none" xmlns="http://www.w3.org/2000/svg">
<path d="M36.3407 22.6108C35.5918 20.0819 34.243 17.7414 32.4191 15.814C32.1522 15.5319 31.7072 15.5196 31.4252 15.7866C31.1431 16.0535 31.1308 16.4985 31.3977 16.7806C32.9704 18.4425 34.157 20.4393 34.8636 22.599H5.4793C7.53695 16.2831 13.4521 11.9472 20.1719 11.9472C23.4105 11.9472 26.5108 12.938 29.1377 14.8126C29.4537 15.0381 29.8928 14.9646 30.1184 14.6486C30.344 14.3325 30.2706 13.8934 29.9545 13.6678C27.2786 11.7583 24.153 10.6894 20.875 10.5556V9.57327C22.097 9.25983 23.0029 8.14913 23.0029 6.83069C23.0029 5.26976 21.7329 3.99976 20.1719 3.99976C18.6109 3.99976 17.3409 5.26976 17.3409 6.83069C17.3409 8.14905 18.2467 9.25983 19.4688 9.57327V10.5556C12.2745 10.8535 6.04445 15.7018 4.00367 22.6107C2.60219 22.7368 1.5 23.9173 1.5 25.3512C1.5 26.8687 2.73461 28.1034 4.25219 28.1034H4.84945V29.3705C4.84945 31.0619 6.22547 32.438 7.91687 32.438H8.59297V34.4144C8.59297 34.8028 8.90773 35.1176 9.29609 35.1176H11.7816C12.17 35.1176 12.4848 34.8028 12.4848 34.4144C12.4848 34.0261 12.17 33.7113 11.7816 33.7113H9.99922V32.438H30.3445V33.7113H14.9066C14.5182 33.7113 14.2034 34.0261 14.2034 34.4144C14.2034 34.8028 14.5182 35.1176 14.9066 35.1176H31.0477C31.436 35.1176 31.7508 34.8028 31.7508 34.4144V32.438H32.4269C34.1182 32.438 35.4943 31.062 35.4943 29.3705V28.1034H36.0916C37.6091 28.1034 38.8438 26.8687 38.8438 25.3512C38.8438 23.9176 37.7419 22.7372 36.3407 22.6108ZM18.7471 6.83069C18.7471 6.04507 19.3862 5.40601 20.1719 5.40601C20.9575 5.40601 21.5966 6.04515 21.5966 6.83069C21.5966 7.61624 20.9575 8.25546 20.1719 8.25546C19.3862 8.25546 18.7471 7.61632 18.7471 6.83069ZM34.088 29.3705C34.088 30.2865 33.3428 31.0317 32.4269 31.0317H7.91687C7.00094 31.0317 6.2557 30.2865 6.2557 29.3705V28.1033H34.088V29.3705ZM36.0916 26.6971H4.25219C3.51 26.6971 2.90625 26.0933 2.90625 25.3511C2.90625 24.609 3.51008 24.0051 4.25219 24.0051H36.0916C36.8338 24.0051 37.4375 24.609 37.4375 25.3511C37.4375 26.0933 36.8337 26.6971 36.0916 26.6971ZM18.0202 14.5555C18.1048 14.9345 17.8661 15.3103 17.4871 15.3949C14.3862 16.0869 11.7055 17.9226 9.93875 20.5641C9.8032 20.7668 9.58047 20.8764 9.35367 20.8764C9.2193 20.8764 9.08352 20.838 8.96344 20.7576C8.64062 20.5417 8.55398 20.105 8.76984 19.7823C10.7384 16.8391 13.7254 14.7935 17.1808 14.0223C17.5599 13.9378 17.9356 14.1766 18.0202 14.5555Z" fill="white"/>
</svg>
