<svg width="40" height="40" viewBox="0 0 40 40" fill="none" xmlns="http://www.w3.org/2000/svg">
<path d="M20.625 32.5H19.375V33.75H20.625V32.5Z" fill="white"/>
<path d="M22.5 33.75H21.25V35H22.5V33.75Z" fill="white"/>
<path d="M22.5 31.25H21.25V32.5H22.5V31.25Z" fill="white"/>
<path d="M38.6997 4.91499C38.6345 4.76257 38.5115 4.64228 38.3577 4.58057C38.2038 4.51886 38.0318 4.52079 37.8794 4.58592L35.8378 5.45858L37.0632 3.17303C37.1031 3.10062 37.1283 3.02099 37.1373 2.93877C37.1462 2.85656 37.1388 2.77338 37.1153 2.69407C37.0919 2.61475 37.053 2.54088 37.0008 2.47672C36.9486 2.41257 36.8842 2.35941 36.8113 2.32033C36.7384 2.28125 36.6585 2.25703 36.5762 2.24906C36.4938 2.24109 36.4108 2.24954 36.3317 2.27392C36.2527 2.2983 36.1793 2.33811 36.1158 2.39107C36.0522 2.44402 35.9998 2.50906 35.9616 2.58241L34.6072 5.10834L34.0212 3.16827C33.9733 3.00958 33.8643 2.87643 33.7183 2.79811C33.5722 2.71978 33.401 2.7027 33.2423 2.75061C33.0836 2.79853 32.9504 2.90752 32.8721 3.0536C32.7938 3.19969 32.7767 3.37091 32.8246 3.52959L33.5024 5.77428C32.6171 5.64871 31.7159 5.84226 30.9602 6.3203C30.7022 5.77667 30.3139 5.30524 29.8297 4.94795C29.9421 4.66627 29.9999 4.36577 30 4.06249C30 2.56913 28.5981 1.35413 26.875 1.35413C25.1519 1.35413 23.75 2.56913 23.75 4.06249C23.7501 4.366 23.808 4.66672 23.9206 4.94858C23.661 5.14432 23.4266 5.37153 23.2229 5.62499H19.4487L19.375 5.47741V3.12499C19.375 2.95923 19.3092 2.80025 19.1919 2.68304C19.0747 2.56583 18.9158 2.49999 18.75 2.49999H11.25C11.0842 2.49999 10.9253 2.56583 10.8081 2.68304C10.6908 2.80025 10.625 2.95923 10.625 3.12499V5.47741L9.44102 7.84545C9.44031 7.84686 9.44016 7.84827 9.43953 7.84975C9.39714 7.93531 9.37506 8.0295 9.375 8.12499V12.5012C9.29291 12.5008 9.21156 12.5167 9.13562 12.5478C9.05969 12.579 8.99068 12.6249 8.93258 12.6829C8.87448 12.7409 8.82843 12.8098 8.79709 12.8857C8.76576 12.9616 8.74975 13.0429 8.75 13.125V30.5045C8.40707 30.7033 8.09759 30.9549 7.83297 31.25H7.5C6.76801 31.2508 6.05221 31.4655 5.44064 31.8677C4.82907 32.27 4.3484 32.8422 4.05773 33.514L3.68328 33.6546C2.96995 33.9247 2.3554 34.405 1.92092 35.0319C1.48644 35.6588 1.25249 36.4029 1.25 37.1656V38.125C1.25 38.2907 1.31585 38.4497 1.43306 38.5669C1.55027 38.6841 1.70924 38.75 1.875 38.75H36.25C36.4158 38.75 36.5747 38.6841 36.6919 38.5669C36.8092 38.4497 36.875 38.2907 36.875 38.125V13.125C36.875 13.0119 36.8443 12.9009 36.7862 12.8038C36.728 12.7068 36.6446 12.6273 36.5449 12.5739C36.4451 12.5206 36.3328 12.4953 36.2198 12.5007C36.1068 12.5062 35.9974 12.5422 35.9033 12.605L35.3564 12.9694L36.2734 11.2596C36.6477 10.5609 36.7912 9.76171 36.6833 8.97649C36.5754 8.19127 36.2216 7.46038 35.6727 6.88858L38.3707 5.73538C38.4462 5.70311 38.5145 5.6563 38.5719 5.59761C38.6293 5.53891 38.6746 5.4695 38.7051 5.39332C38.7357 5.31714 38.7509 5.23568 38.75 5.15361C38.749 5.07154 38.732 4.99045 38.6997 4.91499ZM10.625 8.74999H16.875V12.8661L16.25 13.4911L15.442 12.683C15.3839 12.6249 15.315 12.5789 15.2392 12.5475C15.1634 12.5161 15.0821 12.4999 15 12.4999C14.9179 12.4999 14.8366 12.5161 14.7608 12.5475C14.685 12.5789 14.6161 12.6249 14.558 12.683L13.75 13.4912L12.942 12.683C12.8839 12.625 12.815 12.579 12.7392 12.5475C12.6634 12.5161 12.5821 12.5 12.5 12.5C12.4179 12.5 12.3366 12.5161 12.2608 12.5475C12.185 12.579 12.1161 12.625 12.058 12.683L11.1703 13.5708L10.625 13.2072V8.74999ZM11.6362 6.24999H17.7388L17.1138 7.49999H11.0112L11.6362 6.24999ZM19.375 10.4203C18.8549 11.144 18.4345 11.9343 18.125 12.77V8.27256L18.75 7.02256V8.74999C18.75 8.91575 18.8158 9.07472 18.9331 9.19193C19.0503 9.30914 19.2092 9.37499 19.375 9.37499V10.4203ZM20.5 11C20.5811 10.8918 20.625 10.7602 20.625 10.625V9.37499H23.125V10.625C23.125 10.7602 23.1689 10.8918 23.25 11C23.6902 11.5873 24.0546 12.2278 24.3346 12.9062L23.75 13.4912L22.942 12.683C22.8839 12.625 22.815 12.579 22.7392 12.5475C22.6634 12.5161 22.5821 12.5 22.5 12.5C22.4179 12.5 22.3366 12.5161 22.2608 12.5475C22.185 12.579 22.1161 12.625 22.058 12.683L21.25 13.4912L20.442 12.683C20.3839 12.625 20.315 12.579 20.2392 12.5475C20.1634 12.5161 20.0821 12.5 20 12.5C19.9179 12.5 19.8366 12.5161 19.7608 12.5475C19.685 12.579 19.6161 12.625 19.558 12.683L19.4716 12.7695C19.7437 12.1414 20.0889 11.5474 20.5 11ZM25.6769 12.9179C25.6737 12.9075 25.6711 12.897 25.6674 12.8866C25.5408 12.5329 25.3943 12.1866 25.2286 11.8494L26.25 12.2869V13.4909L25.6769 12.9179ZM29.9244 7.11084C29.9378 7.15647 29.9495 7.20243 29.9593 7.24873C29.8495 7.39702 29.7506 7.55308 29.6634 7.71569L29.3682 8.26647L27.5 11.7509V9.05038L29.9244 7.11084ZM28.75 4.06249C28.7469 4.32331 28.6597 4.57617 28.5012 4.78334C28.4482 4.85491 28.4111 4.93698 28.3923 5.02405C28.3736 5.11113 28.3737 5.2012 28.3927 5.28822C28.4116 5.37525 28.4489 5.45723 28.5021 5.52866C28.5553 5.60009 28.6231 5.65933 28.7011 5.70241C28.8887 5.80552 29.0649 5.92809 29.2269 6.06811L27.5 7.44959V2.68749C28.2274 2.88842 28.75 3.42874 28.75 4.06249ZM26.25 2.68749V10.9271L24.375 10.1235V9.37499C24.5408 9.37499 24.6997 9.30914 24.8169 9.19193C24.9342 9.07472 25 8.91575 25 8.74999V6.24999C25 6.09509 24.9423 5.94576 24.838 5.83124C24.9061 5.78624 24.9759 5.7428 25.0489 5.70241C25.1269 5.65933 25.1947 5.60009 25.2479 5.52866C25.3011 5.45723 25.3384 5.37525 25.3573 5.28822C25.3763 5.2012 25.3764 5.11113 25.3577 5.02405C25.3389 4.93698 25.3018 4.85491 25.2488 4.78334C25.0903 4.57617 25.0031 4.32331 25 4.06249C25 3.42874 25.5226 2.88842 26.25 2.68749ZM20 6.87499H23.75V8.12499H20V6.87499ZM11.875 3.74999H18.125V4.99999H11.875V3.74999ZM2.5 37.1656C2.5016 36.7273 2.6178 36.297 2.83708 35.9175C3.05635 35.538 3.37107 35.2224 3.75 35.0021V37.5H2.5V37.1656ZM5 35C5.00081 34.4104 5.20964 33.8401 5.58971 33.3894C5.96979 32.9388 6.49671 32.6367 7.07766 32.5364C6.94343 32.9269 6.87494 33.337 6.875 33.75V37.5H5V35ZM8.125 33.75C8.125 33.0869 8.38839 32.4511 8.85723 31.9822C9.32607 31.5134 9.96196 31.25 10.625 31.25C11.288 31.25 11.9239 31.5134 12.3928 31.9822C12.8616 32.4511 13.125 33.0869 13.125 33.75V37.5H8.125V33.75ZM20.6188 30C20.6244 30 20.63 30.0007 20.6355 30.0007C20.6381 30.0007 20.6407 30.0003 20.6434 30.0003C21.1618 30.0023 21.6742 30.1118 22.1482 30.3218C22.6221 30.5319 23.0474 30.8379 23.3971 31.2207C23.7469 31.6034 24.0134 32.0545 24.18 32.5454C24.3466 33.0364 24.4095 33.5565 24.3649 34.073C24.3203 34.5896 24.169 35.0912 23.9207 35.5463C23.6724 36.0014 23.3325 36.4001 22.9223 36.7172C22.5121 37.0342 22.0406 37.2628 21.5377 37.3885C21.0347 37.5141 20.5111 37.5341 20 37.4472V37.1659C19.9976 36.4031 19.7636 35.659 19.3291 35.0321C18.8947 34.4051 18.2801 33.9248 17.5667 33.6547L17.1923 33.514C17.1208 33.349 17.0374 33.1893 16.943 33.0362C17.1116 32.1838 17.5696 31.416 18.2395 30.8627C18.9094 30.3093 19.7499 30.0046 20.6188 30ZM17.5 35.002C17.8789 35.2223 18.1936 35.5379 18.4129 35.9175C18.6322 36.297 18.7484 36.7273 18.75 37.1656V37.5H17.5V35.002ZM16.25 35V37.5H14.375V33.75C14.3751 33.337 14.3066 32.9269 14.1723 32.5364C14.7533 32.6367 15.2802 32.9388 15.6603 33.3894C16.0404 33.8401 16.2492 34.4104 16.25 35ZM25.625 33.75C25.6234 32.5601 25.1981 31.4096 24.4254 30.5047C23.6527 29.5998 22.583 28.9997 21.408 28.8118C21.568 28.4253 21.8386 28.0947 22.1857 27.8614C22.5328 27.628 22.9411 27.5023 23.3594 27.5H23.75C23.9158 27.5 24.0747 27.4341 24.1919 27.3169C24.3092 27.1997 24.375 27.0407 24.375 26.875C24.375 26.7092 24.3092 26.5503 24.1919 26.433C24.0747 26.3158 23.9158 26.25 23.75 26.25H23.3594C22.6143 26.2542 21.8914 26.5043 21.303 26.9615C20.7147 27.4187 20.2937 28.0573 20.1055 28.7783C19.1875 28.8784 18.3146 29.2289 17.5824 29.7916C16.8502 30.3543 16.2868 31.1074 15.9537 31.9687C15.3142 31.5011 14.5423 31.2494 13.75 31.25H13.417C12.9955 30.7773 12.4608 30.4195 11.8631 30.2101C11.2654 30.0008 10.6243 29.9467 10 30.053V14.2928L10.9033 14.895C11.0235 14.9751 11.1678 15.0112 11.3116 14.9969C11.4554 14.9827 11.5898 14.919 11.692 14.8169L12.5 14.0088L13.308 14.8169C13.3661 14.875 13.435 14.921 13.5108 14.9524C13.5866 14.9838 13.6679 15 13.75 15C13.8321 15 13.9134 14.9838 13.9892 14.9524C14.065 14.921 14.1339 14.875 14.192 14.8169L15 14.0088L15.808 14.8169C15.8661 14.875 15.935 14.921 16.0108 14.9524C16.0866 14.9838 16.1679 15 16.25 15C16.3321 15 16.4134 14.9838 16.4892 14.9524C16.565 14.921 16.6339 14.875 16.692 14.8169L17.5 14.0088L18.308 14.8169C18.3661 14.875 18.435 14.921 18.5108 14.9524C18.5866 14.9838 18.6679 15 18.75 15C18.8321 15 18.9134 14.9838 18.9892 14.9524C19.065 14.921 19.1339 14.875 19.192 14.8169L20 14.0088L20.808 14.8169C20.8661 14.875 20.935 14.921 21.0108 14.9524C21.0866 14.9838 21.1679 15 21.25 15C21.3321 15 21.4134 14.9838 21.4892 14.9524C21.565 14.921 21.6339 14.875 21.692 14.8169L22.5 14.0088L23.308 14.8169C23.3661 14.875 23.435 14.921 23.5108 14.9524C23.5866 14.9838 23.6679 15 23.75 15C23.8321 15 23.9134 14.9838 23.9892 14.9524C24.065 14.921 24.1339 14.875 24.192 14.8169L25 14.0088L25.808 14.8169C25.8661 14.875 25.935 14.921 26.0108 14.9524C26.0866 14.9838 26.1679 15 26.25 15C26.3321 15 26.4134 14.9838 26.4892 14.9524C26.565 14.921 26.6339 14.875 26.692 14.8169L27.5 14.0088L28.308 14.8169C28.3661 14.875 28.435 14.921 28.5108 14.9524C28.5866 14.9838 28.6679 15 28.75 15C28.8321 15 28.9134 14.9838 28.9892 14.9524C29.065 14.921 29.1339 14.875 29.192 14.8169L29.375 14.6338V37.5H23.927C24.4605 37.0317 24.888 36.455 25.1808 35.8083C25.4737 35.1616 25.6251 34.4599 25.625 33.75ZM33.125 35.8838L34.7411 37.5H31.5089L33.125 35.8838ZM35.625 36.6161L33.75 34.7411V28.125C33.75 27.9592 33.6842 27.8003 33.5669 27.683C33.4497 27.5658 33.2908 27.5 33.125 27.5C32.9592 27.5 32.8003 27.5658 32.6831 27.683C32.5658 27.8003 32.5 27.9592 32.5 28.125V34.7411L30.625 36.6161V14.2928L31.5283 14.895C31.6485 14.9751 31.7928 15.0112 31.9366 14.9969C32.0804 14.9827 32.2148 14.919 32.317 14.8169L32.5 14.6339V21.875C32.5 22.0407 32.5658 22.1997 32.6831 22.3169C32.8003 22.4341 32.9592 22.5 33.125 22.5C33.2908 22.5 33.4497 22.4341 33.5669 22.3169C33.6842 22.1997 33.75 22.0407 33.75 21.875V14.6339L33.933 14.8169C34.0352 14.9191 34.1696 14.9827 34.3134 14.997C34.4572 15.0112 34.6015 14.9752 34.7217 14.8951L35.625 14.2928V36.6161ZM35.1719 10.6689L33.9088 13.0248L33.5671 12.683C33.5091 12.625 33.4402 12.579 33.3643 12.5475C33.2885 12.5161 33.2072 12.5 33.1252 12.5C33.0431 12.5 32.9618 12.5161 32.886 12.5475C32.8101 12.579 32.7412 12.625 32.6832 12.683L31.7953 13.5708L30.3467 12.605C30.3446 12.6036 30.3425 12.6035 30.3404 12.6023C30.221 12.5225 30.0775 12.4868 29.9347 12.5016C29.7918 12.5163 29.6586 12.5805 29.558 12.683L28.75 13.4912L28.2523 12.9933L28.9932 11.6113L30.6457 12.4973C30.7181 12.5373 30.7977 12.5625 30.88 12.5714C30.9622 12.5803 31.0454 12.5729 31.1247 12.5495C31.204 12.526 31.2779 12.4871 31.342 12.4349C31.4062 12.3827 31.4593 12.3183 31.4984 12.2454C31.5375 12.1725 31.5617 12.0926 31.5697 12.0103C31.5776 11.928 31.5692 11.8449 31.5448 11.7658C31.5204 11.6868 31.4806 11.6134 31.4277 11.5499C31.3747 11.4864 31.3097 11.434 31.2363 11.3958L29.5839 10.5098L30.1745 9.40819L31.827 10.2941C31.8994 10.3341 31.9791 10.3593 32.0613 10.3682C32.1435 10.3771 32.2267 10.3697 32.306 10.3463C32.3853 10.3228 32.4592 10.2839 32.5233 10.2317C32.5875 10.1795 32.6407 10.1151 32.6797 10.0422C32.7188 9.96931 32.743 9.88939 32.751 9.80707C32.759 9.72476 32.7505 9.64167 32.7261 9.56265C32.7018 9.48362 32.6619 9.41021 32.609 9.34668C32.556 9.28316 32.491 9.23077 32.4177 9.19256L30.7652 8.30663C31.0827 7.73014 31.6147 7.30212 32.2459 7.11545C32.877 6.92878 33.5563 6.99851 34.1363 7.30952C34.7163 7.62053 35.1503 8.14772 35.3441 8.7767C35.5379 9.40567 35.4758 10.0857 35.1714 10.6692L35.1719 10.6689Z" fill="white"/>
<path d="M33.125 23.75C32.9592 23.75 32.8003 23.8158 32.6831 23.9331C32.5658 24.0503 32.5 24.2092 32.5 24.375V25.625C32.5 25.7908 32.5658 25.9497 32.6831 26.0669C32.8003 26.1842 32.9592 26.25 33.125 26.25C33.2908 26.25 33.4497 26.1842 33.5669 26.0669C33.6842 25.9497 33.75 25.7908 33.75 25.625V24.375C33.75 24.2092 33.6842 24.0503 33.5669 23.9331C33.4497 23.8158 33.2908 23.75 33.125 23.75ZM11.875 20.625C11.7092 20.625 11.5503 20.6908 11.4331 20.8081C11.3158 20.9253 11.25 21.0842 11.25 21.25V22.5C11.25 22.6658 11.3158 22.8247 11.4331 22.9419C11.5503 23.0592 11.7092 23.125 11.875 23.125C12.0408 23.125 12.1997 23.0592 12.3169 22.9419C12.4342 22.8247 12.5 22.6658 12.5 22.5V21.25C12.5 21.0842 12.4342 20.9253 12.3169 20.8081C12.1997 20.6908 12.0408 20.625 11.875 20.625ZM11.875 24.375C11.7092 24.375 11.5503 24.4408 11.4331 24.5581C11.3158 24.6753 11.25 24.8342 11.25 25V28.125C11.25 28.2908 11.3158 28.4497 11.4331 28.5669C11.5503 28.6842 11.7092 28.75 11.875 28.75C12.0408 28.75 12.1997 28.6842 12.3169 28.5669C12.4342 28.4497 12.5 28.2908 12.5 28.125V25C12.5 24.8342 12.4342 24.6753 12.3169 24.5581C12.1997 24.4408 12.0408 24.375 11.875 24.375Z" fill="white"/>
</svg>
