<svg width="40" height="40" viewBox="0 0 40 40" fill="none" xmlns="http://www.w3.org/2000/svg">
<path d="M30.1032 31.9688C29.4437 30.6384 28.5254 29.453 27.402 28.482L27.942 27.942C28 27.884 28.046 27.8151 28.0774 27.7393C28.1089 27.6634 28.125 27.5822 28.125 27.5001C28.125 27.418 28.1089 27.3367 28.0774 27.2609C28.046 27.1851 28 27.1162 27.942 27.0581L27.2097 26.3259C26.0419 25.1516 24.4761 24.4582 22.8217 24.3829L22.7065 23.6915C23.4079 23.3076 24.0193 22.7785 24.5 22.1395C25.3981 20.9378 26.0612 19.5775 26.4548 18.1298H26.875C27.4254 18.1302 27.9605 17.9488 28.3972 17.6139C28.834 17.279 29.1479 16.8093 29.2904 16.2777C29.4329 15.746 29.3959 15.1823 29.1852 14.6738C28.9744 14.1654 28.6018 13.7407 28.125 13.4658V9.37015C28.125 9.25673 28.0941 9.14546 28.0355 9.04836L26.597 6.65429C26.37 6.27633 26.25 5.84373 26.25 5.40281C26.25 4.79655 26.1118 4.19827 25.8459 3.65341C25.5801 3.10856 25.1935 2.63146 24.7157 2.25836C24.2378 1.88526 23.6812 1.62598 23.0881 1.5002C22.4951 1.37443 21.8811 1.38547 21.293 1.5325L20.6641 1.68969C20.2278 1.79836 19.7716 1.79836 19.3353 1.68969L18.7066 1.5325C18.1185 1.38554 17.5046 1.37455 16.9116 1.50036C16.3186 1.62617 15.762 1.88546 15.2842 2.25855C14.8064 2.63164 14.4199 3.10872 14.1541 3.65354C13.8882 4.19836 13.75 4.79659 13.75 5.40281C13.75 5.84371 13.63 6.27629 13.403 6.65422L11.9643 9.0482C11.9057 9.14537 11.8749 9.2567 11.875 9.37015V13.7548C11.875 13.7676 11.8763 13.7801 11.8771 13.7927C11.2884 14.5677 10.8809 15.4648 10.6845 16.4181C10.4881 17.3713 10.5078 18.3564 10.7422 19.301C11.0453 20.5149 10.9046 21.7971 10.3453 22.9163L10.2431 23.1206C9.99275 23.6206 9.85314 24.1687 9.83382 24.7275C9.81449 25.2863 9.91591 25.8427 10.1312 26.3588C10.3464 26.8749 10.6704 27.3384 11.0811 27.7179C11.4917 28.0974 11.9794 28.3838 12.5109 28.5577C11.331 29.6 10.3858 30.8807 9.73748 32.3153C9.08919 33.7498 8.75262 35.3056 8.75 36.8798V38.125C8.75 38.2908 8.81585 38.4497 8.93306 38.5669C9.05027 38.6842 9.20924 38.75 9.375 38.75H30.625C30.7908 38.75 30.9497 38.6842 31.0669 38.5669C31.1842 38.4497 31.25 38.2908 31.25 38.125V36.8798C31.248 35.1767 30.8557 33.4967 30.1032 31.9688ZM26.3258 27.2097L26.6162 27.5L24.558 29.558C24.5 29.6161 24.454 29.685 24.4226 29.7608C24.3911 29.8366 24.375 29.9179 24.375 30C24.375 30.0821 24.3911 30.1634 24.4226 30.2392C24.454 30.315 24.5 30.3839 24.558 30.442L26.0625 31.9462L23.3353 35.8421L23.4298 34.8016C23.6447 32.4337 23.6044 30.0495 23.3097 27.6902C23.3091 27.6863 23.3087 27.6823 23.3081 27.6787L23.0156 25.6491C24.2677 25.7656 25.4392 26.3179 26.3258 27.2097ZM18.0707 37.5L17.8152 34.6884C17.8057 34.5841 17.7973 34.4795 17.7888 34.375H22.2109C22.2025 34.4795 22.1941 34.5841 22.1846 34.6884L21.9292 37.5H18.0707ZM15.442 30.442C15.5 30.3839 15.546 30.315 15.5774 30.2392C15.6089 30.1634 15.625 30.0821 15.625 30C15.625 29.9179 15.6089 29.8366 15.5774 29.7608C15.546 29.685 15.5 29.6161 15.442 29.558L14.6367 28.7528C15.3702 28.7351 16.0777 28.4782 16.6516 28.021C16.393 30.2725 16.3658 32.5446 16.5704 34.8016L16.6649 35.8421L13.9375 31.9462L15.442 30.442ZM19.0302 29.264C18.9107 29.4402 18.8414 29.6456 18.8299 29.8582C18.8183 30.0708 18.8649 30.2825 18.9646 30.4707C19.0643 30.6588 19.2133 30.8162 19.3958 30.926C19.5782 31.0358 19.7871 31.0938 20 31.0938C20.2129 31.0938 20.4218 31.0358 20.6042 30.926C20.7867 30.8162 20.9357 30.6588 21.0354 30.4707C21.1351 30.2825 21.1817 30.0708 21.1701 29.8582C21.1586 29.6456 21.0893 29.4402 20.9698 29.264C21.3892 29.1787 21.7953 29.0379 22.1776 28.8453C22.3098 30.2678 22.3465 31.6976 22.2875 33.125H17.7125C17.6535 31.6976 17.6902 30.2678 17.8225 28.8453C18.2047 29.0379 18.6109 29.1787 19.0302 29.264ZM21.6738 25.0991L22.0181 27.4912C21.4096 27.9052 20.6885 28.1219 19.9526 28.1122C19.2167 28.1024 18.5017 27.8665 17.9044 27.4366L17.7872 26.3182C17.8235 26.1927 17.8525 26.0652 17.8742 25.9364C17.9811 25.2912 17.9909 24.6337 17.9034 23.9856C19.0544 24.4482 20.3265 24.5157 21.5201 24.1777L21.6738 25.0991ZM23.5 21.3895C22.8203 22.2959 21.8155 22.9032 20.697 23.0836C19.5785 23.264 18.4337 23.0035 17.5034 22.3568C17.3584 21.767 17.3168 21.1565 17.3804 20.5525L17.4027 20.3402C17.4715 19.6841 17.4407 19.0213 17.3112 18.3745C17.22 17.9161 17.228 17.4436 17.3347 16.9887C17.492 17.0269 17.6578 17.0096 17.8038 16.9397C17.9499 16.8698 18.0673 16.7515 18.1361 16.605C18.205 16.4584 18.2211 16.2926 18.1817 16.1355C18.1423 15.9784 18.0498 15.8398 17.9199 15.7431C18.0593 15.5596 18.2178 15.3914 18.3926 15.2412L20.2451 13.6533C21.4151 13.661 22.584 13.7237 23.7518 13.8415C23.7714 15.1764 24.3111 16.451 25.2563 17.3939L25.3324 17.4702C24.9954 18.888 24.3718 20.2218 23.5 21.3895ZM13.1328 13.0149L13.1254 13.0113V9.89969L13.8612 9.77703C14.0324 9.74851 14.2039 9.72289 14.3754 9.69679V12.814C14.1194 12.8517 13.8636 12.892 13.608 12.9347L13.1328 13.0149ZM15.625 9.5275C16.0413 9.47828 16.458 9.43492 16.875 9.39976V12.5048C16.875 12.5127 16.8759 12.5205 16.8762 12.5283C16.4587 12.5623 16.0417 12.6045 15.625 12.6521V9.5275ZM18.125 9.31711C18.5417 9.29627 18.9583 9.282 19.375 9.27429V12.4071C18.9583 12.4139 18.5417 12.4276 18.125 12.4482V9.31711ZM23.125 12.5V9.39976C23.542 9.43492 23.9587 9.47828 24.375 9.5275V12.6525C23.9582 12.6048 23.541 12.5627 23.1235 12.5287C23.124 12.5191 23.125 12.5097 23.125 12.5ZM25.625 14.0796V15.0145C25.625 15.2836 25.6136 15.5525 25.5929 15.8205C25.2475 15.2694 25.0464 14.6404 25.0081 13.9912C25.2139 14.0191 25.4195 14.0486 25.625 14.0796ZM25.625 12.814V9.69679C25.7965 9.72289 25.968 9.74851 26.1392 9.77703L26.875 9.89969V13.0161L26.3923 12.935C26.1368 12.8921 25.881 12.8519 25.625 12.8143V12.814ZM21.875 12.4481C21.4583 12.4278 21.0417 12.4141 20.625 12.407V9.27422C21.0417 9.28114 21.4583 9.29541 21.875 9.31703V12.4481ZM26.875 16.8795H26.7251C26.8245 16.2628 26.8746 15.6391 26.875 15.0145V14.3798C27.2065 14.3798 27.5245 14.5115 27.7589 14.746C27.9933 14.9804 28.125 15.2983 28.125 15.6298C28.125 15.9614 27.9933 16.2793 27.7589 16.5137C27.5245 16.7481 27.2065 16.8798 26.875 16.8798V16.8795ZM14.4744 7.29804C14.8183 6.72569 15 6.07054 15 5.40281C15 4.98652 15.0949 4.57571 15.2775 4.20158C15.4601 3.82745 15.7255 3.49985 16.0536 3.24366C16.3817 2.98746 16.7639 2.80942 17.1712 2.72304C17.5784 2.63666 18 2.64422 18.4038 2.74515L19.0324 2.90226C19.6677 3.0607 20.3323 3.0607 20.9676 2.90226L21.5961 2.74515C22 2.64421 22.4215 2.63664 22.8288 2.72301C23.236 2.80938 23.6182 2.98742 23.9464 3.24362C24.2745 3.49981 24.5399 3.82742 24.7225 4.20155C24.9051 4.57569 25 4.98651 25 5.40281C25 6.07057 25.1817 6.72573 25.5256 7.29812L26.267 8.53187C25.7888 8.45318 25.3099 8.38349 24.8304 8.32281C24.8258 8.31797 24.8217 8.31281 24.817 8.30804L24.2678 7.75883C23.9044 7.39739 23.6162 6.96745 23.42 6.49389C23.2239 6.02034 23.1236 5.51257 23.125 5C23.125 4.83424 23.0592 4.67527 22.9419 4.55806C22.8247 4.44085 22.6658 4.375 22.5 4.375C22.3342 4.375 22.1753 4.44085 22.0581 4.55806C21.9408 4.67527 21.875 4.83424 21.875 5C21.8722 6.13278 22.2458 7.2344 22.937 8.13187C20.9818 7.98211 19.0182 7.98211 17.063 8.13187C17.7542 7.2344 18.1278 6.13278 18.125 5C18.125 4.83424 18.0592 4.67527 17.9419 4.55806C17.8247 4.44085 17.6658 4.375 17.5 4.375C17.3342 4.375 17.1753 4.44085 17.0581 4.55806C16.9408 4.67527 16.875 4.83424 16.875 5C16.8764 5.51257 16.7761 6.02034 16.58 6.49389C16.3838 6.96745 16.0956 7.39739 15.7322 7.75883L15.183 8.30804C15.1783 8.31281 15.1742 8.31797 15.1697 8.32281C14.6901 8.38344 14.2111 8.45312 13.733 8.53187L14.4744 7.29804ZM11.4587 26.2216C11.2289 25.8407 11.0993 25.4078 11.0823 24.9633C11.0652 24.5187 11.1611 24.0771 11.3611 23.6798L11.4632 23.4754C12.1559 22.0893 12.3302 20.5012 11.9547 18.9978C11.7557 18.1965 11.7482 17.3597 11.9328 16.555C12.1174 15.7503 12.4889 15.0003 13.0172 14.3659L13.0797 14.2912L13.8141 14.1678C15.2915 13.9199 16.7825 13.761 18.279 13.692L17.5789 14.292C16.9685 14.8161 16.5086 15.4931 16.2462 16.2536C15.9838 17.0141 15.9285 17.8307 16.0859 18.6197C16.1906 19.143 16.2156 19.6791 16.1599 20.2098L16.1377 20.422C16.0387 21.3526 16.1419 22.2936 16.4401 23.1806C16.7139 24.0015 16.7831 24.8769 16.6416 25.7306C16.5602 26.227 16.3048 26.6781 15.921 27.0033C15.5372 27.3284 15.0502 27.5062 14.5472 27.5048H13.7254C13.2692 27.5036 12.8211 27.3848 12.4241 27.16C12.0272 26.9353 11.6948 26.6121 11.459 26.2216H11.4587ZM10 36.8798C10.0025 35.4502 10.3154 34.0382 10.9171 32.7414C11.5188 31.4446 12.395 30.2939 13.4851 29.369L14.1162 30L12.683 31.433C12.5791 31.5369 12.5151 31.6741 12.5022 31.8204C12.4894 31.9668 12.5285 32.113 12.6127 32.2334L16.2996 37.5H13.1272C13.1496 36.7282 13.3396 35.9705 13.684 35.2795C13.7555 35.1315 13.7659 34.9613 13.7129 34.8058C13.6599 34.6502 13.5478 34.5218 13.4008 34.4483C13.2538 34.3748 13.0838 34.3622 12.9276 34.4131C12.7713 34.4641 12.6414 34.5745 12.566 34.7205C12.1352 35.5852 11.9 36.5342 11.8772 37.5H10V36.8798ZM30 37.5H28.1228C28.1 36.5342 27.8648 35.5852 27.434 34.7205C27.3979 34.646 27.3475 34.5794 27.2855 34.5246C27.2235 34.4697 27.1512 34.4277 27.0729 34.4011C26.9946 34.3744 26.9117 34.3635 26.8291 34.3691C26.7465 34.3747 26.6659 34.3966 26.5919 34.4336C26.5178 34.4706 26.4519 34.522 26.3979 34.5847C26.3438 34.6474 26.3028 34.7202 26.2771 34.7989C26.2515 34.8776 26.2417 34.9606 26.2484 35.0431C26.255 35.1256 26.278 35.2059 26.316 35.2795C26.6604 35.9705 26.8504 36.7282 26.8728 37.5H23.7004L27.387 32.2334C27.4713 32.113 27.5104 31.9668 27.4975 31.8204C27.4847 31.6741 27.4207 31.5369 27.3167 31.433L25.8838 30L26.515 29.3689C27.6033 30.2953 28.4783 31.4463 29.0799 32.7428C29.6814 34.0393 29.9953 35.4506 30 36.8798V37.5Z" fill="white"/>
<path d="M22.4219 16.9308C22.8102 16.9308 23.125 16.616 23.125 16.2277C23.125 15.8393 22.8102 15.5245 22.4219 15.5245C22.0335 15.5245 21.7188 15.8393 21.7188 16.2277C21.7188 16.616 22.0335 16.9308 22.4219 16.9308Z" fill="white"/>
<path d="M19.9793 18.7545C19.9863 18.7545 19.9934 18.7545 20.0004 18.7545C20.1662 18.7572 20.3262 18.694 20.4453 18.5787C20.5644 18.4633 20.6329 18.3054 20.6356 18.1397C20.6383 17.9739 20.575 17.8139 20.4597 17.6948C20.3444 17.5757 20.1865 17.5072 20.0207 17.5045C19.9929 17.5036 19.9658 17.4956 19.9419 17.4813C19.918 17.4671 19.8981 17.447 19.8841 17.423C19.8701 17.3989 19.8623 17.3718 19.8616 17.344C19.8609 17.3161 19.8673 17.2886 19.8801 17.2639L19.9306 17.1662C19.9689 17.0932 19.9925 17.0133 19.9999 16.9312C20.0073 16.8491 19.9983 16.7663 19.9736 16.6877C19.9488 16.609 19.9087 16.536 19.8557 16.4729C19.8026 16.4099 19.7376 16.3579 19.6643 16.32C19.5911 16.2822 19.511 16.2592 19.4289 16.2524C19.3467 16.2456 19.264 16.2551 19.1855 16.2805C19.107 16.3058 19.0344 16.3464 18.9716 16.3999C18.9089 16.4534 18.8574 16.5188 18.8201 16.5923L18.7696 16.6899C18.6599 16.9021 18.6057 17.1386 18.6121 17.3773C18.6184 17.6161 18.6851 17.8493 18.8059 18.0554C18.9267 18.2614 19.0976 18.4335 19.3029 18.5557C19.5081 18.6778 19.7409 18.7461 19.9796 18.754L19.9793 18.7545ZM20.8081 18.9375C20.6683 19.0781 20.502 19.1895 20.3189 19.2654C20.1358 19.3413 19.9394 19.3801 19.7412 19.3795H19.375C19.2092 19.3795 19.0503 19.4454 18.9331 19.5626C18.8159 19.6798 18.75 19.8388 18.75 20.0045C18.75 20.1703 18.8159 20.3293 18.9331 20.4465C19.0503 20.5637 19.2092 20.6295 19.375 20.6295H19.7412C20.1036 20.6305 20.4627 20.5596 20.7975 20.4209C21.1324 20.2822 21.4364 20.0785 21.692 19.8215C21.8092 19.7043 21.875 19.5453 21.8751 19.3795C21.8751 19.2137 21.8092 19.0548 21.692 18.9375C21.5748 18.8203 21.4158 18.7545 21.25 18.7544C21.0843 18.7544 20.9253 18.8203 20.8081 18.9375Z" fill="white"/>
</svg>
