<svg width="41" height="40" viewBox="0 0 41 40" fill="none" xmlns="http://www.w3.org/2000/svg">
<g clip-path="url(#clip0_850_412)">
<path d="M5.4753 18.9647L3.8584 19.3689L7.60874 34.3705L9.22565 33.9663L5.4753 18.9647Z" fill="white"/>
<path d="M12.1666 39.9999C11.2663 40.0016 10.3913 39.7017 9.68139 39.148C8.97146 38.5942 8.4675 37.8186 8.24996 36.9449L8.02246 36.0366L9.63996 35.6333L9.86663 36.5416C9.99544 37.0533 10.2914 37.5074 10.7076 37.8318C11.1238 38.1563 11.6364 38.3324 12.1641 38.3324C12.6918 38.3324 13.2044 38.1563 13.6206 37.8318C14.0368 37.5074 14.3328 37.0533 14.4616 36.5416L17.8166 23.1316L19.4333 23.5349L16.0833 36.9449C15.866 37.8187 15.3621 38.5945 14.6521 39.1483C13.9422 39.7021 13.067 40.0019 12.1666 39.9999Z" fill="white"/>
<path d="M18.8582 18.9657L18.2344 21.4648L19.8514 21.8685L20.4753 19.3694L18.8582 18.9657Z" fill="white"/>
<path d="M12.1673 6.66667C11.508 6.66667 10.8636 6.47117 10.3154 6.1049C9.76726 5.73863 9.34001 5.21803 9.08772 4.60895C8.83543 3.99986 8.76942 3.32964 8.89803 2.68303C9.02665 2.03643 9.34412 1.44249 9.8103 0.976312C10.2765 0.510137 10.8704 0.192668 11.517 0.0640506C12.1636 -0.0645668 12.8338 0.00144427 13.4429 0.253736C14.052 0.506029 14.5726 0.93327 14.9389 1.48143C15.3052 2.0296 15.5007 2.67406 15.5007 3.33334C15.5007 4.21739 15.1495 5.06524 14.5243 5.69036C13.8992 6.31548 13.0514 6.66667 12.1673 6.66667ZM12.1673 1.66667C11.8377 1.66667 11.5155 1.76442 11.2414 1.94755C10.9673 2.13069 10.7537 2.39099 10.6275 2.69553C10.5014 3.00007 10.4684 3.33518 10.5327 3.65849C10.597 3.98179 10.7557 4.27876 10.9888 4.51185C11.2219 4.74493 11.5189 4.90367 11.8422 4.96798C12.1655 5.03229 12.5006 4.99928 12.8051 4.87313C13.1097 4.74699 13.37 4.53337 13.5531 4.25929C13.7362 3.9852 13.834 3.66297 13.834 3.33334C13.834 2.89131 13.6584 2.46738 13.3458 2.15482C13.0333 1.84226 12.6093 1.66667 12.1673 1.66667Z" fill="white"/>
<path d="M10.5 12.5C10.026 12.5 9.56187 12.3652 9.16158 12.1114C8.76129 11.8576 8.44139 11.4953 8.23917 11.0667C7.68067 11.4578 7.01518 11.6673 6.33333 11.6667C4.495 11.6667 3 9.7975 3 7.5C3 4.7425 5.99083 2.5 9.66667 2.5V4.16667C6.95667 4.16667 4.66667 5.69333 4.66667 7.5C4.66667 8.855 5.43 10 6.33333 10C6.77536 10 7.19928 9.8244 7.51184 9.51184C7.82441 9.19928 8 8.77536 8 8.33333C8 8.11232 8.0878 7.90036 8.24408 7.74408C8.40036 7.5878 8.61232 7.5 8.83333 7.5C9.05435 7.5 9.26631 7.5878 9.42259 7.74408C9.57887 7.90036 9.66667 8.11232 9.66667 8.33333V10C9.66667 10.221 9.75446 10.433 9.91074 10.5893C10.067 10.7455 10.279 10.8333 10.5 10.8333C10.721 10.8333 10.933 10.7455 11.0893 10.5893C11.2455 10.433 11.3333 10.221 11.3333 10V9.16667C11.3333 8.94565 11.4211 8.73369 11.5774 8.57741C11.7337 8.42113 11.9457 8.33333 12.1667 8.33333C12.3877 8.33333 12.5996 8.42113 12.7559 8.57741C12.9122 8.73369 13 8.94565 13 9.16667C13 9.38768 13.0878 9.59964 13.2441 9.75592C13.4004 9.9122 13.6123 10 13.8333 10C14.0543 10 14.2663 9.9122 14.4226 9.75592C14.5789 9.59964 14.6667 9.38768 14.6667 9.16667V8.33333C14.6667 8.11232 14.7545 7.90036 14.9107 7.74408C15.067 7.5878 15.279 7.5 15.5 7.5C15.721 7.5 15.933 7.5878 16.0893 7.74408C16.2455 7.90036 16.3333 8.11232 16.3333 8.33333C16.3333 8.77536 16.5089 9.19928 16.8215 9.51184C17.1341 9.8244 17.558 10 18 10C18.9033 10 19.6667 8.855 19.6667 7.5C19.641 7.04784 19.5076 6.60838 19.2775 6.21828C19.0475 5.82819 18.7274 5.49876 18.3442 5.2575L19.3267 3.91083C19.925 4.30378 20.4197 4.83516 20.7691 5.45994C21.1184 6.08473 21.3119 6.78451 21.3333 7.5C21.3333 9.7975 19.8383 11.6667 18 11.6667C17.162 11.6674 16.3547 11.3513 15.74 10.7817C15.3649 11.2256 14.8467 11.5246 14.2747 11.6273C13.7027 11.73 13.1127 11.6299 12.6067 11.3442C12.3809 11.6983 12.0695 11.9898 11.7013 12.1918C11.3331 12.3938 10.92 12.4998 10.5 12.5Z" fill="white"/>
<path d="M16.8962 4.52259C16.1776 4.28294 15.4246 4.16273 14.6671 4.16675V2.50009C15.6065 2.4959 16.5402 2.64566 17.4312 2.94342L16.8962 4.52259ZM14.6671 23.3334C14.004 23.3334 13.3681 23.07 12.8993 22.6012C12.4305 22.1323 12.1671 21.4965 12.1671 20.8334V20.0001H4.2504C3.56655 20 2.90447 19.7597 2.37984 19.321C1.8552 18.8824 1.50137 18.2734 1.38017 17.6004C1.25896 16.9273 1.3781 16.2331 1.71675 15.639C2.0554 15.0449 2.59204 14.5887 3.2329 14.3501C3.07838 13.7456 3.00027 13.124 3.0004 12.5001C2.99771 11.2381 3.25766 9.98945 3.76373 8.83342L5.29123 9.50008C4.87739 10.446 4.66483 11.4676 4.66706 12.5001C4.66703 13.2498 4.81249 13.9924 5.0954 14.6868C5.14674 14.8133 5.16621 14.9505 5.15207 15.0863C5.13794 15.2222 5.09064 15.3524 5.01434 15.4657C4.93804 15.5789 4.83508 15.6717 4.71451 15.7358C4.59394 15.8 4.45946 15.8335 4.3229 15.8334C4.1534 15.8263 3.98418 15.8532 3.82526 15.9126C3.66634 15.9719 3.52093 16.0626 3.39764 16.1791C3.27434 16.2956 3.17567 16.4357 3.10744 16.591C3.03921 16.7464 3.00281 16.9138 3.0004 17.0834C3.0004 17.4149 3.13209 17.7329 3.36651 17.9673C3.60093 18.2017 3.91888 18.3334 4.2504 18.3334H13.0004C13.2214 18.3334 13.4334 18.4212 13.5897 18.5775C13.7459 18.7338 13.8337 18.9457 13.8337 19.1668V20.8334C13.8337 21.0544 13.9215 21.2664 14.0778 21.4227C14.2341 21.579 14.4461 21.6668 14.6671 21.6668C14.8881 21.6668 15.1 21.579 15.2563 21.4227C15.4126 21.2664 15.5004 21.0544 15.5004 20.8334V19.1668C15.5004 18.9457 15.5882 18.7338 15.7445 18.5775C15.9008 18.4212 16.1127 18.3334 16.3337 18.3334H20.0837C20.4153 18.3334 20.7332 18.2017 20.9676 17.9673C21.202 17.7329 21.3337 17.4149 21.3337 17.0834C21.3337 16.7519 21.202 16.434 20.9676 16.1995C20.7332 15.9651 20.4153 15.8334 20.0837 15.8334C19.9421 15.8338 19.8024 15.8007 19.676 15.7368C19.5495 15.673 19.44 15.5801 19.3562 15.4659C19.2747 15.3554 19.2214 15.2267 19.2009 15.0909C19.1804 14.9551 19.1934 14.8164 19.2387 14.6868C19.5216 13.9924 19.6671 13.2498 19.6671 12.5001C19.6701 11.4676 19.4578 10.4459 19.0437 9.50008L20.5712 8.83342C21.0771 9.98947 21.3368 11.2382 21.3337 12.5001C21.334 13.1278 21.2548 13.7531 21.0979 14.3609C21.7396 14.5972 22.2776 15.0519 22.6173 15.6453C22.9571 16.2387 23.077 16.9329 22.956 17.6059C22.835 18.2789 22.4807 18.8877 21.9555 19.3256C21.4302 19.7634 20.7675 20.0022 20.0837 20.0001H17.1671V20.8334C17.1671 21.4965 16.9037 22.1323 16.4348 22.6012C15.966 23.07 15.3301 23.3334 14.6671 23.3334Z" fill="white"/>
<path d="M8.80929 18.9647L7.19238 19.3689L12.1924 39.3692L13.8093 38.965L8.80929 18.9647Z" fill="white"/>
<path d="M12.1423 18.9647L10.5254 19.3689L14.6921 36.036L16.309 35.6317L12.1423 18.9647Z" fill="white"/>
<path d="M19.6673 14.1667H16.334V15.8334H19.6673V14.1667Z" fill="white"/>
<path d="M26.334 19.9999C23.8623 19.9999 23.834 18.4016 23.834 18.3333V17.5633C23.7315 16.8616 23.1323 11.8133 26.9648 10.8583C30.6032 9.94825 31.334 9.21825 31.334 8.33325H33.0007C33.0007 10.8558 30.219 11.7624 27.3698 12.4749C24.8123 13.1141 25.4823 17.3208 25.489 17.3633C25.4971 17.4084 25.501 17.4541 25.5007 17.4999V18.1866C25.7611 18.3066 26.0482 18.3571 26.334 18.3333V19.9999Z" fill="white"/>
<path d="M30.5003 9.16675H28.8337C28.8337 6.66675 31.4895 6.66675 33.8337 6.66675V8.33341C31.3337 8.33341 30.5003 8.45425 30.5003 9.16675ZM28.8337 19.1667H27.167C27.167 16.9276 30.0578 15.8159 33.1178 14.6384C35.2928 13.8017 38.0003 12.7609 38.0003 11.6667C38.0003 10.9901 36.4953 10.8334 36.1237 10.8334V9.16675C37.4395 9.16675 39.6653 9.69341 39.6653 11.6667C39.6653 13.9059 36.7745 15.0176 33.7145 16.1951C31.5412 17.0317 28.8337 18.0726 28.8337 19.1667Z" fill="white"/>
<path d="M36.6667 18.6225L36 17.0992C36.2046 17.0093 36.4031 16.906 36.5942 16.79C37.1058 16.4758 37.4 16.15 37.4017 15.8967C37.4017 15.5475 36.9192 15.0808 36.5917 14.875L37.4675 13.4583C37.9048 13.7132 38.2769 14.0661 38.5547 14.4892C38.8325 14.9123 39.0083 15.3941 39.0683 15.8967C39.0305 16.3898 38.8624 16.864 38.5811 17.2707C38.2998 17.6775 37.9155 18.0022 37.4675 18.2117C37.2102 18.3666 36.9426 18.5038 36.6667 18.6225ZM28 20H26.3333C26.1123 20 25.9004 19.9122 25.7441 19.7559C25.5878 19.5996 25.5 19.3877 25.5 19.1667C25.5 14.5133 29.6808 12.4575 32.7342 10.9567C33.8333 10.4167 35.5 9.5975 35.5 9.16667C35.5175 9.01589 35.503 8.86312 35.4577 8.71827C35.4123 8.57342 35.337 8.43972 35.2367 8.32583C34.8742 8.17324 34.468 8.16047 34.0967 8.29C33.9878 8.32626 33.8725 8.33963 33.7582 8.32928C33.6439 8.31893 33.533 8.28507 33.4324 8.22984C33.3318 8.1746 33.2436 8.09917 33.1735 8.00829C33.1034 7.9174 33.0529 7.81301 33.025 7.70167L31.525 1.71333C30.1366 3.93024 28.9329 6.25752 27.9258 8.67167C27.8744 8.78733 27.7974 8.88976 27.7005 8.9712C27.6036 9.05263 27.4894 9.11093 27.3667 9.14167C27.2617 9.16667 24.6667 9.87583 24.6667 12.5C24.6239 13.1148 24.7386 13.7303 25 14.2883C24.9553 14.247 24.9028 14.2149 24.8456 14.194C24.7883 14.1731 24.7275 14.1638 24.6667 14.1667V15.8333C23.4375 15.8333 23 14.1117 23 12.5C23.0114 11.4206 23.3611 10.3719 23.9997 9.5016C24.6383 8.63128 25.5337 7.98312 26.56 7.64833C29.9833 0 30.8267 0 31.3333 0H32.1667C32.3526 5.13525e-05 32.5331 0.0622511 32.6796 0.176708C32.826 0.291165 32.93 0.451307 32.975 0.631667L34.4533 6.5425C35.0716 6.47712 35.6932 6.62981 36.2108 6.97417C36.5392 7.2319 36.7985 7.56716 36.9653 7.94984C37.1322 8.33252 37.2013 8.75064 37.1667 9.16667C37.1667 10.635 35.535 11.4375 33.4692 12.4525C30.8858 13.7225 27.7192 15.2783 27.2317 18.3333H28V20Z" fill="white"/>
<path d="M34.8094 31.8641L33.1911 31.4691L36.2477 18.9691L35.8702 18.5833C35.7388 18.4445 35.5621 18.3573 35.372 18.3374C35.1818 18.3175 34.9909 18.3663 34.8336 18.475L30.9702 21.1083L30.0319 19.7316L33.8944 17.0983C34.3752 16.7701 34.9564 16.622 35.5356 16.6801C36.1148 16.7381 36.655 16.9987 37.0611 17.4158L37.7619 18.1333C37.8608 18.2345 37.9322 18.3592 37.9695 18.4957C38.0069 18.6321 38.0088 18.7759 37.9752 18.9133L34.8094 31.8641ZM32.1669 40H30.5002C30.3137 39.9999 30.1325 39.9371 29.9858 39.8219C29.8391 39.7066 29.7353 39.5454 29.6911 39.3641L26.0244 24.3641L27.6427 23.9691L31.1544 38.3333H31.5127L32.7836 33.135L34.4027 33.53L32.9761 39.3633C32.932 39.5447 32.8283 39.7061 32.6816 39.8215C32.5349 39.937 32.3536 39.9998 32.1669 40Z" fill="white"/>
<path d="M35.5007 28.9409H33.8341C33.8341 24.1759 30.6674 20.2267 26.5841 19.6284L27.2382 22.3051L25.6199 22.7001L24.6916 18.9167C24.6611 18.7939 24.6589 18.6657 24.6853 18.542C24.7118 18.4182 24.766 18.3021 24.844 18.2024C24.922 18.1027 25.0217 18.0221 25.1355 17.9667C25.2492 17.9113 25.3742 17.8825 25.5007 17.8826C31.0149 17.8826 35.5007 22.8434 35.5007 28.9409Z" fill="white"/>
</g>
<defs>
<clipPath id="clip0_850_412">
<rect width="40" height="40" fill="white" transform="translate(0.5)"/>
</clipPath>
</defs>
</svg>
