<svg width="41" height="40" viewBox="0 0 41 40" fill="none" xmlns="http://www.w3.org/2000/svg">
<g clip-path="url(#clip0_3555_606)">
<path d="M9.18785 38.8238H5.30926M5.30926 38.8238H1.43066M5.30926 38.8238V9.3609C5.52474 6.63285 7.11927 1.17676 11.7735 1.17676C16.9451 1.17676 18.8843 5.26883 18.8843 9.3609V10.1793M18.8843 10.1793C18.0225 10.1793 15.0057 11.8162 15.0057 14.2713V15.9082H17.5915M18.8843 10.1793C21.4701 10.8341 22.7629 12.6345 22.7629 14.2713V15.9082H20.1772M17.5915 15.9082C17.5915 16.4538 17.85 17.545 18.8843 17.545C19.9187 17.545 20.1772 16.4538 20.1772 15.9082M17.5915 15.9082H20.1772M15.6522 32.2765V37.187M15.6522 32.2765C15.6522 31.458 15.2643 29.8212 13.7129 29.8212M15.6522 32.2765H25.9951M15.6522 37.187H35.6916M15.6522 37.187V38.8238H11.7735V32.2765C11.7735 31.458 12.1615 29.8212 13.7129 29.8212M13.7129 29.8212V24.9108C13.7129 24.6379 13.9715 23.2739 15.0057 23.2739C16.0401 23.2739 21.901 23.2739 24.7022 23.2739C25.1332 23.2739 25.9951 23.4376 25.9951 24.0924M25.9951 32.2765H35.6916M25.9951 32.2765V24.0924M35.6916 32.2765V37.187M35.6916 32.2765C35.6916 31.458 36.0795 29.8212 37.6309 29.8212M35.6916 37.187V38.8238H39.5702V32.2765C39.5702 31.458 39.1823 29.8212 37.6309 29.8212M37.6309 29.8212V24.9108C37.6309 24.3651 37.3723 23.2739 36.338 23.2739C35.3038 23.2739 29.8737 23.2739 27.288 23.2739C27.0725 23.2739 25.9951 23.2739 25.9951 24.0924" stroke="white" stroke-linecap="round" stroke-linejoin="round"/>
</g>
<defs>
<clipPath id="clip0_3555_606">
<rect width="40" height="40" fill="white" transform="translate(0.5)"/>
</clipPath>
</defs>
</svg>
