<svg width="40" height="40" viewBox="0 0 40 40" fill="none" xmlns="http://www.w3.org/2000/svg">
<path d="M17.9286 3.56249C16.8312 2.55456 15.4922 1.84695 14.0411 1.50811C13.8449 1.46103 13.6461 1.41936 13.4449 1.38311C11.882 1.11777 10.2773 1.25309 8.78094 1.7764C7.28455 2.29971 5.94529 3.19393 4.88838 4.37545C3.83147 5.55698 3.09143 6.98721 2.73745 8.53245C2.38346 10.0777 2.4271 11.6874 2.86427 13.2112C3.14636 14.084 3.53536 14.9184 4.0224 15.6956C4.54588 16.4958 4.92653 17.3808 5.1474 18.3112C5.66995 20.6572 5.76628 23.078 5.43177 25.4581C5.3474 25.9156 5.26802 26.3631 5.22177 26.8119C5.20519 26.9769 5.25485 27.1417 5.35981 27.2701C5.46477 27.3985 5.61644 27.48 5.78146 27.4965C5.94647 27.5131 6.11131 27.4635 6.23972 27.3585C6.36812 27.2535 6.44957 27.1019 6.46615 26.9369C6.50615 26.5344 6.57802 26.1312 6.66115 25.6869C6.91573 24.1836 6.96472 22.6527 6.80677 21.1362C8.30677 18.2881 8.08865 16.4587 8.07865 16.3812C8.05759 16.2168 7.97208 16.0675 7.84093 15.9661C7.70977 15.8647 7.5437 15.8196 7.37927 15.8406C7.21484 15.8617 7.0655 15.9472 6.96411 16.0783C6.86273 16.2095 6.81759 16.3756 6.83865 16.54C6.85775 17.2792 6.73797 18.0155 6.48552 18.7106C6.4499 18.5012 6.41427 18.2906 6.37677 18.0856C6.13345 17.0145 5.70311 15.9947 5.10552 15.0731C4.67003 14.3822 4.32056 13.6407 4.0649 12.865C3.68656 11.5449 3.64895 10.1506 3.95559 8.81204C4.26223 7.47353 4.90311 6.23457 5.81838 5.21088C6.73364 4.18719 7.89343 3.41218 9.18941 2.95822C10.4854 2.50426 11.8753 2.38617 13.2293 2.61499C13.4049 2.64499 13.5786 2.68124 13.7549 2.72311C14.9979 3.01318 16.1448 3.61968 17.0843 4.48374C18.102 5.44664 18.8541 6.65587 19.2677 7.99448C19.6814 9.33309 19.7426 10.7558 19.4455 12.125C18.8454 15.6229 17.9208 19.0573 16.6836 22.3837C16.393 23.1531 16.1149 23.9262 15.8368 24.7006C15.6018 25.3531 15.3668 26.0069 15.1243 26.6575C15.0955 26.7344 15.0822 26.8162 15.0851 26.8983C15.088 26.9803 15.107 27.061 15.1411 27.1357C15.1751 27.2104 15.2236 27.2776 15.2837 27.3336C15.3437 27.3896 15.4142 27.4331 15.4911 27.4619C15.5612 27.4877 15.6352 27.501 15.7099 27.5012C15.8372 27.5011 15.9614 27.4622 16.0659 27.3896C16.1705 27.317 16.2503 27.2142 16.2949 27.095C16.5399 26.4394 16.7768 25.7825 17.013 25.1225C17.2886 24.3562 17.5649 23.5887 17.853 22.8269C19.1176 19.4284 20.0627 15.9195 20.6761 12.3456C20.7105 12.1544 20.7386 11.9644 20.7624 11.7744C22.5451 11.3907 24.4054 11.6291 26.0336 12.45C27.0814 13.0397 27.9923 13.8448 28.7062 14.8122C29.4202 15.7797 29.9209 16.8874 30.1755 18.0625C30.1755 18.0944 30.1755 18.125 30.1755 18.1575C30.191 18.3286 30.1722 18.501 30.1202 18.6648C30.0682 18.8285 29.9841 18.9802 29.8727 19.1111C29.7614 19.2419 29.6251 19.3492 29.4718 19.4267C29.3185 19.5042 29.1513 19.5504 28.9799 19.5625C28.3545 19.6419 27.7816 19.953 27.3744 20.4342C26.9672 20.9155 26.7553 21.5319 26.7805 22.1619C26.7964 22.3324 26.7782 22.5045 26.7269 22.6679C26.6756 22.8314 26.5922 22.9829 26.4817 23.1138C26.3711 23.2447 26.2356 23.3522 26.083 23.4301C25.9304 23.508 25.7639 23.5547 25.593 23.5675C24.9663 23.6432 24.3917 23.9542 23.9855 24.4375C23.9322 24.5 23.8917 24.5724 23.8663 24.6505C23.8409 24.7287 23.8312 24.8111 23.8377 24.893C23.8441 24.9749 23.8667 25.0548 23.904 25.128C23.9413 25.2012 23.9927 25.2663 24.0552 25.3197C24.1177 25.373 24.1901 25.4135 24.2683 25.4389C24.3464 25.4643 24.4288 25.474 24.5107 25.4675C24.5927 25.4611 24.6725 25.4385 24.7457 25.4012C24.8189 25.3639 24.884 25.3125 24.9374 25.25C25.0472 25.1178 25.1828 25.0095 25.3359 24.9317C25.4891 24.8539 25.6566 24.8082 25.828 24.7975C26.4532 24.7181 27.0259 24.4072 27.433 23.9262C27.8402 23.4452 28.0523 22.8291 28.0274 22.1994C28.0112 22.0285 28.0294 21.8561 28.0808 21.6923C28.1322 21.5285 28.2158 21.3766 28.3267 21.2456C28.4376 21.1146 28.5736 21.0071 28.7267 20.9294C28.8797 20.8517 29.0468 20.8053 29.218 20.7931C29.8436 20.713 30.4165 20.4015 30.8239 19.9201C31.2314 19.4386 31.4437 18.8221 31.4193 18.1919C31.4034 18.0207 31.4217 17.8481 31.4734 17.6841C31.525 17.5201 31.6088 17.3681 31.7199 17.2369C31.831 17.1057 31.9672 16.998 32.1204 16.9201C32.2737 16.8421 32.4409 16.7956 32.6124 16.7831C33.0233 16.7248 33.4154 16.5732 33.7586 16.34L35.1143 17.4875C34.9966 17.5235 34.8771 17.5529 34.7561 17.5756C34.1308 17.6557 33.5582 17.967 33.1509 18.4482C32.7436 18.9294 32.5312 19.5457 32.5555 20.1756C32.5715 20.3468 32.5532 20.5194 32.5017 20.6835C32.4501 20.8475 32.3664 20.9996 32.2553 21.1308C32.1443 21.262 32.0082 21.3698 31.8549 21.4478C31.7017 21.5258 31.5345 21.5724 31.363 21.585C30.7376 21.6644 30.1646 21.9754 29.7573 22.4567C29.35 22.9379 29.138 23.5544 29.163 24.1844C29.1793 24.355 29.1613 24.5272 29.1101 24.6908C29.059 24.8543 28.9756 25.0061 28.865 25.137C28.7544 25.2679 28.6187 25.3755 28.466 25.4532C28.3132 25.531 28.1465 25.5775 27.9755 25.59C27.3499 25.6669 26.7766 25.978 26.3711 26.4606C26.264 26.5871 26.2115 26.751 26.2251 26.9162C26.2388 27.0814 26.3175 27.2344 26.444 27.3415C26.5704 27.4487 26.7343 27.5012 26.8995 27.4876C27.0647 27.4739 27.2177 27.3952 27.3249 27.2687C27.4349 27.1367 27.5706 27.0284 27.7239 26.9506C27.8771 26.8728 28.0446 26.8271 28.2161 26.8162C28.8414 26.7372 29.4143 26.4264 29.8215 25.9453C30.2286 25.4642 30.4404 24.8479 30.4149 24.2181C30.3992 24.0473 30.4178 23.8751 30.4694 23.7115C30.5211 23.5479 30.6048 23.3963 30.7157 23.2654C30.8266 23.1346 30.9624 23.0271 31.1153 22.9493C31.2682 22.8716 31.4351 22.8251 31.6061 22.8125C32.2317 22.7329 32.8048 22.4218 33.2123 21.9405C33.6198 21.4592 33.8321 20.8426 33.8074 20.2125C33.791 20.0411 33.8091 19.8682 33.8605 19.7039C33.9119 19.5396 33.9955 19.3872 34.1066 19.2557C34.2177 19.1242 34.3539 19.0162 34.5073 18.938C34.6607 18.8599 34.8282 18.8132 34.9999 18.8006C35.4102 18.7415 35.8016 18.5896 36.1443 18.3562L37.0293 19.1062C36.9103 19.1412 36.7895 19.1693 36.6674 19.1906C36.0419 19.2706 35.4689 19.5819 35.0615 20.0633C34.6541 20.5446 34.4417 21.1611 34.4661 21.7912C34.4821 21.9624 34.4638 22.135 34.4123 22.299C34.3607 22.463 34.277 22.615 34.1659 22.7462C34.0549 22.8774 33.9187 22.9851 33.7655 23.063C33.6123 23.1409 33.4451 23.1875 33.2736 23.2C32.6469 23.2776 32.073 23.5903 31.668 24.075C31.566 24.2024 31.5179 24.3646 31.534 24.527C31.5501 24.6895 31.629 24.8391 31.754 24.9441C31.879 25.0491 32.04 25.101 32.2028 25.0888C32.3655 25.0766 32.517 25.0012 32.6249 24.8787C32.7348 24.7464 32.8706 24.6379 33.024 24.56C33.1774 24.482 33.3451 24.4363 33.5168 24.4256C34.1424 24.3458 34.7154 24.0345 35.1228 23.5531C35.5303 23.0717 35.7426 22.4552 35.718 21.825C35.7018 21.6537 35.72 21.481 35.7716 21.3168C35.8231 21.1527 35.9069 21.0005 36.018 20.8692C36.1292 20.738 36.2654 20.6302 36.4188 20.5523C36.5722 20.4744 36.7396 20.4279 36.9111 20.4156C37.5374 20.3385 38.1111 20.027 38.5168 19.5437C38.57 19.4811 38.6103 19.4085 38.6354 19.3303C38.6605 19.252 38.6699 19.1695 38.6631 19.0876C38.6564 19.0057 38.6335 18.9259 38.5958 18.8529C38.5581 18.7798 38.5064 18.7149 38.4436 18.6619L36.5361 17.0475L34.1524 15.0294C34.0897 14.9763 34.0172 14.936 33.939 14.911C33.8608 14.8859 33.7785 14.8765 33.6966 14.8833C33.6148 14.8901 33.5351 14.9129 33.4621 14.9505C33.3891 14.9882 33.3242 15.0398 33.2711 15.1025C33.161 15.235 33.025 15.3437 32.8714 15.422C32.7179 15.5002 32.55 15.5463 32.378 15.5575C31.8189 15.6308 31.3003 15.8886 30.9043 16.29C30.3985 14.9902 29.6256 13.8111 28.6355 12.8287L30.408 9.49186C30.4711 9.38705 30.5649 9.30426 30.6768 9.25481C30.7887 9.20537 30.9131 9.19168 31.033 9.21561C31.7949 9.31707 32.5676 9.1367 33.2058 8.70842C33.844 8.28014 34.3038 7.63347 34.4986 6.88999C34.6274 6.38703 34.6284 5.85988 34.5017 5.35641C34.375 4.85294 34.1245 4.3891 33.773 4.007C33.4215 3.62491 32.9802 3.33666 32.489 3.16844C31.9979 3.00022 31.4725 2.95736 30.9605 3.04374C30.7395 2.57392 30.4046 2.16677 29.9863 1.85924C29.568 1.55172 29.0794 1.35356 28.5651 1.28278C28.0507 1.212 27.5268 1.27083 27.041 1.45392C26.5551 1.63702 26.1227 1.93859 25.783 2.33124C25.2824 2.91478 25.0128 3.66143 25.0252 4.43017C25.0375 5.19891 25.3309 5.93653 25.8499 6.50374C25.9379 6.58843 25.9976 6.69832 26.0207 6.81829C26.0437 6.93827 26.029 7.06244 25.9786 7.17374L24.2286 10.5156C23.1141 10.3083 21.9718 10.298 20.8536 10.485C20.8872 9.18937 20.6436 7.90154 20.1391 6.70769C19.6347 5.51384 18.881 4.44151 17.9286 3.56249ZM27.0805 7.74999C27.2531 7.4109 27.3152 7.02633 27.2581 6.65018C27.2011 6.27402 27.0277 5.92516 26.7624 5.65248C26.5637 5.44329 26.416 5.19106 26.3307 4.91544C26.2455 4.63983 26.225 4.34825 26.2708 4.06341C26.3166 3.77857 26.4276 3.50815 26.595 3.27319C26.7624 3.03824 26.9818 2.84509 27.2361 2.70878C27.4904 2.57247 27.7727 2.49668 28.061 2.4873C28.3494 2.47792 28.636 2.53521 28.8986 2.6547C29.1612 2.7742 29.3927 2.95268 29.575 3.17626C29.7574 3.39984 29.8856 3.66248 29.9499 3.94374C29.9706 4.03048 30.0097 4.11179 30.0644 4.18219C30.1192 4.2526 30.1884 4.31046 30.2674 4.35191C30.3464 4.39335 30.4333 4.41741 30.5223 4.42247C30.6114 4.42753 30.7005 4.41347 30.7836 4.38124C31.0504 4.27698 31.3375 4.23535 31.6229 4.25954C31.9083 4.28373 32.1843 4.37311 32.4297 4.52078C32.6751 4.66845 32.8833 4.87048 33.0383 5.11131C33.1933 5.35213 33.291 5.62532 33.3238 5.90983C33.3566 6.19435 33.3236 6.48259 33.2274 6.75237C33.1313 7.02214 32.9745 7.26624 32.7691 7.46587C32.5638 7.6655 32.3153 7.81532 32.0429 7.90381C31.7706 7.99229 31.4815 8.01707 31.198 7.97624C30.8233 7.91385 30.4385 7.97006 30.0973 8.13702C29.7561 8.30398 29.4756 8.57334 29.2949 8.90749L27.6555 12C27.3246 11.7557 26.9764 11.5357 26.6136 11.3419C26.241 11.1509 25.855 10.9871 25.4586 10.8519L27.0805 7.74999Z" fill="white"/>
<path d="M14.9375 20.8531C14.8906 21.0121 14.9087 21.1832 14.988 21.3287C15.0672 21.4743 15.201 21.5825 15.36 21.6294C15.4173 21.6467 15.4769 21.6553 15.5368 21.655C15.6716 21.655 15.8028 21.6115 15.9109 21.5308C16.0189 21.4502 16.0979 21.3368 16.1362 21.2075C16.6018 19.6313 17.3025 17.3106 17.9993 15.2025C18.7712 12.8688 19.1281 10.8575 18.3562 8.62938C18.0171 7.56905 17.4346 6.60278 16.6553 5.80784C15.876 5.01289 14.9215 4.41133 13.8681 4.05125C13.735 4.01063 13.6 3.97375 13.4606 3.94C13.3212 3.90625 13.1681 3.8775 13.0156 3.84813C11.6421 3.61818 10.2312 3.81076 8.96954 4.40038C7.70792 4.99 6.65511 5.94885 5.95045 7.15001C5.2458 8.35118 4.92254 9.73802 5.02345 11.127C5.12436 12.5159 5.6447 13.8414 6.51558 14.9281C6.56688 14.9922 6.6303 15.0456 6.70222 15.0852C6.77414 15.1248 6.85316 15.1498 6.93476 15.1589C7.01636 15.1679 7.09894 15.1608 7.1778 15.138C7.25665 15.1151 7.33023 15.0769 7.39433 15.0256C7.45843 14.9743 7.5118 14.9109 7.55139 14.839C7.59098 14.7671 7.61602 14.688 7.62507 14.6064C7.63413 14.5248 7.62702 14.4423 7.60416 14.3634C7.5813 14.2846 7.54313 14.211 7.49183 14.1469C6.77977 13.2585 6.35406 12.1749 6.27096 11.0395C6.18787 9.90396 6.4513 8.76998 7.02643 7.78739C7.60157 6.80481 8.46134 6.01988 9.4921 5.53637C10.5229 5.05285 11.6761 4.8935 12.7993 5.07938C12.9243 5.10188 13.0493 5.12625 13.1668 5.155C13.2843 5.18375 13.3912 5.21313 13.5 5.24625C14.3655 5.54832 15.1485 6.04847 15.7864 6.70683C16.4244 7.36518 16.8997 8.16351 17.1743 9.03813C17.8331 10.9413 17.5243 12.6575 16.8118 14.8094C16.1093 16.9375 15.4043 19.2688 14.9375 20.8531Z" fill="white"/>
<path d="M14.775 7.69439C14.733 7.62383 14.6776 7.56224 14.6118 7.51312C14.546 7.464 14.4712 7.42832 14.3916 7.40813C14.312 7.38793 14.2293 7.38361 14.148 7.3954C14.0668 7.4072 13.9887 7.43489 13.9181 7.47689L9.07188 10.3663C8.9294 10.451 8.82645 10.589 8.78566 10.7497C8.74487 10.9104 8.76959 11.0807 8.85437 11.2231C8.93916 11.3656 9.07707 11.4686 9.23777 11.5094C9.39846 11.5501 9.56878 11.5254 9.71125 11.4406L14.5575 8.55126C14.6281 8.50929 14.6897 8.45383 14.7388 8.38805C14.7879 8.32227 14.8236 8.24746 14.8438 8.16788C14.864 8.08831 14.8683 8.00554 14.8565 7.9243C14.8447 7.84305 14.817 7.76493 14.775 7.69439ZM14.775 12.9C14.733 12.8295 14.6776 12.7679 14.6118 12.7187C14.546 12.6696 14.4712 12.6339 14.3916 12.6138C14.312 12.5936 14.2293 12.5892 14.148 12.601C14.0668 12.6128 13.9887 12.6405 13.9181 12.6825L9.07188 15.5713C8.95433 15.6413 8.86302 15.748 8.81197 15.875C8.76093 16.002 8.75296 16.1422 8.7893 16.2741C8.82563 16.406 8.90426 16.5224 9.01312 16.6053C9.12197 16.6882 9.25503 16.7331 9.39188 16.7331C9.50431 16.7335 9.61472 16.7033 9.71125 16.6456L14.5575 13.7569C14.6281 13.7149 14.6897 13.6595 14.7388 13.5937C14.7879 13.5279 14.8236 13.4531 14.8438 13.3735C14.864 13.2939 14.8683 13.2112 14.8565 13.1299C14.8447 13.0487 14.817 12.9706 14.775 12.9ZM14.775 18.105C14.733 18.0345 14.6776 17.9729 14.6118 17.9237C14.546 17.8746 14.4712 17.8389 14.3916 17.8188C14.312 17.7986 14.2293 17.7942 14.148 17.806C14.0668 17.8178 13.9887 17.8455 13.9181 17.8875L9.07188 20.7769C8.95402 20.8468 8.86242 20.9535 8.81117 21.0806C8.75991 21.2077 8.75185 21.3481 8.78822 21.4803C8.82459 21.6124 8.90337 21.7289 9.01245 21.8119C9.12152 21.8948 9.25484 21.9396 9.39188 21.9394C9.50436 21.9396 9.61477 21.9091 9.71125 21.8513L14.5575 18.9619C14.6281 18.9199 14.6897 18.8645 14.7388 18.7987C14.7879 18.7329 14.8236 18.6581 14.8438 18.5785C14.864 18.4989 14.8683 18.4162 14.8565 18.3349C14.8447 18.2537 14.817 18.1756 14.775 18.105ZM37.5 28.125H36.135C35.818 27.4141 35.3108 26.8044 34.6694 26.3633C34.028 25.9222 33.2773 25.6667 32.5 25.625C31.7227 25.6667 30.972 25.9222 30.3306 26.3633C29.6892 26.8044 29.182 27.4141 28.865 28.125H26.135C25.818 27.4141 25.3108 26.8044 24.6694 26.3633C24.028 25.9222 23.2773 25.6667 22.5 25.625C21.7227 25.6667 20.972 25.9222 20.3306 26.3633C19.6892 26.8044 19.182 27.4141 18.865 28.125H2.5C2.16848 28.125 1.85054 28.2567 1.61612 28.4911C1.3817 28.7255 1.25 29.0435 1.25 29.375V31.25C1.25215 33.2385 2.04302 35.1449 3.44907 36.5509C4.85513 37.957 6.76154 38.7479 8.75 38.75H35.0831C35.3837 38.7489 35.6739 38.6399 35.901 38.443C36.128 38.2461 36.2769 37.9743 36.3206 37.6769L36.7925 34.375H37.5C37.8315 34.375 38.1495 34.2433 38.3839 34.0089C38.6183 33.7745 38.75 33.4565 38.75 33.125V29.375C38.75 29.0435 38.6183 28.7255 38.3839 28.4911C38.1495 28.2567 37.8315 28.125 37.5 28.125ZM37.5 29.375V30.625H36.8462C36.8092 30.2023 36.7335 29.7839 36.62 29.375H37.5ZM32.5 26.875C33.6325 26.875 34.625 27.7256 35.1712 28.9919C35.3931 29.5118 35.5341 30.0625 35.5894 30.625H29.4106C29.4657 30.0636 29.6063 29.5139 29.8275 28.995V28.9919C30.375 27.7256 31.3675 26.875 32.5 26.875ZM28.38 29.375C28.2665 29.7839 28.1908 30.2023 28.1538 30.625H26.8462C26.8092 30.2023 26.7335 29.7839 26.62 29.375H28.38ZM22.5 26.875C23.6325 26.875 24.625 27.7256 25.1712 28.9919C25.3931 29.5118 25.5341 30.0625 25.5894 30.625H19.4106C19.4657 30.0636 19.6063 29.5139 19.8275 28.995V28.9919C20.375 27.7256 21.3675 26.875 22.5 26.875ZM2.5 31.25V29.375H3.75C3.75 33.8088 6.19125 36.25 10.625 36.25C10.7908 36.25 10.9497 36.1842 11.0669 36.067C11.1842 35.9497 11.25 35.7908 11.25 35.625C11.25 35.4593 11.1842 35.3003 11.0669 35.1831C10.9497 35.0659 10.7908 35 10.625 35C6.8925 35 5 33.1075 5 29.375H18.38C18.2665 29.7839 18.1908 30.2023 18.1537 30.625H17.5C17.1685 30.625 16.8505 30.7567 16.6161 30.9911C16.3817 31.2255 16.25 31.5435 16.25 31.875V33.125C16.25 33.4565 16.3817 33.7745 16.6161 34.0089C16.8505 34.2433 17.1685 34.375 17.5 34.375H18.2075L18.6538 37.5H8.75C7.09296 37.4982 5.5043 36.8391 4.33259 35.6674C3.16088 34.4957 2.50182 32.9071 2.5 31.25ZM28.2075 34.375L28.6538 37.5H26.3462L26.7925 34.375H28.2075ZM25.0825 37.5H19.9169L19.4706 34.375H25.5294L25.0825 37.5ZM35.0825 37.5H29.9169L29.4706 34.375H35.5294L35.0825 37.5ZM17.5 33.125V31.875H37.5V33.125H17.5ZM13.9181 23.0925L9.07188 25.9819C8.95402 26.0518 8.86242 26.1585 8.81117 26.2856C8.75991 26.4127 8.75185 26.5531 8.78822 26.6853C8.82459 26.8174 8.90337 26.9339 9.01245 27.0169C9.12152 27.0998 9.25484 27.1446 9.39188 27.1444C9.50436 27.1446 9.61477 27.1141 9.71125 27.0563L14.5575 24.1669C14.7 24.0821 14.8029 23.9442 14.8437 23.7835C14.8845 23.6228 14.8598 23.4525 14.775 23.31C14.6902 23.1675 14.5523 23.0646 14.3916 23.0238C14.2309 22.983 14.0606 23.0077 13.9181 23.0925ZM27.3869 18.2913C27.3852 18.3733 27.3997 18.4549 27.4296 18.5314C27.4595 18.6079 27.5042 18.6777 27.5611 18.7369C27.6179 18.7961 27.6859 18.8435 27.7611 18.8764C27.8363 18.9094 27.9173 18.9271 27.9994 18.9288H28.0119C28.1754 18.9288 28.3324 18.8648 28.4492 18.7504C28.5661 18.636 28.6334 18.4804 28.6369 18.3169C28.6638 17.0093 28.214 15.7365 27.3713 14.7363C27.2637 14.6119 27.1115 14.535 26.9476 14.522C26.7837 14.5091 26.6214 14.5613 26.4957 14.6673C26.37 14.7732 26.2911 14.9244 26.2761 15.0881C26.2611 15.2519 26.3113 15.4149 26.4156 15.5419C27.0625 16.31 27.4078 17.2873 27.3869 18.2913ZM25.9313 13.0575C25.8132 12.9438 25.6552 12.881 25.4914 12.8827C25.3275 12.8843 25.1708 12.9503 25.0551 13.0663C24.9394 13.1824 24.8739 13.3392 24.8727 13.5031C24.8715 13.667 24.9347 13.8248 25.0487 13.9425L25.2675 14.16C25.3855 14.2737 25.5435 14.3365 25.7074 14.3348C25.8713 14.3332 26.0279 14.2672 26.1437 14.1512C26.2594 14.0351 26.3249 13.8783 26.3261 13.7144C26.3273 13.5505 26.264 13.3927 26.15 13.275L25.9313 13.0575Z" fill="white"/>
<path d="M13.75 35H13.125C12.9592 35 12.8003 35.0658 12.6831 35.1831C12.5658 35.3003 12.5 35.4592 12.5 35.625C12.5 35.7908 12.5658 35.9497 12.6831 36.0669C12.8003 36.1842 12.9592 36.25 13.125 36.25H13.75C13.9158 36.25 14.0747 36.1842 14.1919 36.0669C14.3092 35.9497 14.375 35.7908 14.375 35.625C14.375 35.4592 14.3092 35.3003 14.1919 35.1831C14.0747 35.0658 13.9158 35 13.75 35Z" fill="white"/>
</svg>
