<svg width="40" height="40" viewBox="0 0 40 40" fill="none" xmlns="http://www.w3.org/2000/svg">
<g clip-path="url(#clip0_353_2042)">
<path d="M9.88446 23.4518C9.72263 23.4162 9.55329 23.4463 9.41368 23.5356C9.27406 23.6248 9.17559 23.7658 9.13991 23.9276C9.10423 24.0894 9.13426 24.2588 9.2234 24.3985C9.31255 24.5382 9.4535 24.6367 9.61529 24.6725C11.2275 25.028 14.7202 25.6247 20.0001 25.6247C25.2799 25.6247 28.7726 25.028 30.3849 24.6725C30.5464 24.6365 30.6871 24.5379 30.7761 24.3983C30.865 24.2587 30.895 24.0895 30.8593 23.9278C30.8237 23.7662 30.7254 23.6253 30.5859 23.536C30.4465 23.4468 30.2774 23.4165 30.1157 23.4518C28.5532 23.7963 25.1612 24.3746 20.0001 24.3746C14.8389 24.3746 11.447 23.7963 9.88446 23.4518ZM24.7241 12.7733C23.7543 13.7646 21.8751 16.4277 21.8751 22.1871C21.8751 22.3528 21.9409 22.5118 22.0581 22.629C22.1753 22.7462 22.3343 22.8121 22.5001 22.8121C22.6658 22.8121 22.8248 22.7462 22.942 22.629C23.0592 22.5118 23.1251 22.3528 23.1251 22.1871C23.1251 16.8403 24.8441 14.4561 25.6099 13.6592L26.5082 14.5575C25.8354 15.3787 24.3751 17.6126 24.3751 21.5621C24.3751 21.7278 24.4409 21.8868 24.5581 22.004C24.6753 22.1212 24.8343 22.1871 25.0001 22.1871C25.1658 22.1871 25.3248 22.1212 25.442 22.004C25.5592 21.8868 25.6251 21.7278 25.6251 21.5621C25.6251 18.1545 26.8301 16.1884 27.4002 15.448C27.5177 15.5623 27.6754 15.6256 27.8393 15.6244C28.0032 15.6232 28.1601 15.5574 28.2758 15.4413L29.14 14.5777C29.5134 14.2038 30.0107 13.9796 30.538 13.9471L31.713 13.8742C32.5446 13.8231 33.3287 13.4694 33.9175 12.8799L39.4534 7.34422C39.8028 6.99406 39.9991 6.51959 39.9991 6.02492C39.9991 5.53024 39.8028 5.05577 39.4534 4.70561L35.2936 0.545667C34.9434 0.196244 34.469 0 33.9743 0C33.4796 0 33.0052 0.196244 32.655 0.545667L27.1195 6.08138C26.53 6.67037 26.1764 7.45462 26.1252 8.28633L26.0523 9.46128C26.0198 9.98872 25.7956 10.4861 25.4218 10.8596L24.5582 11.7236C24.5001 11.7816 24.4541 11.8505 24.4226 11.9263C24.3912 12.0022 24.3751 12.0834 24.3751 12.1655C24.3751 12.2476 24.3912 12.3288 24.4226 12.4047C24.4541 12.4805 24.5001 12.5494 24.5582 12.6074L24.7241 12.7733ZM26.3056 11.7438C26.895 11.1548 27.2487 10.3705 27.2999 9.5388L27.3728 8.36385C27.4053 7.83641 27.6295 7.33906 28.0033 6.9655L33.5388 1.42948C33.6545 1.31426 33.8111 1.24957 33.9743 1.24957C34.1376 1.24957 34.2941 1.31426 34.4098 1.42948L38.5696 5.58942C38.685 5.70501 38.7498 5.86163 38.7498 6.02492C38.7498 6.18821 38.685 6.34483 38.5696 6.46041L33.0335 11.9961C32.6601 12.3699 32.1628 12.5942 31.6355 12.6266L30.4605 12.6996C29.6289 12.7507 28.8448 13.1044 28.256 13.6939L27.8339 14.1156L25.8838 12.1655L26.3056 11.7438Z" fill="white"/>
<path d="M28.863 11.7614C28.9359 11.7614 29.0081 11.7487 29.0766 11.7239C29.4968 11.571 29.9368 11.4794 30.3831 11.452L31.5598 11.379C31.7824 11.3649 31.9922 11.27 32.1497 11.112L36.7951 6.46681C36.878 6.38388 36.9359 6.2793 36.9622 6.16502C36.9885 6.05073 36.9821 5.93135 36.9437 5.82053C36.9054 5.70971 36.8366 5.61192 36.7453 5.53835C36.654 5.46477 36.5438 5.41838 36.4274 5.40447L32.2095 4.89969C32.1163 4.88853 32.0217 4.89854 31.9328 4.92897C31.844 4.95941 31.7631 5.00948 31.6962 5.07548L28.8868 7.84989C28.7291 8.00788 28.6344 8.21794 28.6204 8.44073L28.5478 9.61599C28.5203 10.0623 28.4287 10.5023 28.2759 10.9225C28.2414 11.0169 28.2302 11.1182 28.2433 11.2179C28.2563 11.3175 28.2932 11.4126 28.3509 11.4949C28.4085 11.5773 28.4851 11.6445 28.5743 11.6909C28.6635 11.7373 28.7625 11.7615 28.863 11.7614ZM29.7953 9.6932L29.86 8.6455L32.3603 6.17658L35.0016 6.49274L31.3547 10.1394L30.3059 10.2044C30.1133 10.2163 29.9219 10.2375 29.7315 10.2682C29.762 10.078 29.7833 9.88638 29.7953 9.6932ZM8.35956 15.1401C8.44706 15.1401 8.53357 15.1217 8.61347 15.0861L11.826 13.6578C11.9084 13.6213 11.9819 13.5674 12.0414 13.4997C12.101 13.4321 12.1451 13.3523 12.1709 13.266L13.7239 8.07847C13.7711 7.92093 13.7542 7.75116 13.677 7.60595C13.5999 7.46073 13.4686 7.35178 13.3116 7.3027L3.0303 4.09004C2.95134 4.06543 2.86829 4.05672 2.78594 4.06442C2.70359 4.07213 2.62359 4.09608 2.55056 4.13491C2.47754 4.17374 2.41294 4.22667 2.3605 4.29063C2.30807 4.35459 2.26884 4.42832 2.24509 4.50754L0.0264737 11.9201C-0.0206623 12.0777 -0.00381657 12.2474 0.0733602 12.3927C0.150537 12.5379 0.281828 12.6468 0.43878 12.6959L8.17312 15.1117C8.23349 15.1305 8.29634 15.1401 8.35956 15.1401ZM1.40097 11.6867L3.26131 5.47191L5.26049 6.09658L3.26836 12.27L1.40097 11.6867ZM6.45366 6.4694L12.3494 8.31164L11.0558 12.6324L8.32111 13.8483L4.46153 12.6427L6.45366 6.4694Z" fill="white"/>
<path d="M10 17.2131C10.3452 17.2131 10.625 16.9333 10.625 16.5881C10.625 16.243 10.3452 15.9631 10 15.9631C9.65482 15.9631 9.375 16.243 9.375 16.5881C9.375 16.9333 9.65482 17.2131 10 17.2131Z" fill="white"/>
<path d="M12.4482 17.265C12.7934 17.265 13.0732 16.9852 13.0732 16.64C13.0732 16.2948 12.7934 16.015 12.4482 16.015C12.1031 16.015 11.8232 16.2948 11.8232 16.64C11.8232 16.9852 12.1031 17.265 12.4482 17.265Z" fill="white"/>
<path d="M11.3804 19.5306C11.7255 19.5306 12.0054 19.2508 12.0054 18.9056C12.0054 18.5605 11.7255 18.2806 11.3804 18.2806C11.0352 18.2806 10.7554 18.5605 10.7554 18.9056C10.7554 19.2508 11.0352 19.5306 11.3804 19.5306Z" fill="white"/>
<path d="M15.9377 14.6869C15.9377 15.0578 16.0477 15.4203 16.2537 15.7286C16.4597 16.037 16.7526 16.2773 17.0952 16.4192C17.4378 16.5611 17.8148 16.5982 18.1785 16.5259C18.5422 16.4535 18.8763 16.2749 19.1385 16.0127C19.4007 15.7505 19.5793 15.4164 19.6517 15.0527C19.724 14.689 19.6869 14.312 19.5449 13.9694C19.403 13.6267 19.1627 13.3339 18.8544 13.1279C18.546 12.9219 18.1835 12.8119 17.8127 12.8119C17.3156 12.8124 16.839 13.0102 16.4874 13.3617C16.1359 13.7132 15.9382 14.1898 15.9377 14.6869ZM18.4377 14.6869C18.4377 14.8106 18.401 14.9314 18.3323 15.0342C18.2637 15.137 18.1661 15.2171 18.0519 15.2644C17.9377 15.3117 17.812 15.324 17.6907 15.2999C17.5695 15.2758 17.4581 15.2163 17.3707 15.1289C17.2833 15.0415 17.2238 14.9301 17.1997 14.8089C17.1756 14.6876 17.1879 14.562 17.2353 14.4478C17.2826 14.3336 17.3627 14.2359 17.4654 14.1673C17.5682 14.0986 17.6891 14.0619 17.8127 14.0619C17.9784 14.0622 18.1372 14.1281 18.2544 14.2452C18.3715 14.3624 18.4375 14.5212 18.4377 14.6869ZM21.5627 13.1244C21.9335 13.1244 22.296 13.0144 22.6044 12.8084C22.9127 12.6024 23.1531 12.3095 23.295 11.9669C23.4369 11.6243 23.4741 11.2473 23.4017 10.8836C23.3294 10.5198 23.1508 10.1857 22.8886 9.92351C22.6263 9.66127 22.2922 9.48269 21.9285 9.41034C21.5648 9.33799 21.1878 9.37511 20.8452 9.51703C20.5025 9.65895 20.2097 9.89928 20.0037 10.2076C19.7976 10.516 19.6876 10.8785 19.6876 11.2493C19.6882 11.7465 19.8859 12.2231 20.2374 12.5746C20.5889 12.9261 21.0655 13.1238 21.5627 13.1244ZM21.5627 10.6243C21.6863 10.6243 21.8071 10.661 21.9099 10.7297C22.0127 10.7983 22.0928 10.896 22.1401 11.0102C22.1874 11.1244 22.1998 11.25 22.1756 11.3713C22.1515 11.4925 22.092 11.6039 22.0046 11.6913C21.9172 11.7787 21.8058 11.8382 21.6846 11.8623C21.5633 11.8864 21.4377 11.8741 21.3235 11.8268C21.2093 11.7795 21.1117 11.6993 21.043 11.5966C20.9743 11.4938 20.9377 11.373 20.9377 11.2493C20.9379 11.0836 21.0038 10.9248 21.121 10.8076C21.2381 10.6905 21.397 10.6246 21.5627 10.6243ZM16.8752 11.5619C17.3078 11.5619 17.7308 11.4336 18.0905 11.1932C18.4503 10.9529 18.7307 10.6112 18.8962 10.2115C19.0618 9.81177 19.1051 9.37193 19.0207 8.94758C18.9363 8.52323 18.728 8.13344 18.4221 7.8275C18.1161 7.52157 17.7264 7.31322 17.302 7.22881C16.8777 7.14439 16.4378 7.18771 16.0381 7.35328C15.6384 7.51885 15.2967 7.79923 15.0563 8.15898C14.816 8.51872 14.6877 8.94166 14.6877 9.37432C14.6884 9.95427 14.9191 10.5103 15.3291 10.9204C15.7392 11.3305 16.2952 11.5612 16.8752 11.5619ZM16.8752 8.4368C17.0606 8.43679 17.2419 8.49177 17.396 8.59479C17.5502 8.6978 17.6704 8.84422 17.7413 9.01553C17.8123 9.18684 17.8309 9.37534 17.7947 9.55721C17.7585 9.73907 17.6692 9.90612 17.5381 10.0372C17.407 10.1684 17.24 10.2576 17.0581 10.2938C16.8762 10.33 16.6877 10.3114 16.5164 10.2405C16.3451 10.1695 16.1987 10.0494 16.0957 9.89518C15.9927 9.741 15.9377 9.55974 15.9377 9.37432C15.9379 9.12576 16.0368 8.88745 16.2126 8.71169C16.3883 8.53593 16.6266 8.43707 16.8752 8.4368ZM5.42302 25.8606C8.42723 27.6089 15.7047 28.1248 20.0002 28.1248C24.2951 28.1248 31.571 27.609 34.576 25.8614C34.2486 28.514 33.2005 31.0261 31.5455 33.1249H33.0996C34.9499 30.4652 35.9404 27.3022 35.9376 24.0622C35.9376 21.9728 31.5306 20.8836 26.9323 20.3768C26.8975 20.7473 26.8751 21.139 26.8751 21.5621C26.8751 21.5809 26.8729 21.5991 26.8723 21.6178C31.9721 22.2084 34.6876 23.3715 34.6876 24.0622C34.6876 25.0168 29.5033 26.8747 20.0002 26.8747C10.497 26.8747 5.31274 25.0168 5.31274 24.0622C5.31274 23.1075 10.497 21.2496 20.0002 21.2496C20.2176 21.2496 20.4304 21.2516 20.6433 21.2535C20.6586 20.821 20.6829 20.4034 20.7179 20.0047C20.4717 20.0016 20.2303 19.9996 20.0002 19.9996C14.562 19.9996 4.34976 20.8276 4.07569 23.9354C4.06708 23.9771 4.06274 24.0196 4.06274 24.0622C4.06713 27.4752 5.1652 30.7971 7.19585 33.5404C9.22651 36.2837 12.0829 38.304 15.3459 39.305C15.1288 38.8585 15.0119 38.3699 15.0033 37.8736C12.4555 36.9469 10.2128 35.335 8.52246 33.2154C6.83209 31.0958 5.75956 28.5508 5.42302 25.8606Z" fill="white"/>
<path d="M38.1249 34.3749H26.9195C26.5911 34.3758 26.2657 34.3115 25.9623 34.1859C25.6588 34.0602 25.3833 33.8756 25.1516 33.6427L25.1071 33.5982C24.7597 33.2488 24.3465 32.9719 23.8913 32.7834C23.4361 32.5948 22.9481 32.4985 22.4554 32.4998H18.4375C17.8575 32.5005 17.3016 32.7312 16.8915 33.1413C16.4814 33.5514 16.2507 34.1074 16.25 34.6874V37.8125C16.2507 38.3924 16.4814 38.9484 16.8915 39.3585C17.3016 39.7686 17.8575 39.9993 18.4375 40H22.4554C22.9481 40.0014 23.4361 39.905 23.8913 39.7165C24.3465 39.5279 24.7597 39.251 25.1071 38.9016L25.1516 38.8571C25.3833 38.6242 25.6588 38.4396 25.9623 38.314C26.2657 38.1883 26.5911 38.1241 26.9195 38.125H38.1249C38.6218 38.1243 39.0981 37.9265 39.4492 37.5749C39.8003 37.2233 39.9975 36.7468 39.9975 36.2499C39.9975 35.753 39.8003 35.2765 39.4492 34.9249C39.0981 34.5733 38.6218 34.3755 38.1249 34.3749ZM34.6874 36.8749H26.9195C26.4269 36.8736 25.9388 36.9699 25.4837 37.1585C25.0285 37.347 24.6152 37.6239 24.2679 37.9733L24.2233 38.0178C23.9917 38.2507 23.7161 38.4353 23.4127 38.561C23.1092 38.6866 22.7839 38.7509 22.4554 38.75H18.4375C18.1889 38.7497 17.9506 38.6508 17.7749 38.4751C17.5991 38.2993 17.5003 38.061 17.5 37.8125V34.6874C17.5003 34.4388 17.5991 34.2005 17.7749 34.0248C17.9506 33.849 18.1889 33.7501 18.4375 33.7499H22.4554C22.7839 33.749 23.1092 33.8132 23.4127 33.9389C23.7161 34.0645 23.9917 34.2491 24.2233 34.482L24.2679 34.5265C24.6152 34.8759 25.0285 35.1528 25.4837 35.3414C25.9388 35.5299 26.4269 35.6263 26.9195 35.6249H34.6874L34.6874 36.8749ZM38.1249 36.8749H35.9374V35.6249H38.1249C38.2907 35.6249 38.4496 35.6908 38.5668 35.808C38.6841 35.9252 38.7499 36.0842 38.7499 36.2499C38.7499 36.4157 38.6841 36.5747 38.5668 36.6919C38.4496 36.8091 38.2907 36.8749 38.1249 36.8749Z" fill="white"/>
</g>
<defs>
<clipPath id="clip0_353_2042">
<rect width="40" height="40" fill="white"/>
</clipPath>
</defs>
</svg>
