<svg width="32" height="32" viewBox="0 0 32 32" fill="white" xmlns="http://www.w3.org/2000/svg">
<path fillRule="evenodd" clipRule="evenodd" d="M10.1883 29.3332H21.811C26.3097 29.3332 29.3337 26.1758 29.3337 21.4758V19.5892C29.3336 19.4495 29.302 19.3116 29.2413 19.1858C29.1806 19.06 29.0923 18.9495 28.983 18.8625C28.691 18.6292 28.391 18.3692 28.083 18.1025L28.071 18.0918L28.063 18.0838C26.4163 16.6612 24.3697 14.8932 21.7977 15.4918C19.935 15.9238 18.979 17.3345 18.1363 18.5785L18.131 18.5852L18.1297 18.5878C17.5697 19.4145 17.043 20.1945 16.3057 20.6492C15.5817 21.0998 14.7203 20.7785 13.4883 20.2398L13.279 20.1465C11.031 19.1678 9.18699 19.4492 7.63899 21.0092C7.46554 21.1846 7.3687 21.4216 7.3697 21.6683C7.3707 21.915 7.46946 22.1512 7.64432 22.3252C7.73089 22.4113 7.83361 22.4796 7.9466 22.5259C8.05959 22.5723 8.18063 22.5959 8.30277 22.5954C8.4249 22.595 8.54574 22.5704 8.65835 22.5231C8.77096 22.4758 8.87313 22.4067 8.95899 22.3198C9.95499 21.3158 10.9923 21.1798 12.5363 21.8545L12.7417 21.9438H12.7443C13.9843 22.4865 15.679 23.2265 17.2843 22.2318C18.3603 21.5652 19.027 20.5812 19.671 19.6292C20.4177 18.5265 21.063 17.5732 22.219 17.3052C23.8723 16.9225 25.3857 18.2305 26.851 19.4972L26.8537 19.4998L26.919 19.5558C27.1057 19.7185 27.291 19.8785 27.4723 20.0292V21.4758C27.4723 25.1198 25.2497 27.4718 21.811 27.4718H10.1883C6.74966 27.4718 4.52699 25.1198 4.52699 21.4758V10.5238C4.52699 6.87984 6.74966 4.52784 10.1883 4.52784H21.8123C25.2523 4.52784 27.4723 6.87984 27.4723 10.5238V13.6838C27.4851 13.922 27.5887 14.1463 27.7618 14.3104C27.935 14.4745 28.1644 14.566 28.403 14.566C28.6415 14.566 28.871 14.4745 29.0442 14.3104C29.2173 14.1463 29.3209 13.922 29.3337 13.6838V10.5238C29.3337 5.82384 26.311 2.6665 21.8137 2.6665H10.187C5.68833 2.6665 2.66699 5.82384 2.66699 10.5238V21.4758C2.66699 26.1758 5.68966 29.3332 10.1883 29.3332ZM11.8057 15.1198C10.901 15.1188 10.0337 14.7587 9.39418 14.1188C8.75471 13.4788 8.39534 12.6112 8.39499 11.7065C8.3957 10.8022 8.75526 9.93505 9.39473 9.29558C10.0342 8.65611 10.9013 8.29654 11.8057 8.29584C12.71 8.29654 13.5771 8.65611 14.2166 9.29558C14.8561 9.93505 15.2156 10.8022 15.2163 11.7065C15.216 12.6112 14.8566 13.4788 14.2171 14.1188C13.5777 14.7587 12.7104 15.1188 11.8057 15.1198ZM11.8057 10.1572C10.951 10.1572 10.255 10.8518 10.255 11.7065C10.2716 12.1066 10.4422 12.4849 10.7312 12.7621C11.0202 13.0394 11.4052 13.1942 11.8057 13.1942C12.2061 13.1942 12.5911 13.0394 12.8801 12.7621C13.1691 12.4849 13.3397 12.1066 13.3563 11.7065C13.3563 10.8532 12.6617 10.1572 11.8057 10.1572Z" fill="white"/>
</svg>
