<svg width="41" height="40" viewBox="0 0 41 40" fill="none" xmlns="http://www.w3.org/2000/svg">
<path d="M5.5001 20.588H1.55273V17.0586H39.4475V20.588H35.5001M5.5001 20.588L2.34221 39.1174H4.71063L9.44747 20.588M5.5001 20.588H9.44747M35.5001 20.588L38.658 39.1174H36.2896L31.5527 20.588M35.5001 20.588H31.5527M9.44747 20.588H31.5527" stroke="white" stroke-linecap="round" stroke-linejoin="round"/>
<path d="M14.9738 17.0591V11.765M14.9738 11.765H7.0791V1.17676H26.0265V7.35323H23.658V11.765H18.1317M14.9738 11.765H18.1317M18.1317 11.765V17.0591" stroke="white" stroke-linecap="round" stroke-linejoin="round"/>
<path d="M23.658 11.7643V13.529M23.658 13.529H22.0791C22.0791 14.7055 22.3949 17.0584 23.658 17.0584M23.658 13.529H32.3423M32.3423 13.529V7.35254H26.0265M32.3423 13.529H33.9212C33.9212 14.7055 33.6054 17.0584 32.3423 17.0584" stroke="white" stroke-linecap="round" stroke-linejoin="round"/>
</svg>
