<svg width="40" height="40" viewBox="0 0 40 40" fill="none" xmlns="http://www.w3.org/2000/svg">
<path d="M24.5728 33.4739C24.3892 33.4759 24.2137 33.5502 24.0845 33.6808C23.9553 33.8114 23.8829 33.9877 23.8829 34.1713C23.8829 34.355 23.9553 34.5313 24.0845 34.6619C24.2137 34.7925 24.3892 34.8668 24.5728 34.8688C24.7565 34.8668 24.932 34.7925 25.0612 34.6619C25.1904 34.5313 25.2628 34.355 25.2628 34.1713C25.2628 33.9877 25.1904 33.8114 25.0612 33.6808C24.932 33.5502 24.7565 33.4759 24.5728 33.4739ZM24.5728 36.1051C24.3892 36.1071 24.2137 36.1814 24.0845 36.312C23.9553 36.4426 23.8829 36.6189 23.8829 36.8025C23.8829 36.9862 23.9553 37.1625 24.0845 37.2931C24.2137 37.4237 24.3892 37.498 24.5728 37.5C24.7565 37.498 24.932 37.4237 25.0612 37.2931C25.1904 37.1625 25.2628 36.9862 25.2628 36.8025C25.2628 36.6189 25.1904 36.4426 25.0612 36.312C24.932 36.1814 24.7565 36.1071 24.5728 36.1051ZM26.3215 34.8688C26.1378 34.8708 25.9624 34.9451 25.8332 35.0757C25.704 35.2063 25.6315 35.3826 25.6315 35.5663C25.6315 35.75 25.704 35.9262 25.8332 36.0568C25.9624 36.1874 26.1378 36.2617 26.3215 36.2637C26.5052 36.2617 26.6807 36.1874 26.8098 36.0568C26.939 35.9262 27.0115 35.75 27.0115 35.5663C27.0115 35.3826 26.939 35.2063 26.8098 35.0757C26.6807 34.9451 26.5052 34.8708 26.3215 34.8688ZM22.8241 34.8688C22.6404 34.8708 22.465 34.9451 22.3358 35.0757C22.2066 35.2063 22.1341 35.3826 22.1341 35.5663C22.1341 35.75 22.2066 35.9262 22.3358 36.0568C22.465 36.1874 22.6404 36.2617 22.8241 36.2637C23.0078 36.2617 23.1833 36.1874 23.3124 36.0568C23.4416 35.9262 23.5141 35.75 23.5141 35.5663C23.5141 35.3826 23.4416 35.2063 23.3124 35.0757C23.1833 34.9451 23.0078 34.8708 22.8241 34.8688ZM15.4219 33.4739C15.2386 33.4765 15.0638 33.5512 14.9351 33.6817C14.8065 33.8122 14.7344 33.9881 14.7344 34.1713C14.7344 34.3546 14.8065 34.5305 14.9351 34.661C15.0638 34.7915 15.2386 34.8662 15.4219 34.8688C15.6051 34.8662 15.78 34.7915 15.9086 34.661C16.0373 34.5305 16.1094 34.3546 16.1094 34.1713C16.1094 33.9881 16.0373 33.8122 15.9086 33.6817C15.78 33.5512 15.6051 33.4765 15.4219 33.4739ZM15.4219 36.1051C15.2386 36.1077 15.0638 36.1823 14.9351 36.3129C14.8065 36.4434 14.7344 36.6193 14.7344 36.8025C14.7344 36.9858 14.8065 37.1617 14.9351 37.2922C15.0638 37.4227 15.2386 37.4974 15.4219 37.5C15.6051 37.4974 15.78 37.4227 15.9086 37.2922C16.0373 37.1617 16.1094 36.9858 16.1094 36.8025C16.1094 36.6193 16.0373 36.4434 15.9086 36.3129C15.78 36.1823 15.6051 36.1077 15.4219 36.1051ZM17.1706 34.8688C16.987 34.8708 16.8115 34.9451 16.6823 35.0757C16.5531 35.2063 16.4807 35.3826 16.4807 35.5663C16.4807 35.75 16.5531 35.9262 16.6823 36.0568C16.8115 36.1874 16.987 36.2617 17.1706 36.2637C17.3543 36.2617 17.5298 36.1874 17.659 36.0568C17.7882 35.9262 17.8606 35.75 17.8606 35.5663C17.8606 35.3826 17.7882 35.2063 17.659 35.0757C17.5298 34.9451 17.3543 34.8708 17.1706 34.8688ZM13.6732 34.8688C13.4896 34.8708 13.3141 34.9451 13.1849 35.0757C13.0557 35.2063 12.9833 35.3826 12.9833 35.5663C12.9833 35.75 13.0557 35.9262 13.1849 36.0568C13.3141 36.1874 13.4896 36.2617 13.6732 36.2637C13.8569 36.2617 14.0324 36.1874 14.1616 36.0568C14.2907 35.9262 14.3632 35.75 14.3632 35.5663C14.3632 35.3826 14.2907 35.2063 14.1616 35.0757C14.0324 34.9451 13.8569 34.8708 13.6732 34.8688ZM16.9235 20.3023C17.0198 20.0692 17.0683 19.819 17.0659 19.5668C17.0635 19.3145 17.0103 19.0654 16.9095 18.8341C16.8087 18.6029 16.6623 18.3943 16.4792 18.2209C16.296 18.0474 16.0798 17.9127 15.8434 17.8246L10.6508 15.9342C10.1873 15.7685 9.67709 15.7925 9.23116 16.0009C8.78522 16.2093 8.4396 16.5853 8.26944 17.0472L6.68886 21.4019C5.76971 23.7568 6.25971 26.9492 8.47269 28.1472L6.19021 34.4071L3.86385 33.5604C3.70599 33.506 3.53306 33.5158 3.38234 33.5876C3.23161 33.6595 3.11516 33.7877 3.0581 33.9447C3.00103 34.1016 3.00792 34.2747 3.07727 34.4266C3.14663 34.5785 3.27289 34.697 3.42885 34.7567L9.28117 36.8866C9.43973 36.944 9.61459 36.9361 9.76735 36.8647C9.92011 36.7933 10.0383 36.6642 10.0959 36.5057C10.1535 36.3472 10.1459 36.1723 10.0747 36.0195C10.0035 35.8666 9.87456 35.7482 9.71617 35.6904L7.38619 34.8424L9.66974 28.5791C12.1663 29.0962 14.5608 26.9197 15.3639 24.5721L16.0451 22.714C16.1005 22.5562 16.0915 22.3829 16.0201 22.2316C15.9487 22.0804 15.8206 21.9633 15.6636 21.9057C15.5065 21.8482 15.3331 21.8547 15.1809 21.924C15.0286 21.9933 14.9098 22.1197 14.85 22.276L14.1988 24.0531C13.7389 23.534 13.1598 23.1344 12.5113 22.8886C11.981 22.6841 11.4086 22.6128 10.8443 22.6811C10.4623 22.7182 10.0768 22.6694 9.71606 22.5384C9.35529 22.4074 9.02836 22.1974 8.75914 21.9238C8.54896 21.708 8.31401 21.5177 8.05918 21.357L9.46448 17.4853C9.51797 17.3394 9.62671 17.2204 9.76722 17.1539C9.90773 17.0875 10.0687 17.079 10.2155 17.1302L15.4047 19.0194C15.4782 19.0467 15.5456 19.0883 15.603 19.1419C15.6604 19.1954 15.7066 19.2597 15.739 19.3312C15.7714 19.4026 15.7893 19.4798 15.7918 19.5582C15.7943 19.6366 15.7812 19.7147 15.7533 19.7881C15.7118 19.8659 15.6868 19.9516 15.6799 20.0396C15.6729 20.1275 15.6843 20.216 15.7132 20.2994C15.7421 20.3828 15.7879 20.4594 15.8477 20.5243C15.9075 20.5891 15.9802 20.641 16.061 20.6765C16.1418 20.712 16.229 20.7304 16.3173 20.7306C16.4056 20.7308 16.4929 20.7128 16.5739 20.6777C16.6549 20.6425 16.7277 20.5911 16.7879 20.5265C16.848 20.4619 16.8942 20.3855 16.9235 20.3023ZM9.27649 23.7406C9.80878 23.9463 10.3835 24.018 10.95 23.9494C11.3304 23.9123 11.7144 23.9608 12.0736 24.0915C12.4328 24.2222 12.7582 24.4317 13.0258 24.7046C13.2155 24.8975 13.4243 25.0708 13.649 25.2216C13.3657 25.6939 13.0063 26.1162 12.5853 26.4712C12.1876 26.8681 11.6885 27.1481 11.1425 27.2808C10.5965 27.4134 10.0245 27.3935 9.48907 27.2232C7.79428 26.6371 7.2197 24.3741 7.65569 22.6331C8.0942 23.1327 8.65166 23.5136 9.27649 23.7406ZM36.9462 33.9411C36.9177 33.8625 36.874 33.7904 36.8176 33.7287C36.7612 33.6671 36.6931 33.6172 36.6174 33.5819C36.5417 33.5465 36.4597 33.5265 36.3762 33.5229C36.2928 33.5192 36.2094 33.5321 36.1309 33.5607L33.8043 34.4075L31.5224 28.1472C32.1058 27.8002 32.6021 27.3242 32.9731 26.7558C33.3442 26.1874 33.5803 25.5416 33.6632 24.8679C34.0388 23.2196 33.2619 21.1764 32.6483 19.5864C32.589 19.43 32.4706 19.3032 32.3187 19.2334C32.1667 19.1636 31.9933 19.1565 31.8361 19.2135C31.6789 19.2705 31.5504 19.387 31.4785 19.538C31.4065 19.6889 31.3968 19.8622 31.4515 20.0202L31.9359 21.3568C31.6811 21.5177 31.4461 21.708 31.2359 21.9239C30.9665 22.1973 30.6395 22.4071 30.2787 22.5381C29.9179 22.6691 29.5324 22.7179 29.1504 22.681C28.5862 22.6133 28.014 22.6846 27.4837 22.8886C26.8352 23.1346 26.256 23.5342 25.7958 24.0531L24.2355 19.7706C24.1837 19.6245 24.1915 19.4639 24.2572 19.3235C24.3229 19.183 24.4412 19.0741 24.5866 19.0203L29.7793 17.1305C29.9254 17.0786 30.0861 17.0864 30.2266 17.1523C30.367 17.2181 30.4758 17.3367 30.5293 17.4822C30.543 17.5783 30.5779 17.6701 30.6316 17.7508C30.6853 17.8316 30.7564 17.8994 30.8396 17.9492C30.9229 17.999 31.0162 18.0295 31.1128 18.0386C31.2094 18.0476 31.3068 18.0349 31.3979 18.0015C31.4889 17.968 31.5713 17.9147 31.6391 17.8452C31.7069 17.7758 31.7582 17.6921 31.7895 17.6003C31.8207 17.5084 31.831 17.4108 31.8196 17.3144C31.8083 17.2181 31.7755 17.1255 31.7237 17.0435C31.5534 16.5823 31.2078 16.207 30.7622 15.9993C30.3166 15.7917 29.807 15.7684 29.3443 15.9345L24.1485 17.8255C23.6874 17.9962 23.3122 18.3419 23.1045 18.7875C22.8969 19.2332 22.8734 19.7428 23.0393 20.2056L24.6301 24.5706C25.4347 26.924 27.8318 29.095 30.3254 28.5791L32.6085 34.8428L30.2789 35.6907C30.1211 35.7489 29.9928 35.8673 29.922 36.0199C29.8513 36.1725 29.8439 36.3469 29.9014 36.505C29.9589 36.6631 30.0767 36.7919 30.2289 36.8634C30.3812 36.9348 30.5556 36.9431 30.7139 36.8863L36.5659 34.7564C36.6445 34.7279 36.7167 34.6842 36.7783 34.6278C36.8399 34.5714 36.8899 34.5033 36.9252 34.4276C36.9605 34.3519 36.9805 34.2699 36.9841 34.1864C36.9878 34.103 36.9749 34.0196 36.9462 33.9411ZM30.5067 27.223C28.9868 27.8222 27.1828 26.6647 26.3461 25.2214C26.5705 25.0705 26.7791 24.8974 26.9686 24.7045C27.2364 24.4317 27.5618 24.2223 27.9211 24.0916C28.2803 23.961 28.6643 23.9124 29.0447 23.9495C29.6113 24.0184 30.1861 23.9465 30.7183 23.7403C31.3431 23.5134 31.9006 23.1326 32.3391 22.6331C32.7748 24.3739 32.1993 26.6378 30.5067 27.223ZM4.97309 3.75145C5.00791 3.76082 5.88419 3.9938 7.40881 4.28539L10.1558 12.2227C10.1969 12.3361 10.2691 12.4356 10.3642 12.5097C10.4593 12.5839 10.5733 12.6297 10.6933 12.6419C10.8133 12.6541 10.9342 12.6322 11.0423 12.5787C11.1504 12.5253 11.2411 12.4424 11.3042 12.3396L15.4794 5.31192C15.6393 5.32287 15.8015 5.33302 15.9641 5.34302L19.4154 13.1437C19.4666 13.2549 19.5486 13.3491 19.6517 13.4151C19.7548 13.4812 19.8746 13.5163 19.997 13.5163C20.1194 13.5164 20.2393 13.4814 20.3424 13.4155C20.4455 13.3496 20.5276 13.2555 20.579 13.1444L24.0278 5.37162C24.1945 5.36232 24.3641 5.34939 24.5319 5.33874L28.6912 12.3396C28.7542 12.4424 28.845 12.5253 28.9531 12.5788C29.0611 12.6323 29.1821 12.6542 29.302 12.642C29.422 12.6297 29.5361 12.5839 29.6312 12.5098C29.7262 12.4356 29.7985 12.3362 29.8395 12.2228L32.5838 4.29241C33.3879 4.13097 34.1951 3.95706 35.0073 3.75515C35.0884 3.73499 35.1648 3.69906 35.232 3.64939C35.2993 3.59973 35.356 3.53731 35.3991 3.4657C35.4422 3.39409 35.4708 3.31469 35.4832 3.23203C35.4957 3.14938 35.4917 3.06509 35.4715 2.98397C35.4514 2.90285 35.4154 2.8265 35.3658 2.75927C35.3161 2.69204 35.2537 2.63525 35.1821 2.59215C35.1105 2.54904 35.0311 2.52046 34.9484 2.50804C34.8658 2.49562 34.7815 2.4996 34.7004 2.51976C31.4281 3.32371 28.0913 3.83773 24.7287 4.05586C18.2149 4.51382 11.6691 3.99735 5.30771 2.5235C5.14586 2.48214 4.97425 2.50607 4.82989 2.59012C4.68553 2.67418 4.58001 2.81162 4.53609 2.97279C4.49217 3.13396 4.51337 3.30594 4.59513 3.45161C4.67688 3.59729 4.81263 3.70498 4.97309 3.75145ZM31.1409 4.56932L29.0851 10.511L25.9498 5.23433C27.6374 5.08953 29.3723 4.8772 31.1409 4.56932ZM20.2922 5.47812C21.0452 5.47812 21.8217 5.46027 22.6079 5.43349L19.9983 11.3152L17.3885 5.41652C18.3219 5.45532 19.2903 5.47812 20.2922 5.47812ZM14.0648 5.20103L10.9102 10.511L8.84412 4.54166C10.2669 4.77806 12.0349 5.02151 14.0648 5.20103Z" fill="white"/>
<path d="M6.98752 13.9762L6.57814 13.1475L6.16939 13.9762L5.25439 14.1094L5.91627 14.7544L5.76002 15.665L6.57814 15.235L7.39627 15.665L7.24002 14.7544L7.90189 14.1094L6.98752 13.9762Z" fill="white"/>
<path d="M33.8255 13.9762L33.4161 13.1475L33.0074 13.9762L32.093 14.1094L32.7549 14.7544L32.5986 15.665L33.4161 15.235L34.2343 15.665L34.078 14.7544L34.7399 14.1094L33.8255 13.9762Z" fill="white"/>
<path d="M20.3663 15.9062L19.9575 15.0775L19.5488 15.9062L18.6338 16.0387L19.2957 16.6837L19.1394 17.595L19.9575 17.165L20.7757 17.595L20.6194 16.6837L21.2813 16.0387L20.3663 15.9062Z" fill="white"/>
</svg>
