<svg width="40" height="40" viewBox="0 0 40 40" fill="none" xmlns="http://www.w3.org/2000/svg">
<path d="M32.8567 13.1184C32.8707 12.9533 32.8186 12.7894 32.7117 12.6627C32.6049 12.536 32.4522 12.4569 32.287 12.4429C30.5293 12.3763 30.613 9.16144 29.4889 8.01275C29.129 7.62033 28.6924 7.306 28.206 7.08922C27.7197 6.87245 27.194 6.75786 26.6616 6.75254C26.1292 6.74723 25.6013 6.85131 25.1107 7.05833C24.6202 7.26535 24.1773 7.57091 23.8097 7.95607C23.0668 6.62024 22.2057 4.48023 23.2474 3.61006C23.3712 3.5028 23.448 3.35122 23.4612 3.18793C23.4743 3.02464 23.4229 2.8627 23.3179 2.73697C23.2129 2.61124 23.0627 2.53177 22.8996 2.51566C22.7366 2.49956 22.5738 2.5481 22.4462 2.65085C20.6895 4.11835 21.8083 6.88261 22.6389 8.41368C21.307 8.23743 20.1839 7.75458 19.9791 6.26509C19.9546 6.10267 19.8671 5.95643 19.7356 5.85801C19.6041 5.7596 19.4391 5.71692 19.2763 5.73923C19.1136 5.76153 18.9662 5.84702 18.866 5.97718C18.7658 6.10735 18.7209 6.27174 18.741 6.43476C19.0797 8.89876 21.1358 9.49664 22.5452 9.66993L6.40322 28.8735C6.10536 29.07 5.88223 29.361 5.76971 29.6997C4.96306 33.9655 18.4924 37.6885 21.8884 37.4926C24.317 37.5305 26.3193 36.9847 25.8568 35.0489L24.7168 14.2747C24.7061 14.1105 24.631 13.957 24.5078 13.8478C24.3846 13.7386 24.2234 13.6824 24.059 13.6914C23.8946 13.7004 23.7404 13.7739 23.6299 13.8959C23.5194 14.0179 23.4616 14.1786 23.4689 14.3431L23.6086 16.8883C22.1112 16.6011 20.6519 16.1419 19.2598 15.5199L23.27 10.7489L23.3316 11.8448C23.3428 12.0089 23.4183 12.162 23.5417 12.2707C23.665 12.3795 23.8263 12.4353 23.9905 12.426C24.1547 12.4167 24.3086 12.343 24.4189 12.221C24.5291 12.099 24.5868 11.9384 24.5795 11.7741L24.458 9.61619C26.2903 9.28969 26.7646 10.5005 27.0524 12.5374C26.9993 12.5637 27.8472 15.6235 28.9703 14.6531C29.0274 14.5941 29.0723 14.5245 29.1025 14.4482C29.1326 14.3719 29.1475 14.2903 29.1461 14.2083C29.1448 14.1262 29.1273 14.0452 29.0947 13.9699C29.062 13.8947 29.0149 13.8265 28.9559 13.7695C28.6165 13.3529 28.3862 12.8584 28.2856 12.3306C28.2225 11.6805 28.0699 11.0423 27.8322 10.434C27.7272 10.0427 27.5411 9.67782 27.286 9.36307C27.0308 9.04833 26.7124 8.79075 26.3512 8.60707C25.9972 8.33619 24.8968 8.42324 25.6019 8.18913C27.4969 7.47678 28.883 8.63248 29.3049 10.5293C29.7388 11.8644 30.2788 13.5254 32.1809 13.6877C32.346 13.7016 32.5098 13.6495 32.6365 13.5428C32.7632 13.4361 32.8424 13.2834 32.8567 13.1184ZM24.5081 33.2708C21.7954 30.9977 16.4613 29.1063 12.5778 28.4823C12.4154 28.4581 12.25 28.4988 12.1173 28.5956C11.9846 28.6925 11.8954 28.8376 11.8688 28.9997C11.8423 29.1618 11.8806 29.3278 11.9755 29.4618C12.0704 29.5959 12.2142 29.6873 12.3759 29.7161C16.5128 30.2236 24.0557 33.4078 24.6352 35.3247C24.903 35.903 23.9982 36.2467 21.9156 36.2436C18.2027 36.2126 11.9416 34.253 8.8748 32.1649C7.15388 30.9845 6.63183 30.1908 7.1512 29.8717C7.68858 29.5201 8.64859 29.4144 9.97164 29.4549C10.0539 29.4594 10.1363 29.4474 10.2138 29.4195C10.2914 29.3915 10.3625 29.3483 10.423 29.2924C10.4835 29.2364 10.5321 29.1689 10.566 29.0938C10.5999 29.0186 10.6184 28.9375 10.6203 28.8551C10.5888 27.8586 9.15998 28.2619 8.57683 28.2297L12.7528 23.2614C15.3814 25.4534 20.6367 27.1839 24.1579 26.8923L24.5081 33.2708ZM24.0893 25.6427C21.1691 25.9762 15.8193 24.2581 13.5577 22.3039L15.5282 19.9595C16.7628 20.6936 18.0762 21.2859 19.4437 21.7254C20.8937 22.2088 22.3986 22.5085 23.9232 22.6176L24.0893 25.6427ZM20.8325 17.4624C21.7626 17.7665 22.7139 18.0013 23.6787 18.165L23.8542 21.3611C21.2098 21.1154 18.6485 20.3076 16.3416 18.9917L18.4271 16.5106C19.2081 16.8781 20.0115 17.196 20.8325 17.4624Z" fill="white"/>
</svg>
