<svg width="16" height="17" viewBox="0 0 16 17" fill="none" xmlns="http://www.w3.org/2000/svg">
<path d="M12.1618 13.8337C12.0808 13.8337 12.0019 13.8076 11.937 13.7591C11.8721 13.7106 11.8246 13.6424 11.8017 13.5647C11.7788 13.487 11.7816 13.4039 11.8099 13.328C11.8381 13.252 11.8902 13.1873 11.9583 13.1434C12.3116 12.9106 12.6121 12.6062 12.8403 12.2499C13.056 11.9222 13.13 11.6569 13.0608 11.4609C12.92 11.0624 12.1623 10.7747 11.518 10.5684C11.2336 10.4763 10.9292 10.4648 10.6386 10.5351C10.3479 10.6053 10.0825 10.7547 9.87154 10.9667L9.62754 11.2109C9.58384 11.2547 9.52999 11.287 9.47079 11.3049C9.30329 11.3549 8.38404 11.5209 6.68204 9.81866C6.64716 9.78384 6.61947 9.74249 6.60057 9.69698C6.58167 9.65146 6.57191 9.60267 6.57187 9.55338C6.57182 9.5041 6.58148 9.45529 6.6003 9.40974C6.61912 9.36419 6.64672 9.32279 6.68154 9.28791C6.71635 9.25302 6.7577 9.22534 6.80322 9.20644C6.84873 9.18753 6.89752 9.17778 6.94681 9.17773C6.99609 9.17769 7.0449 9.18735 7.09046 9.20617C7.13601 9.22498 7.17741 9.25259 7.21229 9.28741C8.32879 10.4042 8.98229 10.5612 9.19729 10.5794L9.34129 10.4354C9.64959 10.1261 10.0374 9.90799 10.4618 9.8052C10.8863 9.7024 11.3309 9.71891 11.7465 9.85291C12.5878 10.1224 13.5068 10.4714 13.7678 11.2099C13.9195 11.6387 13.8178 12.1269 13.4678 12.6599C13.1823 13.1047 12.8066 13.4845 12.365 13.7749C12.3043 13.8136 12.2338 13.834 12.1618 13.8337ZM10.36 14.3367C8.64354 14.3367 6.67279 13.3442 4.91429 11.5854C4.87847 11.5508 4.8499 11.5094 4.83025 11.4637C4.8106 11.4179 4.80025 11.3687 4.79982 11.3189C4.79939 11.2691 4.80887 11.2198 4.82773 11.1737C4.84658 11.1276 4.87443 11.0857 4.90964 11.0505C4.94485 11.0153 4.98672 10.9875 5.0328 10.9686C5.07889 10.9497 5.12827 10.9403 5.17806 10.9407C5.22786 10.9411 5.27706 10.9515 5.32281 10.9711C5.36857 10.9908 5.40994 11.0193 5.44454 11.0552C7.10404 12.7149 9.01204 13.6582 10.542 13.5822C10.5914 13.579 10.6408 13.5857 10.6875 13.602C10.7342 13.6183 10.7771 13.6437 10.8138 13.6768C10.8505 13.71 10.8802 13.7501 10.9011 13.7949C10.922 13.8397 10.9337 13.8883 10.9355 13.9377C10.9406 14.037 10.9059 14.1342 10.8393 14.208C10.7726 14.2818 10.6794 14.3261 10.58 14.3312C10.5073 14.3347 10.4338 14.3367 10.36 14.3367Z" fill="white"/>
<path d="M5.17978 11.6953C5.13054 11.6954 5.08177 11.6857 5.03629 11.6668C4.99081 11.6479 4.94952 11.6202 4.91478 11.5853C3.02278 9.69358 2.00228 7.49708 2.18503 5.70983C2.23695 5.16656 2.41315 4.64251 2.7 4.17823C2.98685 3.71394 3.37666 3.32187 3.83928 3.03233C4.37353 2.68233 4.86178 2.58058 5.28928 2.73233C6.02778 2.99333 6.37703 3.91233 6.64628 4.75358C6.78047 5.16922 6.79708 5.61388 6.69428 6.03837C6.59148 6.46286 6.37326 6.85065 6.06378 7.15883L5.91603 7.30683C5.93403 7.50008 6.07978 8.15683 7.21178 9.28783C7.28009 9.35856 7.31788 9.45329 7.31703 9.55161C7.31618 9.64993 7.27674 9.74399 7.20721 9.81352C7.13768 9.88304 7.04363 9.92248 6.9453 9.92334C6.84698 9.92419 6.75225 9.88639 6.68153 9.81808C4.97953 8.11633 5.14503 7.19658 5.19528 7.02958C5.21305 6.97031 5.24536 6.91643 5.28928 6.87283L5.53353 6.62858C5.74529 6.41761 5.89456 6.15217 5.96485 5.86163C6.03513 5.57109 6.02369 5.26677 5.93178 4.98233C5.72553 4.33783 5.43778 3.58008 5.03953 3.43933C4.84328 3.37008 4.57778 3.44408 4.25028 3.65958C3.88002 3.88713 3.56793 4.19788 3.33879 4.56715C3.10965 4.93643 2.96977 5.35404 2.93028 5.78683C2.77003 7.35183 3.70978 9.32158 5.44403 11.0556C5.49651 11.108 5.53225 11.1749 5.54673 11.2476C5.56122 11.3204 5.55379 11.3958 5.52539 11.4644C5.497 11.5329 5.4489 11.5915 5.3872 11.6327C5.32551 11.6739 5.25297 11.6959 5.17878 11.6958L5.17978 11.6953Z" fill="white"/>
</svg>
