<svg width="40" height="40" viewBox="0 0 40 40" fill="none" xmlns="http://www.w3.org/2000/svg">
<path d="M20.0004 1.25043C17.3962 1.25064 15.5579 1.90398 14.3753 2.57977C13.399 3.13764 13.0037 3.55818 12.8384 3.75167H6.8739C5.84591 3.75167 5.00008 4.59633 5.00008 5.62428V7.94487L1.96901 12.7948C1.90757 12.8947 1.87542 13.0098 1.87624 13.1269V14.372C1.87647 15.8777 2.95089 17.1446 4.37262 17.4373V35.001H3.12749C2.78231 34.9998 2.5014 35.2784 2.50003 35.6236V38.1237C2.49878 38.4708 2.7804 38.7525 3.12749 38.7512H36.8769C37.2221 38.7499 37.5008 38.4689 37.4995 38.1237V35.6236C37.4982 35.2803 37.2202 35.0024 36.8769 35.001H35.6269V17.4373C37.0494 17.1446 38.127 15.8778 38.127 14.372V13.1269C38.1267 13.0092 38.0933 12.8942 38.0305 12.7948L34.9995 7.94487V5.62428C34.9995 4.59633 34.1536 3.75167 33.1256 3.75167H27.1563C26.99 3.55726 26.599 3.13677 25.6243 2.57977C24.4416 1.90398 22.6045 1.25064 20.0004 1.25043ZM19.9991 2.50162C22.395 2.50162 23.9957 3.0945 25.0004 3.66862C26.0052 4.24274 26.3762 4.74781 26.3762 4.74781C26.494 4.90419 26.6784 4.99643 26.8743 4.99681H33.1256C33.4827 4.99681 33.7482 5.26721 33.7482 5.62428V7.49805H6.2501V5.62428C6.2501 5.26721 6.51682 4.99681 6.8739 4.99681H13.1252C13.3211 4.99643 13.5054 4.90424 13.6233 4.74781C13.6233 4.74781 13.9931 4.24274 14.9978 3.66862C16.0025 3.0945 17.6033 2.50162 19.9991 2.50162ZM5.97175 8.7481H8.99183L7.1156 12.4994H3.62798L5.97175 8.7481ZM10.3883 8.7481H13.4731L12.0681 12.4994H8.51211L10.3883 8.7481ZM14.8086 8.7481H17.4173L16.9498 12.4994H13.3999L14.8086 8.7481ZM18.6759 8.7481H21.3236L21.7948 12.4994H18.2096L18.6759 8.7481ZM22.5822 8.7481H25.1909L26.5996 12.4994H23.0498L22.5822 8.7481ZM26.5276 8.7481H29.6124L31.4874 12.4994H27.9351L26.5276 8.7481ZM31.0137 8.7481H34.0277L36.3752 12.4994H32.8888L31.0137 8.7481ZM3.12749 13.7494H6.8739V14.372C6.8739 15.4216 6.04965 16.2507 5.00008 16.2507C3.95051 16.2507 3.12765 15.4217 3.12749 14.372V13.7494ZM8.12392 13.7494H11.8752V14.372C11.8752 15.4216 11.051 16.2507 10.0014 16.2507C8.95183 16.2507 8.1239 15.4215 8.12392 14.372V13.7494ZM13.1252 13.7494H16.8765V14.372C16.8765 15.4216 16.0474 16.2507 14.9978 16.2507C13.9482 16.2507 13.1252 15.4215 13.1252 14.372V13.7494ZM18.1266 13.7494H21.8779V14.372C21.8779 15.4216 21.0487 16.2507 19.9992 16.2507C18.9496 16.2507 18.1265 15.4215 18.1266 14.372V13.7494ZM23.1254 13.7494H26.8743V14.372C26.8743 15.4216 26.05 16.2507 25.0005 16.2507C23.9622 16.2507 23.1443 15.4383 23.1267 14.4049C23.1268 14.3931 23.1279 14.3837 23.1279 14.3721L23.1254 13.7494ZM28.1243 13.7494H31.8756V14.372C31.8756 15.4216 31.0526 16.2507 30.003 16.2507C28.9535 16.2507 28.1243 15.4215 28.1243 14.372V13.7494ZM33.1256 13.7494H36.8769V14.372C36.8769 15.4216 36.049 16.2507 34.9995 16.2507C33.9499 16.2507 33.1256 15.4215 33.1256 14.372V13.7494ZM6.8739 20.6234V35.001C6.59418 35.0012 5.88816 35.0008 5.62265 35.001V17.4324C6.38683 17.2736 7.04894 16.8583 7.50013 16.2507C8.07158 17.0181 8.97666 17.5007 10.0014 17.5007C11.0258 17.5007 11.9301 17.0189 12.5002 16.2519C13.0704 17.0189 13.9734 17.5007 14.9978 17.5007C16.0226 17.5007 16.9289 17.0182 17.5003 16.2507C18.0704 17.0184 18.9753 17.5007 20.0004 17.5007C21.0252 17.5007 21.9302 17.0182 22.5016 16.2507C23.0717 17.0184 23.9755 17.5007 25.0005 17.5007C26.0255 17.5007 26.9304 17.0184 27.5005 16.2507C28.072 17.0182 28.9782 17.5007 30.003 17.5007C31.0274 17.5007 31.9304 17.0189 32.5006 16.2519C32.9514 16.8583 33.6129 17.2721 34.3757 17.4311V35.001H31.8756C31.0236 34.9821 31.0236 36.27 31.8756 36.2511H36.2495V37.5011H3.75005V36.2511H26.2517C27.1038 36.27 27.1038 34.9821 26.2517 35.001C22.3125 35.001 21.0167 35.0014 18.1266 35.001V20.6234C18.1253 20.2782 17.8443 19.9995 17.4991 20.0008H7.469C7.11693 20.0329 6.87358 20.3021 6.8739 20.6234ZM19.3766 20.6234V31.8772C19.3778 32.221 19.6566 32.4991 20.0004 32.4998H32.4982C32.8433 32.501 33.1243 32.2224 33.1256 31.8772V20.6234C33.1244 20.2782 32.8434 19.9995 32.4982 20.0008H19.9699C19.6196 20.0329 19.3763 20.3021 19.3766 20.6234ZM8.12392 21.252H16.8765V35.001C13.9151 35.0007 10.1856 35.0004 8.12392 35.001V21.252ZM20.6278 21.252H31.8756V31.2498H20.6278V21.252ZM9.9367 22.502C9.61698 22.5342 9.37363 22.8033 9.37395 23.1246V28.1259C9.3752 28.4711 9.65623 28.7498 10.0014 28.7485H14.9978C15.343 28.7498 15.6239 28.4711 15.6253 28.1259V23.1246C15.624 22.7794 15.343 22.5007 14.9978 22.502H10.0014C9.97983 22.5008 9.95827 22.5008 9.9367 22.502ZM10.6252 23.7472H14.3753V27.4985H10.6252V23.7472ZM28.7188 35.001C27.8721 35.061 27.9357 36.2754 28.7517 36.2511H29.3743C30.2264 36.27 30.2264 34.9821 29.3743 35.001H28.7188Z" fill="white"/>
</svg>
