<svg width="40" height="40" viewBox="0 0 40 40" fill="none" xmlns="http://www.w3.org/2000/svg">
<path d="M38.125 26.25C37.9592 26.25 37.8003 26.3158 37.6831 26.4331C37.5658 26.5503 37.5 26.7092 37.5 26.875V30.625C37.499 31.4535 37.1694 32.2478 36.5836 32.8336C35.9978 33.4194 35.2035 33.749 34.375 33.75H5.625C4.7965 33.749 4.00222 33.4194 3.41639 32.8336C2.83055 32.2478 2.50099 31.4535 2.5 30.625V9.375C2.50099 8.5465 2.83055 7.75222 3.41639 7.16639C4.00222 6.58055 4.7965 6.25099 5.625 6.25H8.75C8.91576 6.25 9.07473 6.18415 9.19194 6.06694C9.30915 5.94973 9.375 5.79076 9.375 5.625C9.375 5.45924 9.30915 5.30027 9.19194 5.18306C9.07473 5.06585 8.91576 5 8.75 5H5.625C4.46508 5.00132 3.35305 5.46268 2.53287 6.28287C1.71268 7.10305 1.25132 8.21508 1.25 9.375V30.625C1.25132 31.7849 1.71268 32.8969 2.53287 33.7171C3.35305 34.5373 4.46508 34.9987 5.625 35H34.375C35.5349 34.9987 36.6469 34.5373 37.4671 33.7171C38.2873 32.8969 38.7487 31.7849 38.75 30.625V26.875C38.75 26.7092 38.6842 26.5503 38.5669 26.4331C38.4497 26.3158 38.2908 26.25 38.125 26.25ZM34.375 5H11.25C11.0842 5 10.9253 5.06585 10.8081 5.18306C10.6908 5.30027 10.625 5.45924 10.625 5.625C10.625 5.79076 10.6908 5.94973 10.8081 6.06694C10.9253 6.18415 11.0842 6.25 11.25 6.25H34.375C35.2035 6.25099 35.9978 6.58055 36.5836 7.16639C37.1694 7.75222 37.499 8.5465 37.5 9.375V24.375C37.5 24.5408 37.5658 24.6997 37.6831 24.8169C37.8003 24.9342 37.9592 25 38.125 25C38.2908 25 38.4497 24.9342 38.5669 24.8169C38.6842 24.6997 38.75 24.5408 38.75 24.375V9.375C38.7487 8.21508 38.2873 7.10305 37.4671 6.28287C36.6469 5.46268 35.5349 5.00132 34.375 5Z" fill="white"/>
<path d="M4.375 20C4.20924 20 4.05027 20.0658 3.93306 20.1831C3.81585 20.3003 3.75 20.4592 3.75 20.625V30.625C3.75 31.1223 3.94754 31.5992 4.29917 31.9508C4.65081 32.3025 5.12772 32.5 5.625 32.5H34.375C34.8723 32.5 35.3492 32.3025 35.7008 31.9508C36.0525 31.5992 36.25 31.1223 36.25 30.625V9.375C36.25 8.87772 36.0525 8.40081 35.7008 8.04917C35.3492 7.69754 34.8723 7.5 34.375 7.5H5.625C5.12772 7.5 4.65081 7.69754 4.29917 8.04917C3.94754 8.40081 3.75 8.87772 3.75 9.375V18.125C3.75 18.2908 3.81585 18.4497 3.93306 18.5669C4.05027 18.6842 4.20924 18.75 4.375 18.75C4.54076 18.75 4.69973 18.6842 4.81694 18.5669C4.93415 18.4497 5 18.2908 5 18.125V12.1337L6.12063 13.2544C6.2385 13.3682 6.39638 13.4312 6.56025 13.4298C6.72412 13.4284 6.88088 13.3626 6.99676 13.2468C7.11264 13.1309 7.17837 12.9741 7.1798 12.8103C7.18122 12.6464 7.11822 12.4885 7.00437 12.3706L5 10.3663V9.375C5 9.20924 5.06585 9.05027 5.18306 8.93306C5.30027 8.81585 5.45924 8.75 5.625 8.75H6.61625L7.68313 9.81687C7.801 9.93072 7.95888 9.99372 8.12275 9.9923C8.28662 9.99087 8.44338 9.92514 8.55926 9.80926C8.67514 9.69338 8.74087 9.53662 8.7423 9.37275C8.74372 9.20888 8.68072 9.051 8.56687 8.93313L8.38375 8.75H29.1162L31.4331 11.0669C31.551 11.1807 31.7089 11.2437 31.8728 11.2423C32.0366 11.2409 32.1934 11.1751 32.3093 11.0593C32.4251 10.9434 32.4909 10.7866 32.4923 10.6228C32.4937 10.4589 32.4307 10.301 32.3169 10.1831L30.8838 8.75H34.375C34.5408 8.75 34.6997 8.81585 34.8169 8.93306C34.9342 9.05027 35 9.20924 35 9.375V27.2412L32.6294 24.8706C32.5115 24.7568 32.3536 24.6938 32.1897 24.6952C32.0259 24.6966 31.8691 24.7624 31.7532 24.8782C31.6374 24.9941 31.5716 25.1509 31.5702 25.3147C31.5688 25.4786 31.6318 25.6365 31.7456 25.7544L35 29.0088V30.625C35 30.7908 34.9342 30.9497 34.8169 31.0669C34.6997 31.1842 34.5408 31.25 34.375 31.25H33.3838L30.4419 28.3081C30.324 28.1943 30.1661 28.1313 30.0022 28.1327C29.8384 28.1341 29.6816 28.1999 29.5657 28.3157C29.4499 28.4316 29.3841 28.5884 29.3827 28.7522C29.3813 28.9161 29.4443 29.074 29.5581 29.1919L31.6162 31.25H9.00875L7.31687 29.5581C7.199 29.4443 7.04112 29.3813 6.87725 29.3827C6.71338 29.3841 6.55662 29.4499 6.44074 29.5657C6.32486 29.6816 6.25913 29.8384 6.2577 30.0022C6.25628 30.1661 6.31928 30.324 6.43313 30.4419L7.24125 31.25H5.625C5.45924 31.25 5.30027 31.1842 5.18306 31.0669C5.06585 30.9497 5 30.7908 5 30.625V25.2588L7.37063 27.6294C7.4885 27.7432 7.64638 27.8062 7.81025 27.8048C7.97412 27.8034 8.13088 27.7376 8.24676 27.6218C8.36264 27.5059 8.42837 27.3491 8.4298 27.1853C8.43122 27.0214 8.36822 26.8635 8.25437 26.7456L5 23.4912V20.625C5 20.4592 4.93415 20.3003 4.81694 20.1831C4.69973 20.0658 4.54076 20 4.375 20Z" fill="white"/>
<path d="M6.98613 14.8975C6.97344 14.9194 6.96156 14.9417 6.9505 14.9644C6.61938 15.6789 6.38382 16.434 6.24988 17.21C6.18335 17.6186 6.21602 18.0372 6.34513 18.4305C6.47424 18.8238 6.69601 19.1803 6.99175 19.47C6.9605 19.5013 6.923 19.5244 6.89363 19.5581C6.69095 19.79 6.55123 20.0701 6.48787 20.3715C6.4245 20.6729 6.43962 20.9855 6.53175 21.2794C6.78051 22.0773 7.14321 22.8351 7.60863 23.5294C7.74759 23.7421 7.93006 23.9229 8.14402 24.06C8.35797 24.197 8.59855 24.2871 8.84988 24.3244C8.92978 24.3359 9.01041 24.3415 9.09113 24.3413C9.1355 24.3413 9.17863 24.3331 9.22238 24.3294V24.3625C9.2509 24.7185 9.36329 25.0626 9.55035 25.3668C9.73741 25.6709 9.99383 25.9265 10.2986 26.1125C10.5707 26.2828 10.8538 26.4348 11.1461 26.5675L12.3774 27.1425C12.7774 28.2159 13.5851 29.088 14.6249 29.5688L16.8886 30.625C16.963 30.6598 17.0435 30.6796 17.1256 30.6833C17.2077 30.6869 17.2896 30.6744 17.3668 30.6464C17.444 30.6183 17.5149 30.5753 17.5755 30.5199C17.6361 30.4644 17.6852 30.3976 17.7199 30.3231C17.9413 29.8465 18.0751 29.334 18.1149 28.81C18.4787 29.1866 18.9077 29.4943 19.3811 29.7181L21.6468 30.7744C21.7969 30.8445 21.9688 30.8521 22.1246 30.7954C22.2803 30.7388 22.4072 30.6227 22.4774 30.4725C22.7586 29.8662 22.8963 29.2032 22.8799 28.535C23.3241 29.2306 23.9571 29.7853 24.7049 30.1344L26.9705 31.1906C27.1207 31.2607 27.2926 31.2683 27.4483 31.2117C27.6041 31.1551 27.731 31.0389 27.8011 30.8888C28.0454 30.3684 28.1841 29.8048 28.2092 29.2306C28.2343 28.6563 28.1453 28.0828 27.9474 27.5431C27.8207 27.2029 27.6528 26.8794 27.4474 26.58C28.2023 26.5154 28.9264 26.2508 29.5451 25.8133C30.1638 25.3759 30.6548 24.7815 30.9674 24.0913C31.0375 23.9411 31.045 23.7692 30.9884 23.6134C30.9318 23.4577 30.8157 23.3308 30.6655 23.2606L28.3993 22.2044C27.3477 21.716 26.1453 21.6645 25.0558 22.061C23.9663 22.4576 23.0784 23.2699 22.5868 24.32C22.3131 24.9086 22.1749 25.551 22.1824 26.2L21.7555 26.0013C21.5079 25.8855 21.2669 25.7561 21.0336 25.6138C20.8958 25.5309 20.7799 25.4163 20.6956 25.2793C20.6113 25.1424 20.5611 24.9872 20.5493 24.8269C20.5362 24.6688 20.5612 24.5098 20.6224 24.3635C20.6835 24.2171 20.7789 24.0875 20.9005 23.9856L22.7755 22.3956C22.9499 22.2453 23.0822 22.0523 23.1597 21.8355C23.2371 21.6187 23.257 21.3855 23.2174 21.1588C23.1969 21.0282 23.156 20.9016 23.0961 20.7838C23.1715 20.6806 23.23 20.566 23.2693 20.4444C23.2924 20.3756 23.3661 20.2106 23.3824 20.1769C23.5171 19.9275 23.6056 19.6559 23.6436 19.375C23.7908 19.4061 23.9407 19.4224 24.0911 19.4238C24.6523 19.4234 25.1946 19.2208 25.6186 18.8531C25.956 19.5101 26.5037 20.0351 27.1743 20.3444L28.5311 20.9694C29.5325 21.4335 30.6772 21.4808 31.7135 21.1011C32.7498 20.7214 33.5929 19.9456 34.0574 18.9444C34.5811 17.8273 34.6397 16.5479 34.2204 15.3876C33.801 14.2273 32.938 13.281 31.8211 12.7569C31.7467 12.7222 31.6662 12.7025 31.5842 12.699C31.5022 12.6954 31.4203 12.708 31.3432 12.7361C31.266 12.7642 31.1952 12.8072 31.1347 12.8627C31.0742 12.9181 31.0252 12.985 30.9905 13.0594C30.9558 13.1338 30.9361 13.2143 30.9326 13.2963C30.929 13.3783 30.9416 13.4602 30.9697 13.5373C30.9978 13.6145 31.0408 13.6853 31.0963 13.7458C31.1518 13.8063 31.2186 13.8553 31.293 13.89C31.6973 14.0776 32.0602 14.3437 32.3607 14.6729C32.6611 15.0021 32.8931 15.3878 33.043 15.8075C33.1959 16.2287 33.2641 16.6759 33.2436 17.1235C33.2232 17.5711 33.1144 18.0102 32.9236 18.4156C32.7635 18.7652 32.5357 19.0797 32.2535 19.3409C31.9713 19.6021 31.6402 19.8048 31.2793 19.9375C30.9213 20.0699 30.5406 20.1299 30.1592 20.1138C29.7779 20.0977 29.4035 20.0059 29.058 19.8438L27.6986 19.215C27.2775 19.0199 26.9342 18.6889 26.7239 18.2751C26.5136 17.8614 26.4486 17.3889 26.5393 16.9338L27.278 13.145L27.3455 12.7981C27.361 12.7171 27.3949 12.6406 27.4445 12.5746C27.4941 12.5087 27.5582 12.4549 27.6318 12.4175C27.7034 12.3804 27.7825 12.3603 27.8632 12.3587C27.9438 12.357 28.0237 12.374 28.0968 12.4081L29.1111 12.8813C29.261 12.9486 29.4314 12.9543 29.5854 12.897C29.7394 12.8396 29.8647 12.724 29.934 12.575C30.0034 12.426 30.0113 12.2557 29.956 12.101C29.9007 11.9462 29.7867 11.8194 29.6386 11.7481L28.6249 11.2713C28.3796 11.1562 28.1111 11.0991 27.8402 11.1042C27.5693 11.1093 27.3032 11.1765 27.0624 11.3006C27.0049 11.3341 26.9494 11.3708 26.8961 11.4106C26.868 11.3713 26.8493 11.3281 26.8193 11.29C26.6186 11.0396 26.3656 10.8361 26.078 10.6938C25.7903 10.5515 25.4751 10.4738 25.1543 10.4663C23.9575 10.4427 22.7685 10.6641 21.6605 11.1169C21.4697 10.7999 21.2019 10.5363 20.882 10.3506C20.5621 10.1648 20.2004 10.0629 19.8305 10.0544C18.2726 10.0196 16.734 10.4033 15.3749 11.1656C14.9555 11.3982 14.6223 11.7598 14.4246 12.1968C14.2269 12.6337 14.1753 13.1227 14.2774 13.5913C14.1621 13.5838 14.0464 13.5838 13.9311 13.5913C13.4851 13.6166 13.0532 13.7573 12.678 13.9998C12.3027 14.2423 11.9969 14.5781 11.7905 14.9744L11.5899 14.6563C11.5824 14.6444 11.5724 14.6338 11.5643 14.6219L10.868 13.5238C10.7956 13.4082 10.7474 13.2792 10.7262 13.1445C10.7051 13.0097 10.7116 12.8721 10.7451 12.74C10.7787 12.6078 10.8388 12.4838 10.9217 12.3756C11.0046 12.2673 11.1086 12.1769 11.2274 12.11C11.9976 11.6764 12.8388 11.3833 13.7118 11.2444C13.8754 11.2181 14.022 11.1279 14.1192 10.9936C14.2163 10.8592 14.2562 10.6918 14.2299 10.5281C14.2036 10.3644 14.1134 10.2179 13.9791 10.1207C13.8447 10.0236 13.6773 9.98373 13.5136 10.01C12.4954 10.1726 11.5142 10.5145 10.6155 11.02C10.3479 11.1704 10.1136 11.3736 9.92687 11.6172C9.74014 11.8609 9.60487 12.14 9.52925 12.4375C9.44744 12.7671 9.44188 13.1111 9.513 13.4431C9.39458 13.4356 9.2758 13.4356 9.15738 13.4431C8.69869 13.47 8.25552 13.619 7.87377 13.8747C7.49201 14.1305 7.18556 14.4836 6.98613 14.8975ZM9.02425 23.085C8.94761 23.0723 8.87455 23.0434 8.8099 23.0003C8.74526 22.9572 8.6905 22.9009 8.64925 22.835C8.25073 22.2412 7.94022 21.5928 7.72738 20.91C7.69861 20.8194 7.69386 20.7229 7.71357 20.6298C7.73329 20.5368 7.77681 20.4505 7.83988 20.3794C7.89626 20.3109 7.96942 20.2582 8.05223 20.2265C8.13504 20.1947 8.22467 20.1849 8.31238 20.1981L11.2361 20.6613C11.2026 20.9039 11.219 21.1508 11.2843 21.3869L9.44363 22.9494C9.38751 23.0007 9.32105 23.0395 9.24871 23.063C9.17637 23.0865 9.09983 23.0936 9.02425 23.085ZM10.9549 25.0463C10.8178 24.9646 10.7022 24.8513 10.6178 24.7158C10.5335 24.5804 10.4827 24.4267 10.4699 24.2676C10.457 24.1086 10.4824 23.9487 10.544 23.8015C10.6055 23.6542 10.7014 23.5239 10.8236 23.4213L11.7611 22.6219C11.9375 22.9899 12.1397 23.3449 12.3661 23.6844C12.3993 23.735 12.4418 23.7756 12.4786 23.8219C12.2232 24.3917 12.0934 25.0099 12.098 25.6344L11.6686 25.4338C11.4224 25.3207 11.184 25.1909 10.9549 25.0463ZM16.7943 29.2006L15.1518 28.4375C14.4298 28.1041 13.8636 27.5059 13.5704 26.7667C13.2771 26.0276 13.2792 25.2039 13.5761 24.4663C13.5868 24.4663 13.5961 24.4725 13.6068 24.4738C13.6873 24.485 13.7685 24.4906 13.8499 24.4906C13.8949 24.4906 13.938 24.4819 13.9824 24.4788V24.51C14.0089 24.8676 14.1208 25.2136 14.3087 25.519C14.4966 25.8244 14.7551 26.0802 15.0624 26.265C15.3353 26.4319 15.6174 26.5831 15.9074 26.7181L16.4924 26.9913C16.8627 27.6653 16.9703 28.452 16.7943 29.2006ZM17.5693 17.9769C17.6838 17.2998 17.8901 16.6414 18.1824 16.02C18.2857 15.7996 18.4471 15.6114 18.6493 15.4758C18.8514 15.3401 19.0867 15.2621 19.3299 15.25C19.584 15.2315 19.8384 15.2825 20.0658 15.3975C20.2932 15.5126 20.4849 15.6874 20.6205 15.9031L22.2574 18.4831C22.359 18.6458 22.4151 18.8326 22.4201 19.0243C22.425 19.216 22.3786 19.4055 22.2855 19.5731C22.2069 19.7424 22.1191 19.9072 22.0224 20.0669L18.7405 19.5488C18.5541 19.5194 18.3753 19.4535 18.2144 19.3548C18.0535 19.2561 17.9137 19.1266 17.803 18.9738C17.6999 18.8315 17.6261 18.6702 17.586 18.4991C17.5458 18.3281 17.5402 18.1501 17.5693 17.9769ZM26.8749 29.765L25.233 29C24.5795 28.6957 24.0513 28.1747 23.7379 27.5254C23.4245 26.8762 23.3453 26.1385 23.5136 25.4375L25.1568 26.2038C25.8091 26.5091 26.3362 27.0301 26.6492 27.6788C26.9622 28.3275 27.0419 29.0644 26.8749 29.765ZM27.8749 23.3344L29.518 24.1006C29.0892 24.6791 28.4737 25.0917 27.7757 25.2686C27.0777 25.4456 26.34 25.3761 25.6874 25.0719L24.0424 24.3063C24.4721 23.7283 25.0878 23.3161 25.7859 23.1391C26.484 22.9621 27.2217 23.031 27.8749 23.3344ZM21.2293 27.1319L21.2486 27.1413C21.6189 27.8151 21.7268 28.602 21.5518 29.3506L19.9086 28.585C19.3185 28.31 18.829 27.8574 18.5085 27.2907C18.1881 26.7239 18.0526 26.0712 18.1211 25.4238C18.1298 25.3421 18.1223 25.2596 18.0991 25.1809C18.0758 25.1021 18.0373 25.0288 17.9857 24.9649C17.9341 24.9011 17.8705 24.848 17.7984 24.8088C17.7263 24.7696 17.6471 24.7449 17.5655 24.7363C17.4011 24.7212 17.2374 24.7709 17.109 24.8746C16.9807 24.9784 16.8978 25.128 16.878 25.2919C16.8643 25.4563 16.8599 25.6214 16.8649 25.7863L16.4336 25.5856C16.1862 25.4697 15.9452 25.3403 15.7118 25.1981C15.5737 25.1156 15.4576 25.001 15.3732 24.864C15.2889 24.727 15.2389 24.5717 15.2274 24.4113C15.2142 24.2532 15.2391 24.0943 15.3001 23.9479C15.3611 23.8015 15.4564 23.6719 15.578 23.57L16.8486 22.4906C17.0737 23.0529 17.3565 23.5904 17.6924 24.0944C17.8314 24.3061 18.0137 24.4861 18.2271 24.6225C18.4406 24.7588 18.6805 24.8485 18.9311 24.8856C19.0115 24.8969 19.0925 24.9025 19.1736 24.9025C19.2186 24.9025 19.2624 24.8944 19.3068 24.8906V24.9219C19.3328 25.2799 19.4444 25.6263 19.6323 25.9322C19.8201 26.238 20.0786 26.4943 20.3861 26.6794C20.6586 26.8457 20.9401 26.9968 21.2293 27.1319ZM21.9661 21.4375L19.5286 23.51C19.4726 23.563 19.4054 23.6028 19.3319 23.6262C19.2585 23.6496 19.1807 23.6562 19.1043 23.6454C19.0279 23.6346 18.955 23.6067 18.8909 23.5637C18.8269 23.5208 18.7733 23.464 18.7343 23.3975C18.3363 22.8036 18.0258 22.1555 17.8124 21.4731C17.7833 21.3828 17.778 21.2864 17.7972 21.1934C17.8164 21.1004 17.8593 21.014 17.9218 20.9425C17.971 20.8845 18.0322 20.8377 18.1011 20.8053C18.17 20.773 18.245 20.7558 18.3211 20.755C18.3486 20.755 21.9855 21.3556 21.9855 21.3556C21.9888 21.3699 21.9887 21.3846 21.9854 21.3988C21.982 21.413 21.9754 21.4263 21.9661 21.4375ZM25.128 11.7138C25.2669 11.7165 25.4034 11.75 25.5277 11.812C25.652 11.8739 25.761 11.9627 25.8468 12.0719C25.9393 12.1867 26.0056 12.3204 26.0409 12.4636C26.0762 12.6068 26.0797 12.756 26.0511 12.9006L25.3124 16.6913L25.203 17.2538C25.1567 17.4839 25.0413 17.6945 24.8722 17.8574C24.7031 18.0203 24.4885 18.1278 24.2568 18.1656C24.0636 18.1989 23.8648 18.1742 23.6856 18.0947C23.5064 18.0152 23.3548 17.8844 23.2499 17.7188L20.9461 14.0869C20.8733 13.9712 20.8248 13.842 20.8034 13.7071C20.782 13.5721 20.7882 13.4342 20.8217 13.3017C20.8552 13.1693 20.9152 13.045 20.9982 12.9364C21.0811 12.8278 21.1852 12.7372 21.3043 12.67C22.4204 12.0443 23.6784 11.715 24.958 11.7138C25.0161 11.7138 25.0724 11.7144 25.128 11.7156V11.7138ZM15.4999 12.8888C15.5328 12.7559 15.5927 12.6312 15.6758 12.5224C15.7589 12.4136 15.8635 12.323 15.983 12.2563C17.1489 11.6032 18.4682 11.2737 19.8043 11.3019C19.9475 11.3074 20.0876 11.3457 20.2137 11.4139C20.3398 11.4821 20.4486 11.5782 20.5318 11.695C20.1613 11.9406 19.8738 12.2926 19.7071 12.7047C19.5405 13.1168 19.5024 13.5696 19.598 14.0038C19.4829 13.9963 19.3675 13.9963 19.2524 14.0038C18.7792 14.03 18.3223 14.1855 17.9314 14.4534C17.5406 14.7213 17.2307 15.0913 17.0355 15.5231C17.0011 15.5975 16.973 15.6731 16.9399 15.7481L16.3524 14.8213L15.6249 13.6725C15.5513 13.5575 15.5022 13.4285 15.4807 13.2937C15.4592 13.1588 15.4657 13.021 15.4999 12.8888ZM14.0061 14.8363C14.2601 14.8176 14.5144 14.8684 14.7417 14.9834C14.969 15.0984 15.1607 15.2731 15.2961 15.4888L16.4374 17.2838C16.4011 17.4456 16.3661 17.6075 16.3393 17.7713C16.2826 18.1078 16.2937 18.4522 16.3719 18.7844C16.4502 19.1166 16.594 19.4298 16.7949 19.7056C16.8816 19.8215 16.9778 19.93 17.0824 20.03C17.048 20.0638 17.008 20.0888 16.9761 20.1256C16.7428 20.4 16.5981 20.7386 16.5611 21.0969L16.318 21.3038L14.7724 22.6163L14.2061 23.0975C14.1501 23.1506 14.0828 23.1903 14.0093 23.2137C13.9358 23.2372 13.8579 23.2437 13.7815 23.2329C13.7051 23.2221 13.6321 23.1942 13.568 23.1513C13.5039 23.1083 13.4503 23.0515 13.4111 22.985C13.0125 22.3918 12.7012 21.7443 12.4868 21.0625C12.4573 20.972 12.4519 20.8753 12.471 20.7821C12.4902 20.6888 12.5333 20.6022 12.5961 20.5306C12.6547 20.461 12.7304 20.4079 12.8158 20.3764C12.9012 20.345 12.9933 20.3363 13.083 20.3513L13.2211 20.3731L14.7836 20.62C14.9474 20.6458 15.1147 20.6054 15.2487 20.5079C15.3828 20.4103 15.4725 20.2635 15.4983 20.0997C15.5241 19.9359 15.4838 19.7686 15.3862 19.6346C15.2886 19.5006 15.1418 19.4108 14.978 19.385L13.4155 19.1388C13.0391 19.0789 12.7019 18.8721 12.478 18.5638C12.3736 18.4214 12.2988 18.2596 12.258 18.0878C12.2172 17.916 12.2112 17.7379 12.2405 17.5638C12.3549 16.8866 12.5612 16.2283 12.8536 15.6069C12.9574 15.3857 13.1195 15.197 13.3226 15.0612C13.5257 14.9254 13.7621 14.8476 14.0061 14.8363ZM10.5186 15.3094L11.2261 16.4263C11.1378 16.7325 11.0664 17.0434 11.0124 17.3575C10.9553 17.6946 10.9663 18.0396 11.0447 18.3724C11.123 18.7051 11.2672 19.0188 11.4686 19.295C11.5105 19.3531 11.5636 19.4 11.6093 19.4538L8.67175 18.9944L8.56113 18.9744C8.21801 18.8997 7.91596 18.6977 7.71588 18.4092C7.5158 18.1206 7.43258 17.7669 7.483 17.4194C7.59504 16.7634 7.79234 16.1249 8.06988 15.52C8.0811 15.5019 8.09112 15.4831 8.09988 15.4638C8.20052 15.2418 8.36041 15.0519 8.56198 14.915C8.76355 14.778 8.99898 14.6993 9.24238 14.6875C9.49142 14.6692 9.74086 14.7174 9.96513 14.8272C10.1894 14.937 10.3804 15.1045 10.5186 15.3125V15.3094Z" fill="white"/>
</svg>
