<svg width="40" height="40" viewBox="0 0 40 40" fill="none" xmlns="http://www.w3.org/2000/svg">
<g clip-path="url(#clip0_353_2055)">
<path d="M19.0383 10.4843C19.0649 10.3913 19.0696 10.2934 19.0519 10.1983C19.0342 10.1032 18.9947 10.0134 18.9364 9.93621C18.8782 9.85897 18.8028 9.7963 18.7162 9.75314C18.6296 9.70999 18.5342 9.68752 18.4375 9.6875H10.3125C10.2157 9.68752 10.1203 9.70999 10.0337 9.75314C9.94713 9.7963 9.87175 9.85897 9.8135 9.93621C9.75525 10.0134 9.71573 10.1032 9.69804 10.1983C9.68035 10.2934 9.68498 10.3913 9.71156 10.4843L10.9616 14.8593C10.9898 14.9502 11.0388 15.0333 11.1048 15.102C10.659 15.7068 10.3897 16.4234 10.3268 17.1721C10.2639 17.9208 10.4099 18.6723 10.7484 19.343C11.087 20.0137 11.605 20.5774 12.2448 20.9714C12.8845 21.3654 13.621 21.5742 14.3724 21.5747C15.1237 21.5752 15.8605 21.3673 16.5008 20.9741C17.141 20.581 17.6597 20.018 17.9992 19.3477C18.3387 18.6774 18.4856 17.9261 18.4236 17.1773C18.3617 16.4285 18.0933 15.7116 17.6483 15.1062C17.7135 15.0359 17.7614 14.9514 17.7883 14.8593L19.0383 10.4843ZM14.375 20.3125C13.7648 20.3131 13.171 20.1151 12.6834 19.7483C12.1957 19.3815 11.8407 18.866 11.672 18.2796C11.5033 17.6933 11.53 17.0679 11.7482 16.4981C11.9664 15.9282 12.3642 15.4449 12.8813 15.1212C13.3728 15.047 13.8688 15.0065 14.3658 15C14.8733 15.0177 15.3796 15.061 15.8828 15.1298C16.3968 15.4559 16.791 15.9401 17.0062 16.5096C17.2213 17.0791 17.2456 17.703 17.0756 18.2875C16.9055 18.872 16.5503 19.3855 16.0632 19.7507C15.5762 20.1159 14.9837 20.3131 14.375 20.3125ZM16.7381 13.985C15.9586 13.8621 15.1727 13.7836 14.3843 13.75C14.3646 13.7497 14.3446 13.7497 14.3241 13.7497C13.5492 13.7803 12.7769 13.8586 12.0115 13.9841L11.141 10.9375H17.6089L16.7381 13.985Z" fill="white"/>
<path d="M35.625 38.75V30.625C35.6247 30.2936 35.4929 29.9758 35.2585 29.7415C35.0242 29.5071 34.7064 29.3753 34.375 29.375H34.0625V25.3125C34.0623 25.2149 34.0392 25.1188 33.995 25.0318C33.9508 24.9448 33.8868 24.8694 33.8081 24.8117C34.012 24.4954 34.1189 24.1263 34.1156 23.75C34.1152 23.4484 34.0541 23.15 33.9357 22.8726C33.8174 22.5952 33.6444 22.3445 33.4269 22.1355C33.2095 21.9265 32.9522 21.7635 32.6703 21.6563C32.3885 21.549 32.0879 21.4997 31.7865 21.5112C31.6511 21.0456 31.3682 20.6365 30.9804 20.3453C30.5925 20.0542 30.1207 19.8969 29.6358 19.8969C29.1508 19.8969 28.679 20.0542 28.2912 20.3453C27.9033 20.6365 27.6205 21.0456 27.485 21.5112C27.4557 21.51 27.4265 21.5094 27.3969 21.5094C26.8028 21.5101 26.2333 21.7464 25.8133 22.1664C25.3933 22.5865 25.157 23.156 25.1562 23.75C25.1527 24.1527 25.2656 24.5478 25.4813 24.8878C25.3731 25.0028 25.3128 25.1546 25.3125 25.3125V29.375H21.875V26.5625C21.8737 25.4026 21.4123 24.2905 20.5922 23.4703C19.772 22.6502 18.6599 22.1888 17.5 22.1875H11.25C10.0901 22.1888 8.97803 22.6502 8.15784 23.4703C7.33765 24.2905 6.8763 25.4026 6.875 26.5625V29.375H6.25C5.91859 29.3754 5.60085 29.5072 5.36651 29.7415C5.13216 29.9759 5.00035 30.2936 5 30.625V38.75C5.00035 39.0814 5.13216 39.3991 5.36651 39.6335C5.60085 39.8678 5.91859 39.9996 6.25 40H34.375C34.7064 39.9997 35.0242 39.8679 35.2585 39.6335C35.4929 39.3992 35.6247 39.0814 35.625 38.75ZM27.3969 22.7594C27.5284 22.7593 27.6586 22.7863 27.7792 22.8387C27.878 22.8817 27.9863 22.8984 28.0934 22.8871C28.2006 22.8759 28.303 22.8372 28.3908 22.7747C28.4786 22.7122 28.5487 22.628 28.5943 22.5305C28.64 22.4329 28.6597 22.3251 28.6514 22.2177C28.6493 22.1899 28.6468 22.1622 28.6468 22.1344C28.6468 21.8721 28.751 21.6205 28.9365 21.435C29.122 21.2495 29.3736 21.1453 29.6359 21.1453C29.8982 21.1453 30.1498 21.2495 30.3353 21.435C30.5208 21.6205 30.625 21.8721 30.625 22.1344C30.625 22.1637 30.6226 22.193 30.6204 22.222C30.6129 22.3292 30.6331 22.4365 30.6791 22.5335C30.7251 22.6306 30.7954 22.7142 30.8831 22.7762C30.9709 22.8382 31.0731 22.8765 31.18 22.8875C31.2868 22.8984 31.3947 22.8816 31.4932 22.8387C31.6138 22.7866 31.7437 22.7596 31.875 22.7594C32.1107 22.7587 32.3388 22.8423 32.5183 22.9952C32.6977 23.148 32.8166 23.3599 32.8535 23.5927C32.8903 23.8255 32.8427 24.0638 32.7193 24.2645C32.5958 24.4653 32.4047 24.6153 32.1803 24.6875H27.0916C26.8672 24.6153 26.676 24.4653 26.5526 24.2646C26.4291 24.0638 26.3815 23.8255 26.4184 23.5927C26.4553 23.3599 26.5741 23.148 26.7536 22.9952C26.933 22.8423 27.1612 22.7587 27.3969 22.7594ZM32.8125 25.9375V29.375H26.5625V25.9375H32.8125ZM18.4628 23.5909C19.0905 23.7949 19.6377 24.1922 20.026 24.7259C20.4144 25.2596 20.624 25.9025 20.625 26.5625V29.375H19.0625V28.125C19.0625 28.1202 19.0612 28.1158 19.0611 28.111C19.06 28.0883 19.0578 28.0658 19.0543 28.0434C19.0518 28.0249 19.0504 28.0062 19.0464 27.9882C19.042 27.9682 19.0346 27.949 19.0282 27.9294C19.0219 27.9104 19.0166 27.8911 19.0086 27.8729C19.0007 27.855 18.9901 27.8383 18.9804 27.821C18.9702 27.8029 18.9609 27.7844 18.949 27.7674C18.9385 27.7523 18.9255 27.7386 18.9135 27.7243C18.8993 27.7067 18.8843 27.6899 18.8683 27.6739C18.8648 27.6706 18.8624 27.6666 18.8588 27.6633C17.8446 26.7376 17.8693 24.905 18.4628 23.5909ZM15.3481 23.4375L14.9602 24.472C14.9155 24.5912 14.8356 24.6938 14.731 24.7663C14.6264 24.8388 14.5022 24.8776 14.375 24.8776C14.2478 24.8776 14.1236 24.8388 14.019 24.7663C13.9144 24.6938 13.8345 24.5912 13.7898 24.472L13.4019 23.4375H15.3481ZM10.9375 28.2923C12.0484 27.0486 12.3061 25.2283 11.648 23.4375H12.0669L12.6195 24.9109C12.7535 25.2683 12.9933 25.5763 13.307 25.7937C13.6207 26.0111 13.9933 26.1276 14.375 26.1276C14.7567 26.1276 15.1293 26.0111 15.443 25.7937C15.7567 25.5763 15.9965 25.2683 16.1305 24.9109L16.6831 23.4375H17.1762C16.5761 25.0627 16.6528 27.1123 17.8125 28.3772V29.375H10.9375V28.2923ZM8.125 26.5625C8.12599 25.8902 8.34348 25.236 8.74526 24.697C9.14704 24.1579 9.71175 23.7625 10.3558 23.5695C11.0381 25.1091 10.8639 26.6331 9.87549 27.6001C9.81155 27.663 9.76199 27.739 9.73022 27.8228C9.69845 27.9067 9.68522 27.9965 9.69145 28.0859C9.69063 28.0991 9.6875 28.1116 9.6875 28.125V29.375H8.125V26.5625ZM6.25 30.625H34.375L34.3759 38.75H6.25V30.625Z" fill="white"/>
<path d="M4.07881 4.88953C4.20243 5.7758 4.64023 6.5882 5.31248 7.17882V9.0625C5.31284 9.39391 5.44465 9.71165 5.67899 9.94599C5.91333 10.1803 6.23107 10.3121 6.56248 10.3125H7.81248V22.12C8.19542 21.8204 8.61559 21.5718 9.06248 21.3803V12.7625L8.50967 10.8276C8.4613 10.6548 8.4384 10.4759 8.44171 10.2965C8.44345 10.2288 8.44878 10.1613 8.4577 10.0942C8.46189 10.0596 8.46338 10.0247 8.46948 9.99045C8.47738 9.94445 8.49117 9.89976 8.50244 9.85446C8.51614 9.80083 8.52758 9.74665 8.54588 9.69428C8.60844 9.51088 8.69946 9.33846 8.8156 9.18334C8.84766 9.14084 8.88312 9.10178 8.91835 9.06249H6.56248V7.91122C7.32482 8.18138 8.15441 8.19588 8.92572 7.95253C9.69703 7.70918 10.3681 7.22123 10.8374 6.5625H11.015C11.361 7.04587 11.8173 7.43977 12.346 7.71151C12.8746 7.98325 13.4605 8.125 14.0549 8.125C14.6494 8.125 15.2352 7.98325 15.7639 7.71151C16.2926 7.43977 16.7489 7.04587 17.0949 6.5625H17.2725C17.6185 7.04587 18.0747 7.43977 18.6034 7.71151C19.1321 7.98325 19.718 8.125 20.3124 8.125C20.9068 8.125 21.4927 7.98325 22.0214 7.71151C22.5501 7.43977 23.0063 7.04587 23.3523 6.5625H23.53C23.876 7.04587 24.3323 7.43977 24.861 7.71151C25.3897 7.98325 25.9755 8.125 26.57 8.125C27.1644 8.125 27.7503 7.98325 28.279 7.71151C28.8077 7.43977 29.264 7.04587 29.61 6.5625H29.7876C30.2569 7.22133 30.9281 7.70934 31.6995 7.95265C32.4709 8.19596 33.3006 8.18132 34.063 7.91096L34.0634 9.0625H19.8316C19.8668 9.10177 19.9023 9.14083 19.9344 9.18335C20.1789 9.50894 20.3106 9.90534 20.3095 10.3125H31.5625V19.2368C31.9944 19.5219 32.358 19.8989 32.6272 20.3409C32.69 20.3547 32.751 20.3731 32.8125 20.3902V10.3125H34.0625C34.3939 10.3122 34.7117 10.1804 34.946 9.94602C35.1803 9.71167 35.3122 9.39392 35.3125 9.0625V7.17855C35.9846 6.58795 36.4225 5.77569 36.5463 4.88953C36.5963 4.49834 36.5209 4.10137 36.3309 3.7558C36.3068 3.71149 36.2774 3.67029 36.2433 3.63312L33.753 0.90576C33.5859 0.629234 33.3502 0.400553 33.0688 0.241867C32.7873 0.0831807 32.4697 -0.000131561 32.1466 2.41159e-07H8.47838C8.15524 -0.000163609 7.83754 0.0831679 7.55608 0.241915C7.27462 0.400663 7.03896 0.62944 6.87193 0.906066L4.3817 3.63313C4.34788 3.67033 4.31858 3.71141 4.29441 3.7555C4.10418 4.10111 4.02868 4.49822 4.07881 4.88953ZM32.1466 1.25C32.2592 1.24991 32.3698 1.2802 32.4667 1.33766C32.5636 1.39513 32.6432 1.47765 32.6971 1.57654C32.7211 1.62063 32.7505 1.66162 32.7844 1.69861L35.2609 4.41101C35.3041 4.50754 35.3203 4.61393 35.3079 4.71893C35.2198 5.34637 34.8972 5.91709 34.405 6.31608C33.9128 6.71507 33.2877 6.91267 32.6556 6.86905C32.0235 6.82544 31.4315 6.54385 30.9987 6.08103C30.566 5.61822 30.3248 5.00859 30.3238 4.375C30.3237 4.29044 30.3064 4.20678 30.2729 4.12913C30.2394 4.05149 30.1905 3.98149 30.129 3.92342L28.5693 1.25H32.1466ZM27.1221 1.25L29.0635 4.57764C29.0105 5.2212 28.7107 5.81936 28.227 6.2471C27.7432 6.67484 27.1129 6.89906 26.4676 6.8729C25.8224 6.84674 25.2123 6.57222 24.7648 6.10671C24.3172 5.64121 24.0669 5.02074 24.0661 4.375C24.0655 4.26754 24.0368 4.16211 23.983 4.0691L23.2142 1.25H27.1221ZM18.6689 1.25H21.9184L22.809 4.51557C22.7721 5.16341 22.4849 5.77157 22.0081 6.21167C21.5313 6.65176 20.9021 6.88936 20.2534 6.8743C19.6047 6.85924 18.9872 6.59271 18.5313 6.13096C18.0754 5.66921 17.8167 5.04838 17.8099 4.39953L18.6689 1.25ZM17.3731 1.25L16.5657 4.21051C16.5423 4.29735 16.5382 4.38823 16.5535 4.47683C16.5272 5.11814 16.2553 5.72477 15.7941 6.17116C15.3329 6.61755 14.7177 6.86951 14.0759 6.87488C13.4341 6.88026 12.8148 6.63864 12.3462 6.20004C11.8776 5.76144 11.5955 5.15945 11.5585 4.51868L13.4653 1.25H17.3731ZM5.36421 4.41101L7.84086 1.69861C7.87475 1.66149 7.90401 1.6204 7.92799 1.57623C7.98195 1.47741 8.06154 1.39496 8.1584 1.33755C8.25525 1.28015 8.36579 1.2499 8.47838 1.25H12.0182L10.3789 4.06006C10.313 4.1734 10.2847 4.3047 10.2981 4.4351C10.2823 5.06319 10.0309 5.66237 9.59371 6.11364C9.15655 6.5649 8.56566 6.83525 7.93839 6.871C7.31111 6.90674 6.69334 6.70527 6.20775 6.30658C5.72215 5.90789 5.40426 5.34116 5.3172 4.71893C5.3047 4.61393 5.32095 4.5075 5.36421 4.41101Z" fill="white"/>
</g>
<defs>
<clipPath id="clip0_353_2055">
<rect width="40" height="40" fill="white"/>
</clipPath>
</defs>
</svg>
