<svg width="40" height="40" viewBox="0 0 40 40" fill="none" xmlns="http://www.w3.org/2000/svg">
<path d="M26.875 26.25H23.125C22.9592 26.25 22.8003 26.1842 22.6831 26.0669C22.5658 25.9497 22.5 25.7908 22.5 25.625V24.5625C23.7575 24.1152 24.8731 23.3408 25.732 22.3192C26.5909 21.2976 27.1621 20.0656 27.3869 18.75H27.5C28.0497 18.7519 28.5847 18.572 29.0215 18.2382C29.4583 17.9044 29.7725 17.4356 29.9151 16.9047C30.0578 16.3738 30.0208 15.8106 29.8101 15.3029C29.5994 14.7952 29.2267 14.3714 28.75 14.0975V11.875C28.7485 10.3851 28.3373 8.92439 27.5616 7.65246C26.7858 6.38053 25.6752 5.34639 24.3513 4.66313C24.3575 4.56625 24.375 4.47188 24.375 4.375C24.375 3.21468 23.9141 2.10188 23.0936 1.28141C22.2731 0.460936 21.1603 0 20 0C18.8397 0 17.7269 0.460936 16.9064 1.28141C16.0859 2.10188 15.625 3.21468 15.625 4.375C15.625 4.47188 15.6425 4.56625 15.6488 4.66313C14.3248 5.34639 13.2142 6.38053 12.4384 7.65246C11.6627 8.92439 11.2515 10.3851 11.25 11.875V14.0975C10.7733 14.3714 10.4006 14.7952 10.1899 15.3029C9.97915 15.8106 9.94223 16.3738 10.0849 16.9047C10.2275 17.4356 10.5417 17.9044 10.9785 18.2382C11.4153 18.572 11.9503 18.7519 12.5 18.75H12.6131C12.8379 20.0656 13.4091 21.2976 14.268 22.3192C15.1269 23.3408 16.2425 24.1152 17.5 24.5625V25.625C17.5 25.7908 17.4342 25.9497 17.3169 26.0669C17.1997 26.1842 17.0408 26.25 16.875 26.25H13.125C10.9709 26.2525 8.90569 27.1093 7.3825 28.6325C5.8593 30.1557 5.00248 32.2209 5 34.375V39.375C5 39.5408 5.06585 39.6997 5.18306 39.8169C5.30027 39.9342 5.45924 40 5.625 40H34.375C34.5408 40 34.6997 39.9342 34.8169 39.8169C34.9342 39.6997 35 39.5408 35 39.375V34.375C34.9975 32.2209 34.1407 30.1557 32.6175 28.6325C31.0943 27.1093 29.0291 26.2525 26.875 26.25ZM27.5 17.5V15C27.8315 15 28.1495 15.1317 28.3839 15.3661C28.6183 15.6005 28.75 15.9185 28.75 16.25C28.75 16.5815 28.6183 16.8995 28.3839 17.1339C28.1495 17.3683 27.8315 17.5 27.5 17.5ZM20 1.25C20.7857 1.25242 21.5416 1.55126 22.1166 2.08681C22.6915 2.62237 23.0432 3.35517 23.1013 4.13875C22.301 3.88131 21.4656 3.75016 20.625 3.75H19.375C18.5344 3.75016 17.699 3.88131 16.8988 4.13875C16.9568 3.35517 17.3085 2.62237 17.8834 2.08681C18.4584 1.55126 19.2143 1.25242 20 1.25ZM12.5 11.875C12.5022 10.0523 13.2272 8.30486 14.516 7.01602C15.8049 5.72717 17.5523 5.00215 19.375 5H20.625C22.4477 5.00215 24.1951 5.72717 25.484 7.01602C26.7728 8.30486 27.4979 10.0523 27.5 11.875V13.75H27.4613C27.335 12.6017 26.8575 11.5204 26.0938 10.6537C25.9839 10.5294 25.8292 10.4538 25.6637 10.4436C25.4981 10.4333 25.3353 10.4892 25.2109 10.5991C25.0866 10.7089 25.011 10.8636 25.0008 11.0291C24.9905 11.1947 25.0464 11.3576 25.1562 11.4819C25.8618 12.2804 26.2509 13.3094 26.25 14.375V15.625H25.625V14.375C25.625 14.2092 25.5592 14.0503 25.4419 13.9331C25.3247 13.8158 25.1658 13.75 25 13.75H21.25C21.0842 13.75 20.9253 13.8158 20.8081 13.9331C20.6908 14.0503 20.625 14.2092 20.625 14.375V15.125C20.2202 14.9844 19.7798 14.9844 19.375 15.125V14.375C19.375 14.2092 19.3092 14.0503 19.1919 13.9331C19.0747 13.8158 18.9158 13.75 18.75 13.75H15C14.8342 13.75 14.6753 13.8158 14.5581 13.9331C14.4408 14.0503 14.375 14.2092 14.375 14.375V15.625H13.75V14.375C13.7513 13.2151 14.2127 12.1031 15.0329 11.2829C15.8531 10.4627 16.9651 10.0013 18.125 10H21.875C22.4372 9.99901 22.9944 10.1068 23.5156 10.3175C23.5922 10.3513 23.6748 10.3694 23.7585 10.3707C23.8422 10.372 23.9253 10.3564 24.0029 10.325C24.0805 10.2935 24.151 10.2468 24.2101 10.1876C24.2693 10.1283 24.316 10.0578 24.3474 9.98024C24.3788 9.90264 24.3943 9.81952 24.393 9.73581C24.3917 9.65211 24.3735 9.56952 24.3397 9.49296C24.3058 9.41639 24.2569 9.34741 24.1959 9.29011C24.1348 9.23281 24.0629 9.18835 23.9844 9.15938C23.3143 8.88776 22.598 8.74873 21.875 8.75H18.125C16.7421 8.75187 15.4083 9.26253 14.3777 10.1846C13.3471 11.1068 12.6919 12.3758 12.5369 13.75H12.5V11.875ZM21.875 15H24.375V17.5H21.875V15ZM15.625 15H18.125V17.5H15.625V15ZM11.25 16.25C11.25 15.9185 11.3817 15.6005 11.6161 15.3661C11.8505 15.1317 12.1685 15 12.5 15V17.5C12.1685 17.5 11.8505 17.3683 11.6161 17.1339C11.3817 16.8995 11.25 16.5815 11.25 16.25ZM13.75 17.5V16.875H14.375V18.125C14.375 18.2908 14.4408 18.4497 14.5581 18.5669C14.6753 18.6842 14.8342 18.75 15 18.75H18.75C18.9158 18.75 19.0747 18.6842 19.1919 18.5669C19.3092 18.4497 19.375 18.2908 19.375 18.125V16.5269C19.455 16.4413 19.5518 16.373 19.6593 16.3263C19.7668 16.2797 19.8828 16.2556 20 16.2556C20.1172 16.2556 20.2332 16.2797 20.3407 16.3263C20.4482 16.373 20.545 16.4413 20.625 16.5269V18.125C20.625 18.2908 20.6908 18.4497 20.8081 18.5669C20.9253 18.6842 21.0842 18.75 21.25 18.75H25C25.1658 18.75 25.3247 18.6842 25.4419 18.5669C25.5592 18.4497 25.625 18.2908 25.625 18.125V16.875H26.25V17.5C26.25 19.1576 25.5915 20.7473 24.4194 21.9194C23.2473 23.0915 21.6576 23.75 20 23.75C18.3424 23.75 16.7527 23.0915 15.5806 21.9194C14.4085 20.7473 13.75 19.1576 13.75 17.5ZM18.75 25.625V24.8869C19.5765 25.0377 20.4235 25.0377 21.25 24.8869V25.625C21.25 26.0802 21.4155 26.5199 21.7158 26.862C22.016 27.2041 22.4305 27.4253 22.8819 27.4844L20 30.3662L17.1181 27.4844C17.5695 27.4253 17.984 27.2041 18.2842 26.862C18.5845 26.5199 18.75 26.0802 18.75 25.625ZM19.5581 31.6919C19.6753 31.809 19.8343 31.8749 20 31.8749C20.1657 31.8749 20.3247 31.809 20.4419 31.6919L24.6338 27.5H25.9519L22.5444 36.0175C22.4856 36.1669 22.4856 36.3331 22.5444 36.4825L23.4519 38.75H16.5481L17.4556 36.4825C17.5144 36.3331 17.5144 36.1669 17.4556 36.0175L14.0481 27.5H15.3663L19.5581 31.6919ZM6.25 34.375C6.25222 32.625 6.92172 30.9417 8.12205 29.6682C9.32238 28.3947 10.9632 27.6269 12.71 27.5212L16.2019 36.25L15.2019 38.75H10.25L11.16 36.075C11.2205 35.8271 11.2507 35.5727 11.25 35.3175V34.375C11.25 34.2092 11.1842 34.0503 11.0669 33.9331C10.9497 33.8158 10.7908 33.75 10.625 33.75C10.4592 33.75 10.3003 33.8158 10.1831 33.9331C10.0658 34.0503 10 34.2092 10 34.375V35.3175C10.0002 35.4533 9.98657 35.5888 9.95938 35.7219L8.92812 38.75H6.25V34.375ZM33.75 38.75H31.0719L30.0562 35.7719C30.0188 35.6233 29.9999 35.4707 30 35.3175V34.375C30 34.2092 29.9342 34.0503 29.8169 33.9331C29.6997 33.8158 29.5408 33.75 29.375 33.75C29.2092 33.75 29.0503 33.8158 28.9331 33.9331C28.8158 34.0503 28.75 34.2092 28.75 34.375V35.3175C28.7508 35.5902 28.7872 35.8617 28.8581 36.125L29.75 38.75H24.7988L23.7987 36.25L27.2906 27.5212C29.0373 27.627 30.678 28.3949 31.8782 29.6684C33.0784 30.9419 33.7478 32.6251 33.75 34.375V38.75Z" fill="white"/>
</svg>
