<svg width="40" height="40" viewBox="0 0 40 40" fill="none" xmlns="http://www.w3.org/2000/svg">
<path d="M37.5 15.625C37.3342 15.625 37.1753 15.6909 37.0581 15.8081C36.9408 15.9253 36.875 16.0843 36.875 16.25V16.875C36.875 17.3723 36.6775 17.8492 36.3258 18.2008C35.9742 18.5525 35.4973 18.75 35 18.75C34.5027 18.75 34.0258 18.5525 33.6742 18.2008C33.3225 17.8492 33.125 17.3723 33.125 16.875V12.5H35.625C35.9565 12.5 36.2745 12.6317 36.5089 12.8661C36.7433 13.1006 36.875 13.4185 36.875 13.75C36.875 13.9158 36.9408 14.0747 37.0581 14.192C37.1753 14.3092 37.3342 14.375 37.5 14.375C37.6658 14.375 37.8247 14.3092 37.9419 14.192C38.0592 14.0747 38.125 13.9158 38.125 13.75C38.1229 13.1974 37.9378 12.661 37.5986 12.2247C37.2593 11.7885 36.7851 11.4769 36.25 11.3388V8.12501C36.25 7.95925 36.1842 7.80028 36.0669 7.68307C35.9497 7.56586 35.7908 7.50001 35.625 7.50001H32.5C32.4693 6.88159 32.3038 6.27734 32.0151 5.72957C31.7264 5.18179 31.3215 4.7037 30.8288 4.32876C30.7667 4.27509 30.6946 4.23416 30.6167 4.20833C30.5388 4.1825 30.4566 4.17227 30.3747 4.17822C30.2928 4.18417 30.213 4.20618 30.1396 4.243C30.0662 4.27983 30.0009 4.33074 29.9472 4.39283C29.8935 4.45492 29.8526 4.52697 29.8268 4.60488C29.8009 4.68278 29.7907 4.76501 29.7966 4.84688C29.8026 4.92874 29.8246 5.00862 29.8614 5.08198C29.8982 5.15533 29.9492 5.22071 30.0113 5.27439C30.3676 5.53252 30.6631 5.86551 30.8771 6.24999C31.0911 6.63447 31.2184 7.06113 31.25 7.50001C31.25 10.21 26.0981 12.5 20 12.5C13.9019 12.5 8.75 10.21 8.75 7.50001C8.75 4.79001 13.9019 2.50001 20 2.50001C22.7572 2.44567 25.495 2.97274 28.035 4.04689C28.1853 4.11684 28.3573 4.1242 28.5131 4.06735C28.5902 4.03921 28.6611 3.99614 28.7215 3.94062C28.782 3.8851 28.831 3.81821 28.8656 3.74376C28.9003 3.66932 28.9199 3.58878 28.9234 3.50675C28.9269 3.42472 28.9142 3.3428 28.8861 3.26567C28.8579 3.18854 28.8149 3.11771 28.7594 3.05722C28.7038 2.99673 28.6369 2.94777 28.5625 2.91314C25.8571 1.76252 22.9394 1.1958 20 1.25001C12.9906 1.25001 7.5 3.99564 7.5 7.50001H4.375C4.20924 7.50001 4.05027 7.56586 3.93306 7.68307C3.81585 7.80028 3.75 7.95925 3.75 8.12501V11.3388C3.21491 11.4769 2.74068 11.7885 2.40144 12.2247C2.0622 12.661 1.87707 13.1974 1.875 13.75V16.875C1.8758 17.4824 2.05357 18.0763 2.38656 18.5843C2.71956 19.0922 3.19335 19.4921 3.75 19.735V38.125C3.75 38.2908 3.81585 38.4497 3.93306 38.567C4.05027 38.6842 4.20924 38.75 4.375 38.75H35.625C35.7908 38.75 35.9497 38.6842 36.0669 38.567C36.1842 38.4497 36.25 38.2908 36.25 38.125V21.7863C36.25 21.6205 36.1842 21.4615 36.0669 21.3443C35.9497 21.2271 35.7908 21.1613 35.625 21.1613C35.4592 21.1613 35.3003 21.2271 35.1831 21.3443C35.0658 21.4615 35 21.6205 35 21.7863V37.5H33.75V25.625C33.75 25.4593 33.6842 25.3003 33.5669 25.1831C33.4497 25.0659 33.2908 25 33.125 25H25.625C25.4592 25 25.3003 25.0659 25.1831 25.1831C25.0658 25.3003 25 25.4593 25 25.625V37.5H5V20C5.48694 19.9986 5.96678 19.8831 6.40096 19.6626C6.83514 19.4422 7.21157 19.123 7.5 18.7306C7.78843 19.123 8.16486 19.4422 8.59904 19.6626C9.03322 19.8831 9.51306 19.9986 10 20C10.1658 20 10.3247 19.9342 10.4419 19.817C10.5592 19.6997 10.625 19.5408 10.625 19.375C10.625 19.2093 10.5592 19.0503 10.4419 18.9331C10.3247 18.8159 10.1658 18.75 10 18.75C9.50272 18.75 9.02581 18.5525 8.67417 18.2008C8.32254 17.8492 8.125 17.3723 8.125 16.875V12.5H11.875V16.875C11.8731 17.5321 12.079 18.173 12.4633 18.706C12.8476 19.239 13.3905 19.6369 14.0145 19.8428C14.6386 20.0486 15.3117 20.0519 15.9377 19.8522C16.5637 19.6524 17.1105 19.2599 17.5 18.7306C17.7874 19.124 18.1637 19.444 18.5981 19.6646C19.0325 19.8852 19.5128 20.0002 20 20.0002C20.4872 20.0002 20.9675 19.8852 21.4019 19.6646C21.8364 19.444 22.2126 19.124 22.5 18.7306C22.7874 19.124 23.1636 19.444 23.5981 19.6646C24.0325 19.8852 24.5128 20.0002 25 20.0002C25.4872 20.0002 25.9675 19.8852 26.4019 19.6646C26.8364 19.444 27.2126 19.124 27.5 18.7306C27.7874 19.124 28.1636 19.444 28.5981 19.6646C29.0325 19.8852 29.5128 20.0002 30 20.0002C30.4872 20.0002 30.9675 19.8852 31.4019 19.6646C31.8364 19.444 32.2126 19.124 32.5 18.7306C32.8895 19.2599 33.4363 19.6524 34.0623 19.8522C34.6883 20.0519 35.3614 20.0486 35.9855 19.8428C36.6095 19.6369 37.1524 19.239 37.5367 18.706C37.921 18.173 38.1269 17.5321 38.125 16.875V16.25C38.125 16.0843 38.0592 15.9253 37.9419 15.8081C37.8247 15.6909 37.6658 15.625 37.5 15.625ZM30 37.5V33.125H32.5V37.5H30ZM32.5 26.25V28.75H31.25C31.0842 28.75 30.9253 28.8159 30.8081 28.9331C30.6908 29.0503 30.625 29.2093 30.625 29.375C30.625 29.5408 30.6908 29.6997 30.8081 29.817C30.9253 29.9342 31.0842 30 31.25 30H32.5V31.875H26.25V26.25H32.5ZM26.25 33.125H28.75V37.5H26.25V33.125ZM32.2575 8.75001H35V11.25H30.0475C31.0191 10.6582 31.7894 9.78686 32.2575 8.75001ZM7.7425 8.75001C8.21065 9.78686 8.98092 10.6582 9.9525 11.25H5V8.75001H7.7425ZM5 18.75C4.50272 18.75 4.02581 18.5525 3.67417 18.2008C3.32254 17.8492 3.125 17.3723 3.125 16.875V13.75C3.125 13.4185 3.2567 13.1006 3.49112 12.8661C3.72554 12.6317 4.04348 12.5 4.375 12.5H6.875V16.875C6.875 17.3723 6.67746 17.8492 6.32583 18.2008C5.97419 18.5525 5.49728 18.75 5 18.75ZM15 18.75C14.5027 18.75 14.0258 18.5525 13.6742 18.2008C13.3225 17.8492 13.125 17.3723 13.125 16.875V12.745C14.3469 13.1313 15.6024 13.4019 16.875 13.5531V16.875C16.875 17.3723 16.6775 17.8492 16.3258 18.2008C15.9742 18.5525 15.4973 18.75 15 18.75ZM20 18.75C19.5027 18.75 19.0258 18.5525 18.6742 18.2008C18.3225 17.8492 18.125 17.3723 18.125 16.875V13.675C18.7369 13.7194 19.3594 13.75 20 13.75C20.6406 13.75 21.2631 13.7194 21.875 13.675V16.875C21.875 17.3723 21.6775 17.8492 21.3258 18.2008C20.9742 18.5525 20.4973 18.75 20 18.75ZM25 18.75C24.5027 18.75 24.0258 18.5525 23.6742 18.2008C23.3225 17.8492 23.125 17.3723 23.125 16.875V13.5531C24.3976 13.4019 25.6531 13.1313 26.875 12.745V16.875C26.875 17.3723 26.6775 17.8492 26.3258 18.2008C25.9742 18.5525 25.4973 18.75 25 18.75ZM30 18.75C29.5027 18.75 29.0258 18.5525 28.6742 18.2008C28.3225 17.8492 28.125 17.3723 28.125 16.875V12.5H31.875V16.875C31.875 17.3723 31.6775 17.8492 31.3258 18.2008C30.9742 18.5525 30.4973 18.75 30 18.75Z" fill="white"/>
<path d="M26.25 22.5C26.0842 22.5 25.9253 22.5659 25.8081 22.6831C25.6908 22.8003 25.625 22.9592 25.625 23.125C25.625 23.2908 25.6908 23.4497 25.8081 23.567C25.9253 23.6842 26.0842 23.75 26.25 23.75H32.5C32.6658 23.75 32.8247 23.6842 32.9419 23.567C33.0592 23.4497 33.125 23.2908 33.125 23.125C33.125 22.9592 33.0592 22.8003 32.9419 22.6831C32.8247 22.5659 32.6658 22.5 32.5 22.5H26.25ZM27.3525 6.25001H27.2275C27.1226 6.25191 27.018 6.26278 26.915 6.28251C26.8574 6.10302 26.7731 5.93321 26.665 5.77876C26.4921 5.53611 26.2633 5.33866 25.998 5.20311C25.7326 5.06756 25.4386 4.9979 25.1406 5.00001H24.1838C23.9732 5.0037 23.7649 5.043 23.5675 5.11626C23.4969 4.97399 23.4132 4.83861 23.3175 4.71189C23.0847 4.41175 22.7862 4.16899 22.4449 4.00224C22.1036 3.83549 21.7286 3.74921 21.3488 3.75001H18.6512C18.2711 3.74892 17.8957 3.83507 17.5541 4.00183C17.2125 4.16858 16.9136 4.4115 16.6806 4.71189C16.5854 4.83433 16.5017 4.9653 16.4306 5.10313C16.2331 5.0346 16.0254 4.99974 15.8162 5.00001H14.8594C14.562 4.9984 14.2685 5.0683 14.0038 5.20383C13.739 5.33936 13.5107 5.53654 13.3381 5.77876C13.23 5.93321 13.1458 6.10302 13.0881 6.28251C12.9845 6.26267 12.8793 6.2518 12.7737 6.25001H12.6488C12.1515 6.25001 11.6746 6.44755 11.3229 6.79918C10.9713 7.15082 10.7738 7.62773 10.7738 8.12501C10.7738 8.62229 10.9713 9.0992 11.3229 9.45084C11.6746 9.80247 12.1515 10 12.6488 10H17.5C17.595 10 17.6888 9.97835 17.7741 9.93667C17.8595 9.895 17.9343 9.83441 17.9927 9.75952C18.0512 9.68462 18.0918 9.59738 18.1114 9.50444C18.1311 9.4115 18.1293 9.31529 18.1062 9.22313L17.4375 6.55313C17.4121 6.45241 17.3995 6.34888 17.4 6.24501C17.415 6.18181 17.4201 6.11665 17.415 6.05188C17.4622 5.75811 17.6126 5.4908 17.8392 5.29799C18.0658 5.10518 18.3537 4.99952 18.6512 5.00001H21.3488C21.5387 5.00004 21.7261 5.04335 21.8968 5.12666C22.0675 5.20997 22.217 5.33108 22.3339 5.4808C22.4507 5.63052 22.532 5.8049 22.5714 5.99071C22.6108 6.17652 22.6073 6.36886 22.5612 6.55313L22.0119 8.75001H20C19.8342 8.75001 19.6753 8.81586 19.5581 8.93307C19.4408 9.05028 19.375 9.20925 19.375 9.37501C19.375 9.54077 19.4408 9.69974 19.5581 9.81695C19.6753 9.93416 19.8342 10 20 10H27.3525C27.8498 10 28.3267 9.80247 28.6783 9.45084C29.03 9.0992 29.2275 8.62229 29.2275 8.12501C29.2275 7.62773 29.03 7.15082 28.6783 6.79918C28.3267 6.44755 27.8498 6.25001 27.3525 6.25001ZM12.0887 8.40438C12.0411 8.30912 12.0187 8.20328 12.0235 8.09689C12.0283 7.9905 12.0602 7.8871 12.1161 7.79651C12.1721 7.70591 12.2503 7.63112 12.3433 7.57922C12.4363 7.52733 12.541 7.50007 12.6475 7.50001H12.7725C12.904 7.50364 13.0308 7.54993 13.1337 7.63189L13.5087 8.75001H12.6475C12.5314 8.75038 12.4175 8.71819 12.3187 8.6571C12.2199 8.59601 12.1403 8.50846 12.0887 8.40438ZM14.8256 8.75001L14.2663 7.07251C14.235 6.97855 14.2264 6.8785 14.2414 6.78061C14.2564 6.68271 14.2944 6.58977 14.3523 6.50944C14.4102 6.42912 14.4864 6.36371 14.5746 6.3186C14.6627 6.2735 14.7603 6.24999 14.8594 6.25001H15.8162C15.9357 6.24977 16.0526 6.28454 16.1525 6.35001C16.1601 6.5208 16.1848 6.69039 16.2262 6.85626L16.6994 8.75001H14.8256ZM25.1744 8.75001H23.2994L23.7725 6.85626C23.809 6.69764 23.8299 6.53583 23.835 6.37313C23.9345 6.29667 24.0553 6.25299 24.1806 6.24813H25.1375C25.2365 6.24811 25.3342 6.27162 25.4223 6.31673C25.5105 6.36183 25.5867 6.42724 25.6446 6.50757C25.7025 6.58789 25.7405 6.68083 25.7555 6.77873C25.7704 6.87663 25.7619 6.97668 25.7306 7.07063L25.1744 8.75001ZM27.9113 8.40438C27.8597 8.50846 27.7801 8.59601 27.6813 8.6571C27.5825 8.71819 27.4686 8.75038 27.3525 8.75001H26.4925L26.8675 7.63189C26.9698 7.55043 27.0956 7.50418 27.2262 7.50001H27.3512C27.4577 7.50007 27.5625 7.52733 27.6555 7.57922C27.7485 7.63112 27.8266 7.70591 27.8826 7.79651C27.9386 7.8871 27.9705 7.9905 27.9753 8.09689C27.9801 8.20328 27.9576 8.30912 27.91 8.40438H27.9113ZM6.875 31.875C6.70924 31.875 6.55027 31.9409 6.43306 32.0581C6.31585 32.1753 6.25 32.3342 6.25 32.5V35.625C6.25 35.7908 6.31585 35.9497 6.43306 36.0669C6.55027 36.1842 6.70924 36.25 6.875 36.25H23.125C23.2908 36.25 23.4497 36.1842 23.5669 36.0669C23.6842 35.9497 23.75 35.7908 23.75 35.625V23.125C23.75 22.9592 23.6842 22.8003 23.5669 22.6831C23.4497 22.5659 23.2908 22.5 23.125 22.5H6.875C6.70924 22.5 6.55027 22.5659 6.43306 22.6831C6.31585 22.8003 6.25 22.9592 6.25 23.125V29.375C6.25 29.5408 6.31585 29.6997 6.43306 29.8169C6.55027 29.9342 6.70924 30 6.875 30H22.5V31.5975C22.1217 31.3726 21.6902 31.2526 21.25 31.25C20.587 31.25 19.9511 31.5134 19.4822 31.9822C19.0134 32.4511 18.75 33.087 18.75 33.75V35H17.5V33.75C17.5 33.087 17.2366 32.4511 16.7678 31.9822C16.2989 31.5134 15.663 31.25 15 31.25H11.25C10.587 31.25 9.95107 31.5134 9.48223 31.9822C9.01339 32.4511 8.75 33.087 8.75 33.75V35H7.5V32.5C7.5 32.3342 7.43415 32.1753 7.31694 32.0581C7.19973 31.9409 7.04076 31.875 6.875 31.875ZM10 28.125H10.625C10.7908 28.125 10.9497 28.0592 11.0669 27.9419C11.1842 27.8247 11.25 27.6658 11.25 27.5C11.25 27.3342 11.1842 27.1753 11.0669 27.0581C10.9497 26.9409 10.7908 26.875 10.625 26.875H10.1737C10.2826 26.6856 10.4393 26.5282 10.6282 26.4185C10.8171 26.3088 11.0316 26.2507 11.25 26.25H12.5C12.8315 26.25 13.1495 26.3817 13.3839 26.6161C13.6183 26.8505 13.75 27.1685 13.75 27.5V28.75H10V28.125ZM15 28.75V28.125H16.25C16.4158 28.125 16.5747 28.0592 16.6919 27.9419C16.8092 27.8247 16.875 27.6658 16.875 27.5C16.875 27.3342 16.8092 27.1753 16.6919 27.0581C16.5747 26.9409 16.4158 26.875 16.25 26.875H15.1737C15.2826 26.6856 15.4393 26.5282 15.6282 26.4185C15.8171 26.3088 16.0316 26.2507 16.25 26.25H17.5C17.8315 26.25 18.1495 26.3817 18.3839 26.6161C18.6183 26.8505 18.75 27.1685 18.75 27.5V28.75H15ZM20 28.75V27.5C20 26.837 19.7366 26.2011 19.2678 25.7322C18.7989 25.2634 18.163 25 17.5 25H16.25C15.8938 25.0012 15.542 25.0789 15.2185 25.2279C14.895 25.3769 14.6073 25.5938 14.375 25.8638C14.1427 25.5938 13.855 25.3769 13.5315 25.2279C13.208 25.0789 12.8562 25.0012 12.5 25H11.25C10.587 25 9.95107 25.2634 9.48223 25.7322C9.01339 26.2011 8.75 26.837 8.75 27.5V28.75H7.5V23.75H22.5V28.75H20ZM20 33.75C20.0007 33.5316 20.0588 33.3171 20.1685 33.1282C20.2782 32.9393 20.4356 32.7826 20.625 32.6738V33.125C20.625 33.2908 20.6908 33.4497 20.8081 33.5669C20.9253 33.6842 21.0842 33.75 21.25 33.75C21.4158 33.75 21.5747 33.6842 21.6919 33.5669C21.8092 33.4497 21.875 33.2908 21.875 33.125V32.6738C22.0644 32.7826 22.2218 32.9393 22.3315 33.1282C22.4412 33.3171 22.4993 33.5316 22.5 33.75V35H20V33.75ZM10 33.75C10 33.4185 10.1317 33.1005 10.3661 32.8661C10.6005 32.6317 10.9185 32.5 11.25 32.5V33.75C11.25 33.9158 11.3158 34.0747 11.4331 34.1919C11.5503 34.3092 11.7092 34.375 11.875 34.375C12.0408 34.375 12.1997 34.3092 12.3169 34.1919C12.4342 34.0747 12.5 33.9158 12.5 33.75V32.5H13.75V33.75C13.75 33.9158 13.8158 34.0747 13.9331 34.1919C14.0503 34.3092 14.2092 34.375 14.375 34.375C14.5408 34.375 14.6997 34.3092 14.8169 34.1919C14.9342 34.0747 15 33.9158 15 33.75V32.5C15.3315 32.5 15.6495 32.6317 15.8839 32.8661C16.1183 33.1005 16.25 33.4185 16.25 33.75V35H10V33.75Z" fill="white"/>
</svg>
