<svg width="40" height="40" viewBox="0 0 40 40" fill="none" xmlns="http://www.w3.org/2000/svg">
<path d="M36.25 13.75H30.3125V11.773C31.2129 11.502 31.875 10.6749 31.875 9.6875V6.25C31.875 5.90484 31.5952 5.625 31.25 5.625H28.125C27.7798 5.625 27.5 5.90484 27.5 6.25V9.6875C27.5 10.6749 28.1621 11.502 29.0625 11.773V13.75H20.625V11.773C21.5254 11.502 22.1875 10.6749 22.1875 9.6875V6.25C22.1875 5.90484 21.9077 5.625 21.5625 5.625H18.4375C18.0923 5.625 17.8125 5.90484 17.8125 6.25V9.6875C17.8125 10.6749 18.4746 11.502 19.375 11.773V13.75H10.9375V11.773C11.8379 11.502 12.5 10.6749 12.5 9.6875V6.25C12.5 5.90484 12.2202 5.625 11.875 5.625H8.75C8.40484 5.625 8.125 5.90484 8.125 6.25V9.6875C8.125 10.6749 8.78712 11.502 9.6875 11.773V13.75H3.75C3.06061 13.75 2.5 14.3106 2.5 15V16.25C2.5 16.9394 3.06061 17.5 3.75 17.5V33.75C3.75 34.0952 4.02984 34.375 4.375 34.375H35.625C35.9702 34.375 36.25 34.0952 36.25 33.75V31.25C36.2388 30.4256 35.0072 30.4367 35 31.25C35 31.25 35 33.125 35 33.125H31.5625V29.375H32.8125C33.6267 29.3595 33.641 28.1421 32.8125 28.125C32.8125 28.125 31.5625 28.125 31.5625 28.125V24.375C34.2406 24.6057 34.5621 20.7794 31.875 20.625C31.875 20.625 27.5 20.625 27.5 20.625C25.0238 20.6909 25.0314 24.3115 27.5 24.375C27.5 24.375 27.8125 24.375 27.8125 24.375V28.125H26.5625C26.2173 28.125 25.9375 28.4048 25.9375 28.75C25.9375 29.0952 26.2173 29.375 26.5625 29.375H27.8125V33.125H21.875V29.375H23.125C23.4701 29.375 23.75 29.0952 23.75 28.75C23.75 28.4048 23.4701 28.125 23.125 28.125H21.875V24.375H22.1875C24.659 24.3102 24.6603 20.6899 22.1874 20.625C22.1875 20.625 17.8125 20.625 17.8125 20.625C15.1343 20.767 15.4457 24.6138 18.125 24.375C18.125 24.375 18.125 28.125 18.125 28.125H16.875C16.057 28.1348 16.0517 29.3629 16.875 29.375C16.875 29.375 18.125 29.375 18.125 29.375V33.125H12.1875V29.375H13.4375C14.2638 29.3569 14.2557 28.1401 13.4375 28.125C13.4375 28.125 12.1875 28.125 12.1875 28.125V24.375C14.8715 24.6114 15.1749 20.7663 12.5 20.625C12.5 20.625 8.12499 20.625 8.12499 20.625C5.66019 20.6865 5.64672 24.3095 8.12506 24.375C8.12499 24.375 8.43749 24.375 8.43749 24.375V28.125H7.18749C6.37698 28.132 6.35821 29.3628 7.18753 29.375C7.18749 29.375 8.43749 29.375 8.43749 29.375V33.125H4.99999V17.5H7.49999C7.84515 17.5 8.12499 17.2201 8.12499 16.875C8.12499 16.5298 7.84515 16.25 7.49999 16.25H3.74999V15H36.25V16.25H10.625C9.80906 16.2643 9.79841 17.4842 10.625 17.5C10.625 17.5 35 17.5 35 17.5V28.125C35 28.4701 35.2798 28.75 35.625 28.75C35.9702 28.75 36.25 28.4701 36.25 28.125V17.5C36.9394 17.5 37.5 16.9394 37.5 16.25V15C37.5 14.3106 36.9394 13.75 36.25 13.75ZM28.75 9.6875V6.875H30.625V9.6875C30.6032 10.919 28.7719 10.9198 28.75 9.6875ZM19.0625 9.6875V6.875H20.9375V9.6875C20.9157 10.919 19.0844 10.9198 19.0625 9.6875ZM9.375 9.6875V6.875H11.25V9.6875C11.2282 10.919 9.39686 10.9198 9.375 9.6875ZM26.875 22.5C26.875 22.1555 27.1555 21.875 27.5 21.875H31.875C32.695 21.8894 32.6973 23.1102 31.875 23.125C31.2583 23.125 29.0912 23.125 28.4375 23.125H27.5C27.1555 23.125 26.875 22.8445 26.875 22.5ZM29.0625 24.375H30.3125V28.125H29.0625V24.375ZM29.0625 29.375H30.3125V33.125H29.0625V29.375ZM17.1875 22.5C17.1875 22.1555 17.468 21.875 17.8125 21.875H22.1875C23.0075 21.8894 23.0098 23.1102 22.1875 23.125C21.5708 23.125 19.4037 23.125 18.75 23.125H17.8125C17.468 23.125 17.1875 22.8445 17.1875 22.5ZM19.375 24.375H20.625V28.125H19.375V24.375ZM19.375 29.375H20.625V33.125H19.375V29.375ZM7.5 22.5C7.5 22.1555 7.78046 21.875 8.125 21.875H12.5C13.32 21.8894 13.3223 23.1102 12.5 23.125C11.8833 23.125 9.71623 23.125 9.0625 23.125H8.125C7.78046 23.125 7.5 22.8445 7.5 22.5ZM9.6875 24.375H10.9375V28.125H9.6875V24.375ZM9.6875 29.375H10.9375V33.125H9.6875V29.375Z" fill="white"/>
</svg>
