<svg width="41" height="40" viewBox="0 0 41 40" fill="none" xmlns="http://www.w3.org/2000/svg">
<g clip-path="url(#clip0_3555_722)">
<path d="M6.19238 33.1768V38.8238M13.577 33.1768V38.8238M20.3462 33.1768V38.8238M27.1155 33.1768V38.8238" stroke="white" stroke-linecap="round" stroke-linejoin="round"/>
<path d="M1.26953 27.5299H32.6541V21.8828H1.26953V27.5299Z" stroke="white" stroke-linejoin="round"/>
<path d="M4.96094 21.8826V18.1179C4.96094 17.4905 5.20709 16.2356 6.19171 16.2356C6.69015 16.2356 10.4687 16.2356 14.9569 16.2356M14.9569 16.2356V11.5297C14.9069 8.07872 16.0379 1.17676 20.9609 1.17676C25.884 1.17676 35.3199 1.17676 39.4225 1.17676M14.9569 16.2356C16.1056 16.2356 17.3008 16.2356 18.4994 16.2356M28.9609 21.8826C28.9609 21.2552 28.9609 19.6238 28.9609 18.1179C28.9609 16.6121 28.1404 16.2356 27.7302 16.2356C25.2647 16.2356 21.8687 16.2356 18.4994 16.2356M18.4994 16.2356C18.4994 15.9218 18.4994 14.5415 18.4994 11.5297C18.4994 8.51793 19.7302 6.82382 20.9609 6.82382H39.4225" stroke="white" stroke-linecap="round" stroke-linejoin="round"/>
</g>
<defs>
<clipPath id="clip0_3555_722">
<rect width="40" height="40" fill="white" transform="translate(0.5)"/>
</clipPath>
</defs>
</svg>
