<svg width="40" height="40" viewBox="0 0 40 40" fill="none" xmlns="http://www.w3.org/2000/svg">
<g clip-path="url(#clip0_353_2045)">
<path d="M20 1.875C19.8342 1.875 19.6753 1.80915 19.5581 1.69194C19.4408 1.57473 19.375 1.41576 19.375 1.25V0.625C19.375 0.45924 19.4408 0.300269 19.5581 0.183058C19.6753 0.065848 19.8342 0 20 0C20.1658 0 20.3247 0.065848 20.4419 0.183058C20.5592 0.300269 20.625 0.45924 20.625 0.625V1.25C20.625 1.41576 20.5592 1.57473 20.4419 1.69194C20.3247 1.80915 20.1658 1.875 20 1.875ZM39.375 38.125H30C29.8342 38.125 29.6753 38.0592 29.5581 37.9419C29.4408 37.8247 29.375 37.6658 29.375 37.5C29.375 37.3342 29.4408 37.1753 29.5581 37.0581C29.6753 36.9408 29.8342 36.875 30 36.875H39.375C39.5408 36.875 39.6997 36.9408 39.8169 37.0581C39.9342 37.1753 40 37.3342 40 37.5C40 37.6658 39.9342 37.8247 39.8169 37.9419C39.6997 38.0592 39.5408 38.125 39.375 38.125ZM25 38.125H15C14.8342 38.125 14.6753 38.0592 14.5581 37.9419C14.4408 37.8247 14.375 37.6658 14.375 37.5C14.375 37.3342 14.4408 37.1753 14.5581 37.0581C14.6753 36.9408 14.8342 36.875 15 36.875H25C25.1658 36.875 25.3247 36.9408 25.4419 37.0581C25.5592 37.1753 25.625 37.3342 25.625 37.5C25.625 37.6658 25.5592 37.8247 25.4419 37.9419C25.3247 38.0592 25.1658 38.125 25 38.125ZM10 38.125H0.625C0.45924 38.125 0.300269 38.0592 0.183058 37.9419C0.065848 37.8247 0 37.6658 0 37.5C0 37.3342 0.065848 37.1753 0.183058 37.0581C0.300269 36.9408 0.45924 36.875 0.625 36.875H10C10.1658 36.875 10.3247 36.9408 10.4419 37.0581C10.5592 37.1753 10.625 37.3342 10.625 37.5C10.625 37.6658 10.5592 37.8247 10.4419 37.9419C10.3247 38.0592 10.1658 38.125 10 38.125ZM14.375 33.125H10.625C10.1277 33.125 9.65081 32.9275 9.29917 32.5758C8.94754 32.2242 8.75 31.7473 8.75 31.25C8.75 30.7527 8.94754 30.2758 9.29917 29.9242C9.65081 29.5725 10.1277 29.375 10.625 29.375H14.375C14.8723 29.375 15.3492 29.5725 15.7008 29.9242C16.0525 30.2758 16.25 30.7527 16.25 31.25C16.25 31.7473 16.0525 32.2242 15.7008 32.5758C15.3492 32.9275 14.8723 33.125 14.375 33.125ZM10.625 30.625C10.4592 30.625 10.3003 30.6908 10.1831 30.8081C10.0658 30.9253 10 31.0842 10 31.25C10 31.4158 10.0658 31.5747 10.1831 31.6919C10.3003 31.8092 10.4592 31.875 10.625 31.875H14.375C14.5408 31.875 14.6997 31.8092 14.8169 31.6919C14.9342 31.5747 15 31.4158 15 31.25C15 31.0842 14.9342 30.9253 14.8169 30.8081C14.6997 30.6908 14.5408 30.625 14.375 30.625H10.625Z" fill="white"/>
<path d="M12.5 40C12.3342 40 12.1753 39.9342 12.0581 39.8169C11.9408 39.6997 11.875 39.5408 11.875 39.375V32.5C11.875 32.3342 11.9408 32.1753 12.0581 32.0581C12.1753 31.9408 12.3342 31.875 12.5 31.875C12.6658 31.875 12.8247 31.9408 12.9419 32.0581C13.0592 32.1753 13.125 32.3342 13.125 32.5V39.375C13.125 39.5408 13.0592 39.6997 12.9419 39.8169C12.8247 39.9342 12.6658 40 12.5 40Z" fill="white"/>
<path d="M13.75 40H11.25C11.0842 40 10.9253 39.9342 10.8081 39.8169C10.6908 39.6997 10.625 39.5408 10.625 39.375C10.625 39.2092 10.6908 39.0503 10.8081 38.9331C10.9253 38.8158 11.0842 38.75 11.25 38.75H13.75C13.9158 38.75 14.0747 38.8158 14.1919 38.9331C14.3092 39.0503 14.375 39.2092 14.375 39.375C14.375 39.5408 14.3092 39.6997 14.1919 39.8169C14.0747 39.9342 13.9158 40 13.75 40ZM29.375 33.125H25.625C25.1277 33.125 24.6508 32.9275 24.2992 32.5758C23.9475 32.2242 23.75 31.7473 23.75 31.25C23.75 30.7527 23.9475 30.2758 24.2992 29.9242C24.6508 29.5725 25.1277 29.375 25.625 29.375H29.375C29.8723 29.375 30.3492 29.5725 30.7008 29.9242C31.0525 30.2758 31.25 30.7527 31.25 31.25C31.25 31.7473 31.0525 32.2242 30.7008 32.5758C30.3492 32.9275 29.8723 33.125 29.375 33.125ZM25.625 30.625C25.4592 30.625 25.3003 30.6908 25.1831 30.8081C25.0658 30.9253 25 31.0842 25 31.25C25 31.4158 25.0658 31.5747 25.1831 31.6919C25.3003 31.8092 25.4592 31.875 25.625 31.875H29.375C29.5408 31.875 29.6997 31.8092 29.8169 31.6919C29.9342 31.5747 30 31.4158 30 31.25C30 31.0842 29.9342 30.9253 29.8169 30.8081C29.6997 30.6908 29.5408 30.625 29.375 30.625H25.625Z" fill="white"/>
<path d="M27.5 40C27.3342 40 27.1753 39.9342 27.0581 39.8169C26.9408 39.6997 26.875 39.5408 26.875 39.375V32.5C26.875 32.3342 26.9408 32.1753 27.0581 32.0581C27.1753 31.9408 27.3342 31.875 27.5 31.875C27.6658 31.875 27.8247 31.9408 27.9419 32.0581C28.0592 32.1753 28.125 32.3342 28.125 32.5V39.375C28.125 39.5408 28.0592 39.6997 27.9419 39.8169C27.8247 39.9342 27.6658 40 27.5 40Z" fill="white"/>
<path d="M28.75 40H26.25C26.0842 40 25.9253 39.9342 25.8081 39.8169C25.6908 39.6997 25.625 39.5408 25.625 39.375C25.625 39.2092 25.6908 39.0503 25.8081 38.9331C25.9253 38.8158 26.0842 38.75 26.25 38.75H28.75C28.9158 38.75 29.0747 38.8158 29.1919 38.9331C29.3092 39.0503 29.375 39.2092 29.375 39.375C29.375 39.5408 29.3092 39.6997 29.1919 39.8169C29.0747 39.9342 28.9158 40 28.75 40ZM33.75 28.125H6.25C5.75272 28.125 5.27581 27.9275 4.92417 27.5758C4.57254 27.2242 4.375 26.7473 4.375 26.25C4.375 25.7527 4.57254 25.2758 4.92417 24.9242C5.27581 24.5725 5.75272 24.375 6.25 24.375H33.75C34.2473 24.375 34.7242 24.5725 35.0758 24.9242C35.4275 25.2758 35.625 25.7527 35.625 26.25C35.625 26.7473 35.4275 27.2242 35.0758 27.5758C34.7242 27.9275 34.2473 28.125 33.75 28.125ZM6.25 25.625C6.08424 25.625 5.92527 25.6908 5.80806 25.8081C5.69085 25.9253 5.625 26.0842 5.625 26.25C5.625 26.4158 5.69085 26.5747 5.80806 26.6919C5.92527 26.8092 6.08424 26.875 6.25 26.875H33.75C33.9158 26.875 34.0747 26.8092 34.1919 26.6919C34.3092 26.5747 34.375 26.4158 34.375 26.25C34.375 26.0842 34.3092 25.9253 34.1919 25.8081C34.0747 25.6908 33.9158 25.625 33.75 25.625H6.25Z" fill="white"/>
<path d="M6.25 38.125C6.08424 38.125 5.92527 38.0592 5.80806 37.9419C5.69085 37.8247 5.625 37.6658 5.625 37.5V27.5C5.625 27.3342 5.69085 27.1753 5.80806 27.0581C5.92527 26.9408 6.08424 26.875 6.25 26.875C6.41576 26.875 6.57473 26.9408 6.69194 27.0581C6.80915 27.1753 6.875 27.3342 6.875 27.5V37.5C6.875 37.6658 6.80915 37.8247 6.69194 37.9419C6.57473 38.0592 6.41576 38.125 6.25 38.125ZM33.75 38.125C33.5842 38.125 33.4253 38.0592 33.3081 37.9419C33.1908 37.8247 33.125 37.6658 33.125 37.5V27.5C33.125 27.3342 33.1908 27.1753 33.3081 27.0581C33.4253 26.9408 33.5842 26.875 33.75 26.875C33.9158 26.875 34.0747 26.9408 34.1919 27.0581C34.3092 27.1753 34.375 27.3342 34.375 27.5V37.5C34.375 37.6658 34.3092 37.8247 34.1919 37.9419C34.0747 38.0592 33.9158 38.125 33.75 38.125ZM14.375 25.625H11.875C11.7092 25.625 11.5503 25.5592 11.4331 25.4419C11.3158 25.3247 11.25 25.1658 11.25 25V22.5C11.2488 22.2361 11.304 21.975 11.4117 21.7341C11.5195 21.4932 11.6775 21.2781 11.875 21.1031V18.75C11.875 18.5842 11.9408 18.4253 12.0581 18.3081C12.1753 18.1908 12.3342 18.125 12.5 18.125H13.75C13.9158 18.125 14.0747 18.1908 14.1919 18.3081C14.3092 18.4253 14.375 18.5842 14.375 18.75V21.1031C14.5725 21.2781 14.7305 21.4932 14.8383 21.7341C14.946 21.975 15.0012 22.2361 15 22.5V25C15 25.1658 14.9342 25.3247 14.8169 25.4419C14.6997 25.5592 14.5408 25.625 14.375 25.625ZM12.5 24.375H13.75V22.5C13.7501 22.3902 13.7213 22.2823 13.6664 22.1872C13.6116 22.092 13.5326 22.013 13.4375 21.9581C13.3428 21.9034 13.264 21.8248 13.2092 21.7302C13.1544 21.6355 13.1253 21.5281 13.125 21.4188C13.1247 21.5281 13.0956 21.6355 13.0408 21.7302C12.986 21.8248 12.9072 21.9034 12.8125 21.9581C12.7174 22.013 12.6384 22.092 12.5836 22.1872C12.5287 22.2823 12.4999 22.3902 12.5 22.5V24.375Z" fill="white"/>
<path d="M10.625 25.625H8.125C7.95924 25.625 7.80027 25.5592 7.68306 25.4419C7.56585 25.3247 7.5 25.1658 7.5 25V22.5C7.49882 22.2361 7.55396 21.975 7.66174 21.7341C7.76952 21.4932 7.92746 21.2781 8.125 21.1031V18.75C8.125 18.5842 8.19085 18.4253 8.30806 18.3081C8.42527 18.1908 8.58424 18.125 8.75 18.125H10C10.1658 18.125 10.3247 18.1908 10.4419 18.3081C10.5592 18.4253 10.625 18.5842 10.625 18.75V21.1031C10.8225 21.2781 10.9805 21.4932 11.0883 21.7341C11.196 21.975 11.2512 22.2361 11.25 22.5V25C11.25 25.1658 11.1842 25.3247 11.0669 25.4419C10.9497 25.5592 10.7908 25.625 10.625 25.625ZM8.75 24.375H10V22.5C9.99979 22.3899 9.97049 22.2818 9.91507 22.1866C9.85964 22.0915 9.78006 22.0126 9.68437 21.9581C9.59022 21.903 9.51213 21.8243 9.45785 21.7296C9.40358 21.635 9.37501 21.5278 9.375 21.4188C9.37499 21.5278 9.34642 21.635 9.29215 21.7296C9.23787 21.8243 9.15978 21.903 9.06563 21.9581C8.96994 22.0126 8.89036 22.0915 8.83493 22.1866C8.77951 22.2818 8.75021 22.3899 8.75 22.5V24.375ZM36.875 15H3.125C2.95924 15 2.80027 14.9342 2.68306 14.8169C2.56585 14.6997 2.5 14.5408 2.5 14.375C2.5 6.79313 10.3506 0.625 20 0.625C29.6494 0.625 37.5 6.79313 37.5 14.375C37.5 14.5408 37.4342 14.6997 37.3169 14.8169C37.1997 14.9342 37.0408 15 36.875 15ZM3.77 13.75H36.23C35.805 7.14688 28.6875 1.875 20 1.875C11.3125 1.875 4.195 7.14688 3.77 13.75Z" fill="white"/>
<path d="M34.375 8.125H5.625C5.45924 8.125 5.30027 8.05915 5.18306 7.94194C5.06585 7.82473 5 7.66576 5 7.5C5 7.33424 5.06585 7.17527 5.18306 7.05806C5.30027 6.94085 5.45924 6.875 5.625 6.875H34.375C34.5408 6.875 34.6997 6.94085 34.8169 7.05806C34.9342 7.17527 35 7.33424 35 7.5C35 7.66576 34.9342 7.82473 34.8169 7.94194C34.6997 8.05915 34.5408 8.125 34.375 8.125ZM10 3.125H30V4.375H10V3.125ZM27.5 25.625H18.125C17.9592 25.625 17.8003 25.5592 17.6831 25.4419C17.5658 25.3247 17.5 25.1658 17.5 25V17.5C17.5 17.3342 17.5658 17.1753 17.6831 17.0581C17.8003 16.9408 17.9592 16.875 18.125 16.875H27.5C27.6658 16.875 27.8247 16.9408 27.9419 17.0581C28.0592 17.1753 28.125 17.3342 28.125 17.5V25C28.125 25.1658 28.0592 25.3247 27.9419 25.4419C27.8247 25.5592 27.6658 25.625 27.5 25.625ZM18.75 24.375H26.875V18.125H18.75V24.375Z" fill="white"/>
<path d="M20 23.75C19.8342 23.75 19.6753 23.6842 19.5581 23.5669C19.4408 23.4497 19.375 23.2908 19.375 23.125V21.875C19.375 21.7092 19.4408 21.5503 19.5581 21.4331C19.6753 21.3158 19.8342 21.25 20 21.25C20.1658 21.25 20.3247 21.3158 20.4419 21.4331C20.5592 21.5503 20.625 21.7092 20.625 21.875V23.125C20.625 23.2908 20.5592 23.4497 20.4419 23.5669C20.3247 23.6842 20.1658 23.75 20 23.75ZM33.75 25.625H30C29.8342 25.625 29.6753 25.5592 29.5581 25.4419C29.4408 25.3247 29.375 25.1658 29.375 25V18.75C29.375 18.5842 29.4408 18.4253 29.5581 18.3081C29.6753 18.1908 29.8342 18.125 30 18.125H33.75C33.9158 18.125 34.0747 18.1908 34.1919 18.3081C34.3092 18.4253 34.375 18.5842 34.375 18.75V25C34.375 25.1658 34.3092 25.3247 34.1919 25.4419C34.0747 25.5592 33.9158 25.625 33.75 25.625ZM30.625 24.375H33.125V19.375H30.625V24.375ZM6.25 25.625C6.08424 25.625 5.92527 25.5592 5.80806 25.4419C5.69085 25.3247 5.625 25.1658 5.625 25V14.375C5.625 14.2092 5.69085 14.0503 5.80806 13.9331C5.92527 13.8158 6.08424 13.75 6.25 13.75C6.41576 13.75 6.57473 13.8158 6.69194 13.9331C6.80915 14.0503 6.875 14.2092 6.875 14.375V25C6.875 25.1658 6.80915 25.3247 6.69194 25.4419C6.57473 25.5592 6.41576 25.625 6.25 25.625Z" fill="white"/>
<path d="M33.75 19.375C33.5842 19.375 33.4253 19.3092 33.3081 19.1919C33.1908 19.0747 33.125 18.9158 33.125 18.75V14.375C33.125 14.2092 33.1908 14.0503 33.3081 13.9331C33.4253 13.8158 33.5842 13.75 33.75 13.75C33.9158 13.75 34.0747 13.8158 34.1919 13.9331C34.3092 14.0503 34.375 14.2092 34.375 14.375V18.75C34.375 18.9158 34.3092 19.0747 34.1919 19.1919C34.0747 19.3092 33.9158 19.375 33.75 19.375ZM8.75 11.25C8.58424 11.25 8.42527 11.1842 8.30806 11.0669C8.19085 10.9497 8.125 10.7908 8.125 10.625V10C8.125 9.83424 8.19085 9.67527 8.30806 9.55806C8.42527 9.44085 8.58424 9.375 8.75 9.375C8.91576 9.375 9.07473 9.44085 9.19194 9.55806C9.30915 9.67527 9.375 9.83424 9.375 10V10.625C9.375 10.7908 9.30915 10.9497 9.19194 11.0669C9.07473 11.1842 8.91576 11.25 8.75 11.25ZM23.75 16.25C23.5842 16.25 23.4253 16.1842 23.3081 16.0669C23.1908 15.9497 23.125 15.7908 23.125 15.625V15C23.125 14.8342 23.1908 14.6753 23.3081 14.5581C23.4253 14.4408 23.5842 14.375 23.75 14.375C23.9158 14.375 24.0747 14.4408 24.1919 14.5581C24.3092 14.6753 24.375 14.8342 24.375 15V15.625C24.375 15.7908 24.3092 15.9497 24.1919 16.0669C24.0747 16.1842 23.9158 16.25 23.75 16.25ZM25.625 15.625C25.4592 15.625 25.3003 15.5592 25.1831 15.4419C25.0658 15.3247 25 15.1658 25 15V14.375C25 14.2092 25.0658 14.0503 25.1831 13.9331C25.3003 13.8158 25.4592 13.75 25.625 13.75C25.7908 13.75 25.9497 13.8158 26.0669 13.9331C26.1842 14.0503 26.25 14.2092 26.25 14.375V15C26.25 15.1658 26.1842 15.3247 26.0669 15.4419C25.9497 15.5592 25.7908 15.625 25.625 15.625ZM8.125 16.25C7.95924 16.25 7.80027 16.1842 7.68306 16.0669C7.56585 15.9497 7.5 15.7908 7.5 15.625V15C7.5 14.8342 7.56585 14.6753 7.68306 14.5581C7.80027 14.4408 7.95924 14.375 8.125 14.375C8.29076 14.375 8.44973 14.4408 8.56694 14.5581C8.68415 14.6753 8.75 14.8342 8.75 15V15.625C8.75 15.7908 8.68415 15.9497 8.56694 16.0669C8.44973 16.1842 8.29076 16.25 8.125 16.25ZM10.625 15.625C10.4592 15.625 10.3003 15.5592 10.1831 15.4419C10.0658 15.3247 10 15.1658 10 15V14.375C10 14.2092 10.0658 14.0503 10.1831 13.9331C10.3003 13.8158 10.4592 13.75 10.625 13.75C10.7908 13.75 10.9497 13.8158 11.0669 13.9331C11.1842 14.0503 11.25 14.2092 11.25 14.375V15C11.25 15.1658 11.1842 15.3247 11.0669 15.4419C10.9497 15.5592 10.7908 15.625 10.625 15.625ZM3.75 16.25C3.58424 16.25 3.42527 16.1842 3.30806 16.0669C3.19085 15.9497 3.125 15.7908 3.125 15.625V15C3.125 14.8342 3.19085 14.6753 3.30806 14.5581C3.42527 14.4408 3.58424 14.375 3.75 14.375C3.91576 14.375 4.07473 14.4408 4.19194 14.5581C4.30915 14.6753 4.375 14.8342 4.375 15V15.625C4.375 15.7908 4.30915 15.9497 4.19194 16.0669C4.07473 16.1842 3.91576 16.25 3.75 16.25ZM18.125 16.25C17.9592 16.25 17.8003 16.1842 17.6831 16.0669C17.5658 15.9497 17.5 15.7908 17.5 15.625V15C17.5 14.8342 17.5658 14.6753 17.6831 14.5581C17.8003 14.4408 17.9592 14.375 18.125 14.375C18.2908 14.375 18.4497 14.4408 18.5669 14.5581C18.6842 14.6753 18.75 14.8342 18.75 15V15.625C18.75 15.7908 18.6842 15.9497 18.5669 16.0669C18.4497 16.1842 18.2908 16.25 18.125 16.25ZM20.625 15.625C20.4592 15.625 20.3003 15.5592 20.1831 15.4419C20.0658 15.3247 20 15.1658 20 15V14.375C20 14.2092 20.0658 14.0503 20.1831 13.9331C20.3003 13.8158 20.4592 13.75 20.625 13.75C20.7908 13.75 20.9497 13.8158 21.0669 13.9331C21.1842 14.0503 21.25 14.2092 21.25 14.375V15C21.25 15.1658 21.1842 15.3247 21.0669 15.4419C20.9497 15.5592 20.7908 15.625 20.625 15.625ZM13.75 16.25C13.5842 16.25 13.4253 16.1842 13.3081 16.0669C13.1908 15.9497 13.125 15.7908 13.125 15.625V15C13.125 14.8342 13.1908 14.6753 13.3081 14.5581C13.4253 14.4408 13.5842 14.375 13.75 14.375C13.9158 14.375 14.0747 14.4408 14.1919 14.5581C14.3092 14.6753 14.375 14.8342 14.375 15V15.625C14.375 15.7908 14.3092 15.9497 14.1919 16.0669C14.0747 16.1842 13.9158 16.25 13.75 16.25ZM16.25 15.625C16.0842 15.625 15.9253 15.5592 15.8081 15.4419C15.6908 15.3247 15.625 15.1658 15.625 15V14.375C15.625 14.2092 15.6908 14.0503 15.8081 13.9331C15.9253 13.8158 16.0842 13.75 16.25 13.75C16.4158 13.75 16.5747 13.8158 16.6919 13.9331C16.8092 14.0503 16.875 14.2092 16.875 14.375V15C16.875 15.1658 16.8092 15.3247 16.6919 15.4419C16.5747 15.5592 16.4158 15.625 16.25 15.625ZM36.25 16.25C36.0842 16.25 35.9253 16.1842 35.8081 16.0669C35.6908 15.9497 35.625 15.7908 35.625 15.625V15C35.625 14.8342 35.6908 14.6753 35.8081 14.5581C35.9253 14.4408 36.0842 14.375 36.25 14.375C36.4158 14.375 36.5747 14.4408 36.6919 14.5581C36.8092 14.6753 36.875 14.8342 36.875 15V15.625C36.875 15.7908 36.8092 15.9497 36.6919 16.0669C36.5747 16.1842 36.4158 16.25 36.25 16.25ZM28.125 16.25C27.9592 16.25 27.8003 16.1842 27.6831 16.0669C27.5658 15.9497 27.5 15.7908 27.5 15.625V15C27.5 14.8342 27.5658 14.6753 27.6831 14.5581C27.8003 14.4408 27.9592 14.375 28.125 14.375C28.2908 14.375 28.4497 14.4408 28.5669 14.5581C28.6842 14.6753 28.75 14.8342 28.75 15V15.625C28.75 15.7908 28.6842 15.9497 28.5669 16.0669C28.4497 16.1842 28.2908 16.25 28.125 16.25ZM30.625 15.625C30.4592 15.625 30.3003 15.5592 30.1831 15.4419C30.0658 15.3247 30 15.1658 30 15V14.375C30 14.2092 30.0658 14.0503 30.1831 13.9331C30.3003 13.8158 30.4592 13.75 30.625 13.75C30.7908 13.75 30.9497 13.8158 31.0669 13.9331C31.1842 14.0503 31.25 14.2092 31.25 14.375V15C31.25 15.1658 31.1842 15.3247 31.0669 15.4419C30.9497 15.5592 30.7908 15.625 30.625 15.625ZM11.875 12.5C11.7092 12.5 11.5503 12.4342 11.4331 12.3169C11.3158 12.1997 11.25 12.0408 11.25 11.875V11.25C11.25 11.0842 11.3158 10.9253 11.4331 10.8081C11.5503 10.6908 11.7092 10.625 11.875 10.625C12.0408 10.625 12.1997 10.6908 12.3169 10.8081C12.4342 10.9253 12.5 11.0842 12.5 11.25V11.875C12.5 12.0408 12.4342 12.1997 12.3169 12.3169C12.1997 12.4342 12.0408 12.5 11.875 12.5ZM26.875 11.875C26.7092 11.875 26.5503 11.8092 26.4331 11.6919C26.3158 11.5747 26.25 11.4158 26.25 11.25V10.625C26.25 10.4592 26.3158 10.3003 26.4331 10.1831C26.5503 10.0658 26.7092 10 26.875 10C27.0408 10 27.1997 10.0658 27.3169 10.1831C27.4342 10.3003 27.5 10.4592 27.5 10.625V11.25C27.5 11.4158 27.4342 11.5747 27.3169 11.6919C27.1997 11.8092 27.0408 11.875 26.875 11.875Z" fill="white"/>
</g>
<defs>
<clipPath id="clip0_353_2045">
<rect width="40" height="40" fill="white"/>
</clipPath>
</defs>
</svg>
