<svg width="40" height="40" viewBox="0 0 40 40" fill="none" xmlns="http://www.w3.org/2000/svg">
<path d="M38.4141 17.8828H35.25C34.9375 17.5234 34.7188 17.0625 34.6172 16.5703H34.9062C35.5938 16.5703 36.1953 16.1094 36.3672 15.4375L36.6172 14.4687H36.6406C37.4531 14.4687 38.1094 13.8047 38.1094 13C38.1094 12.2344 37.5234 11.6094 36.7812 11.5312C36.7812 11.5234 36.7812 11.5234 36.7812 11.5156C36.6641 10.4687 35.8203 9.64062 34.7656 9.54687C34.3594 9.50781 33.9609 9.58594 33.6016 9.75781C33.4219 9.84375 33.1953 9.79687 33.0391 9.64844C32.6406 9.28125 32.1406 9.05469 31.6094 9L35.5156 7.5C35.75 7.41406 35.9297 7.22656 36.0078 6.99219C36.0938 6.75781 36.0703 6.5 35.9453 6.28906C34.9844 4.58594 33.4688 3.26562 31.6719 2.57031C30.0312 1.9375 28.2578 1.86719 26.6172 2.35937L26.4766 1.99219C26.3594 1.6875 26.0234 1.53906 25.7188 1.65625C25.4141 1.77344 25.2656 2.10937 25.3828 2.41406L25.5234 2.78125C22.25 4.32812 20.4531 7.97656 21.1484 11.6641C20.6406 11.8984 20.2891 12.4062 20.2891 13C20.2891 13.8125 20.9531 14.4687 21.7578 14.4687H21.7812L22.0312 15.4375C22.2031 16.1016 22.8047 16.5703 23.4922 16.5703H24.2031C24.1016 17.0625 23.8828 17.5234 23.5703 17.8828H15.4375C15.125 17.5234 14.9062 17.0625 14.8047 16.5703H15.4219C16.1094 16.5703 16.7109 16.1094 16.8828 15.4375L17.1328 14.4687H17.1562C17.9688 14.4687 18.625 13.8047 18.625 13C18.625 12.3359 18.1875 11.7812 17.5859 11.5937C16.9688 7.82812 13.9531 4.99219 10.2969 4.71094V4.32031C10.2969 4 10.0312 3.73437 9.71094 3.73437C9.39062 3.73437 9.125 4 9.125 4.32031V4.71094C5.46875 4.98437 2.45312 7.82031 1.83594 11.5937C1.23438 11.7812 0.796875 12.3437 0.796875 13C0.796875 13.8125 1.46094 14.4687 2.26562 14.4687H2.28906L2.53906 15.4375C2.71094 16.1016 3.3125 16.5703 4 16.5703H4.38281C4.28125 17.0625 4.0625 17.5234 3.75 17.8828H1.58594C0.710937 17.8828 0 18.6016 0 19.4766C0 20.2422 0.539063 20.875 1.25781 21.0312V23.2344V31.4531C1.25781 32.6406 2.22656 33.6094 3.41406 33.6094H4.28906V36.8125C4.28906 37.6719 4.99219 38.375 5.85156 38.375H6.33594C7.19531 38.375 7.89844 37.6719 7.89844 36.8125V33.6094H32.1406V36.8203C32.1406 37.6797 32.8438 38.3828 33.7031 38.3828H34.1875C35.0469 38.3828 35.75 37.6797 35.75 36.8203V33.6094H36.5859C37.7734 33.6094 38.7422 32.6406 38.7422 31.4531V23.4453C38.7422 23.4219 38.7422 23.3984 38.7344 23.375C38.7344 23.3281 38.7422 23.2734 38.7422 23.2266V21.0234C39.4609 20.8672 40 20.2344 40 19.4687C40 18.6016 39.2891 17.8828 38.4141 17.8828ZM32.2422 10.5156C32.7578 10.9922 33.4922 11.1094 34.1094 10.8203C34.2812 10.7344 34.4688 10.7031 34.6641 10.7187C35.1172 10.7578 35.4922 11.1016 35.6016 11.5312H30C30 11.4922 30 11.4531 30 11.4141C30.0391 10.7422 30.6016 10.1953 31.2812 10.1641C31.6328 10.1484 31.9766 10.2734 32.2422 10.5156ZM26.4766 3.64844C27.2266 3.35937 28.0234 3.21875 28.8203 3.21875C29.6406 3.21875 30.4609 3.36719 31.25 3.67187C32.6797 4.22656 33.9062 5.23437 34.7344 6.55469L22.2734 11.3281C21.7109 8.03906 23.4375 4.8125 26.4766 3.64844ZM29.4844 9.82031C29.1094 10.2344 28.8672 10.7656 28.8281 11.3437C28.8203 11.4062 28.8203 11.4687 28.8203 11.5312H25.0078L29.4844 9.82031ZM22.2422 13.3047C22.2344 13.3047 22.2344 13.3047 22.2422 13.3047H21.7656C21.6016 13.3047 21.4688 13.1719 21.4688 13.0078C21.4688 12.8437 21.6016 12.7109 21.7656 12.7109H29.5078C29.5156 12.7109 29.5156 12.7109 29.5234 12.7109C29.5312 12.7109 29.5312 12.7109 29.5391 12.7109H36.1719C36.1797 12.7109 36.1875 12.7109 36.2031 12.7109H36.6562C36.8203 12.7109 36.9531 12.8437 36.9531 13.0078C36.9531 13.1719 36.8203 13.3047 36.6562 13.3047H36.1953C36.1875 13.3047 36.1797 13.3047 36.1641 13.3047H22.2422ZM23.4922 15.4062C23.3359 15.4062 23.2031 15.3047 23.1641 15.1562L22.9922 14.4766H35.4062L35.2344 15.1562C35.1953 15.3047 35.0625 15.4062 34.9062 15.4062H23.4922ZM33.8438 17.8828H24.9766C25.1875 17.4766 25.3281 17.0312 25.3984 16.5703H33.4297C33.4922 17.0312 33.6406 17.4766 33.8438 17.8828ZM9.71094 5.86719C12.9609 5.86719 15.7266 8.25781 16.3828 11.5312H3.04688C3.69531 8.25781 6.46094 5.86719 9.71094 5.86719ZM2.75781 13.3047C2.75 13.3047 2.75 13.3047 2.75781 13.3047H2.28125C2.11719 13.3047 1.98438 13.1719 1.98438 13.0078C1.98438 12.8437 2.11719 12.7109 2.28125 12.7109H17.0703H17.0781C17.0781 12.7109 17.0781 12.7109 17.0859 12.7109H17.1641C17.3281 12.7109 17.4609 12.8437 17.4609 13.0078C17.4609 13.1719 17.3281 13.3047 17.1641 13.3047H16.7031C16.6953 13.3047 16.6875 13.3047 16.6719 13.3047H2.75781ZM4.00781 15.4062C3.85156 15.4062 3.71875 15.3047 3.67969 15.1562L3.50781 14.4766H15.9219L15.75 15.1562C15.7109 15.3047 15.5781 15.4062 15.4219 15.4062H4.00781ZM14.0312 17.8828H5.16406C5.375 17.4766 5.51562 17.0312 5.58594 16.5703H13.6172C13.6797 17.0312 13.8203 17.4766 14.0312 17.8828ZM2.42969 21.0625H5.28906V23.2266C5.28906 24.0156 4.64844 24.6562 3.85938 24.6562C3.07031 24.6562 2.42969 24.0156 2.42969 23.2266V21.0625ZM6.72656 36.8047C6.72656 37.0234 6.54688 37.1953 6.33594 37.1953H5.85156C5.63281 37.1953 5.46094 37.0156 5.46094 36.8047V33.6016H6.72656V36.8047ZM34.5859 36.8125C34.5859 37.0312 34.4062 37.2031 34.1953 37.2031H33.7109C33.4922 37.2031 33.3203 37.0234 33.3203 36.8125V33.6016H34.5859V36.8125ZM36.5938 32.4297H3.41406C2.875 32.4297 2.42969 31.9922 2.42969 31.4453V25.4062C2.84375 25.6797 3.33594 25.8359 3.85938 25.8359C4.67188 25.8359 5.39844 25.4609 5.875 24.875C6.35156 25.4609 7.07812 25.8359 7.89062 25.8359C8.70312 25.8359 9.42969 25.4609 9.90625 24.875C10.3828 25.4609 11.1094 25.8359 11.9219 25.8359C12.7344 25.8359 13.4609 25.4609 13.9375 24.875C14.4141 25.4609 15.1406 25.8359 15.9531 25.8359C16.7656 25.8359 17.4922 25.4609 17.9688 24.875C18.4453 25.4609 19.1719 25.8359 19.9844 25.8359C20.7969 25.8359 21.5234 25.4609 22 24.875C22.4766 25.4609 23.2031 25.8359 24.0156 25.8359C24.8281 25.8359 25.5547 25.4609 26.0312 24.875C26.5078 25.4609 27.2344 25.8359 28.0469 25.8359C28.8594 25.8359 29.5859 25.4609 30.0625 24.875C30.5391 25.4609 31.2656 25.8359 32.0781 25.8359C32.8906 25.8359 33.6172 25.4609 34.0938 24.875C34.5703 25.4609 35.2969 25.8359 36.1094 25.8359C36.6406 25.8359 37.1328 25.6797 37.5391 25.4062V31.4453C37.5703 31.9844 37.1328 32.4297 36.5938 32.4297ZM6.46094 23.2266V21.0625H9.32812V23.2266C9.32812 24.0156 8.6875 24.6562 7.89844 24.6562C7.10938 24.6641 6.46094 24.0156 6.46094 23.2266ZM10.5 23.2266V21.0625H13.3594V23.2266C13.3594 24.0156 12.7188 24.6562 11.9297 24.6562C11.1406 24.6562 10.5 24.0156 10.5 23.2266ZM14.5312 23.2266V21.0625H17.3984V23.2266C17.3984 24.0156 16.7578 24.6562 15.9688 24.6562C15.1797 24.6641 14.5312 24.0156 14.5312 23.2266ZM18.5703 23.2266V21.0625H21.4375V23.2266C21.4375 24.0156 20.7969 24.6562 20.0078 24.6562C19.2109 24.6641 18.5703 24.0156 18.5703 23.2266ZM22.6016 23.2266V21.0625H25.4688V23.2266C25.4688 24.0156 24.8281 24.6562 24.0391 24.6562C23.25 24.6641 22.6016 24.0156 22.6016 23.2266ZM26.6406 23.2266V21.0625H29.5078V23.2266C29.5078 24.0156 28.8672 24.6562 28.0781 24.6562C27.2812 24.6641 26.6406 24.0156 26.6406 23.2266ZM30.6719 23.2266V21.0625H33.5391V23.2266C33.5391 24.0156 32.8984 24.6562 32.1094 24.6562C31.3203 24.6641 30.6719 24.0156 30.6719 23.2266ZM37.5703 23.2266C37.5703 24.0156 36.9297 24.6562 36.1406 24.6562C35.3516 24.6562 34.7109 24.0156 34.7109 23.2266V21.0625H37.5781V23.2266H37.5703ZM38.4141 19.8906H1.58594C1.35937 19.8906 1.17188 19.7031 1.17188 19.4766C1.17188 19.25 1.35937 19.0625 1.58594 19.0625H38.4062C38.6328 19.0625 38.8203 19.25 38.8203 19.4766C38.8281 19.7031 38.6406 19.8906 38.4141 19.8906Z" fill="white"/>
</svg>
