<svg width="40" height="40" viewBox="0 0 40 40" fill="none" xmlns="http://www.w3.org/2000/svg">
<g clip-path="url(#clip0_353_2065)">
<path d="M31.7885 19.9625L27.1611 11.6143C27.0808 11.4737 26.9824 11.3441 26.8686 11.2289V12.193C26.8684 12.5368 26.7729 12.8738 26.5929 13.1667L29.1069 17.7023L27.2547 18.5646L24.5673 14.9564L23.9748 14.0676H21.8702C21.3808 14.0677 20.9108 13.8756 20.5616 13.5327L19.9958 13.7213L17.809 12.9924V10.3184C17.8087 10.2712 17.803 10.2243 17.792 10.1785C17.9403 10.0034 18.0551 9.80253 18.1308 9.58594C18.6432 10.048 19.3059 10.3083 19.9958 10.3184C20.4317 10.316 20.8606 10.2077 21.2454 10.0029V12.193C21.2454 12.3587 21.3112 12.5176 21.4284 12.6348C21.5456 12.752 21.7045 12.8179 21.8702 12.8179H24.9942C25.1599 12.8179 25.3188 12.752 25.436 12.6348C25.5532 12.5176 25.619 12.3587 25.619 12.193V4.69449C25.619 3.30041 25.1748 2.18079 24.2988 1.36689C22.7406 -0.0811307 20.3579 -0.0127339 19.9951 0.00681608C19.625 -0.0124277 17.2482 -0.0780433 15.6929 1.36688C14.8169 2.18078 14.3726 3.3004 14.3726 4.69448V10.5194L13.7177 10.8064C13.3418 10.9719 13.0303 11.2557 12.8305 11.6145L8.2031 19.9625C8.14376 20.0666 8.1165 20.186 8.12474 20.3056C8.13298 20.4252 8.17635 20.5397 8.24941 20.6348L8.06276 20.9422C8.04447 20.9541 8.02446 20.9631 8.00342 20.9689C7.66389 21.0768 7.36937 21.2935 7.16541 21.5856C6.96145 21.8777 6.85943 22.2289 6.87511 22.5848C6.8835 22.9469 6.99331 23.2993 7.19203 23.6021C7.39076 23.9049 7.67044 24.1459 7.9993 24.2977L8.44319 24.5061C8.69896 24.6263 8.97804 24.6887 9.26064 24.689C9.67662 24.6919 10.0806 24.5498 10.4033 24.2873C10.6085 24.1225 10.7723 23.9121 10.8817 23.6727C10.9911 23.4334 11.0431 23.1718 11.0336 22.9088C11.0267 22.8102 11.029 22.7112 11.0405 22.613C11.0475 22.6032 11.0543 22.5932 11.0608 22.5829L11.3686 22.098C11.4623 22.0952 11.5542 22.0714 11.6374 22.0282C11.7206 21.985 11.7929 21.9236 11.8491 21.8485L15.3101 17.2016L15.3108 19.6468C14.6866 20.2435 13.3577 22.0672 13.3781 26.7673C13.4027 32.4165 13.3548 32.9123 13.2267 34.2374L13.1861 34.6638C13.1724 34.8042 13.2071 34.945 13.2843 35.063C13.3616 35.1809 13.4769 35.269 13.611 35.3125V35.7528L11.8312 36.2331C11.5685 36.3037 11.3243 36.4309 11.1157 36.6056C10.9071 36.7803 10.7391 36.9984 10.6234 37.2447L10.1655 38.218C10.0758 38.4084 10.0357 38.6185 10.0489 38.8286C10.0621 39.0387 10.1282 39.242 10.2409 39.4198C10.3537 39.5975 10.5096 39.7439 10.694 39.8454C10.8785 39.9468 11.0856 40 11.2961 40H15.9347C16.4316 39.9994 16.9081 39.8017 17.2595 39.4503C17.6109 39.0988 17.8085 38.6224 17.809 38.1254V35.5283C17.9009 35.4692 17.9737 35.3847 18.0185 35.2851L18.0577 35.2188C18.9828 33.5747 19.6372 31.7924 19.9958 29.9403C20.3544 31.7924 21.0088 33.5747 21.934 35.2188L21.9603 35.2591C22.0164 35.3814 22.1108 35.4821 22.2293 35.546V38.1254C22.2298 38.6224 22.4274 39.0988 22.7788 39.4503C23.1302 39.8017 23.6067 39.9994 24.1037 40H28.7422C28.9527 40 29.1598 39.9468 29.3442 39.8454C29.5287 39.744 29.6846 39.5976 29.7973 39.4199C29.9101 39.2421 29.9762 39.0388 29.9894 38.8287C30.0026 38.6186 29.9625 38.4086 29.8728 38.2181L29.4148 37.2445C29.2991 36.9982 29.1311 36.7802 28.9225 36.6055C28.7139 36.4308 28.4697 36.3036 28.207 36.2329L26.4273 35.7528V35.2941C26.5498 35.2438 26.6527 35.1552 26.7209 35.0417C26.789 34.9281 26.8187 34.7956 26.8056 34.6638L26.765 34.2374C26.6369 32.9123 26.589 32.4165 26.6135 26.7673C26.634 22.0672 25.3051 20.2435 24.6809 19.6468L24.6815 17.2016L28.1426 21.8485C28.1996 21.9247 28.2733 21.9867 28.3581 22.03C28.4428 22.0732 28.5363 22.0965 28.6314 22.0979L28.9393 22.5829C28.9457 22.5932 28.9526 22.6032 28.9596 22.613C28.9711 22.7113 28.9734 22.8104 28.9665 22.9091C28.9569 23.1721 29.009 23.4336 29.1184 23.6729C29.2279 23.9122 29.3917 24.1226 29.5969 24.2873C29.9195 24.5499 30.3235 24.6919 30.7394 24.689C31.022 24.6886 31.3012 24.6261 31.557 24.5059L32.0007 24.2977C32.3296 24.1459 32.6094 23.9049 32.8081 23.6021C33.0068 23.2993 33.1166 22.9467 33.1249 22.5846C33.1406 22.2287 33.0385 21.8776 32.8345 21.5855C32.6306 21.2934 32.336 21.0767 31.9965 20.9689C31.9754 20.9631 31.9555 20.954 31.9373 20.942L31.7468 20.6284C31.818 20.5336 31.8598 20.42 31.8673 20.3017C31.8747 20.1833 31.8473 20.0654 31.7885 19.9625ZM19.7983 14.9729C19.9265 15.0156 20.0651 15.0156 20.1934 14.9729L22.5523 14.1865L23.4322 15.5065L23.4314 19.0666H16.5602L16.5595 15.5065L17.4394 14.1865L19.7983 14.9729ZM19.9958 9.06861C18.9924 9.06861 18.0353 7.87869 17.8455 6.49483C18.6801 6.33989 19.4586 5.96637 20.1017 5.41236C20.6567 5.97479 21.3705 6.35395 22.1472 6.49892C21.96 7.87409 21.0012 9.06861 19.9958 9.06861ZM15.6222 4.69449C15.5964 4.25114 15.6647 3.80735 15.8227 3.39231C15.9807 2.97727 16.2248 2.60041 16.539 2.28652C17.7887 1.12006 19.9296 1.25399 19.9499 1.25598C19.967 1.25723 19.9833 1.25473 20.0002 1.25462C20.0137 1.25466 20.0268 1.25697 20.0405 1.25613C20.062 1.25414 22.2026 1.12006 23.4526 2.28652C23.7668 2.60041 24.0109 2.97728 24.1689 3.39231C24.3269 3.80735 24.3953 4.25114 24.3694 4.69449V11.5681H22.495V8.89254C23.0918 8.05241 23.4187 7.05049 23.4322 6.02004C23.4434 5.8411 23.3855 5.66468 23.2704 5.52717C23.2136 5.46479 23.1449 5.41433 23.0683 5.3787C22.9918 5.34308 22.909 5.32301 22.8247 5.31965C22.4666 5.31511 22.1134 5.2371 21.7867 5.09046C21.4601 4.94381 21.1671 4.73166 20.9258 4.46713C21.0121 4.33545 21.0954 4.19667 21.1736 4.04794C21.2507 3.90128 21.2664 3.73 21.2172 3.57178C21.1681 3.41355 21.058 3.28134 20.9114 3.20422C20.7647 3.1271 20.5935 3.1114 20.4352 3.16057C20.277 3.20974 20.1448 3.31975 20.0677 3.4664C19.7887 3.99916 19.3759 4.45015 18.8698 4.77503C18.3638 5.09991 17.7819 5.2875 17.1813 5.31935C17.0939 5.32076 17.0077 5.34015 16.9281 5.37632C16.8485 5.41249 16.7772 5.46467 16.7186 5.5296C16.6013 5.67363 16.5443 5.8574 16.5595 6.04249C16.5691 6.7289 16.7198 7.40599 17.0022 8.03168C16.9962 8.06456 16.9929 8.09788 16.9922 8.1313V8.96306C16.9922 9.08447 16.9568 9.20326 16.8904 9.30489C16.824 9.40652 16.7294 9.48659 16.6182 9.5353L15.6222 9.97174L15.6222 4.69449ZM10.0214 21.8887C9.82231 22.2087 9.73897 22.5873 9.78523 22.9613C9.787 23.0315 9.77182 23.101 9.74096 23.1641C9.7101 23.2271 9.66448 23.2818 9.60798 23.3235C9.51767 23.3905 9.41036 23.4308 9.29825 23.4399C9.18614 23.4489 9.07375 23.4263 8.97388 23.3746L8.53013 23.1663C8.41449 23.1142 8.31545 23.0313 8.24392 22.9265C8.17239 22.8218 8.13114 22.6994 8.1247 22.5727C8.11436 22.4865 8.13314 22.3994 8.17806 22.3251C8.22298 22.2508 8.29145 22.1937 8.37258 22.1628C8.65318 22.0809 8.89979 21.9106 9.07563 21.6771C9.08646 21.6624 9.09653 21.6472 9.10613 21.6316L9.34804 21.2333L10.1889 21.6248L10.0214 21.8887ZM11.1507 20.6941L9.62109 19.982L10.2978 18.7612L12.0001 19.5538L11.1507 20.6941ZM12.7625 18.5302L10.9051 17.6655L13.9233 12.2206C13.9899 12.101 14.0937 12.0064 14.219 11.9512L16.5594 10.9256V13.2536L15.4244 14.9564L12.7625 18.5302ZM16.5594 38.1254C16.5593 38.291 16.4934 38.4499 16.3763 38.567C16.2591 38.6842 16.1003 38.7501 15.9346 38.7503H11.2961L11.754 37.7769C11.7926 37.6948 11.8486 37.6221 11.9181 37.5638C11.9877 37.5056 12.0691 37.4632 12.1567 37.4396L14.3986 36.8349C14.5312 36.7991 14.6483 36.7206 14.7319 36.6115C14.8154 36.5024 14.8606 36.3689 14.8606 36.2315V35.4289L16.5595 35.5587L16.5594 38.1254ZM27.8814 37.4396C27.969 37.4632 28.0504 37.5056 28.1199 37.5638C28.1895 37.622 28.2455 37.6947 28.2841 37.7768L28.7422 38.7503H24.1037C23.938 38.7501 23.7792 38.6842 23.662 38.567C23.5449 38.4499 23.479 38.291 23.4789 38.1254V35.5551L25.1777 35.4253V36.2315C25.1777 36.3689 25.2229 36.5024 25.3065 36.6115C25.39 36.7206 25.5071 36.7991 25.6397 36.8349L27.8814 37.4396ZM25.3639 26.7618C25.3403 32.1732 25.3836 32.9184 25.5009 34.1473L22.8733 34.348C21.6365 32.1524 20.8485 28.9293 20.6366 25.21C20.8324 25.0848 21.0019 24.9224 21.1354 24.7322C21.1821 24.6646 21.215 24.5884 21.2322 24.5081C21.2494 24.4278 21.2506 24.3449 21.2358 24.2641C21.2209 24.1833 21.1902 24.1062 21.1455 24.0373C21.1009 23.9683 21.043 23.9089 20.9753 23.8623C20.9076 23.8158 20.8314 23.783 20.7511 23.766C20.6707 23.7489 20.5878 23.7478 20.507 23.7628C20.4263 23.7779 20.3493 23.8087 20.2804 23.8535C20.2115 23.8983 20.1522 23.9562 20.1058 24.024C19.8911 24.2319 19.6105 24.3581 19.3126 24.3808C19.1562 24.3952 19.011 24.4681 18.906 24.5848C18.801 24.7016 18.7439 24.8537 18.7462 25.0108C18.7484 25.1678 18.8099 25.3182 18.9182 25.4319C19.0265 25.5456 19.1738 25.6142 19.3305 25.6241C19.0853 29.1687 18.3092 32.234 17.1183 34.348L14.4907 34.1473C14.608 32.9184 14.6513 32.1732 14.6277 26.7618C14.6056 21.6861 16.2621 20.4734 16.2656 20.4703C16.3287 20.4293 16.3838 20.3772 16.4281 20.3164H23.5585C23.6006 20.3739 23.6529 20.4231 23.7127 20.4618C23.7295 20.4734 25.386 21.6861 25.3639 26.7618ZM28.8409 20.6941L28.0171 19.5881L29.7143 18.798L30.3705 19.982L28.8409 20.6941ZM31.8753 22.5729C31.8689 22.6995 31.8277 22.822 31.7561 22.9267C31.6846 23.0314 31.5855 23.1143 31.4699 23.1663L31.0263 23.3744C30.9265 23.4262 30.8141 23.4489 30.702 23.4399C30.5898 23.4309 30.4825 23.3905 30.3922 23.3235C30.3357 23.2819 30.2901 23.2273 30.2592 23.1643C30.2283 23.1013 30.2131 23.0317 30.2148 22.9616C30.2611 22.5875 30.1777 22.2088 29.9787 21.8887L29.8093 21.6218L30.6502 21.2303L30.8939 21.6316C30.9035 21.6472 30.9136 21.6624 30.9244 21.6771C31.1002 21.9105 31.3467 22.0808 31.6272 22.1628C31.7084 22.1936 31.7769 22.2508 31.8219 22.3251C31.8669 22.3994 31.8857 22.4866 31.8753 22.5729Z" fill="white"/>
<path d="M19.996 17.8181C20.341 17.8181 20.6207 17.5377 20.6207 17.1919C20.6207 16.846 20.341 16.5656 19.996 16.5656C19.651 16.5656 19.3713 16.846 19.3713 17.1919C19.3713 17.5377 19.651 17.8181 19.996 17.8181Z" fill="white"/>
</g>
<defs>
<clipPath id="clip0_353_2065">
<rect width="40" height="40" fill="white"/>
</clipPath>
</defs>
</svg>
