<svg width="41" height="40" viewBox="0 0 41 40" fill="none" xmlns="http://www.w3.org/2000/svg">
<path d="M12.8437 24.5015C12.9928 24.57 13.1629 24.577 13.3172 24.5211C13.4715 24.4652 13.5976 24.3509 13.6683 24.2028C13.739 24.0546 13.7486 23.8847 13.695 23.7296C13.6414 23.5745 13.5289 23.4467 13.3819 23.3738C12.3482 22.8796 11.424 22.1835 10.6635 21.3265C9.90309 20.4696 9.32187 19.4691 8.95412 18.384C8.9012 18.227 8.78808 18.0974 8.63965 18.0239C8.49122 17.9503 8.31964 17.9387 8.16265 17.9916C8.00567 18.0445 7.87613 18.1576 7.80255 18.3061C7.72896 18.4545 7.71736 18.6261 7.77028 18.7831C8.19152 20.0266 8.85742 21.1732 9.72876 22.1553C10.6001 23.1374 11.6592 23.9351 12.8437 24.5015Z" fill="white"/>
<path d="M39.9635 12.7207C39.7714 12.5105 39.5378 12.3425 39.2774 12.2274C39.0169 12.1122 38.7354 12.0525 38.4507 12.0519H34.0365C34.1087 11.6673 34.5625 10.0808 34.6104 9.71494C34.7226 7.63204 31.7006 6.57047 29.1906 5.95148C29.0302 5.91556 28.8621 5.94428 28.7228 6.03143C28.5834 6.11857 28.4841 6.25712 28.4462 6.41704C28.4083 6.57696 28.4349 6.74537 28.5204 6.88578C28.6058 7.02618 28.7431 7.12726 28.9025 7.16711C31.975 7.93222 33.7075 8.91187 33.2854 9.88599C30.792 13.8804 9.35557 13.879 6.84967 9.88304C6.28127 8.07064 11.9321 6.30747 20.067 6.24678C22.2211 6.23892 24.3728 6.39132 26.5043 6.70273C26.6673 6.72519 26.8325 6.68251 26.9643 6.58394C27.096 6.48538 27.1835 6.33887 27.2079 6.17619C27.2323 6.0135 27.1916 5.84776 27.0946 5.71488C26.9976 5.58201 26.8522 5.49272 26.6898 5.46637C20.8303 4.31603 5.42527 5.15074 5.50775 9.58375C5.3454 9.28657 7.78847 18.7128 7.76973 18.8029C8.29071 20.9012 9.34025 22.8312 10.8184 24.409C8.25128 25.2555 6.84807 26.4364 6.83952 27.7865C6.83156 27.7979 6.83952 30.5794 6.83677 30.593C7.03807 36.7566 33.0978 36.7587 33.2986 30.593C33.294 30.5699 33.3073 27.7964 33.2939 27.777C33.2787 26.4304 31.8747 25.2519 29.3106 24.4073C29.5484 24.1534 29.7743 23.8887 29.9907 23.616C31.9638 23.5724 33.8943 23.0334 35.6046 22.0486C35.7433 21.9617 35.8423 21.8239 35.8804 21.6647C35.9186 21.5055 35.8927 21.3378 35.8085 21.1974C35.7243 21.0571 35.5884 20.9554 35.43 20.9142C35.2716 20.873 35.1033 20.8956 34.9614 20.9771C33.7203 21.6987 32.3394 22.1469 30.9111 22.2916C31.258 21.7202 31.5589 21.1222 31.8111 20.5031C33.0516 20.2488 34.2048 19.677 35.1581 18.8435C36.1114 18.0101 36.8321 16.9435 37.2498 15.7481C37.2826 15.6537 37.2924 15.553 37.2786 15.454C37.2647 15.3551 37.2275 15.2609 37.17 15.1792C37.1125 15.0976 37.0364 15.0307 36.948 14.9843C36.8596 14.9378 36.7614 14.9131 36.6615 14.9121H33.3287L33.7273 13.3017H38.4507C38.5621 13.3021 38.6721 13.3256 38.7739 13.3709C38.8756 13.4161 38.9668 13.482 39.0417 13.5645C39.1166 13.6469 39.1734 13.744 39.2087 13.8497C39.2439 13.9553 39.2568 14.0671 39.2464 14.178C39.0388 16.1073 38.2305 17.9227 36.9355 19.368C36.8566 19.4129 36.7881 19.4741 36.7346 19.5476C36.6812 19.6211 36.644 19.7051 36.6256 19.7941C36.6072 19.883 36.608 19.9749 36.6279 20.0636C36.6477 20.1522 36.6863 20.2356 36.741 20.3082C36.7956 20.3808 36.8651 20.4408 36.9448 20.4845C37.0245 20.5281 37.1126 20.5542 37.2032 20.5611C37.2938 20.5679 37.3848 20.5554 37.4702 20.5244C37.5556 20.4933 37.6333 20.4444 37.6983 20.3809C39.2659 18.7048 40.2463 16.5647 40.4919 14.2829C40.5167 14.0001 40.4825 13.7153 40.3916 13.4464C40.3006 13.1775 40.1548 12.9304 39.9635 12.7207ZM7.35665 11.9319C13.0987 14.9417 27.0377 14.9365 32.7776 11.9377L31.1524 18.5039C29.755 24.6387 22.9502 28.5764 16.931 26.7363C15.0011 26.1807 13.2511 25.1277 11.8562 23.6829C10.4612 22.238 9.47043 20.4521 8.98297 18.5038L7.35665 11.9319ZM32.0458 27.7988C32.0458 29.2182 27.4886 31.1983 20.067 31.1983C18.1035 31.2049 16.1429 31.0469 14.2058 30.726C14.0437 30.7006 13.8781 30.7399 13.7447 30.8356C13.6114 30.9312 13.521 31.0755 13.4931 31.2372C13.4652 31.3989 13.5021 31.5651 13.5957 31.6999C13.6893 31.8346 13.8322 31.9272 13.9935 31.9575C19.2571 32.9629 28.6226 32.4638 32.0488 29.8586V30.593C32.0488 32.0118 27.491 33.9913 20.0676 33.9913C12.6443 33.9913 8.08652 32.0118 8.08652 30.593V29.8759C9.12271 30.5797 10.2759 31.0934 11.4922 31.393C11.6508 31.4355 11.8197 31.4139 11.9624 31.3328C12.1052 31.2517 12.2103 31.1177 12.255 30.9598C12.2998 30.8018 12.2805 30.6326 12.2015 30.4887C12.1225 30.3448 11.99 30.2378 11.8327 30.1909C6.82212 28.6577 6.86336 26.9217 11.8584 25.3979C14.1531 27.3371 17.0605 28.4008 20.0648 28.4005C23.0691 28.4002 25.9763 27.3359 28.2706 25.3963C31.0452 26.1832 32.0458 27.1732 32.0458 27.7988ZM35.709 16.1618C34.9976 17.5437 33.7689 18.5884 32.2906 19.0685C32.3146 18.9799 32.3435 18.8934 32.3655 18.8041L33.0194 16.1618L35.709 16.1618Z" fill="white"/>
</svg>
