<svg width="40" height="40" viewBox="0 0 40 40" fill="none" xmlns="http://www.w3.org/2000/svg">
<g clip-path="url(#clip0_353_2058)">
<path d="M27.1875 0H12.8125C12.3982 0.000487128 12.0011 0.165264 11.7082 0.458184C11.4153 0.751104 11.2505 1.14825 11.25 1.5625V8.4375C11.2505 8.85175 11.4153 9.2489 11.7082 9.54182C12.0011 9.83474 12.3982 9.99951 12.8125 10H27.1875C27.6018 9.99951 27.9989 9.83474 28.2918 9.54182C28.5847 9.2489 28.7495 8.85175 28.75 8.4375V1.5625C28.7495 1.14825 28.5847 0.751104 28.2918 0.458184C27.9989 0.165264 27.6018 0.000487128 27.1875 0ZM27.5 8.4375C27.4999 8.52035 27.4669 8.59977 27.4084 8.65835C27.3498 8.71693 27.2703 8.74989 27.1875 8.75H12.8125C12.7297 8.74989 12.6502 8.71693 12.5916 8.65835C12.5331 8.59977 12.5001 8.52035 12.5 8.4375V1.5625C12.5001 1.47965 12.5331 1.40023 12.5916 1.34165C12.6502 1.28307 12.7297 1.25011 12.8125 1.25H27.1875C27.2703 1.25011 27.3498 1.28307 27.4084 1.34165C27.4669 1.40023 27.4999 1.47965 27.5 1.5625V8.4375ZM22.1875 14.0625V13.4375C22.1875 12.8573 21.957 12.3009 21.5468 11.8907C21.1366 11.4805 20.5802 11.25 20 11.25C19.4198 11.25 18.8634 11.4805 18.4532 11.8907C18.043 12.3009 17.8125 12.8573 17.8125 13.4375V14.0625C17.8125 14.6427 18.043 15.1991 18.4532 15.6093C18.8634 16.0195 19.4198 16.25 20 16.25C20.5802 16.25 21.1366 16.0195 21.5468 15.6093C21.957 15.1991 22.1875 14.6427 22.1875 14.0625ZM20.9375 14.0625C20.9375 14.3111 20.8387 14.5496 20.6629 14.7254C20.4871 14.9012 20.2486 15 20 15C19.7514 15 19.5129 14.9012 19.3371 14.7254C19.1613 14.5496 19.0625 14.3111 19.0625 14.0625V13.4375C19.0625 13.1889 19.1613 12.9504 19.3371 12.7746C19.5129 12.5988 19.7514 12.5 20 12.5C20.2486 12.5 20.4871 12.5988 20.6629 12.7746C20.8387 12.9504 20.9375 13.1889 20.9375 13.4375V14.0625ZM27.5 11.875C26.92 11.8757 26.364 12.1063 25.9539 12.5164C25.5438 12.9265 25.3132 13.4825 25.3125 14.0625V14.6875C25.3125 15.2677 25.543 15.8241 25.9532 16.2343C26.3634 16.6445 26.9198 16.875 27.5 16.875C28.0802 16.875 28.6366 16.6445 29.0468 16.2343C29.457 15.8241 29.6875 15.2677 29.6875 14.6875V14.0625C29.6868 13.4825 29.4562 12.9265 29.0461 12.5164C28.636 12.1063 28.08 11.8757 27.5 11.875ZM28.4375 14.6875C28.4375 14.9361 28.3387 15.1746 28.1629 15.3504C27.9871 15.5262 27.7486 15.625 27.5 15.625C27.2514 15.625 27.0129 15.5262 26.8371 15.3504C26.6613 15.1746 26.5625 14.9361 26.5625 14.6875V14.0625C26.5625 13.8139 26.6613 13.5754 26.8371 13.3996C27.0129 13.2238 27.2514 13.125 27.5 13.125C27.7486 13.125 27.9871 13.2238 28.1629 13.3996C28.3387 13.5754 28.4375 13.8139 28.4375 14.0625V14.6875ZM10.3125 14.0625V14.6875C10.3125 15.2677 10.543 15.8241 10.9532 16.2343C11.3634 16.6445 11.9198 16.875 12.5 16.875C13.0802 16.875 13.6366 16.6445 14.0468 16.2343C14.457 15.8241 14.6875 15.2677 14.6875 14.6875V14.0625C14.6875 13.4823 14.457 12.9259 14.0468 12.5157C13.6366 12.1055 13.0802 11.875 12.5 11.875C11.9198 11.875 11.3634 12.1055 10.9532 12.5157C10.543 12.9259 10.3125 13.4823 10.3125 14.0625ZM11.5625 14.0625C11.5625 13.8139 11.6613 13.5754 11.8371 13.3996C12.0129 13.2238 12.2514 13.125 12.5 13.125C12.7486 13.125 12.9871 13.2238 13.1629 13.3996C13.3387 13.5754 13.4375 13.8139 13.4375 14.0625V14.6875C13.4375 14.9361 13.3387 15.1746 13.1629 15.3504C12.9871 15.5262 12.7486 15.625 12.5 15.625C12.2514 15.625 12.0129 15.5262 11.8371 15.3504C11.6613 15.1746 11.5625 14.9361 11.5625 14.6875V14.0625ZM4.6875 19.0625V19.6875C4.6875 20.2677 4.91797 20.8241 5.3282 21.2343C5.73844 21.6445 6.29484 21.875 6.875 21.875C7.45516 21.875 8.01156 21.6445 8.4218 21.2343C8.83203 20.8241 9.0625 20.2677 9.0625 19.6875V19.0625C9.0625 18.4823 8.83203 17.9259 8.4218 17.5157C8.01156 17.1055 7.45516 16.875 6.875 16.875C6.29484 16.875 5.73844 17.1055 5.3282 17.5157C4.91797 17.9259 4.6875 18.4823 4.6875 19.0625ZM5.9375 19.0625C5.9375 18.8139 6.03627 18.5754 6.21209 18.3996C6.3879 18.2238 6.62636 18.125 6.875 18.125C7.12364 18.125 7.3621 18.2238 7.53791 18.3996C7.71373 18.5754 7.8125 18.8139 7.8125 19.0625V19.6875C7.8125 19.9361 7.71373 20.1746 7.53791 20.3504C7.3621 20.5262 7.12364 20.625 6.875 20.625C6.62636 20.625 6.3879 20.5262 6.21209 20.3504C6.03627 20.1746 5.9375 19.9361 5.9375 19.6875V19.0625ZM30.9375 19.0625V19.6875C30.9375 20.2677 31.168 20.8241 31.5782 21.2343C31.9884 21.6445 32.5448 21.875 33.125 21.875C33.7052 21.875 34.2616 21.6445 34.6718 21.2343C35.082 20.8241 35.3125 20.2677 35.3125 19.6875V19.0625C35.3125 18.4823 35.082 17.9259 34.6718 17.5157C34.2616 17.1055 33.7052 16.875 33.125 16.875C32.5448 16.875 31.9884 17.1055 31.5782 17.5157C31.168 17.9259 30.9375 18.4823 30.9375 19.0625ZM34.0625 19.0625V19.6875C34.0625 19.9361 33.9637 20.1746 33.7879 20.3504C33.6121 20.5262 33.3736 20.625 33.125 20.625C32.8764 20.625 32.6379 20.5262 32.4621 20.3504C32.2863 20.1746 32.1875 19.9361 32.1875 19.6875V19.0625C32.1875 18.8139 32.2863 18.5754 32.4621 18.3996C32.6379 18.2238 32.8764 18.125 33.125 18.125C33.3736 18.125 33.6121 18.2238 33.7879 18.3996C33.9637 18.5754 34.0625 18.8139 34.0625 19.0625Z" fill="white"/>
<path d="M39.375 21.875C39.2092 21.875 39.0503 21.9408 38.9331 22.0581C38.8159 22.1753 38.75 22.3342 38.75 22.5V31.25C38.7496 31.5814 38.6178 31.8991 38.3835 32.1335C38.1492 32.3678 37.8314 32.4996 37.5 32.5H37.0393C37.3396 32.0496 37.4998 31.5205 37.5 30.9793V25.5624C37.4926 24.7442 37.161 23.9622 36.5779 23.3881C35.9948 22.814 35.2078 22.4946 34.3895 22.5H29.375C29.0748 22.4992 28.7788 22.5706 28.5121 22.7083C28.2453 22.846 28.0157 23.0459 27.8425 23.2911C27.6693 23.5363 27.5577 23.8196 27.5171 24.1171C27.4766 24.4145 27.5082 24.7174 27.6094 25H26.3193V22.4091C26.3194 22.3548 26.3336 22.3015 26.3605 22.2543C26.3873 22.2071 26.4259 22.1677 26.4725 22.1399L27.8571 21.3187C27.9277 21.2768 27.9894 21.2215 28.0387 21.1558C28.0879 21.09 28.1238 21.0153 28.1441 20.9357C28.1644 20.8562 28.1689 20.7734 28.1572 20.6921C28.1456 20.6108 28.118 20.5326 28.0761 20.462C28.0342 20.3914 27.9788 20.3297 27.913 20.2805C27.8473 20.2313 27.7725 20.1955 27.6929 20.1753C27.6133 20.155 27.5305 20.1506 27.4493 20.1623C27.368 20.1741 27.2898 20.2017 27.2192 20.2437L25.8345 21.0651C25.6018 21.204 25.409 21.4008 25.2749 21.6363C25.1408 21.8718 25.07 22.138 25.0693 22.4091V25H14.7264V22.4091C14.7257 22.138 14.6548 21.8718 14.5207 21.6363C14.3866 21.4007 14.1938 21.204 13.961 21.0651L12.5764 20.2437C12.5059 20.2017 12.4277 20.1741 12.3464 20.1623C12.2651 20.1506 12.1824 20.155 12.1028 20.1753C12.0232 20.1955 11.9484 20.2313 11.8826 20.2805C11.8169 20.3297 11.7615 20.3914 11.7196 20.462C11.6777 20.5326 11.6501 20.6108 11.6384 20.6921C11.6268 20.7734 11.6312 20.8562 11.6516 20.9357C11.6719 21.0153 11.7077 21.09 11.757 21.1558C11.8063 21.2215 11.868 21.2768 11.9386 21.3187L13.3231 22.1399C13.3697 22.1677 13.4083 22.2071 13.4352 22.2543C13.4621 22.3014 13.4763 22.3548 13.4764 22.4091V25H12.3906C12.4918 24.7174 12.5234 24.4145 12.4829 24.1171C12.4423 23.8196 12.3307 23.5363 12.1575 23.2911C11.9843 23.0459 11.7547 22.846 11.4879 22.7083C11.2212 22.5706 10.9252 22.4992 10.625 22.5H5.625L5.62077 22.5004L5.6105 22.5C4.79222 22.4946 4.00521 22.814 3.4221 23.3881C2.83898 23.9622 2.50737 24.7442 2.5 25.5624V30.9793C2.50015 31.5205 2.66043 32.0496 2.96066 32.5H2.5C2.16859 32.4996 1.85085 32.3678 1.61651 32.1335C1.38216 31.8991 1.25035 31.5814 1.25 31.25V22.5C1.25 22.3342 1.18415 22.1753 1.06694 22.058C0.949732 21.9408 0.79076 21.875 0.625 21.875C0.45924 21.875 0.300269 21.9408 0.183058 22.058C0.065848 22.1753 0 22.3342 0 22.5L0 31.25C0.000758441 31.9128 0.264394 32.5482 0.733071 33.0169C1.20175 33.4856 1.83719 33.7492 2.5 33.75H3.4375V36.7038L1.72469 37.3874C1.49186 37.4792 1.29217 37.6392 1.15173 37.8464C1.01128 38.0536 0.936621 38.2983 0.9375 38.5486V39.375C0.9375 39.5407 1.00335 39.6997 1.12056 39.8169C1.23777 39.9341 1.39674 40 1.5625 40C1.72826 40 1.88723 39.9341 2.00444 39.8169C2.12165 39.6997 2.1875 39.5407 2.1875 39.375V38.5486L4.0625 37.8003L5.9375 38.5486V39.375C5.9375 39.5407 6.00335 39.6997 6.12056 39.8169C6.23777 39.9341 6.39674 40 6.5625 40C6.72826 40 6.88723 39.9341 7.00444 39.8169C7.12165 39.6997 7.1875 39.5407 7.1875 39.375V38.5486C7.18842 38.2984 7.11381 38.0537 6.97345 37.8466C6.83308 37.6395 6.63349 37.4795 6.40076 37.3877L4.6875 36.7038V33.75L7.64511 33.7707L9.35166 38.9032C9.44385 39.1719 9.60495 39.4118 9.81885 39.5988C10.0328 39.7857 10.292 39.9133 10.5706 39.9688C10.8493 40.0242 11.1376 40.0056 11.4068 39.9147C11.676 39.8239 11.9166 39.664 12.1046 39.451C12.2534 39.2821 12.3644 39.0834 12.4303 38.8683C12.4962 38.6531 12.5154 38.4263 12.4867 38.2031L11.5982 31.3357C11.5453 30.9408 11.3888 30.5668 11.1447 30.2518C10.9006 29.9369 10.5776 29.692 10.2083 29.5422L8.72101 28.9346V28.75H13.4375V39.375C13.4375 39.5407 13.5033 39.6997 13.6206 39.8169C13.7378 39.9341 13.8967 40 14.0625 40C14.2283 40 14.3872 39.9341 14.5044 39.8169C14.6217 39.6997 14.6875 39.5407 14.6875 39.375V38.4375H25.3125V39.375C25.3125 39.5407 25.3783 39.6997 25.4956 39.8169C25.6128 39.9341 25.7717 40 25.9375 40C26.1033 40 26.2622 39.9341 26.3794 39.8169C26.4967 39.6997 26.5625 39.5407 26.5625 39.375V28.75H31.2791V28.9343L29.7919 29.5422C29.4226 29.692 29.0995 29.9368 28.8553 30.2518C28.6112 30.5668 28.4547 30.9408 28.4018 31.3357L27.5133 38.2031C27.4846 38.4263 27.5038 38.6531 27.5697 38.8683C27.6356 39.0834 27.7466 39.2821 27.8954 39.451C28.0834 39.6639 28.324 39.8239 28.5932 39.9147C28.8624 40.0056 29.1507 40.0242 29.4294 39.9688C29.708 39.9133 29.9673 39.7857 30.1812 39.5987C30.3951 39.4118 30.5562 39.1719 30.6483 38.9032L32.355 33.7707L35 33.75H35.3125V36.7038L33.5997 37.3874C33.3669 37.4792 33.1672 37.6392 33.0267 37.8464C32.8863 38.0536 32.8116 38.2983 32.8125 38.5486V39.375C32.8125 39.5407 32.8783 39.6997 32.9956 39.8169C33.1128 39.9341 33.2717 40 33.4375 40C33.6033 40 33.7622 39.9341 33.8794 39.8169C33.9967 39.6997 34.0625 39.5407 34.0625 39.375V38.5486L35.9375 37.8003L37.8125 38.5486V39.375C37.8125 39.5407 37.8783 39.6997 37.9956 39.8169C38.1128 39.9341 38.2717 40 38.4375 40C38.6033 40 38.7622 39.9341 38.8794 39.8169C38.9967 39.6997 39.0625 39.5407 39.0625 39.375V38.5486C39.0634 38.2984 38.9888 38.0537 38.8484 37.8466C38.7081 37.6395 38.5085 37.4795 38.2758 37.3877L36.5625 36.7038V33.75H37.5C38.1628 33.7492 38.7983 33.4856 39.2669 33.0169C39.7356 32.5482 39.9992 31.9128 40 31.25V22.5C40 22.3342 39.9341 22.1753 39.8169 22.0581C39.6997 21.9408 39.5408 21.875 39.375 21.875ZM6.82785 25C6.66209 25 6.50312 25.0658 6.38591 25.183C6.2687 25.3003 6.20285 25.4592 6.20285 25.625C6.20285 25.7907 6.2687 25.9497 6.38591 26.0669C6.50312 26.1841 6.66209 26.25 6.82785 26.25H7.47101V29.3542C7.471 29.4784 7.50797 29.5997 7.57718 29.7027C7.6464 29.8058 7.74473 29.8859 7.85965 29.9328L9.73572 30.6995C9.90058 30.7655 10.045 30.8741 10.1544 31.014C10.2638 31.1539 10.3342 31.3203 10.3586 31.4963L11.2471 38.3636C11.2531 38.4106 11.249 38.4584 11.2349 38.5036C11.2209 38.5488 11.1972 38.5905 11.1656 38.6258C11.1306 38.6656 11.0873 38.6973 11.0388 38.7187C10.9903 38.7401 10.9377 38.7508 10.8847 38.75C10.8089 38.7513 10.7346 38.7288 10.6723 38.6855C10.6101 38.6422 10.563 38.5804 10.5379 38.5089L8.68912 32.9486C8.64769 32.824 8.56811 32.7157 8.46165 32.6389C8.3552 32.5621 8.22727 32.5208 8.09601 32.5207H5.33432C4.91999 32.5259 4.52053 32.3665 4.22353 32.0775C3.92653 31.7886 3.75624 31.3936 3.75 30.9793V25.5624C3.757 25.0756 3.95679 24.6114 4.30557 24.2716C4.65434 23.9318 5.12363 23.7442 5.6105 23.75H10.625C10.7908 23.75 10.9497 23.8158 11.0669 23.933C11.1842 24.0503 11.25 24.2092 11.25 24.375C11.25 24.5407 11.1842 24.6997 11.0669 24.8169C10.9497 24.9341 10.7908 25 10.625 25H6.82785ZM25.3125 37.1875H14.6875V28.75H25.3125V37.1875ZM31.25 27.5H8.75V26.25H31.25V27.5ZM36.25 30.9793C36.2438 31.3936 36.0735 31.7886 35.7765 32.0775C35.4795 32.3665 35.08 32.5259 34.6657 32.5207H31.9041C31.7729 32.5208 31.645 32.5621 31.5385 32.6389C31.4321 32.7157 31.3525 32.824 31.311 32.9486L29.4621 38.5089C29.4368 38.5806 29.3895 38.6425 29.327 38.6858C29.2644 38.7291 29.1898 38.7516 29.1138 38.75C29.061 38.7507 29.0087 38.7399 28.9605 38.7185C28.9123 38.697 28.8692 38.6654 28.8344 38.6258C28.8028 38.5905 28.7791 38.5488 28.7651 38.5036C28.751 38.4584 28.7469 38.4106 28.7529 38.3636L29.6414 31.4963C29.6658 31.3203 29.7362 31.1539 29.8456 31.014C29.9551 30.874 30.0995 30.7655 30.2644 30.6995L32.1405 29.9328C32.2554 29.8859 32.3538 29.8058 32.423 29.7028C32.4922 29.5997 32.5292 29.4784 32.5292 29.3542V26.25H33.1722C33.3379 26.25 33.4969 26.1841 33.6141 26.0669C33.7313 25.9497 33.7972 25.7907 33.7972 25.625C33.7972 25.4592 33.7313 25.3003 33.6141 25.183C33.4969 25.0658 33.3379 25 33.1722 25H29.375C29.2092 25 29.0503 24.9341 28.9331 24.8169C28.8158 24.6997 28.75 24.5407 28.75 24.375C28.75 24.2092 28.8158 24.0503 28.9331 23.933C29.0503 23.8158 29.2092 23.75 29.375 23.75C29.375 23.75 34.4401 23.7527 34.4654 23.7537C34.9388 23.7668 35.3887 23.9623 35.7213 24.2994C36.0539 24.6364 36.2433 25.089 36.25 25.5624V30.9793Z" fill="white"/>
<path d="M15.839 21.5625H23.9567C24.1102 21.0809 24.39 20.6493 24.7669 20.3125H23.6419L24.3115 18.9447C24.356 18.8538 24.3778 18.7534 24.3749 18.6522C24.372 18.551 24.3446 18.452 24.295 18.3638L23.6378 17.1939C23.5977 17.1223 23.5438 17.0594 23.4792 17.0087C23.4147 16.9579 23.3408 16.9204 23.2618 16.8982C23.1828 16.8761 23.1002 16.8697 23.0187 16.8794C22.9372 16.8892 22.8584 16.9149 22.7869 16.9551C22.7153 16.9953 22.6524 17.0492 22.6016 17.1137C22.5509 17.1782 22.5134 17.2521 22.4912 17.3311C22.469 17.4101 22.4627 17.4928 22.4724 17.5743C22.4822 17.6557 22.5079 17.7345 22.5481 17.8061L23.0444 18.6899L22.2502 20.3125H17.7499L16.9556 18.6899L17.4519 17.8061C17.5331 17.6616 17.5536 17.4907 17.5088 17.3311C17.464 17.1715 17.3576 17.0363 17.2131 16.9551C17.0686 16.8739 16.8978 16.8535 16.7382 16.8983C16.5786 16.943 16.4433 17.0494 16.3621 17.1939L15.705 18.3638C15.6554 18.452 15.6279 18.551 15.6251 18.6522C15.6222 18.7534 15.644 18.8538 15.6885 18.9447L16.3581 20.3125H15.0288C15.4057 20.6493 15.6854 21.0809 15.839 21.5625Z" fill="white"/>
<path d="M21.3337 16.875H18.6663C18.6805 16.9151 18.7007 16.9521 18.7123 16.9934C18.8173 17.3655 18.8037 17.761 18.6734 18.125H21.3266C21.1963 17.761 21.1827 17.3655 21.2877 16.9934C21.2993 16.9521 21.3195 16.9151 21.3337 16.875ZM35.9375 0C35.7717 8.28727e-06 35.6128 0.065859 35.4956 0.183067C35.3784 0.300276 35.3125 0.459242 35.3125 0.625V5.07242C34.6918 5.21452 34.1375 5.56281 33.7402 6.06046C33.343 6.5581 33.1261 7.17572 33.125 7.8125C33.125 7.97826 33.1909 8.13722 33.3081 8.25443C33.4253 8.37164 33.5842 8.43749 33.75 8.4375H35.3125C35.3125 8.60326 35.3783 8.76223 35.4956 8.87944C35.6128 8.99665 35.7717 9.0625 35.9375 9.0625C36.1033 9.0625 36.2622 8.99665 36.3794 8.87944C36.4967 8.76223 36.5625 8.60326 36.5625 8.4375H38.125C38.2908 8.43749 38.4497 8.37164 38.5669 8.25443C38.6841 8.13722 38.75 7.97826 38.75 7.8125C38.7489 7.17572 38.532 6.5581 38.1348 6.06046C37.7375 5.56281 37.1832 5.21452 36.5625 5.07242V0.625C36.5625 0.459242 36.4966 0.300276 36.3794 0.183067C36.2622 0.065859 36.1033 8.28727e-06 35.9375 0ZM37.3695 7.1875H34.5055C34.6271 6.90886 34.8273 6.67175 35.0817 6.50523C35.3361 6.33871 35.6335 6.25001 35.9375 6.25001C36.2415 6.25001 36.5389 6.33871 36.7933 6.50523C37.0477 6.67175 37.2479 6.90886 37.3695 7.1875ZM4.0625 0C3.89674 8.28727e-06 3.73778 0.065859 3.62057 0.183067C3.50336 0.300276 3.43751 0.459242 3.4375 0.625V5.07242C2.81677 5.21452 2.26254 5.56281 1.86525 6.06046C1.46796 6.5581 1.25108 7.17572 1.25 7.8125C1.25001 7.97826 1.31586 8.13722 1.43307 8.25443C1.55028 8.37164 1.70924 8.43749 1.875 8.4375H3.4375C3.4375 8.60326 3.50335 8.76223 3.62056 8.87944C3.73777 8.99665 3.89674 9.0625 4.0625 9.0625C4.22826 9.0625 4.38723 8.99665 4.50444 8.87944C4.62165 8.76223 4.6875 8.60326 4.6875 8.4375H6.25C6.41576 8.43749 6.57472 8.37164 6.69193 8.25443C6.80914 8.13722 6.87499 7.97826 6.875 7.8125C6.87392 7.17572 6.65704 6.5581 6.25975 6.06046C5.86246 5.56281 5.30823 5.21452 4.6875 5.07242V0.625C4.68749 0.459242 4.62164 0.300276 4.50443 0.183067C4.38722 0.065859 4.22826 8.28727e-06 4.0625 0ZM5.49454 7.1875H2.63047C2.75208 6.90886 2.95234 6.67175 3.2067 6.50523C3.46107 6.33871 3.75848 6.25001 4.06251 6.25001C4.36653 6.25001 4.66395 6.33871 4.91831 6.50523C5.17267 6.67175 5.37293 6.90886 5.49454 7.1875ZM25.9993 19.1667C26.1261 19.2011 26.2507 19.2432 26.3723 19.2928L26.5817 19.1686C26.986 18.9291 27.4658 18.851 27.9251 18.9499C28.2004 18.8115 28.5055 18.743 28.8135 18.7506C29.1215 18.7581 29.4229 18.8414 29.691 18.993C29.6985 18.5605 29.7881 18.1333 29.955 17.7341C29.2355 17.4391 28.4319 17.4223 27.7007 17.6871C26.9695 17.9519 26.363 18.4794 25.9993 19.1667ZM10.309 18.993C10.525 18.8711 10.763 18.7931 11.0093 18.7635C11.2556 18.7339 11.5053 18.7531 11.7441 18.8203C11.9829 18.8874 12.2061 19.001 12.4009 19.1546C12.5957 19.3083 12.7582 19.4988 12.8791 19.7154L12.9166 19.6873C13.241 19.4455 13.6092 19.2687 14.0008 19.1667C13.6371 18.4793 13.0305 17.9519 12.2993 17.6871C11.5681 17.4223 10.7645 17.4391 10.045 17.7341C10.2119 18.1333 10.3015 18.5605 10.309 18.993Z" fill="white"/>
</g>
<defs>
<clipPath id="clip0_353_2058">
<rect width="40" height="40" fill="white"/>
</clipPath>
</defs>
</svg>
