<svg width="40" height="40" viewBox="0 0 40 40" fill="none" xmlns="http://www.w3.org/2000/svg">
<path d="M16.6823 12.5125H18.0696C18.3927 12.5122 18.7025 12.3837 18.931 12.1552C19.1595 11.9268 19.288 11.617 19.2885 11.2939V8.98987C19.2881 8.66672 19.1595 8.35693 18.931 8.12843C18.7025 7.89993 18.3927 7.77139 18.0696 7.77099H16.6823C16.3591 7.77139 16.0493 7.89993 15.8208 8.12843C15.5923 8.35693 15.4638 8.66672 15.4634 8.98987V11.2939C15.4638 11.6171 15.5923 11.9268 15.8209 12.1553C16.0494 12.3837 16.3591 12.5122 16.6823 12.5125ZM18.0385 8.98985V11.2631L16.7134 11.2939L16.6823 9.02099L18.0385 8.98985ZM21.9307 12.5125H23.318C23.6411 12.5122 23.9509 12.3837 24.1794 12.1552C24.4079 11.9268 24.5365 11.617 24.5369 11.2939V8.98987C24.5365 8.66672 24.4079 8.35693 24.1794 8.12843C23.9509 7.89993 23.6411 7.77139 23.318 7.77099H21.9307C21.6075 7.77139 21.2977 7.89993 21.0692 8.12843C20.8407 8.35693 20.7122 8.66672 20.7118 8.98987V11.2939C20.7122 11.6171 20.8408 11.9268 21.0693 12.1553C21.2978 12.3837 21.6076 12.5122 21.9307 12.5125ZM23.2869 8.98985V11.2631L21.9618 11.2939L21.9307 9.02099L23.2869 8.98985ZM15.4634 17.4212C15.4638 17.7444 15.5923 18.0542 15.8208 18.2827C16.0493 18.5112 16.3591 18.6397 16.6823 18.6401H18.0696C18.3927 18.6397 18.7025 18.5112 18.931 18.2827C19.1595 18.0542 19.2881 17.7444 19.2885 17.4212V15.1172C19.288 14.7941 19.1595 14.4843 18.931 14.2559C18.7025 14.0274 18.3927 13.8989 18.0696 13.8986H16.6823C16.3591 13.8989 16.0494 14.0274 15.8208 14.2559C15.5923 14.4843 15.4638 14.7941 15.4634 15.1172V17.4212ZM18.0385 15.1172V17.3907L16.7134 17.4212L16.6823 15.1486L18.0385 15.1172ZM20.7118 17.4212C20.7122 17.7444 20.8407 18.0542 21.0692 18.2827C21.2977 18.5112 21.6075 18.6397 21.9307 18.6401H23.318C23.6411 18.6397 23.9509 18.5112 24.1794 18.2827C24.4079 18.0542 24.5365 17.7444 24.5369 17.4212V15.1172C24.5365 14.7941 24.4079 14.4843 24.1794 14.2559C23.9509 14.0274 23.6411 13.8989 23.318 13.8986H21.9307C21.6076 13.8989 21.2978 14.0274 21.0693 14.2559C20.8408 14.4843 20.7122 14.7941 20.7118 15.1172V17.4212ZM23.2869 15.1172V17.3907L21.9618 17.4212L21.9307 15.1486L23.2869 15.1172ZM9.2085 21.2253H10.7722C11.0953 21.2249 11.405 21.0964 11.6334 20.868C11.8618 20.6395 11.9902 20.3298 11.9905 20.0067V18.6087C11.9902 18.2857 11.8618 17.9759 11.6334 17.7475C11.405 17.519 11.0953 17.3905 10.7722 17.3901H9.2085C8.88545 17.3905 8.57574 17.519 8.34733 17.7475C8.11893 17.9759 7.9905 18.2857 7.99023 18.6087V20.0067C7.9905 20.3298 8.11893 20.6395 8.34733 20.868C8.57574 21.0964 8.88545 21.2249 9.2085 21.2253ZM10.7405 18.6087V19.9759L9.24023 20.0067L9.2085 18.6401L10.7405 18.6087ZM9.2085 26.7514H10.7722C11.0953 26.7511 11.405 26.6225 11.6334 26.3941C11.8618 26.1656 11.9902 25.8559 11.9905 25.5328V24.1348C11.9903 23.8117 11.8618 23.502 11.6334 23.2735C11.405 23.0449 11.0953 22.9164 10.7722 22.916H9.2085C8.88542 22.9164 8.5757 23.0449 8.3473 23.2735C8.11891 23.502 7.99049 23.8117 7.99023 24.1348V25.5328C7.9905 25.8559 8.11893 26.1656 8.34733 26.3941C8.57574 26.6225 8.88545 26.7511 9.2085 26.7514ZM10.7405 24.1348V25.502L9.24023 25.5328L9.2085 24.166L10.7405 24.1348ZM32.1943 14.111C32.1941 13.7879 32.0657 13.4782 31.8373 13.2496C31.6089 13.0211 31.2992 12.8926 30.9761 12.8921H29.4123C29.0892 12.8926 28.7795 13.0211 28.5511 13.2496C28.3227 13.4782 28.1943 13.7879 28.1941 14.111V15.5087C28.1943 15.8318 28.3227 16.1416 28.5511 16.3701C28.7795 16.5986 29.0892 16.7272 29.4123 16.7276H30.9761C31.2992 16.7272 31.6089 16.5986 31.8373 16.3701C32.0657 16.1416 32.1941 15.8318 32.1943 15.5087V14.111ZM30.9443 15.4782L29.4441 15.5087L29.4124 14.1421L30.9443 14.111V15.4782ZM30.9761 18.4183H29.4123C29.0893 18.4186 28.7796 18.5471 28.5512 18.7756C28.3228 19.0041 28.1944 19.3138 28.1941 19.6369V21.0349C28.1944 21.3579 28.3228 21.6677 28.5512 21.8961C28.7796 22.1246 29.0893 22.2531 29.4124 22.2534H30.9761C31.2992 22.2531 31.6089 22.1246 31.8373 21.8961C32.0657 21.6677 32.1941 21.3579 32.1944 21.0349V19.6369C32.1941 19.3138 32.0657 19.0041 31.8373 18.7756C31.6089 18.5471 31.2991 18.4186 30.9761 18.4183ZM30.9443 21.004L29.4441 21.0348L29.4124 19.6683L30.9443 19.6368V21.004Z" fill="white"/>
<path d="M36.2811 31.4063H34.2438V13.8437C34.2414 13.6795 34.1745 13.5227 34.0576 13.4074C33.9406 13.2921 33.783 13.2275 33.6187 13.2275C33.4545 13.2275 33.2968 13.2921 33.1799 13.4075C33.0629 13.5228 32.9961 13.6795 32.9938 13.8437V31.4063H27.3938V10.0186H32.7063C32.7825 10.0187 32.8556 10.0491 32.9095 10.103C32.9634 10.157 32.9937 10.2301 32.9938 10.3064V11.3437C32.9962 11.5078 33.0631 11.6645 33.18 11.7797C33.297 11.8949 33.4546 11.9595 33.6188 11.9595C33.7829 11.9595 33.9405 11.8949 34.0574 11.7797C34.1744 11.6645 34.2413 11.5078 34.2438 11.3437V10.3064C34.2434 9.89872 34.0813 9.50785 33.793 9.21956C33.5048 8.93126 33.1139 8.76909 32.7063 8.76862H27.3938V6.30005C27.3932 5.81947 27.202 5.35874 26.8622 5.01895C26.5223 4.67916 26.0616 4.48807 25.581 4.48761H14.4189C13.9384 4.48807 13.4776 4.67916 13.1378 5.01895C12.7979 5.35874 12.6067 5.81947 12.6062 6.30005V7.14386C12.6084 7.30817 12.6752 7.465 12.7922 7.58041C12.9092 7.69583 13.0669 7.76053 13.2312 7.76053C13.3955 7.76053 13.5532 7.69583 13.6702 7.58041C13.7872 7.465 13.854 7.30817 13.8562 7.14386V6.30005C13.8565 6.15091 13.9158 6.00796 14.0213 5.90253C14.1268 5.7971 14.2698 5.73779 14.4189 5.73761H25.5811C25.7302 5.73779 25.8732 5.7971 25.9787 5.90253C26.0842 6.00796 26.1435 6.15091 26.1438 6.30005V31.4063H23.9459V23.0835H24.2438C24.408 23.0812 24.5647 23.0143 24.68 22.8973C24.7953 22.7804 24.86 22.6227 24.86 22.4585C24.86 22.2942 24.7953 22.1366 24.68 22.0196C24.5647 21.9027 24.408 21.8358 24.2438 21.8335C23.9723 21.8337 15.7562 21.8335 15.7562 21.8335C15.6742 21.8335 15.5929 21.8496 15.517 21.881C15.4412 21.9124 15.3723 21.9585 15.3143 22.0165C15.2562 22.0745 15.2102 22.1435 15.1788 22.2193C15.1474 22.2951 15.1312 22.3764 15.1312 22.4585C15.1524 22.989 15.5952 23.1279 16.0541 23.0835V31.4063H13.8562V9.64386C13.8537 9.47978 13.7867 9.32328 13.6698 9.20814C13.5529 9.09301 13.3953 9.02847 13.2312 9.02847C13.0671 9.02847 12.9096 9.09301 12.7927 9.20814C12.6757 9.32328 12.6088 9.47978 12.6062 9.64386V13.9014H7.14172C6.77457 13.9018 6.42257 14.0479 6.16295 14.3075C5.90333 14.5671 5.75728 14.9191 5.75684 15.2863V31.4063H3.71888C3.39573 31.4066 3.08593 31.5352 2.85744 31.7637C2.62894 31.9922 2.5004 32.302 2.5 32.6251V34.2938C2.50041 34.6169 2.62897 34.9267 2.85747 35.1551C3.08597 35.3836 3.39576 35.5121 3.71888 35.5124H6.38125C6.54514 35.5096 6.70135 35.4425 6.81624 35.3256C6.93114 35.2087 6.99552 35.0513 6.99552 34.8874C6.99552 34.7235 6.93114 34.5661 6.81624 34.4492C6.70135 34.3323 6.54514 34.2652 6.38125 34.2624L3.75 34.2938L3.71888 32.6563C9.94936 32.6572 33.0229 32.6782 36.25 32.6251L36.2811 34.2624H8.88125C8.71724 34.265 8.56083 34.3321 8.44579 34.449C8.33074 34.5659 8.26626 34.7234 8.26627 34.8874C8.26627 35.0514 8.33076 35.2089 8.44581 35.3258C8.56087 35.4427 8.71727 35.5097 8.88129 35.5124H36.2811C36.6042 35.5121 36.914 35.3836 37.1425 35.1551C37.371 34.9267 37.4996 34.6169 37.5 34.2938V32.6251C37.4996 32.302 37.3711 31.9922 37.1426 31.7637C36.9141 31.5352 36.6043 31.4066 36.2811 31.4063ZM12.6062 31.4063H7.00683V15.2863C7.00642 15.2684 7.00963 15.2507 7.01627 15.2342C7.0229 15.2176 7.03282 15.2026 7.04543 15.19C7.05804 15.1774 7.07307 15.1674 7.08962 15.1608C7.10617 15.1542 7.12389 15.151 7.14171 15.1514H12.6062L12.6062 31.4063ZM19.375 31.4063H17.3041V23.0835H19.375V31.4063ZM22.6959 31.4063H20.625V23.0835H22.6959V31.4063Z" fill="white"/>
</svg>
