<svg width="40" height="40" viewBox="0 0 40 40" fill="none" xmlns="http://www.w3.org/2000/svg">
<g clip-path="url(#clip0_353_2047)">
<path d="M4.08142 5.62506C3.90868 5.62506 3.76587 5.4853 3.76587 5.31256C3.76587 5.13983 3.90259 5.00006 4.0747 5.00006H4.08142C4.25353 5.00006 4.39392 5.13983 4.39392 5.31256C4.39392 5.4853 4.25353 5.62506 4.08142 5.62506Z" fill="white"/>
<path d="M33.4562 32.4999C33.2834 32.4999 33.1406 32.3601 33.1406 32.1874C33.1406 32.0146 33.2773 31.8749 33.4495 31.8749H33.4562C33.6283 31.8749 33.7687 32.0146 33.7687 32.1874C33.7687 32.3601 33.6283 32.4999 33.4562 32.4999Z" fill="white"/>
<path d="M10.9564 39.3749C10.7837 39.3749 10.6409 39.2351 10.6409 39.0624C10.6409 38.8896 10.7776 38.7499 10.9497 38.7499H10.9564C11.1285 38.7499 11.2689 38.8896 11.2689 39.0624C11.2689 39.2351 11.1285 39.3749 10.9564 39.3749Z" fill="white"/>
<path d="M4.08142 29.9999C3.90868 29.9999 3.76587 29.8601 3.76587 29.6874C3.76587 29.5146 3.90259 29.3749 4.0747 29.3749H4.08142C4.25353 29.3749 4.39392 29.5146 4.39392 29.6874C4.39392 29.8601 4.25353 29.9999 4.08142 29.9999Z" fill="white"/>
<path d="M38.4562 10.0293C38.2834 10.0293 38.1406 9.88953 38.1406 9.7168C38.1406 9.54406 38.2773 9.4043 38.4495 9.4043H38.4562C38.6283 9.4043 38.7687 9.54406 38.7687 9.7168C38.7687 9.88953 38.6283 10.0293 38.4562 10.0293Z" fill="white"/>
<path d="M19.9999 36.8749C12.4182 36.8749 6.25 30.7067 6.25 23.125C6.25 15.5432 12.4182 9.37506 19.9999 9.37506C23.7731 9.37506 27.2924 10.8728 29.909 13.5926C30.0286 13.7171 30.0249 13.9148 29.9005 14.0344C29.7772 14.1547 29.5795 14.1504 29.4586 14.0259C26.961 11.4295 23.6016 10.0001 20 10.0001C12.7631 10.0001 6.87508 15.888 6.87508 23.125C6.87508 30.3619 12.7631 36.2499 20 36.2499C27.237 36.2499 33.1249 30.3619 33.1249 23.125C33.1249 21.322 32.766 19.5751 32.058 17.934C31.9897 17.7753 32.0629 17.5915 32.221 17.5232C32.3785 17.4536 32.5641 17.528 32.6318 17.6862C33.374 19.4067 33.7499 21.2365 33.7499 23.125C33.7498 30.7067 27.5817 36.8749 19.9999 36.8749Z" fill="white"/>
<path d="M23.1841 35.3643C23.1633 35.3643 23.1426 35.3625 23.1219 35.3582C22.9528 35.324 22.843 35.1598 22.8771 34.9901C22.8893 34.9285 24.121 28.7176 24.121 23.125C24.121 17.5305 22.8893 11.3215 22.8771 11.2598C22.8429 11.0901 22.9528 10.9259 23.1219 10.8917C23.2885 10.8575 23.4557 10.9668 23.4899 11.1365C23.5027 11.1994 24.746 17.4688 24.746 23.125C24.746 28.781 23.5027 35.0505 23.4899 35.1134C23.46 35.2618 23.33 35.3643 23.1841 35.3643Z" fill="white"/>
<path d="M26.3083 34.1143C26.2735 34.1143 26.2387 34.1088 26.2039 34.0966C26.0416 34.0386 25.9561 33.8604 26.0135 33.6974C26.0324 33.6449 27.8707 28.3819 27.8707 23.125C27.8707 17.8674 26.0324 12.605 26.0135 12.5525C25.9561 12.3895 26.0415 12.2113 26.2039 12.1533C26.3663 12.0954 26.5445 12.1808 26.6031 12.3438C26.622 12.3976 28.4958 17.7576 28.4958 23.1251C28.4958 28.4918 26.6221 33.8526 26.6031 33.9062C26.5574 34.0344 26.4371 34.1143 26.3083 34.1143Z" fill="white"/>
<path d="M29.4333 31.6271C29.3894 31.6271 29.3448 31.6179 29.3027 31.5984C29.1458 31.5264 29.0775 31.3402 29.1495 31.184C29.1678 31.1437 30.9958 27.1288 30.9958 23.125C30.9958 21.9012 30.8267 20.5584 30.4935 19.1351C30.4544 18.9667 30.5587 18.7988 30.7265 18.7592C30.9011 18.7201 31.0629 18.8251 31.1025 18.9923C31.4461 20.4626 31.6207 21.853 31.6207 23.125C31.6207 27.2692 29.7946 31.2768 29.7171 31.4452C29.6647 31.56 29.5512 31.6271 29.4333 31.6271Z" fill="white"/>
<path d="M15.7731 20.625C15.7671 20.625 15.761 20.625 15.7542 20.6244C15.5821 20.614 15.4509 20.4657 15.4613 20.2936C15.7463 15.5719 16.6185 11.1805 16.6271 11.1366C16.6613 10.9669 16.8291 10.8583 16.9951 10.8918C17.1642 10.926 17.274 11.0902 17.2399 11.2599C17.2313 11.3032 16.3671 15.6544 16.0851 20.3315C16.0753 20.4974 15.9374 20.625 15.7731 20.625Z" fill="white"/>
<path d="M16.9328 35.3643C16.787 35.3643 16.657 35.2618 16.6271 35.1134C16.6185 35.0695 15.7463 30.678 15.4613 25.9564C15.4509 25.7843 15.5821 25.6359 15.7542 25.6256C15.9453 25.6091 16.0753 25.7465 16.085 25.9186C16.3676 30.5975 17.2313 34.9469 17.2398 34.9901C17.274 35.1598 17.1641 35.324 16.995 35.3582C16.9743 35.3625 16.9536 35.3643 16.9328 35.3643Z" fill="white"/>
<path d="M13.8083 34.1143C13.6796 34.1143 13.5593 34.0344 13.5136 33.9062C13.4947 33.8524 11.6208 28.4917 11.6208 23.125C11.6208 17.7582 13.4946 12.3975 13.5136 12.3437C13.5716 12.1814 13.7498 12.0972 13.9127 12.1533C14.0751 12.2112 14.1605 12.3894 14.1031 12.5524C14.0842 12.6049 12.2458 17.868 12.2458 23.1249C12.2458 28.3818 14.0842 33.6448 14.1031 33.6973C14.1605 33.8603 14.0751 34.0385 13.9127 34.0965C13.878 34.1088 13.8432 34.1143 13.8083 34.1143Z" fill="white"/>
<path d="M10.6833 31.6271C10.5655 31.6271 10.452 31.56 10.3995 31.4452C10.322 31.2768 8.49585 27.2686 8.49585 23.125C8.49585 18.9807 10.322 14.9731 10.3995 14.8047C10.4716 14.6472 10.6595 14.5801 10.814 14.6515C10.9708 14.7235 11.0392 14.9091 10.9672 15.0659C10.9489 15.1062 9.12093 19.1211 9.12093 23.125C9.12093 27.1282 10.9489 31.1437 10.9672 31.184C11.0392 31.3409 10.9708 31.5264 10.814 31.5984C10.7719 31.618 10.7273 31.6271 10.6833 31.6271Z" fill="white"/>
<path d="M13.4373 23.4375H7.50659C7.33386 23.4375 7.19409 23.2977 7.19409 23.125C7.19409 22.9523 7.33386 22.8125 7.50659 22.8125H13.4373C13.61 22.8125 13.7498 22.9523 13.7498 23.125C13.7498 23.2977 13.61 23.4375 13.4373 23.4375Z" fill="white"/>
<path d="M32.6101 23.4375H17.8123C17.6395 23.4375 17.4998 23.2977 17.4998 23.125C17.4998 22.9523 17.6395 22.8125 17.8123 22.8125H32.6101C32.7829 22.8125 32.9226 22.9523 32.9226 23.125C32.9226 23.2977 32.7829 23.4375 32.6101 23.4375Z" fill="white"/>
<path d="M20.0065 27.7605C14.3504 27.7605 8.08097 26.5173 8.01808 26.5044C7.84901 26.4702 7.73917 26.3062 7.77331 26.1365C7.80745 25.9668 7.97597 25.8569 8.14136 25.8917C8.203 25.9039 14.4139 27.1355 20.0065 27.1355C25.601 27.1355 31.81 25.9039 31.8717 25.8917C32.0383 25.8563 32.2055 25.9674 32.2397 26.1365C32.2739 26.3062 32.164 26.4702 31.9949 26.5044C31.9321 26.5173 25.6626 27.7605 20.0065 27.7605Z" fill="white"/>
<path d="M20.0066 31.5105C14.6398 31.5105 9.27907 29.6368 9.2254 29.6178C9.06306 29.5598 8.97759 29.3816 9.03493 29.2186C9.09353 29.0557 9.27173 28.9721 9.43407 29.0282C9.48657 29.0471 14.7495 30.8854 20.0065 30.8854C25.2634 30.8854 30.5264 29.0471 30.5789 29.0282C30.7413 28.9708 30.9195 29.0557 30.9781 29.2186C31.0354 29.3816 30.95 29.5598 30.7876 29.6178C30.734 29.6368 25.3734 31.5105 20.0066 31.5105Z" fill="white"/>
<path d="M20.0066 34.6356C15.8623 34.6356 11.8548 32.8094 11.6863 32.7319C11.5294 32.6599 11.461 32.4737 11.5331 32.3174C11.6051 32.1599 11.7931 32.0928 11.9475 32.1642C11.9878 32.1825 16.0027 34.0106 20.0066 34.0106C24.0099 34.0106 28.0254 32.1826 28.0656 32.1642C28.2213 32.0928 28.4081 32.1599 28.4801 32.3174C28.5521 32.4743 28.4838 32.6599 28.3269 32.7319C28.1584 32.8094 24.1502 34.6356 20.0066 34.6356Z" fill="white"/>
<path d="M8.07911 20.2606C7.93325 20.2606 7.80325 20.1581 7.77333 20.0098C7.73911 19.8401 7.84904 19.6759 8.0181 19.6417C8.08099 19.6289 14.3504 18.3856 20.0065 18.3856C25.6626 18.3856 31.9321 19.6289 31.995 19.6417C32.164 19.6759 32.2739 19.8401 32.2397 20.0098C32.2056 20.1794 32.0383 20.288 31.8717 20.2545C31.8101 20.2423 25.5992 19.0106 20.0065 19.0106C14.4121 19.0106 8.20302 20.2423 8.14138 20.2545C8.1206 20.2587 8.0999 20.2606 8.07911 20.2606Z" fill="white"/>
<path d="M9.32971 17.1356C9.20096 17.1356 9.08064 17.0557 9.03494 16.9275C8.9776 16.7645 9.06299 16.5863 9.22541 16.5284C9.27916 16.5094 14.6398 14.6356 20.0066 14.6356C23.25 14.6356 26.4592 15.3058 28.5796 15.8679C28.7468 15.9124 28.8456 16.0834 28.8017 16.25C28.7572 16.4166 28.5893 16.5191 28.4196 16.4722C26.3346 15.9192 23.1828 15.2606 20.0065 15.2606C14.7496 15.2606 9.48658 17.099 9.43408 17.1179C9.39924 17.1302 9.36447 17.1356 9.32971 17.1356Z" fill="white"/>
<path d="M11.8169 14.0106C11.6991 14.0106 11.5856 13.9435 11.5331 13.8287C11.461 13.6719 11.5294 13.4863 11.6863 13.4143C11.8547 13.3368 15.8628 11.5106 20.0066 11.5106C24.1509 11.5106 28.1584 13.3368 28.3269 13.4143C28.4838 13.4863 28.5521 13.6725 28.4801 13.8287C28.4081 13.9862 28.2213 14.054 28.0656 13.9819C28.0253 13.9637 24.0105 12.1356 20.0066 12.1356C16.0033 12.1356 11.9878 13.9636 11.9475 13.9819C11.9054 14.0015 11.8609 14.0106 11.8169 14.0106Z" fill="white"/>
<path d="M20.0066 35.9374C19.8339 35.9374 19.6941 35.7976 19.6941 35.6249V10.5212C19.6941 10.3485 19.8339 10.2087 20.0066 10.2087C20.1793 10.2087 20.3191 10.3485 20.3191 10.5212V35.6249C20.3191 35.7976 20.1793 35.9374 20.0066 35.9374Z" fill="white"/>
<path d="M20 8.75006C19.8273 8.75006 19.6875 8.6103 19.6875 8.43756V0.937561C19.6875 0.764827 19.8273 0.625061 20 0.625061C20.1727 0.625061 20.3125 0.764827 20.3125 0.937561V8.43756C20.3125 8.6103 20.1727 8.75006 20 8.75006Z" fill="white"/>
<path d="M1.5625 18.125C1.38977 18.125 1.25 17.9853 1.25 17.8125C1.25 16.3611 2.61844 15.6842 2.67703 15.6561C2.83203 15.581 3.0182 15.6463 3.09328 15.8008C3.16836 15.9558 3.10367 16.1426 2.94922 16.2183C2.90531 16.2403 1.875 16.7578 1.875 17.8125C1.875 17.9853 1.73523 18.125 1.5625 18.125Z" fill="white"/>
<path d="M2.8125 16.25C2.76672 16.25 2.72031 16.2402 2.67703 16.2189C2.61844 16.1908 1.25 15.514 1.25 14.0626C1.25 13.8898 1.38977 13.7501 1.5625 13.7501C1.73523 13.7501 1.875 13.8898 1.875 14.0626C1.875 15.1258 2.93766 15.6507 2.94797 15.6562C3.10359 15.7312 3.16891 15.918 3.09383 16.073C3.04016 16.1847 2.92844 16.25 2.8125 16.25Z" fill="white"/>
<path d="M0.313188 16.25C0.197251 16.25 0.0861568 16.1853 0.0317818 16.0742C-0.0432963 15.9192 0.0213912 15.7324 0.175844 15.6567C0.219751 15.6348 1.25006 15.1172 1.25006 14.0625C1.25006 13.8898 1.38983 13.75 1.56256 13.75C1.7353 13.75 1.87506 13.8898 1.87506 14.0625C1.87506 15.5139 0.506626 16.1908 0.448032 16.2188C0.404751 16.2402 0.358344 16.25 0.313188 16.25Z" fill="white"/>
<path d="M1.56247 18.125C1.38974 18.125 1.24997 17.9852 1.24997 17.8125C1.24997 16.7493 0.187318 16.2244 0.177005 16.2189C0.0213803 16.1438 -0.0439322 15.957 0.0311459 15.802C0.106224 15.6458 0.294818 15.5805 0.448021 15.6562C0.506615 15.6842 1.87505 16.3611 1.87505 17.8126C1.87497 17.9852 1.73521 18.125 1.56247 18.125Z" fill="white"/>
<path d="M30.9375 18.125C30.7648 18.125 30.625 17.9853 30.625 17.8125C30.625 16.3611 31.9934 15.6842 32.052 15.6561C32.207 15.581 32.3932 15.6463 32.4683 15.8008C32.5434 15.9558 32.4787 16.1426 32.3242 16.2183C32.2803 16.2403 31.25 16.7578 31.25 17.8125C31.25 17.9853 31.1102 18.125 30.9375 18.125Z" fill="white"/>
<path d="M32.1875 16.25C32.1417 16.25 32.0953 16.2402 32.052 16.2189C31.9934 16.1908 30.625 15.514 30.625 14.0626C30.625 13.8898 30.7648 13.7501 30.9375 13.7501C31.1102 13.7501 31.25 13.8898 31.25 14.0626C31.25 15.1258 32.3127 15.6507 32.323 15.6562C32.4786 15.7312 32.5439 15.918 32.4688 16.073C32.4152 16.1847 32.3034 16.25 32.1875 16.25Z" fill="white"/>
<path d="M29.6882 16.25C29.5722 16.25 29.4612 16.1853 29.4068 16.0742C29.3317 15.9192 29.3964 15.7324 29.5508 15.6567C29.5948 15.6348 30.625 15.1172 30.625 14.0625C30.625 13.8898 30.7647 13.75 30.9375 13.75C31.1102 13.75 31.25 13.8898 31.25 14.0625C31.25 15.5139 29.8816 16.1908 29.823 16.2188C29.7798 16.2402 29.7333 16.25 29.6882 16.25Z" fill="white"/>
<path d="M30.9374 18.125C30.7647 18.125 30.6249 17.9852 30.6249 17.8125C30.6249 16.7493 29.5623 16.2244 29.552 16.2189C29.3964 16.1438 29.3311 15.957 29.4061 15.802C29.4812 15.6458 29.6704 15.5805 29.823 15.6562C29.8816 15.6842 31.25 16.3611 31.25 17.8126C31.2499 17.9852 31.1101 18.125 30.9374 18.125Z" fill="white"/>
<path d="M15.625 25.26C15.4523 25.26 15.3125 25.1202 15.3125 24.9475C15.3125 23.4961 16.6809 22.8192 16.7395 22.7911C16.8952 22.7154 17.0801 22.782 17.1558 22.9358C17.2309 23.0908 17.1662 23.2776 17.0117 23.3533C16.9678 23.3752 15.9375 23.8928 15.9375 24.9475C15.9375 25.1202 15.7977 25.26 15.625 25.26Z" fill="white"/>
<path d="M16.875 23.385C16.8292 23.385 16.7828 23.3752 16.7395 23.3539C16.6809 23.3259 15.3125 22.649 15.3125 21.1975C15.3125 21.0248 15.4523 20.885 15.625 20.885C15.7977 20.885 15.9375 21.0248 15.9375 21.1975C15.9375 22.2607 17.0002 22.7856 17.0105 22.7911C17.1661 22.8662 17.2314 23.053 17.1563 23.208C17.1027 23.3197 16.9909 23.385 16.875 23.385Z" fill="white"/>
<path d="M14.3756 23.385C14.2597 23.385 14.1486 23.3203 14.0943 23.2092C14.0192 23.0542 14.0839 22.8674 14.2383 22.7917C14.2822 22.7698 15.3125 22.2522 15.3125 21.1975C15.3125 21.0248 15.4523 20.885 15.625 20.885C15.7977 20.885 15.9375 21.0248 15.9375 21.1975C15.9375 22.6489 14.569 23.3258 14.5105 23.3539C14.4672 23.3752 14.4208 23.385 14.3756 23.385Z" fill="white"/>
<path d="M15.625 25.26C15.4522 25.26 15.3125 25.1202 15.3125 24.9475C15.3125 23.8843 14.2498 23.3594 14.2395 23.3539C14.0839 23.2788 14.0186 23.092 14.0936 22.937C14.1686 22.7814 14.3573 22.7155 14.5104 22.7912C14.569 22.8192 15.9375 23.4961 15.9375 24.9476C15.9375 25.1202 15.7977 25.26 15.625 25.26Z" fill="white"/>
<path d="M14.8352 6.81402C14.7851 6.81402 14.7358 6.80246 14.69 6.778L14.0625 6.44839L13.4351 6.778C13.3301 6.83417 13.2025 6.82441 13.1061 6.75417C13.0097 6.68457 12.9614 6.56558 12.9815 6.44839L13.1018 5.75011L12.5946 5.25574C12.5091 5.17277 12.4786 5.04824 12.5152 4.93527C12.5518 4.8223 12.6495 4.73933 12.7673 4.72222L13.4686 4.62027L13.7824 3.98488C13.8874 3.77246 14.2377 3.77246 14.3426 3.98488L14.6564 4.62027L15.3577 4.72222C15.4755 4.73933 15.5732 4.8223 15.6098 4.93527C15.6465 5.04824 15.6159 5.17269 15.5304 5.25574L15.0233 5.75011L15.1435 6.44839C15.1636 6.56558 15.1154 6.68457 15.019 6.75417C14.9646 6.79386 14.8999 6.81402 14.8352 6.81402ZM14.0625 5.78253C14.1125 5.78253 14.1626 5.79472 14.2077 5.81855L14.4201 5.93027L14.3793 5.6941C14.3622 5.59214 14.3958 5.48902 14.4696 5.41699L14.6411 5.24972L14.4036 5.2155C14.3023 5.20027 14.2138 5.13675 14.1686 5.04457L14.0625 4.8291L13.9563 5.04457C13.9111 5.13675 13.8226 5.20019 13.7213 5.2155L13.4839 5.24972L13.6554 5.41699C13.7292 5.48902 13.7628 5.59214 13.7457 5.6941L13.7048 5.93027L13.9172 5.81855C13.9624 5.79472 14.0125 5.78253 14.0625 5.78253Z" fill="white"/>
<path d="M32.3351 39.3139C32.2851 39.3139 32.2357 39.3023 32.1899 39.2779L31.5625 38.9483L30.9362 39.2779C30.8312 39.3334 30.7031 39.3249 30.6066 39.254C30.5108 39.1844 30.462 39.0661 30.4822 38.9489L30.6017 38.2501L30.0946 37.7557C30.0091 37.6727 29.9786 37.5482 30.0152 37.4352C30.0519 37.3217 30.1501 37.2393 30.2679 37.2222L30.9691 37.1208L31.2822 36.4854C31.3347 36.3786 31.4433 36.3109 31.5624 36.3109C31.6814 36.3109 31.7901 36.3786 31.8426 36.4849L32.1569 37.1209L32.8569 37.2222C32.9747 37.2394 33.073 37.3217 33.1096 37.4353C33.1462 37.5482 33.1157 37.6727 33.0302 37.7558L32.523 38.2501L32.6433 38.9484C32.6634 39.0656 32.6152 39.1846 32.5187 39.2542C32.4645 39.2937 32.3998 39.3139 32.3351 39.3139ZM31.5624 38.2824C31.6125 38.2824 31.6625 38.2946 31.7076 38.3184L31.9201 38.4301L31.8792 38.194C31.8621 38.092 31.8957 37.9889 31.9695 37.9169L32.1404 37.7502L31.9048 37.716C31.8029 37.7013 31.715 37.6372 31.6692 37.5451L31.563 37.3296L31.4569 37.5444C31.4117 37.6372 31.3232 37.7013 31.2212 37.7159L30.9844 37.7501L31.1554 37.9168C31.2292 37.9888 31.2628 38.0919 31.2457 38.1933L31.2048 38.4301L31.4166 38.3183C31.4623 38.2946 31.5123 38.2824 31.5624 38.2824Z" fill="white"/>
<path d="M39.0623 30.6249C38.8895 30.6249 38.7498 30.4851 38.7498 30.3124V27.8124C38.7498 27.6396 38.8895 27.4999 39.0623 27.4999C39.235 27.4999 39.3748 27.6396 39.3748 27.8124V30.3124C39.3748 30.4851 39.235 30.6249 39.0623 30.6249Z" fill="white"/>
<path d="M39.6873 29.3749H38.4373C38.2645 29.3749 38.1248 29.2351 38.1248 29.0624C38.1248 28.8896 38.2645 28.7499 38.4373 28.7499H39.6873C39.86 28.7499 39.9998 28.8896 39.9998 29.0624C39.9998 29.2351 39.86 29.3749 39.6873 29.3749Z" fill="white"/>
<path d="M2.8125 38.1249C2.63977 38.1249 2.5 37.9851 2.5 37.8124V35.3124C2.5 35.1396 2.63977 34.9999 2.8125 34.9999C2.98523 34.9999 3.125 35.1396 3.125 35.3124V37.8124C3.125 37.9851 2.98523 38.1249 2.8125 38.1249Z" fill="white"/>
<path d="M3.4375 36.8749H2.1875C2.01477 36.8749 1.875 36.7351 1.875 36.5624C1.875 36.3896 2.01477 36.2499 2.1875 36.2499H3.4375C3.61023 36.2499 3.75 36.3896 3.75 36.5624C3.75 36.7351 3.61023 36.8749 3.4375 36.8749Z" fill="white"/>
<path d="M30.3125 9.37506C30.1398 9.37506 30 9.2353 30 9.06256V6.56256C30 6.38983 30.1398 6.25006 30.3125 6.25006C30.4852 6.25006 30.6249 6.38983 30.6249 6.56256V9.06256C30.6249 9.2353 30.4852 9.37506 30.3125 9.37506Z" fill="white"/>
<path d="M30.9374 8.12506H29.6875C29.5148 8.12506 29.375 7.9853 29.375 7.81256C29.375 7.63983 29.5148 7.50006 29.6875 7.50006H30.9374C31.1102 7.50006 31.2499 7.63983 31.2499 7.81256C31.2499 7.9853 31.1102 8.12506 30.9374 8.12506Z" fill="white"/>
</g>
<defs>
<clipPath id="clip0_353_2047">
<rect width="40" height="40" fill="white"/>
</clipPath>
</defs>
</svg>
