<svg width="40" height="40" viewBox="0 0 40 40" fill="none" xmlns="http://www.w3.org/2000/svg">
<path d="M26.75 8.25C26.6478 8.24988 26.5473 8.22477 26.457 8.17686C26.3668 8.12895 26.2897 8.05969 26.2324 7.97513C26.175 7.89057 26.1393 7.79327 26.1282 7.69172C26.1171 7.59016 26.131 7.48744 26.1687 7.3925L28.1687 2.3925C28.2152 2.27664 28.2952 2.17734 28.3986 2.10738C28.502 2.03743 28.6239 2.00003 28.7487 2H31.8737C32.0395 2 32.1985 2.06585 32.3157 2.18306C32.4329 2.30027 32.4987 2.45924 32.4987 2.625C32.4987 2.79076 32.4329 2.94973 32.3157 3.06694C32.1985 3.18415 32.0395 3.25 31.8737 3.25H29.1712L27.3288 7.8575C27.283 7.97356 27.2032 8.0731 27.1 8.14313C26.9967 8.21316 26.8748 8.2504 26.75 8.25Z" fill="white"/>
<path d="M20 25.75C17.9325 25.75 16.25 24.0675 16.25 22V15.8463L9.685 13.7725C9.05003 13.5747 8.49519 13.1785 8.10193 12.6422C7.70867 12.1059 7.4977 11.4576 7.5 10.7925V7.625C7.5 7.45924 7.56585 7.30027 7.68306 7.18306C7.80027 7.06585 7.95924 7 8.125 7H31.875C32.0408 7 32.1997 7.06585 32.3169 7.18306C32.4342 7.30027 32.5 7.45924 32.5 7.625V10.7925C32.502 11.4573 32.291 12.1053 31.8981 12.6415C31.5051 13.1778 30.9508 13.5741 30.3163 13.7725L23.75 15.8463V22C23.75 24.0675 22.0675 25.75 20 25.75ZM8.75 8.25V10.7925C8.75 11.615 9.27625 12.3325 10.06 12.5813L17.0625 14.7925C17.1894 14.8324 17.3002 14.9117 17.3789 15.019C17.4576 15.1262 17.5 15.2557 17.5 15.3888V22.0012C17.5 23.38 18.6213 24.5012 20 24.5012C21.3787 24.5012 22.5 23.38 22.5 22.0012V15.3888C22.5 15.1163 22.6775 14.875 22.9375 14.7925L29.9412 12.5813C30.3217 12.4618 30.654 12.2237 30.8894 11.9018C31.1249 11.58 31.2513 11.1913 31.25 10.7925V8.25H8.75Z" fill="white"/>
<path d="M20 34.5C19.8342 34.5 19.6753 34.4342 19.5581 34.3169C19.4408 34.1997 19.375 34.0408 19.375 33.875V25.125C19.375 24.9592 19.4408 24.8003 19.5581 24.6831C19.6753 24.5658 19.8342 24.5 20 24.5C20.1658 24.5 20.3247 24.5658 20.4419 24.6831C20.5592 24.8003 20.625 24.9592 20.625 25.125V33.875C20.625 34.0408 20.5592 34.1997 20.4419 34.3169C20.3247 34.4342 20.1658 34.5 20 34.5Z" fill="white"/>
<path d="M28.125 37.02H11.875C11.7253 37.0201 11.5805 36.9664 11.467 36.8688C11.3535 36.7711 11.2788 36.636 11.2565 36.4879C11.2343 36.3398 11.2659 36.1887 11.3457 36.062C11.4255 35.9353 11.5481 35.8414 11.6912 35.7975L19.8162 33.2975C19.9361 33.2613 20.0639 33.2613 20.1838 33.2975L28.3088 35.7975C28.4519 35.8414 28.5745 35.9353 28.6543 36.062C28.7341 36.1887 28.7657 36.3398 28.7435 36.4879C28.7212 36.636 28.6465 36.7711 28.533 36.8688C28.4195 36.9664 28.2747 37.0201 28.125 37.02ZM16.0312 35.77H23.9688L20 34.5487L16.0312 35.77ZM8.125 13.25C5.02375 13.25 2.5 10.7262 2.5 7.625C2.5 4.52375 5.02375 2 8.125 2C9.61023 2.00325 11.0342 2.59247 12.0874 3.63964C13.1407 4.68681 13.7381 6.10732 13.75 7.5925C13.7505 7.67458 13.7348 7.75595 13.7039 7.83196C13.6729 7.90798 13.6273 7.97716 13.5696 8.03554C13.5119 8.09393 13.4433 8.14038 13.3676 8.17224C13.292 8.20411 13.2108 8.22076 13.1287 8.22125H13.125C12.9599 8.22125 12.8015 8.15592 12.6844 8.03952C12.5673 7.92312 12.501 7.76511 12.5 7.6C12.4905 6.44505 12.0256 5.3405 11.2065 4.52626C10.3873 3.71202 9.27999 3.25384 8.125 3.25125C5.7125 3.25125 3.75 5.21375 3.75 7.62625C3.75091 8.25521 3.88728 8.8766 4.14981 9.44814C4.41235 10.0197 4.7949 10.528 5.27144 10.9385C5.74799 11.349 6.30735 11.652 6.91148 11.827C7.51561 12.0019 8.15034 12.0448 8.7725 11.9525C8.85367 11.9396 8.9366 11.9429 9.01647 11.9623C9.09634 11.9817 9.17155 12.0168 9.23774 12.0655C9.30392 12.1143 9.35975 12.1757 9.40199 12.2462C9.44422 12.3167 9.47201 12.3949 9.48375 12.4762C9.49617 12.5574 9.49247 12.6401 9.47286 12.7198C9.45325 12.7995 9.41811 12.8745 9.36946 12.9405C9.3208 13.0066 9.25959 13.0624 9.18933 13.1048C9.11907 13.1472 9.04114 13.1753 8.96 13.1875C8.68375 13.23 8.405 13.25 8.125 13.25Z" fill="white"/>
<path d="M8.125 8.25C7.95924 8.25 7.80027 8.18415 7.68306 8.06694C7.56585 7.94973 7.5 7.79076 7.5 7.625L7.5 5.125C7.5 4.95924 7.56585 4.80027 7.68306 4.68306C7.80027 4.56585 7.95924 4.5 8.125 4.5C8.29076 4.5 8.44973 4.56585 8.56694 4.68306C8.68415 4.80027 8.75 4.95924 8.75 5.125V7.625C8.75 7.79076 8.68415 7.94973 8.56694 8.06694C8.44973 8.18415 8.29076 8.25 8.125 8.25Z" fill="white"/>
<path d="M8.125 8.25H5.625C5.45924 8.25 5.30027 8.18415 5.18306 8.06694C5.06585 7.94973 5 7.79076 5 7.625C5 7.45924 5.06585 7.30027 5.18306 7.18306C5.30027 7.06585 5.45924 7 5.625 7H8.125C8.29076 7 8.44973 7.06585 8.56694 7.18306C8.68415 7.30027 8.75 7.45924 8.75 7.625C8.75 7.79076 8.68415 7.94973 8.56694 8.06694C8.44973 8.18415 8.29076 8.25 8.125 8.25Z" fill="white"/>
<path d="M8.125 8.25C8.00148 8.24997 7.88074 8.21335 7.77802 8.14475C7.6753 8.07615 7.59522 7.97865 7.54787 7.86457C7.50052 7.75048 7.48804 7.62493 7.51201 7.50376C7.53597 7.38258 7.59585 7.27054 7.68306 7.18306L9.45 5.41625C9.56788 5.3024 9.72575 5.2394 9.88963 5.24083C10.0535 5.24225 10.2103 5.30798 10.3261 5.42386C10.442 5.53974 10.5077 5.6965 10.5092 5.86037C10.5106 6.02425 10.4476 6.18212 10.3338 6.3L8.56694 8.06694C8.44973 8.18415 8.29076 8.25 8.125 8.25Z" fill="white"/>
<path d="M8.125 8.25C7.95924 8.25 7.80027 8.18415 7.68306 8.06694L5.915 6.3C5.80115 6.18212 5.73815 6.02425 5.73958 5.86037C5.741 5.6965 5.80673 5.53974 5.92261 5.42386C6.03849 5.30798 6.19525 5.24225 6.35912 5.24083C6.523 5.2394 6.68087 5.3024 6.79875 5.41625L8.56694 7.18306C8.65407 7.27046 8.71268 7.38239 8.73668 7.50345C8.76069 7.62451 8.74831 7.74996 8.70112 7.86399C8.65393 7.97802 8.57403 8.07554 8.47151 8.14423C8.36898 8.21292 8.24841 8.24973 8.125 8.25Z" fill="white"/>
<path d="M6.3575 10.0175C6.23398 10.0175 6.11324 9.98085 6.01052 9.91225C5.9078 9.84365 5.82772 9.74615 5.78037 9.63207C5.73302 9.51798 5.72054 9.39243 5.74451 9.27126C5.76847 9.15008 5.8278 9.03873 5.915 8.95125L7.68306 7.18306C7.80093 7.06921 7.95825 7.0069 8.12213 7.00833C8.286 7.00975 8.44276 7.07548 8.55864 7.19136C8.67452 7.30724 8.74025 7.464 8.74167 7.62787C8.74309 7.79175 8.68079 7.94907 8.56694 8.06694L6.79875 9.835C6.74083 9.89296 6.67204 9.93892 6.59632 9.97024C6.5206 10.0016 6.43944 10.0176 6.3575 10.0175ZM31.2963 12.4175H8.79625C8.63049 12.4175 8.47152 12.3517 8.35431 12.2344C8.2371 12.1172 8.17125 11.9583 8.17125 11.7925C8.17125 11.6267 8.2371 11.4678 8.35431 11.3506C8.47152 11.2333 8.63049 11.1675 8.79625 11.1675H31.2963C31.462 11.1675 31.621 11.2333 31.7382 11.3506C31.8554 11.4678 31.9213 11.6267 31.9213 11.7925C31.9213 11.9583 31.8554 12.1172 31.7382 12.2344C31.621 12.3517 31.462 12.4175 31.2963 12.4175Z" fill="white"/>
<path d="M18.6 18.6675C18.9452 18.6675 19.225 18.3877 19.225 18.0425C19.225 17.6973 18.9452 17.4175 18.6 17.4175C18.2548 17.4175 17.975 17.6973 17.975 18.0425C17.975 18.3877 18.2548 18.6675 18.6 18.6675Z" fill="white"/>
<path d="M21.1 21.1675C21.4452 21.1675 21.725 20.8877 21.725 20.5425C21.725 20.1973 21.4452 19.9175 21.1 19.9175C20.7548 19.9175 20.475 20.1973 20.475 20.5425C20.475 20.8877 20.7548 21.1675 21.1 21.1675Z" fill="white"/>
<path d="M19.225 23.0425C19.5702 23.0425 19.85 22.7627 19.85 22.4175C19.85 22.0723 19.5702 21.7925 19.225 21.7925C18.8798 21.7925 18.6 22.0723 18.6 22.4175C18.6 22.7627 18.8798 23.0425 19.225 23.0425Z" fill="white"/>
<path d="M21.1 16.1675C21.4452 16.1675 21.725 15.8877 21.725 15.5425C21.725 15.1973 21.4452 14.9175 21.1 14.9175C20.7548 14.9175 20.475 15.1973 20.475 15.5425C20.475 15.8877 20.7548 16.1675 21.1 16.1675Z" fill="white"/>
<path d="M17.975 14.2925C18.3202 14.2925 18.6 14.0127 18.6 13.6675C18.6 13.3223 18.3202 13.0425 17.975 13.0425C17.6298 13.0425 17.35 13.3223 17.35 13.6675C17.35 14.0127 17.6298 14.2925 17.975 14.2925Z" fill="white"/>
</svg>
