<svg width="40" height="40" viewBox="0 0 40 40" fill="none" xmlns="http://www.w3.org/2000/svg">
<path fillRule="evenodd" clipRule="evenodd" d="M35.5999 4.41667C35.5999 4.41667 34.5666 3.34167 32.5083 3.34167C31.9666 3.34167 31.3416 3.60834 30.6999 3.99167C30.0499 4.38334 29.3583 4.91667 28.6499 5.01667C27.6749 5.15001 26.0499 4.94167 24.3249 4.90834C22.3916 4.86667 20.3499 5.05001 18.7666 5.95834C17.6416 6.60001 16.5999 6.81667 15.5833 7.06667C14.3999 7.35001 13.2499 7.66667 12.0416 8.50001C9.74993 10.075 4.79993 14.625 4.18326 21.6167C4.07493 22.8583 4.3166 24.4167 4.58326 25.875C4.8166 27.1667 5.08326 28.3667 5.0166 29.1167C5.00826 29.225 4.88326 29.275 4.7916 29.3583C4.62493 29.5083 4.42493 29.6417 4.24993 29.7833C3.74993 30.1833 3.3916 30.6583 3.34993 31.2C3.22493 32.725 3.92493 33.8667 4.8416 34.775C5.7166 35.65 7.29993 36.675 8.7666 36.675C9.3416 36.675 9.83326 36.325 10.2583 35.8C10.3999 35.6167 10.5416 35.4167 10.6916 35.2417C10.7416 35.1833 10.7833 35.1333 10.8333 35.0833C10.8666 35.0583 10.8833 35.0167 10.9249 35.0083C12.5083 34.875 16.0083 35.8417 18.3499 35.8417C25.3749 35.8417 29.9499 30.2833 31.5333 27.9833C32.3666 26.775 32.6833 25.625 32.9666 24.4417C33.2083 23.425 33.4333 22.3833 34.0749 21.2583C34.9833 19.675 35.1583 17.6333 35.1249 15.7C35.0916 13.975 34.8749 12.3583 35.0166 11.375C35.1166 10.6667 35.6499 9.97501 36.0416 9.32501C36.4249 8.68334 36.6916 8.05834 36.6916 7.51667C36.6916 5.45834 35.6249 4.44167 35.6166 4.42501L35.5999 4.41667ZM8.70826 34.9917C7.68326 34.9667 6.62493 34.1917 6.0166 33.5833C5.4416 33.0083 4.93326 32.3083 5.00826 31.35C5.03326 31.325 5.1416 31.1917 5.22493 31.1333C5.39993 30.9833 5.59993 30.85 5.77493 30.7C6.2666 30.3 6.62493 29.8167 6.67493 29.25C6.73326 28.5583 6.58326 27.525 6.37493 26.375C6.09993 24.8583 5.72493 23.1 5.8416 21.75C6.39993 15.4083 10.8999 11.2917 12.9833 9.86667C13.9999 9.16667 14.9749 8.92501 15.9749 8.68334C17.1333 8.40001 18.3166 8.13334 19.5916 7.40834C20.9249 6.65001 22.6666 6.55001 24.2916 6.58334C26.1249 6.61667 27.8416 6.82501 28.8749 6.68334C29.6583 6.57501 30.4499 6.11667 31.1916 5.66667C31.4833 5.48334 31.7666 5.30834 32.0333 5.18334C32.1999 5.10001 32.3583 5.03334 32.5083 5.03334C33.7749 5.03334 34.4166 5.62501 34.4166 5.62501C34.4166 5.62501 35.0083 6.26667 35.0083 7.53334C35.0083 7.68334 34.9416 7.84167 34.8583 8.00834C34.7249 8.27501 34.5499 8.55834 34.3749 8.85001C33.9166 9.58334 33.4666 10.375 33.3583 11.1583C33.2166 12.1917 33.4166 13.9083 33.4583 15.7417C33.4916 17.3667 33.3916 19.1083 32.6333 20.4417C31.8999 21.7167 31.6333 22.9 31.3583 24.0583C31.1166 25.05 30.8749 26.0333 30.1749 27.05C28.7499 29.1167 24.6749 34.1833 18.3583 34.1833C15.9666 34.1833 12.3999 33.2167 10.7833 33.35C10.2083 33.4 9.73326 33.775 9.32493 34.2833C9.18326 34.4667 9.0416 34.6667 8.89993 34.8333C8.84993 34.8917 8.75826 34.975 8.72493 35.0083L8.70826 34.9917ZM30.5999 9.40001C29.5833 8.39167 28.3833 8.10001 27.2666 8.10001C26.3249 8.10001 25.4666 8.30834 24.9499 8.34167C22.9583 8.48334 20.5416 9.39167 18.1333 10.0333C16.1416 10.5583 13.9416 10.9583 12.3916 12.2917C10.8583 13.6083 9.65826 16.3583 8.85826 17.9667C8.2166 19.25 7.57493 20.625 7.5166 22.0583C7.47493 23.275 7.48326 25.3667 7.87493 27.2167C8.15826 28.575 8.6666 29.8083 9.42493 30.575C10.1916 31.3417 11.4249 31.8417 12.7916 32.125C14.6499 32.5167 16.7499 32.525 17.9583 32.4833C19.3916 32.4333 20.7666 31.7917 22.0499 31.15C23.6583 30.35 26.4083 29.15 27.7249 27.6167C29.0499 26.0667 29.4499 23.8583 29.9833 21.875C30.6249 19.4583 31.5333 17.0417 31.6749 15.05C31.7083 14.5333 31.9249 13.675 31.9083 12.7333C31.8999 11.625 31.6083 10.4167 30.5999 9.40834V9.40001ZM29.4166 10.575C30.2166 11.375 30.2833 12.375 30.2249 13.2083C30.1749 13.9083 30.0333 14.5167 30.0083 14.925C29.8749 16.825 28.9749 19.1333 28.3666 21.4417C27.8999 23.1917 27.6249 25.1667 26.4583 26.525C25.2749 27.9083 22.7499 28.9333 21.2999 29.6583C20.2249 30.1917 19.0916 30.775 17.8916 30.8167C16.7749 30.8583 14.8333 30.85 13.1249 30.4917C12.1083 30.2833 11.1666 29.9583 10.5999 29.3917C10.0333 28.825 9.70826 27.8833 9.49993 26.8667C9.1416 25.1583 9.1416 23.225 9.17493 22.1083C9.2166 20.9083 9.79993 19.775 10.3333 18.7C11.0583 17.25 12.0833 14.725 13.4666 13.5417C14.8333 12.3667 16.7999 12.0917 18.5583 11.6333C20.8666 11.025 23.1666 10.125 25.0749 9.99167C25.4749 9.95834 26.0916 9.81667 26.7916 9.76667C27.6249 9.70001 28.6249 9.76667 29.4249 10.5667L29.4166 10.575ZM14.1749 28.3333C14.6333 28.3333 15.0083 28.7083 15.0083 29.1667C15.0083 29.625 14.6333 30 14.1749 30C13.7166 30 13.3416 29.625 13.3416 29.1667C13.3416 28.7083 13.7166 28.3333 14.1749 28.3333ZM18.3416 14.1667C17.8583 14.1667 17.4666 13.975 17.0583 13.8833C16.1666 13.6833 15.1749 13.6583 13.5833 15.25C12.2666 16.575 12.2249 17.8083 12.5333 19.0167C12.7666 19.925 13.2749 20.8083 13.3416 21.7333C13.3583 21.9833 13.2583 22.1917 13.1583 22.4083C13.0499 22.6333 12.9166 22.8583 12.8083 23.0833C12.5749 23.5583 12.4249 24.05 12.4833 24.6083C12.5583 25.3333 13.0166 26.2333 14.4999 27.35C15.8333 28.35 19.3499 29.3417 22.2583 26.4417C22.2749 26.425 22.2916 26.4417 22.3083 26.4417C22.3833 26.4417 22.4499 26.4583 22.5333 26.4667C22.6999 26.5 22.8749 26.5417 23.0499 26.5667C23.8999 26.7167 24.8166 26.7083 25.6833 25.4917C26.3999 24.4833 26.4583 23.4417 26.4166 22.4083C26.3916 21.7 26.2666 21 26.5833 20.375C27.0916 19.35 27.3166 18.325 27.0666 17.3C26.8166 16.3167 26.1166 15.2917 24.6333 14.3083C22.2333 12.7083 20.9083 13.0917 19.7999 13.6083C19.2999 13.8417 18.8833 14.175 18.3333 14.175L18.3416 14.1667ZM10.8416 25.8333C11.2999 25.8333 11.6749 26.2083 11.6749 26.6667C11.6749 27.125 11.2999 27.5 10.8416 27.5C10.3833 27.5 10.0083 27.125 10.0083 26.6667C10.0083 26.2083 10.3833 25.8333 10.8416 25.8333ZM18.3416 15.8333C18.9749 15.8333 19.5249 15.6083 20.0833 15.325C20.4999 15.1167 20.9249 14.8667 21.4833 14.85C22.0583 14.8333 22.7499 15.0583 23.7166 15.7C24.7333 16.3833 25.2833 17.025 25.4499 17.7083C25.6083 18.35 25.4166 18.9917 25.0999 19.6333C24.7333 20.3583 24.7083 21.15 24.7416 21.9667C24.7749 22.8 24.9249 23.6917 24.3333 24.5167C24.0166 24.9583 23.6833 24.975 23.3749 24.925C23.1166 24.8833 22.8749 24.8167 22.6416 24.7917C22.0583 24.7167 21.5333 24.8 21.0916 25.25C18.9999 27.3417 16.4749 26.725 15.5166 26.0083C14.6249 25.3333 14.2166 24.8833 14.1583 24.4417C14.0999 24.05 14.3499 23.75 14.5249 23.4167C14.8166 22.8667 15.0666 22.2833 15.0166 21.6167C14.9583 20.7667 14.5999 19.9417 14.3166 19.1167C14.0249 18.2583 13.8333 17.3833 14.7749 16.4333C15.3416 15.8583 15.7666 15.5833 16.1333 15.5C16.4583 15.425 16.7249 15.5167 16.9999 15.6C17.4166 15.725 17.8499 15.85 18.3499 15.85L18.3416 15.8333ZM19.5916 16.6667C17.5249 16.6667 15.8416 18.35 15.8416 20.4167C15.8416 22.4833 17.5249 24.1667 19.5916 24.1667C21.6583 24.1667 23.3416 22.4833 23.3416 20.4167C23.3416 18.35 21.6583 16.6667 19.5916 16.6667ZM19.5916 18.3333C20.7416 18.3333 21.6749 19.2667 21.6749 20.4167C21.6749 21.5667 20.7416 22.5 19.5916 22.5C18.4416 22.5 17.5083 21.5667 17.5083 20.4167C17.5083 19.2667 18.4416 18.3333 19.5916 18.3333ZM11.6749 20C12.1333 20 12.5083 20.375 12.5083 20.8333C12.5083 21.2917 12.1333 21.6667 11.6749 21.6667C11.2166 21.6667 10.8416 21.2917 10.8416 20.8333C10.8416 20.375 11.2166 20 11.6749 20ZM27.9249 14.1667C28.3833 14.1667 28.7583 14.5417 28.7583 15C28.7583 15.4583 28.3833 15.8333 27.9249 15.8333C27.4666 15.8333 27.0916 15.4583 27.0916 15C27.0916 14.5417 27.4666 14.1667 27.9249 14.1667ZM28.3416 11.6667C28.7999 11.6667 29.1749 12.0417 29.1749 12.5C29.1749 12.9583 28.7999 13.3333 28.3416 13.3333C27.8833 13.3333 27.5083 12.9583 27.5083 12.5C27.5083 12.0417 27.8833 11.6667 28.3416 11.6667ZM24.1749 10.8333C24.6333 10.8333 25.0083 11.2083 25.0083 11.6667C25.0083 12.125 24.6333 12.5 24.1749 12.5C23.7166 12.5 23.3416 12.125 23.3416 11.6667C23.3416 11.2083 23.7166 10.8333 24.1749 10.8333Z" fill="white"/>
</svg>
