<svg width="40" height="40" viewBox="0 0 40 40" fill="none" xmlns="http://www.w3.org/2000/svg">
<g clip-path="url(#clip0_850_954)">
<path d="M35.2 20.6452L37.1 22.5806L39 20.6452L20 0L1 20.6452L2.9 22.5806L4.8 20.6452M35.2 20.6452V40H4.8V20.6452M35.2 20.6452L20 3.87097L4.8 20.6452M35.2 20.6452H4.8M17.4667 17.4194H22.5333M23.8 17.4194H25.0667M14.9333 17.4194H16.2M25.0667 23.871H32.6667M29.5 33.5484H30.7667M14.9333 23.871V36.7742M7.33333 30.3226H22.5333M26.9667 7.74194V3.22581H33.3V14.1935M28.8667 5.16129H30.1333M31.4 6.45161H32.6667M30.1333 8.3871H31.4M22.5333 12.2581C22.5333 13.6833 21.3991 14.8387 20 14.8387C18.6009 14.8387 17.4667 13.6833 17.4667 12.2581C17.4667 10.8328 18.6009 9.67742 20 9.67742C21.3991 9.67742 22.5333 10.8328 22.5333 12.2581ZM7.33333 23.871H22.5333V36.7742H7.33333V23.871ZM25.0667 27.0968H32.6667V40H25.0667V27.0968ZM25.7 1.29032H34.5667V3.22581H25.7V1.29032Z" stroke="white" stroke-width="1.29032" stroke-miterlimit="10" stroke-linejoin="round"/>
</g>
<defs>
<clipPath id="clip0_850_954">
<rect width="40" height="40" fill="white"/>
</clipPath>
</defs>
</svg>
