<svg width="16" height="17" viewBox="0 0 16 17" fill="none" xmlns="http://www.w3.org/2000/svg">
<path fillRule="evenodd" clipRule="evenodd" d="M7.99967 1.8335H8.02167C11.1463 1.8455 13.6783 4.39483 13.6663 7.51483V7.57683C13.6243 9.80683 12.2837 11.6568 11.1663 12.8168C10.849 13.1482 10.5103 13.4662 10.1617 13.7635C10.061 13.8456 9.93215 13.8851 9.80273 13.8735C9.67331 13.8619 9.55358 13.8 9.46916 13.7012C9.38474 13.6025 9.34234 13.4745 9.35104 13.3449C9.35973 13.2152 9.41882 13.0941 9.51567 13.0075C9.83901 12.7322 10.153 12.4362 10.449 12.1275C11.4423 11.0968 12.635 9.46616 12.671 7.55883C12.681 4.93883 10.5943 2.8375 8.01767 2.82683H7.99967C5.43234 2.82683 3.33834 4.90816 3.32834 7.4735C3.3699 8.73541 3.80328 9.95309 4.56834 10.9575C5.46367 12.1502 6.82234 13.4128 8.11367 14.2535C8.20463 14.3113 8.27425 14.3972 8.31197 14.4982C8.34969 14.5991 8.35346 14.7096 8.3227 14.8129C8.29194 14.9162 8.22833 15.0066 8.14152 15.0705C8.05471 15.1344 7.94944 15.1682 7.84167 15.1668C7.74529 15.167 7.65096 15.139 7.57034 15.0862C6.18767 14.1862 4.73301 12.8335 3.77301 11.5562C2.88491 10.389 2.38168 8.97463 2.33301 7.50883C2.34501 4.3575 4.88501 1.8335 7.99967 1.8335ZM6.83634 7.57616C6.83634 8.2155 7.35767 8.73616 7.99767 8.73616C8.63767 8.73616 9.15901 8.2155 9.15901 7.57616C9.15901 6.93616 8.63834 6.41616 7.99767 6.41616C7.93029 6.41966 7.86289 6.4094 7.79959 6.38602C7.7363 6.36263 7.67842 6.32661 7.62949 6.28015C7.58055 6.23369 7.54159 6.17775 7.51496 6.11575C7.48833 6.05375 7.4746 5.98697 7.4746 5.9195C7.4746 5.85202 7.48833 5.78525 7.51496 5.72324C7.54159 5.66124 7.58055 5.6053 7.62949 5.55884C7.67842 5.51238 7.7363 5.47636 7.79959 5.45298C7.86289 5.42959 7.93029 5.41934 7.99767 5.42283C8.56903 5.423 9.11698 5.64982 9.5213 6.05352C9.92562 6.45721 10.1533 7.00481 10.1543 7.57616C10.1533 8.14751 9.92562 8.69511 9.5213 9.09881C9.11698 9.5025 8.56903 9.72932 7.99767 9.7295C7.42632 9.72932 6.87837 9.5025 6.47405 9.09881C6.06973 8.69511 5.84207 8.14751 5.84101 7.57616C5.84101 7.44417 5.89344 7.31759 5.98677 7.22426C6.0801 7.13093 6.20668 7.0785 6.33867 7.0785C6.47066 7.0785 6.59725 7.13093 6.69058 7.22426C6.78391 7.31759 6.83634 7.44417 6.83634 7.57616Z" fill="white"/>
</svg>
