<svg width="40" height="40" viewBox="0 0 40 40" fill="none" xmlns="http://www.w3.org/2000/svg">
<g clip-path="url(#clip0_353_2069)">
<path fillRule="evenodd" clipRule="evenodd" d="M31.5287 0.298333C31.5253 0.299583 31.5224 0.301249 31.5191 0.302499C30.1241 0.951666 26.5982 2.84583 25.1241 5.72042C23.9949 7.92292 23.5837 10.1737 23.8432 11.8358C24.0407 13.1025 24.627 14.0483 25.522 14.5071C26.4266 14.9712 27.4757 14.9771 28.5166 14.4562C29.8887 13.7696 31.2849 12.0996 32.1787 9.2775C33.1232 6.295 33.0653 2.625 32.9928 1.19292C32.9924 1.19042 32.9924 1.18792 32.9924 1.18542C32.9712 0.844582 32.7841 0.536249 32.4924 0.359166C32.2003 0.182499 31.8403 0.159583 31.5287 0.298333ZM31.7587 1.57292C31.8178 3.08875 31.8178 6.27625 30.987 8.9C30.3491 10.9137 29.4562 12.2712 28.4899 13.0037C27.6712 13.6246 26.8132 13.7646 26.092 13.395C25.5182 13.1004 25.2049 12.4558 25.0782 11.6429C24.8507 10.1862 25.2466 8.22125 26.2362 6.29083C27.4762 3.87333 30.3512 2.2575 31.7587 1.57292ZM8.25324 1.57292C9.65699 2.25542 12.5349 3.87167 13.7753 6.29083C14.6453 7.98792 15.0541 9.7125 14.9874 11.0983C14.9482 11.9175 14.7495 12.61 14.3449 13.0625C14.1149 13.32 14.1374 13.7154 14.3945 13.945C14.6516 14.175 15.047 14.1525 15.277 13.8954C15.8445 13.26 16.1807 12.3075 16.2362 11.1583C16.3116 9.59208 15.8707 7.63792 14.8874 5.72042C13.4137 2.84583 9.88741 0.951666 8.49241 0.302499C8.48949 0.301249 8.48616 0.299583 8.48283 0.298333C8.17116 0.159583 7.81116 0.182499 7.51908 0.359166C7.22741 0.536249 7.04074 0.844582 7.01908 1.18542C7.01908 1.18792 7.01908 1.19042 7.01866 1.19292C6.94616 2.625 6.88824 6.295 7.83283 9.2775C8.85741 12.5121 10.5482 14.2329 12.1157 14.7042C12.4462 14.8033 12.7949 14.6158 12.8945 14.2858C12.9937 13.9554 12.8062 13.6067 12.4757 13.5071C11.1703 13.1146 9.87783 11.5933 9.02449 8.9C8.19449 6.27875 8.19408 3.09542 8.25324 1.57292Z" fill="white"/>
<path fillRule="evenodd" clipRule="evenodd" d="M22.773 16.9092C26.118 13.755 28.8421 10.3221 30.2967 6.3275C30.4146 6.00333 30.2471 5.64417 29.923 5.52625C29.5988 5.40833 29.24 5.57542 29.1221 5.89959C27.7321 9.71708 25.1121 12.9854 21.915 16C21.6642 16.2363 21.6525 16.6325 21.8892 16.8833C22.1259 17.1342 22.5217 17.1458 22.773 16.9092ZM17.9238 15.8358C14.8055 12.8671 12.2542 9.64792 10.8901 5.89959C10.7717 5.57542 10.413 5.40833 10.0888 5.52625C9.76463 5.64417 9.59713 6.00333 9.71547 6.3275C11.1438 10.2513 13.7971 13.6329 17.0617 16.7413C17.3113 16.9792 17.7076 16.9692 17.9455 16.7196C18.183 16.4696 18.1734 16.0738 17.9238 15.8358ZM35.8142 26.3671V37.9054C35.8142 38.0742 35.7471 38.2358 35.6275 38.3554C35.5084 38.4746 35.3467 38.5417 35.1776 38.5417C35.08 38.5417 34.9813 38.5417 34.8838 38.5417C34.715 38.5417 34.553 38.4746 34.4338 38.3554C34.3146 38.2358 34.2475 38.0742 34.2475 37.9054V32.3471C34.2475 32.0021 33.9676 31.7221 33.6225 31.7221C33.2775 31.7221 32.9975 32.0021 32.9975 32.3471V37.9054C32.9975 38.4058 33.1963 38.8854 33.55 39.2392C33.9038 39.5929 34.3834 39.7917 34.8838 39.7917C34.9813 39.7917 35.08 39.7917 35.1776 39.7917C35.678 39.7917 36.158 39.5929 36.5117 39.2392C36.8655 38.8854 37.0642 38.4058 37.0642 37.9054V26.3671C37.0642 26.0221 36.7842 25.7421 36.4392 25.7421C36.0942 25.7421 35.8142 26.0221 35.8142 26.3671Z" fill="white"/>
<path fillRule="evenodd" clipRule="evenodd" d="M6.75497 18.6321C7.92039 18.5471 9.23039 18.3546 10.6675 17.9987C16.6208 16.5254 18.6246 17.23 19.9212 17.4071C19.9775 17.4146 20.0341 17.4146 20.0904 17.4071C21.3871 17.23 23.3912 16.5254 29.3446 17.9987C33.4479 19.0146 36.52 18.7012 38.1633 18.3633C38.18 18.36 38.1962 18.3558 38.2125 18.3512C38.2812 18.3312 38.355 18.3487 38.4075 18.3971C38.46 18.4454 38.4833 18.5175 38.4691 18.5875C38.1179 20.2671 37.3562 23.2758 36.0433 25.7825C35.2146 27.3646 34.1758 28.7542 32.8471 29.4013C31.0758 30.2642 28.7491 30.1154 26.5962 29.6629C23.24 28.9575 20.2871 27.4708 20.2871 27.4708C20.11 27.3821 19.9016 27.3821 19.7246 27.4708C19.7246 27.4708 16.7716 28.9575 13.4154 29.6629C11.2625 30.1154 8.93581 30.2642 7.16456 29.4013C5.83581 28.7542 4.79706 27.3646 3.96747 25.7825C2.65331 23.2762 1.88956 20.2688 1.53122 18.5896C1.51622 18.5158 1.54081 18.4396 1.59622 18.3887C1.65164 18.3375 1.72997 18.3187 1.80247 18.34C1.81706 18.3446 1.83206 18.3483 1.84706 18.3512C2.48247 18.4867 3.33081 18.6163 4.36914 18.6658C4.71372 18.6825 5.00664 18.4158 5.02331 18.0717C5.03956 17.7271 4.77331 17.4337 4.42872 17.4175C3.48581 17.3721 2.71289 17.2562 2.13081 17.1337C1.64164 17.0004 1.12039 17.1271 0.748724 17.47C0.370808 17.8183 0.203308 18.3392 0.307058 18.8425C0.307058 18.8438 0.307474 18.8454 0.307891 18.8467C0.682058 20.6004 1.48664 23.7429 2.86039 26.3629C3.82331 28.1996 5.07456 29.7733 6.61706 30.525C8.61706 31.4996 11.2416 31.3971 13.6725 30.8862C16.5629 30.2787 19.1679 29.1183 20.0062 28.7229C20.8437 29.1183 23.4487 30.2787 26.3391 30.8862C28.7704 31.3971 31.3946 31.4996 33.3946 30.525C34.9375 29.7733 36.1883 28.1996 37.1508 26.3625C38.5237 23.7413 39.3258 20.5975 39.6929 18.8421C39.6929 18.8413 39.6929 18.8408 39.6933 18.8404C39.7962 18.3408 39.63 17.8242 39.2554 17.4783C38.8866 17.1383 38.3696 17.0125 37.8866 17.1442C36.3454 17.4583 33.4746 17.7333 29.6446 16.7854C23.5183 15.2692 21.3725 15.9529 20.0066 16.1563C18.6387 15.9529 16.4925 15.2692 10.3671 16.7854C9.00664 17.1221 7.76706 17.305 6.66372 17.3854C6.31997 17.4108 6.06081 17.7104 6.08622 18.0546C6.11122 18.3983 6.41081 18.6575 6.75497 18.6321ZM11.785 22.6767C9.79289 22.6767 8.07331 23.8146 7.31997 24.41C7.31539 24.4137 7.31081 24.4175 7.30622 24.4213C7.07039 24.6188 6.93414 24.9108 6.93414 25.2188C6.93414 25.5263 7.07081 25.8183 7.30664 26.0158C7.31122 26.0196 7.31539 26.0229 7.31997 26.0267C8.07289 26.6225 9.79289 27.7604 11.785 27.7604C13.7766 27.7604 15.4966 26.6225 16.25 26.0271C16.2546 26.0233 16.2591 26.0196 16.2633 26.0158C16.4996 25.8183 16.6358 25.5262 16.6358 25.2183C16.6354 24.9104 16.4991 24.6188 16.2629 24.4213C16.2587 24.4175 16.2541 24.4142 16.25 24.4104C15.4966 23.8146 13.7771 22.6767 11.785 22.6767ZM28.2266 22.6767C26.235 22.6767 24.515 23.8146 23.7616 24.41C23.7571 24.4137 23.7529 24.4175 23.7483 24.4213C23.5121 24.6188 23.3758 24.9108 23.3762 25.2188C23.3762 25.5263 23.5125 25.8183 23.7487 26.0158C23.7529 26.0196 23.7575 26.0229 23.7621 26.0267C24.515 26.6225 26.235 27.7604 28.2266 27.7604C30.2187 27.7604 31.9387 26.6225 32.6916 26.0271C32.6962 26.0233 32.7008 26.0196 32.7054 26.0158C32.9412 25.8183 33.0775 25.5262 33.0775 25.2183C33.0775 24.9104 32.9408 24.6188 32.705 24.4213C32.7004 24.4175 32.6962 24.4142 32.6916 24.4104C31.9387 23.8146 30.2187 22.6767 28.2266 22.6767ZM15.2491 25.2188C14.5462 25.7358 13.26 26.5104 11.785 26.5104C10.3096 26.5104 9.02289 25.7354 8.32081 25.2183C9.02331 24.7012 10.31 23.9267 11.785 23.9267C13.2604 23.9267 14.5471 24.7017 15.2491 25.2188ZM31.6908 25.2188C30.9883 25.7358 29.7016 26.5104 28.2266 26.5104C26.7516 26.5104 25.465 25.7354 24.7629 25.2183C25.4654 24.7012 26.7516 23.9267 28.2266 23.9267C29.7021 23.9267 30.9887 24.7017 31.6908 25.2188Z" fill="white"/>
<path fillRule="evenodd" clipRule="evenodd" d="M8.30992 21.1908C8.71409 21.1896 9.14742 21.1729 9.60742 21.135C9.95117 21.1071 10.2074 20.805 10.1795 20.4612C10.1516 20.1175 9.8495 19.8612 9.50575 19.8892C9.08034 19.9242 8.67992 19.9396 8.30617 19.9408C7.96117 19.9417 7.682 20.2225 7.68284 20.5675C7.68409 20.9125 7.96492 21.1917 8.30992 21.1908ZM30.5041 21.1429C30.9653 21.1779 31.3987 21.1921 31.8024 21.1908C32.1474 21.1896 32.4262 20.9087 32.4253 20.5637C32.4241 20.2187 32.1428 19.9396 31.7983 19.9408C31.4249 19.9421 31.0245 19.9287 30.5987 19.8967C30.2545 19.8704 29.9541 20.1287 29.9283 20.4725C29.902 20.8167 30.1603 21.1171 30.5041 21.1429ZM4.37992 20.6108C4.37992 20.6108 4.84284 20.8012 5.70492 20.9642C6.04409 21.0279 6.37117 20.8046 6.43534 20.4658C6.49909 20.1267 6.27617 19.7996 5.937 19.7358C5.22909 19.6021 4.84742 19.4517 4.84742 19.4517C4.52742 19.3225 4.16325 19.4775 4.03409 19.7975C3.90534 20.1175 4.06034 20.4821 4.37992 20.6108ZM34.407 20.9446C35.2049 20.7862 35.6316 20.6108 35.6316 20.6108C35.9516 20.4821 36.1066 20.1175 35.9774 19.7975C35.8483 19.4775 35.4841 19.3225 35.1641 19.4517C35.1641 19.4517 34.8145 19.5892 34.1637 19.7183C33.8253 19.7854 33.6053 20.1146 33.6724 20.4529C33.7395 20.7913 34.0687 21.0117 34.407 20.9446ZM26.7253 20.4762C26.9453 20.5258 27.1724 20.58 27.4074 20.6379C27.5899 20.6833 27.7695 20.725 27.947 20.7637C28.2841 20.8375 28.6174 20.6237 28.6912 20.2867C28.7645 19.95 28.5508 19.6162 28.2141 19.5425C28.0474 19.5062 27.8787 19.4671 27.7078 19.4246C27.4645 19.3646 27.2295 19.3087 27.002 19.2571C26.6658 19.1808 26.3308 19.3917 26.2541 19.7283C26.1778 20.0646 26.3891 20.3996 26.7253 20.4762ZM12.162 20.7421C12.3078 20.7096 12.4553 20.675 12.6041 20.6379C12.8724 20.5717 13.1303 20.5108 13.3787 20.455C13.7153 20.3796 13.9274 20.0454 13.852 19.7087C13.7766 19.3721 13.442 19.16 13.1053 19.2354C12.8483 19.2929 12.5812 19.3558 12.3041 19.4246C12.1641 19.4592 12.0258 19.4921 11.8891 19.5225C11.5524 19.5979 11.3403 19.9325 11.4158 20.2687C11.4912 20.6054 11.8253 20.8175 12.162 20.7421ZM19.3308 20.0717C19.5508 20.1096 19.7441 20.1454 19.9212 20.1696C19.9774 20.1771 20.0341 20.1771 20.0903 20.1696C20.292 20.1421 20.5137 20.0996 20.7733 20.0562C21.1137 19.9992 21.3433 19.6762 21.2862 19.3362C21.2291 18.9958 20.9066 18.7662 20.5666 18.8233C20.3574 18.8583 20.1745 18.8929 20.007 18.9187C19.8645 18.8971 19.7124 18.8692 19.5433 18.84C19.2033 18.7812 18.8795 19.01 18.8212 19.3496C18.7624 19.6896 18.9908 20.0133 19.3308 20.0717ZM23.1274 19.9279C23.4858 19.9471 23.8828 19.9825 24.3253 20.0392C24.6674 20.0829 24.9812 19.8408 25.0249 19.4987C25.0691 19.1567 24.827 18.8433 24.4849 18.7992C24.0078 18.7379 23.5799 18.7 23.1937 18.6796C22.8495 18.6612 22.5549 18.9262 22.5366 19.2708C22.5183 19.615 22.7833 19.9096 23.1274 19.9279ZM15.7791 20.0275C16.2224 19.9729 16.6191 19.94 16.9762 19.9233C17.3208 19.9075 17.5874 19.615 17.5716 19.2704C17.5558 18.9258 17.2633 18.6587 16.9187 18.6746C16.5328 18.6925 16.1045 18.7279 15.6258 18.7871C15.2833 18.8292 15.0399 19.1412 15.082 19.4837C15.1245 19.8263 15.4366 20.0696 15.7791 20.0275ZM20.6308 28.0292V23.3017C20.6308 22.9567 20.3508 22.6767 20.0058 22.6767C19.6608 22.6767 19.3808 22.9567 19.3808 23.3017V28.0292C19.3808 28.3742 19.6608 28.6542 20.0058 28.6542C20.3508 28.6542 20.6308 28.3742 20.6308 28.0292ZM25.0549 6.38667L25.9295 8.26C26.0753 8.5725 26.4474 8.70792 26.7599 8.56208C27.0728 8.41583 27.2078 8.04375 27.062 7.73125L26.1874 5.85792C26.0416 5.54542 25.6691 5.41 25.3566 5.55625C25.0441 5.70208 24.9087 6.07417 25.0549 6.38667ZM30.8378 10.0125L29.0783 10.485C28.7449 10.5742 28.547 10.9175 28.6366 11.2504C28.7258 11.5837 29.0691 11.7817 29.402 11.6921L31.162 11.22C31.4949 11.1304 31.6928 10.7875 31.6037 10.4542C31.5141 10.1212 31.1712 9.92333 30.8378 10.0125ZM12.092 3.73333L11.7845 5.18667C11.7133 5.52417 11.9291 5.85625 12.2666 5.9275C12.6041 5.99875 12.9362 5.78292 13.0074 5.44542L13.3149 3.99208C13.3862 3.65458 13.1703 3.3225 12.8328 3.25125C12.4953 3.18 12.1633 3.39583 12.092 3.73333ZM9.01534 11.4679L10.3678 11.7042C10.7074 11.7637 11.0316 11.5358 11.0908 11.1958C11.1503 10.8562 10.9224 10.5321 10.5828 10.4729L9.23034 10.2367C8.89034 10.1775 8.56617 10.405 8.507 10.745C8.44784 11.0846 8.67534 11.4087 9.01534 11.4679Z" fill="white"/>
</g>
<defs>
<clipPath id="clip0_353_2069">
<rect width="40" height="40" fill="white"/>
</clipPath>
</defs>
</svg>
