<svg width="24" height="25" viewBox="0 0 24 25" fill="none" xmlns="http://www.w3.org/2000/svg">
<path d="M12.0004 22.8984C10.642 22.9007 9.29655 22.6346 8.04124 22.1155C6.78592 21.5965 5.64549 20.8346 4.6854 19.8736C0.651742 15.8399 0.651742 9.27717 4.6854 5.24351C6.63933 3.28958 9.23712 2.21289 12.0004 2.21289C14.7637 2.21289 17.3615 3.28875 19.3155 5.24351C23.3491 9.27717 23.3491 15.8399 19.3155 19.8736C18.3554 20.8346 17.2149 21.5965 15.9596 22.1155C14.7043 22.6346 13.3588 22.9007 12.0004 22.8984ZM12.0004 3.86806C9.67905 3.86806 7.49754 4.77179 5.8556 6.41372C4.21367 8.05565 3.31078 10.2372 3.31078 12.5585C3.31078 14.8799 4.2145 17.0614 5.8556 18.7034C9.24457 22.0907 14.7579 22.0907 18.1453 18.7034C19.7864 17.0614 20.6901 14.8791 20.6901 12.5585C20.6901 10.238 19.7864 8.05565 18.1453 6.41372C16.5042 4.77179 14.3218 3.86806 12.0004 3.86806Z" fill="white"/>
<path d="M10.0981 17.19C9.93428 17.1903 9.77404 17.142 9.63772 17.0511C9.5014 16.9602 9.39515 16.8309 9.33246 16.6796C9.26976 16.5282 9.25346 16.3616 9.2856 16.201C9.31775 16.0403 9.3969 15.8928 9.51301 15.7773L12.7315 12.5588L9.51301 9.3403C9.43618 9.26346 9.37523 9.17224 9.33364 9.07185C9.29206 8.97146 9.27066 8.86386 9.27066 8.7552C9.27066 8.64653 9.29206 8.53893 9.33364 8.43854C9.37523 8.33815 9.43618 8.24693 9.51301 8.17009C9.58985 8.09325 9.68107 8.0323 9.78146 7.99072C9.88185 7.94914 9.98945 7.92773 10.0981 7.92773C10.2068 7.92773 10.3144 7.94914 10.4148 7.99072C10.5152 8.0323 10.6064 8.09325 10.6832 8.17009L14.4868 11.9737C14.5637 12.0505 14.6248 12.1417 14.6664 12.2421C14.708 12.3425 14.7295 12.4501 14.7295 12.5588C14.7295 12.6675 14.708 12.7751 14.6664 12.8755C14.6248 12.9759 14.5637 13.0671 14.4868 13.1439L10.6832 16.9475C10.6065 17.0244 10.5153 17.0855 10.4149 17.1271C10.3145 17.1687 10.2068 17.1901 10.0981 17.19Z" fill="white"/>
</svg>
