<svg width="40" height="40" viewBox="0 0 40 40" fill="none" xmlns="http://www.w3.org/2000/svg">
<path d="M31.6292 19.7837C31.5819 19.5567 31.4899 19.3413 31.3584 19.1502C31.2269 18.9592 31.0586 18.7963 30.8634 18.671C30.8643 18.625 30.8665 18.5735 30.8665 18.5334C30.8687 17.7401 30.712 16.9545 30.4056 16.2228C30.0992 15.4911 29.6493 14.8282 29.0825 14.2733L32.2314 7.81522C32.3312 7.60191 32.3819 7.3689 32.3798 7.13339C32.421 5.17052 29.0127 4.01143 28.1636 6.03788L25.627 12.5687C24.8142 12.4662 23.989 12.5301 23.2017 12.7565L22.3841 4.28424C22.0358 1.57089 17.6374 2.10145 17.981 4.86752L19.2453 12.3492C18.4072 11.8841 17.4808 11.6001 16.5261 11.5155C15.5713 11.4309 14.6094 11.5476 13.7026 11.858C13.5487 11.9145 13.4232 12.0291 13.353 12.1773C13.2828 12.3254 13.2735 12.4952 13.3272 12.65C13.381 12.8049 13.4933 12.9325 13.6401 13.0053C13.787 13.0782 13.9566 13.0905 14.1124 13.0396C17.6144 11.7252 21.6778 14.6424 21.5541 18.3896L20.2998 18.3896C20.1218 12.579 11.7649 12.5481 11.5471 18.3646C11.1324 18.3953 10.7163 18.4036 10.3006 18.3896C10.2972 17.5968 10.4613 16.8123 10.7821 16.0873C11.103 15.3624 11.5733 14.7134 12.1624 14.1828C12.2827 14.0711 12.3542 13.9165 12.3615 13.7524C12.3687 13.5884 12.3112 13.428 12.2012 13.3061C12.0913 13.1841 11.9378 13.1103 11.7739 13.1005C11.6099 13.0908 11.4488 13.1459 11.3251 13.254C10.5707 13.9306 9.97635 14.7668 9.58544 15.7018C9.19452 16.6368 9.0168 17.6471 9.0652 18.6594C8.86453 18.7848 8.69135 18.9496 8.55613 19.1438C8.42092 19.3379 8.32646 19.5575 8.27846 19.7892L7.66106 22.9504C7.60869 23.2237 7.62193 23.5054 7.69967 23.7725C7.77742 24.0396 7.91745 24.2845 8.10826 24.4869C8.29907 24.6894 8.5352 24.8437 8.79725 24.9371C9.0593 25.0305 9.33978 25.0604 9.61562 25.0243L10.9679 35.046C11.0626 35.7244 11.3986 36.3459 11.9144 36.7967C12.4302 37.2474 13.0912 37.4971 13.7761 37.5H15.5581C15.7226 37.4979 15.8797 37.4311 15.9952 37.3141C16.1108 37.197 16.1756 37.0392 16.1756 36.8747C16.1756 36.7102 16.1108 36.5523 15.9952 36.4352C15.8797 36.3182 15.7226 36.2514 15.5581 36.2493H13.7761C13.3934 36.2475 13.0241 36.1079 12.7359 35.8559C12.4478 35.6039 12.2601 35.2565 12.2073 34.8774L11.9798 33.1913H15.1032C15.2676 33.1891 15.4245 33.1222 15.54 33.0052C15.6554 32.8882 15.7202 32.7304 15.7202 32.566C15.7202 32.4016 15.6554 32.2437 15.54 32.1267C15.4245 32.0097 15.2676 31.9428 15.1032 31.9406H11.811L11.4584 29.3272H15.105C15.2694 29.325 15.4263 29.2581 15.5418 29.1411C15.6573 29.0241 15.722 28.8663 15.722 28.7018C15.722 28.5374 15.6573 28.3796 15.5418 28.2626C15.4263 28.1456 15.2694 28.0787 15.105 28.0765H11.2897L10.8778 25.0243H24.7758C24.9401 25.0219 25.0968 24.955 25.2122 24.838C25.3275 24.721 25.3922 24.5633 25.3922 24.399C25.3922 24.2347 25.3275 24.077 25.2122 23.96C25.0968 23.8429 24.9401 23.776 24.7758 23.7736C24.7748 23.7762 10.0774 23.7717 10.0761 23.7736C9.65889 23.7518 8.78104 23.9403 8.88673 23.1996L9.50474 20.0347C9.52565 19.9239 9.58458 19.8238 9.67138 19.7518C9.75817 19.6798 9.86738 19.6403 9.98016 19.6402H29.9349C30.0459 19.642 30.153 19.6818 30.2382 19.753C30.3235 19.8241 30.3817 19.9224 30.4033 20.0313L31.0341 23.198C31.1104 23.928 30.3096 23.757 29.8328 23.7736C29.8377 23.7758 27.2778 23.772 27.2772 23.7736C27.1128 23.7759 26.956 23.8427 26.8405 23.9598C26.7251 24.0768 26.6604 24.2346 26.6604 24.3989C26.6604 24.5633 26.7251 24.7211 26.8405 24.8381C26.956 24.9551 27.1128 25.022 27.2772 25.0243H29.031L28.6192 28.0765H24.8064C24.6421 28.0789 24.4853 28.1458 24.37 28.2628C24.2547 28.3798 24.19 28.5375 24.19 28.7018C24.19 28.8661 24.2547 29.0238 24.37 29.1408C24.4853 29.2579 24.6421 29.3248 24.8064 29.3272H28.4505L28.0979 31.9406H24.8085C24.6442 31.9431 24.4875 32.01 24.3723 32.127C24.257 32.244 24.1923 32.4017 24.1923 32.566C24.1923 32.7302 24.257 32.8879 24.3723 33.0049C24.4875 33.1219 24.6442 33.1889 24.8085 33.1913H27.9291L27.7013 34.8795C27.6496 35.2589 27.4623 35.6067 27.1739 35.8586C26.8855 36.1104 26.5156 36.2492 26.1327 36.2493H18.0595C17.8953 36.2518 17.7386 36.3188 17.6234 36.4358C17.5082 36.5528 17.4436 36.7104 17.4436 36.8747C17.4436 37.0389 17.5082 37.1965 17.6234 37.3135C17.7387 37.4305 17.8953 37.4975 18.0595 37.5H26.1327C26.8186 37.4993 27.4809 37.2502 27.9973 36.7989C28.5136 36.3475 28.849 35.7243 28.9413 35.0447L30.2933 25.0243C30.5688 25.059 30.8486 25.0285 31.1102 24.9353C31.3717 24.8421 31.6077 24.6888 31.7992 24.4877C31.9907 24.2866 32.1323 24.0434 32.2126 23.7776C32.2929 23.5118 32.3096 23.2309 32.2615 22.9574L31.6292 19.7837ZM29.3297 6.48942C29.7468 5.78192 31.3593 6.59208 31.1046 7.27203L28.0831 13.4686C27.6967 13.2229 27.2833 13.0225 26.851 12.8715L29.3297 6.48942ZM26.1999 13.9615C27.1598 14.2504 28.0049 14.8331 28.6164 15.6274C29.2279 16.4217 29.575 17.3877 29.6089 18.3895H28.7041C28.6801 17.6545 28.4456 16.9418 28.0283 16.3362C27.6111 15.7306 27.0287 15.2575 26.3504 14.9733C25.6721 14.6891 24.9264 14.6057 24.2021 14.733C23.4777 14.8603 22.8052 15.193 22.2644 15.6914C22.1404 15.4022 21.9954 15.1224 21.8306 14.8543C22.2259 14.527 22.6723 14.267 23.152 14.0845C24.1276 13.7132 25.1976 13.67 26.1999 13.9615ZM19.3483 4.14866C19.7613 3.52626 21.0692 3.62241 21.1392 4.40459L21.9925 13.2495C21.3701 13.5 21.2072 14.15 20.6931 13.4115L19.2143 4.65981C19.2008 4.56997 19.2057 4.47832 19.2287 4.39045C19.2518 4.30257 19.2925 4.2203 19.3483 4.14866ZM22.7108 17.2421C22.8352 16.4474 24.0847 15.9141 24.853 15.9257C25.5181 15.9275 26.1574 16.1838 26.6395 16.6419C27.1217 17.1001 27.4103 17.7254 27.4461 18.3895H26.5457C26.5084 17.9671 26.3143 17.574 26.0015 17.2877C25.6888 17.0013 25.2801 16.8425 24.8561 16.8425C24.432 16.8425 24.0234 17.0013 23.7106 17.2877C23.3979 17.5741 23.2038 17.9672 23.1665 18.3896L22.8049 18.3895C22.8074 18.005 22.7759 17.621 22.7108 17.2421ZM24.4322 18.3896C24.462 18.3007 24.519 18.2234 24.5951 18.1686C24.6712 18.1139 24.7626 18.0844 24.8563 18.0844C24.9501 18.0844 25.0415 18.1139 25.1176 18.1687C25.1937 18.2234 25.2506 18.3007 25.2804 18.3896L24.4322 18.3896ZM12.7978 18.3645C12.9453 14.2097 18.9418 14.2372 19.0491 18.3896L17.7989 18.3895C17.8024 18.1411 17.7565 17.8945 17.6639 17.664C17.5713 17.4335 17.4338 17.2237 17.2594 17.0468C17.085 16.8699 16.8772 16.7294 16.6481 16.6335C16.4189 16.5377 16.173 16.4883 15.9245 16.4883C15.6761 16.4883 15.4302 16.5377 15.201 16.6335C14.9719 16.7294 14.764 16.8699 14.5896 17.0468C14.4152 17.2237 14.2777 17.4335 14.1851 17.664C14.0925 17.8945 14.0467 18.1411 14.0502 18.3895C13.6326 18.4033 13.2146 18.395 12.7978 18.3645ZM15.3023 18.3896C15.3 18.3064 15.3143 18.2235 15.3445 18.146C15.3747 18.0685 15.4202 17.9977 15.4782 17.9381C15.5362 17.8784 15.6056 17.831 15.6823 17.7986C15.7589 17.7662 15.8413 17.7495 15.9245 17.7495C16.0078 17.7495 16.0901 17.7662 16.1668 17.7986C16.2435 17.831 16.3128 17.8784 16.3709 17.9381C16.4289 17.9978 16.4743 18.0685 16.5045 18.146C16.5347 18.2236 16.5491 18.3064 16.5467 18.3896L15.3023 18.3896Z" fill="white"/>
<path d="M17.5347 29.8567C17.4335 29.8482 17.3317 29.8631 17.2372 29.9003C17.1427 29.9374 17.0579 29.9958 16.9896 30.0709C16.9212 30.146 16.8711 30.2359 16.843 30.3334C16.8149 30.431 16.8096 30.5338 16.8276 30.6338C16.8266 31.3137 17.0474 31.9753 17.4563 32.5185C17.8652 33.0617 18.44 33.4568 19.0936 33.644C19.7473 33.8311 20.4441 33.8001 21.0785 33.5556C21.7129 33.3112 22.2504 32.8666 22.6094 32.2892C22.9685 31.7119 23.1295 31.0332 23.0682 30.3561C23.0069 29.6789 22.7265 29.0403 22.2696 28.5368C21.8127 28.0333 21.2041 27.6925 20.5361 27.566C19.8681 27.4394 19.177 27.5341 18.5677 27.8356C18.4217 27.9112 18.3114 28.0412 18.2605 28.1975C18.2096 28.3538 18.2223 28.5238 18.2959 28.6708C18.3694 28.8178 18.4978 28.93 18.6533 28.983C18.8089 29.0361 18.9791 29.0258 19.1271 28.9544C19.4931 28.7746 19.9077 28.7189 20.3082 28.7959C20.7087 28.8728 21.0732 29.0781 21.3465 29.3808C21.6198 29.6834 21.7871 30.0669 21.823 30.4731C21.8589 30.8793 21.7614 31.2861 21.5454 31.632C21.3294 31.9779 21.0065 32.2439 20.6258 32.3899C20.245 32.5359 19.827 32.5538 19.4352 32.441C19.0433 32.3281 18.6989 32.0907 18.454 31.7646C18.2092 31.4385 18.0773 31.0415 18.0782 30.6337C18.0965 30.5467 18.0968 30.4569 18.079 30.3699C18.0612 30.2828 18.0257 30.2003 17.9748 30.1275C17.9238 30.0546 17.8585 29.993 17.7828 29.9465C17.7071 29.8999 17.6227 29.8693 17.5347 29.8567Z" fill="white"/>
</svg>
