<svg width="40" height="40" viewBox="0 0 40 40" fill="none" xmlns="http://www.w3.org/2000/svg">
<path d="M36.7456 20.8991L35.4944 20.2039C35.4606 20.1852 35.4324 20.1577 35.4128 20.1245C35.3931 20.0912 35.3827 20.0533 35.3827 20.0146V16.9989C35.3823 16.6103 35.2278 16.2377 34.9531 15.9629C34.6783 15.6881 34.3058 15.5334 33.9173 15.5328H29.5677L28.0245 10.0482L31.9751 8.04263C32.3029 7.87439 32.5507 7.58321 32.6644 7.23276C32.7781 6.88232 32.7484 6.50112 32.5818 6.1725L31.9074 4.848C31.8235 4.68442 31.7081 4.53903 31.5678 4.42018C31.4275 4.30132 31.2652 4.21136 31.09 4.15544C30.9149 4.09953 30.7304 4.07876 30.5472 4.09435C30.364 4.10993 30.1857 4.16156 30.0226 4.24625L22.3413 8.27125C22.1976 8.34988 22.0906 8.48176 22.0431 8.63853C21.9957 8.7953 22.0117 8.96442 22.0877 9.10951C22.1637 9.2546 22.2936 9.36407 22.4495 9.41435C22.6054 9.46463 22.7747 9.45171 22.9212 9.37838L30.6063 5.35156C30.6931 5.31519 30.7413 5.34025 30.7938 5.415L31.4701 6.74319C31.4855 6.77683 31.4873 6.81513 31.4751 6.85007C31.4629 6.88502 31.4377 6.9139 31.4048 6.93069L14.4591 15.5328H11.1853L20.6024 10.5976C20.7466 10.5192 20.8541 10.3873 20.9018 10.2303C20.9496 10.0733 20.9336 9.90387 20.8575 9.75852C20.7814 9.61318 20.6512 9.5036 20.495 9.45343C20.3388 9.40326 20.1691 9.41653 20.0226 9.49038L8.49275 15.5328H6.08275C5.69416 15.5334 5.32166 15.6881 5.04695 15.9629C4.77223 16.2377 4.61773 16.6103 4.61731 16.9989V20.0146C4.61726 20.0532 4.60694 20.091 4.58742 20.1243C4.5679 20.1576 4.53989 20.185 4.50625 20.2039L3.25437 20.8991C3.02577 21.026 2.83527 21.2118 2.70263 21.4372C2.56999 21.6626 2.50003 21.9193 2.5 22.1808V24.3341C2.501 24.535 2.54301 24.7336 2.62345 24.9177C2.70389 25.1018 2.82106 25.2676 2.9678 25.4048C3.11454 25.5421 3.28775 25.6479 3.47682 25.7158C3.66589 25.7838 3.86685 25.8124 4.06738 25.8L4.80487 34.6875C4.84282 35.0937 5.03101 35.4712 5.3326 35.746C5.6342 36.0208 6.02749 36.1731 6.43549 36.1732C6.8435 36.1732 7.23684 36.021 7.53853 35.7464C7.84022 35.4717 8.02854 35.0943 8.06663 34.6881L8.80437 25.8H18.0612L18.3667 29.4933C18.4055 29.8996 18.5944 30.2769 18.8965 30.5515C19.1985 30.8261 19.5921 30.9783 20.0003 30.9783C20.4085 30.9783 20.8021 30.8261 21.1042 30.5515C21.4062 30.2769 21.5951 29.8996 21.6339 29.4933L21.9389 25.8001H31.1956L31.9331 34.6876C31.9668 35.0969 32.1532 35.4786 32.4552 35.7569C32.7573 36.0352 33.153 36.1897 33.5637 36.1898C33.9744 36.1899 34.3701 36.0355 34.6723 35.7573C34.9745 35.4792 35.161 35.0975 35.1948 34.6882L35.9326 25.8C36.1331 25.8124 36.3341 25.7838 36.5232 25.7158C36.7122 25.6479 36.8854 25.542 37.0322 25.4048C37.1789 25.2676 37.2961 25.1018 37.3765 24.9177C37.457 24.7336 37.499 24.535 37.5 24.3341V22.1808C37.5 21.9193 37.43 21.6626 37.2974 21.4372C37.1647 21.2118 36.9742 21.026 36.7456 20.8991ZM26.8881 10.625L28.2693 15.5327H17.2208L26.8881 10.625ZM6.82069 34.5849C6.81117 34.6805 6.76644 34.7691 6.69521 34.8336C6.62398 34.898 6.53133 34.9337 6.43528 34.9336C6.33923 34.9335 6.24664 34.8977 6.17551 34.8332C6.10438 34.7686 6.0598 34.6799 6.05044 34.5843L5.32162 25.8H7.55L6.82069 34.5849ZM20.3875 29.3909C20.3773 29.4865 20.3321 29.5749 20.2606 29.6392C20.1891 29.7035 20.0964 29.7391 20.0002 29.7391C19.9041 29.7391 19.8114 29.7035 19.7399 29.6392C19.6684 29.5749 19.6232 29.4865 19.613 29.3909L19.316 25.8H20.6841L20.3875 29.3909ZM33.9489 34.5849C33.9393 34.6805 33.8946 34.769 33.8234 34.8334C33.7521 34.8978 33.6595 34.9334 33.5635 34.9333C33.4675 34.9332 33.3749 34.8975 33.3038 34.833C33.2327 34.7685 33.1881 34.6799 33.1786 34.5843L32.45 25.8H34.6784L33.9489 34.5849ZM36.25 24.3341C36.2499 24.3914 36.2271 24.4463 36.1866 24.4868C36.1461 24.5273 36.0912 24.5501 36.0339 24.5502C36.0339 24.5502 4.29019 24.5526 3.96606 24.5502C3.90879 24.5501 3.85391 24.5273 3.81341 24.4868C3.77292 24.4463 3.75012 24.3914 3.75 24.3341V22.1808C3.75005 22.1422 3.76036 22.1044 3.77988 22.0711C3.7994 22.0379 3.82742 22.0104 3.86106 21.9916L5.1135 21.2964C5.34195 21.1693 5.53229 20.9834 5.66482 20.7581C5.79735 20.5327 5.86726 20.2761 5.86731 20.0146V16.9989C5.86728 16.9417 5.88995 16.8868 5.93034 16.8463C5.97073 16.8058 6.02554 16.7829 6.08275 16.7828H33.9173C33.9745 16.7829 34.0293 16.8058 34.0697 16.8463C34.1101 16.8868 34.1327 16.9417 34.1327 16.9989V20.0146C34.1327 20.2761 34.2027 20.5329 34.3353 20.7582C34.468 20.9836 34.6585 21.1694 34.8871 21.2964L36.1389 21.9916C36.1726 22.0104 36.2006 22.0379 36.2201 22.0711C36.2396 22.1044 36.25 22.1422 36.25 22.1808V24.3341Z" fill="white"/>
<path d="M9.20174 19.1351H30.2942C30.46 19.1351 30.619 19.0693 30.7362 18.9521C30.8534 18.8349 30.9192 18.6759 30.9192 18.5101C30.9192 18.3444 30.8534 18.1854 30.7362 18.0682C30.619 17.951 30.46 17.8851 30.2942 17.8851H9.20174C9.03598 17.8851 8.87701 17.951 8.75979 18.0682C8.64258 18.1854 8.57674 18.3444 8.57674 18.5101C8.57674 18.6759 8.64258 18.8349 8.75979 18.9521C8.87701 19.0693 9.03598 19.1351 9.20174 19.1351ZM32.6063 20.2375H7.3938C7.31171 20.2375 7.23041 20.2536 7.15455 20.285C7.0787 20.3164 7.00978 20.3624 6.95173 20.4204C6.89368 20.4785 6.84765 20.5474 6.81626 20.6233C6.78487 20.6991 6.76874 20.7804 6.7688 20.8625V22.9813C6.76874 23.0633 6.78487 23.1446 6.81626 23.2205C6.84765 23.2964 6.89368 23.3653 6.95173 23.4233C7.00978 23.4814 7.0787 23.5274 7.15455 23.5588C7.23041 23.5902 7.31171 23.6063 7.3938 23.6063H25.2C25.3658 23.6063 25.5248 23.5404 25.642 23.4232C25.7592 23.306 25.825 23.147 25.825 22.9813C25.825 22.8155 25.7592 22.6565 25.642 22.5393C25.5248 22.4221 25.3658 22.3563 25.2 22.3563H8.0188V21.4875H31.9813V22.3563H27.7126C27.5468 22.3563 27.3878 22.4221 27.2706 22.5393C27.1534 22.6565 27.0876 22.8155 27.0876 22.9813C27.0876 23.147 27.1534 23.306 27.2706 23.4232C27.3878 23.5404 27.5468 23.6063 27.7126 23.6063H32.6063C32.6884 23.6063 32.7697 23.5902 32.8455 23.5588C32.9214 23.5274 32.9903 23.4814 33.0484 23.4233C33.1064 23.3653 33.1525 23.2964 33.1838 23.2205C33.2152 23.1446 33.2314 23.0633 33.2313 22.9813V20.8625C33.2314 20.7804 33.2152 20.6991 33.1838 20.6233C33.1525 20.5474 33.1064 20.4785 33.0484 20.4204C32.9903 20.3624 32.9214 20.3164 32.8455 20.285C32.7697 20.2536 32.6884 20.2375 32.6063 20.2375Z" fill="white"/>
</svg>
