<svg width="40" height="40" viewBox="0 0 40 40" fill="none" xmlns="http://www.w3.org/2000/svg">
<path d="M12.0938 36.25H2.5V6.25001H26.25V18.8001C26.25 18.9658 26.3158 19.1248 26.4331 19.242C26.5503 19.3592 26.7092 19.4251 26.875 19.4251C27.0408 19.4251 27.1997 19.3592 27.3169 19.242C27.4342 19.1248 27.5 18.9658 27.5 18.8001V5.62501C27.5 5.45925 27.4342 5.30028 27.3169 5.18306C27.1997 5.06585 27.0408 5.00001 26.875 5.00001H25V0.625007C25 0.531421 24.979 0.439026 24.9385 0.354647C24.8981 0.270268 24.8391 0.196058 24.7661 0.137499C24.6931 0.0789405 24.6079 0.0375274 24.5168 0.0163184C24.4256 -0.00489063 24.3309 -0.00535382 24.2395 0.014963L1.7395 5.01496C1.60409 5.0522 1.48388 5.13121 1.39599 5.24074C1.3081 5.35027 1.25701 5.48475 1.25 5.62501V36.875C1.25 37.0408 1.31585 37.1997 1.43306 37.3169C1.55027 37.4342 1.70924 37.5 1.875 37.5H12.0938C12.2596 37.5 12.4185 37.4342 12.5358 37.3169C12.653 37.1997 12.7188 37.0408 12.7188 36.875C12.7188 36.7092 12.653 36.5503 12.5358 36.4331C12.4185 36.3159 12.2596 36.25 12.0938 36.25ZM23.75 5.00001H7.56828L23.75 1.40412V5.00001Z" fill="white"/>
<path d="M24.375 19.8001C24.5408 19.8001 24.6997 19.7343 24.8169 19.617C24.9341 19.4998 25 19.3409 25 19.1751V11.25C25 11.0842 24.9342 10.9253 24.8169 10.8081C24.6997 10.6908 24.5408 10.625 24.375 10.625C23.7122 10.6242 23.0767 10.3606 22.6081 9.89193C22.1394 9.42325 21.8758 8.78781 21.875 8.125C21.875 7.95924 21.8092 7.80027 21.6919 7.68306C21.5747 7.56585 21.4158 7.5 21.25 7.5H7.5C7.33424 7.5 7.17527 7.56585 7.05806 7.68306C6.94085 7.80027 6.875 7.95924 6.875 8.125C6.87424 8.78781 6.61061 9.42325 6.14193 9.89193C5.67325 10.3606 5.03781 10.6242 4.375 10.625C4.20924 10.625 4.05027 10.6908 3.93306 10.8081C3.81585 10.9253 3.75 11.0842 3.75 11.25V31.25C3.75 31.4158 3.81585 31.5747 3.93306 31.6919C4.05027 31.8092 4.20924 31.875 4.375 31.875C5.03781 31.8758 5.67325 32.1394 6.14193 32.6081C6.61061 33.0767 6.87424 33.7122 6.875 34.375C6.875 34.5408 6.94085 34.6997 7.05806 34.8169C7.17527 34.9342 7.33424 35 7.5 35H13.75C13.9158 35 14.0747 34.9342 14.1919 34.8169C14.3092 34.6997 14.375 34.5408 14.375 34.375C14.375 34.2092 14.3092 34.0503 14.1919 33.9331C14.0747 33.8158 13.9158 33.75 13.75 33.75H8.07281C7.9418 32.9827 7.57583 32.275 7.02541 31.7246C6.475 31.1742 5.7673 30.8082 5 30.6772V11.8228C5.7673 11.6918 6.475 11.3258 7.02541 10.7754C7.57583 10.225 7.9418 9.5173 8.07281 8.75H20.6772C20.8082 9.5173 21.1742 10.225 21.7246 10.7754C22.275 11.3258 22.9827 11.6918 23.75 11.8228V19.1751C23.75 19.3409 23.8159 19.4998 23.9331 19.617C24.0503 19.7343 24.2092 19.8001 24.375 19.8001Z" fill="white"/>
<path d="M36.875 36.25V34.375C36.8708 31.9942 36.0679 29.6837 34.5947 27.8134C33.1216 25.9431 31.0635 24.6212 28.75 24.0594V23.125C28.75 22.462 28.4866 21.8261 28.0178 21.3572C27.5489 20.8884 26.913 20.625 26.25 20.625C25.587 20.625 24.9511 20.8884 24.4822 21.3572C24.0134 21.8261 23.75 22.462 23.75 23.125V24.0594C21.4365 24.6212 19.3784 25.9431 17.9053 27.8134C16.4321 29.6837 15.6292 31.9942 15.625 34.375V36.25C15.1277 36.25 14.6508 36.4475 14.2992 36.7992C13.9475 37.1508 13.75 37.6277 13.75 38.125C13.75 38.6223 13.9475 39.0992 14.2992 39.4508C14.6508 39.8025 15.1277 40 15.625 40H36.875C37.3723 40 37.8492 39.8025 38.2008 39.4508C38.5525 39.0992 38.75 38.6223 38.75 38.125C38.75 37.6277 38.5525 37.1508 38.2008 36.7992C37.8492 36.4475 37.3723 36.25 36.875 36.25ZM25 23.125C25 22.7935 25.1317 22.4755 25.3661 22.2411C25.6005 22.0067 25.9185 21.875 26.25 21.875C26.5815 21.875 26.8995 22.0067 27.1339 22.2411C27.3683 22.4755 27.5 22.7935 27.5 23.125V23.8303C26.6701 23.7232 25.8299 23.7232 25 23.8303V23.125ZM16.875 35H31.25C31.4158 35 31.5747 34.9342 31.6919 34.8169C31.8092 34.6997 31.875 34.5408 31.875 34.375C31.875 34.2092 31.8092 34.0503 31.6919 33.9331C31.5747 33.8158 31.4158 33.75 31.25 33.75H16.9067C17.0624 31.378 18.1145 29.154 19.8496 27.5291C21.5847 25.9042 23.8729 25 26.25 25C28.6271 25 30.9153 25.9042 32.6504 27.5291C34.3855 29.154 35.4376 31.378 35.5933 33.75H33.75C33.5842 33.75 33.4253 33.8158 33.3081 33.9331C33.1908 34.0503 33.125 34.2092 33.125 34.375C33.125 34.5408 33.1908 34.6997 33.3081 34.8169C33.4253 34.9342 33.5842 35 33.75 35H35.625V36.25H16.875V35ZM36.875 38.75H15.625C15.4592 38.75 15.3003 38.6842 15.1831 38.5669C15.0658 38.4497 15 38.2908 15 38.125C15 37.9592 15.0658 37.8003 15.1831 37.6831C15.3003 37.5658 15.4592 37.5 15.625 37.5H36.875C37.0408 37.5 37.1997 37.5658 37.3169 37.6831C37.4342 37.8003 37.5 37.9592 37.5 38.125C37.5 38.2908 37.4342 38.4497 37.3169 38.5669C37.1997 38.6842 37.0408 38.75 36.875 38.75ZM15.625 10C15.4592 10 15.3003 10.0658 15.1831 10.1831C15.0658 10.3003 15 10.4592 15 10.625V12.5C15.0017 13.0527 15.1866 13.5893 15.5259 14.0257C15.8653 14.462 16.3397 14.7735 16.875 14.9113V18.125C16.875 18.2908 16.9408 18.4497 17.0581 18.5669C17.1753 18.6842 17.3342 18.75 17.5 18.75C17.6658 18.75 17.8247 18.6842 17.9419 18.5669C18.0592 18.4497 18.125 18.2908 18.125 18.125V14.9113C18.6603 14.7735 19.1347 14.462 19.4741 14.0257C19.8134 13.5893 19.9983 13.0527 20 12.5V10.625C20 10.4592 19.9342 10.3003 19.8169 10.1831C19.6997 10.0658 19.5408 10 19.375 10C19.2092 10 19.0503 10.0658 18.9331 10.1831C18.8158 10.3003 18.75 10.4592 18.75 10.625V12.5C18.7493 12.7184 18.6912 12.9328 18.5815 13.1217C18.4718 13.3106 18.3144 13.4673 18.125 13.5762V10.625C18.125 10.4592 18.0592 10.3003 17.9419 10.1831C17.8247 10.0658 17.6658 10 17.5 10C17.3342 10 17.1753 10.0658 17.0581 10.1831C16.9408 10.3003 16.875 10.4592 16.875 10.625V13.5762C16.6856 13.4673 16.5282 13.3106 16.4185 13.1217C16.3088 12.9328 16.2507 12.7184 16.25 12.5V10.625C16.25 10.4592 16.1842 10.3003 16.0669 10.1831C15.9497 10.0658 15.7908 10 15.625 10ZM11.25 18.75C11.4158 18.75 11.5747 18.6842 11.6919 18.5669C11.8092 18.4497 11.875 18.2908 11.875 18.125V15.5363C12.4103 15.3985 12.8847 15.087 13.2241 14.6507C13.5634 14.2143 13.7483 13.6777 13.75 13.125C13.75 11.8808 12.753 10 11.25 10C9.74701 10 8.75 11.8808 8.75 13.125C8.75167 13.6777 8.93665 14.2143 9.27595 14.6507C9.61525 15.087 10.0897 15.3985 10.625 15.5363V18.125C10.625 18.2908 10.6908 18.4497 10.8081 18.5669C10.9253 18.6842 11.0842 18.75 11.25 18.75ZM10 13.125C10 12.3505 10.6464 11.25 11.25 11.25C11.8536 11.25 12.5 12.3505 12.5 13.125C12.5 13.4565 12.3683 13.7745 12.1339 14.0089C11.8995 14.2433 11.5815 14.375 11.25 14.375C10.9185 14.375 10.6005 14.2433 10.3661 14.0089C10.1317 13.7745 10 13.4565 10 13.125ZM9.375 20.625H8.125C7.95924 20.625 7.80027 20.6908 7.68306 20.8081C7.56585 20.9253 7.5 21.0842 7.5 21.25C7.5 21.4158 7.56585 21.5747 7.68306 21.6919C7.80027 21.8092 7.95924 21.875 8.125 21.875H9.375C9.54076 21.875 9.69973 21.8092 9.81694 21.6919C9.93415 21.5747 10 21.4158 10 21.25C10 21.0842 9.93415 20.9253 9.81694 20.8081C9.69973 20.6908 9.54076 20.625 9.375 20.625ZM21.25 21.25C21.25 21.0842 21.1842 20.9253 21.0669 20.8081C20.9497 20.6908 20.7908 20.625 20.625 20.625H11.875C11.7092 20.625 11.5503 20.6908 11.4331 20.8081C11.3158 20.9253 11.25 21.0842 11.25 21.25C11.25 21.4158 11.3158 21.5747 11.4331 21.6919C11.5503 21.8092 11.7092 21.875 11.875 21.875H20.625C20.7908 21.875 20.9497 21.8092 21.0669 21.6919C21.1842 21.5747 21.25 21.4158 21.25 21.25ZM9.375 23.75H8.125C7.95924 23.75 7.80027 23.8158 7.68306 23.9331C7.56585 24.0503 7.5 24.2092 7.5 24.375C7.5 24.5408 7.56585 24.6997 7.68306 24.8169C7.80027 24.9342 7.95924 25 8.125 25H9.375C9.54076 25 9.69973 24.9342 9.81694 24.8169C9.93415 24.6997 10 24.5408 10 24.375C10 24.2092 9.93415 24.0503 9.81694 23.9331C9.69973 23.8158 9.54076 23.75 9.375 23.75ZM18.75 24.375C18.75 24.2092 18.6842 24.0503 18.5669 23.9331C18.4497 23.8158 18.2908 23.75 18.125 23.75H11.875C11.7092 23.75 11.5503 23.8158 11.4331 23.9331C11.3158 24.0503 11.25 24.2092 11.25 24.375C11.25 24.5408 11.3158 24.6997 11.4331 24.8169C11.5503 24.9342 11.7092 25 11.875 25H18.125C18.2908 25 18.4497 24.9342 18.5669 24.8169C18.6842 24.6997 18.75 24.5408 18.75 24.375ZM9.375 26.875H8.125C7.95924 26.875 7.80027 26.9408 7.68306 27.0581C7.56585 27.1753 7.5 27.3342 7.5 27.5C7.5 27.6658 7.56585 27.8247 7.68306 27.9419C7.80027 28.0592 7.95924 28.125 8.125 28.125H9.375C9.54076 28.125 9.69973 28.0592 9.81694 27.9419C9.93415 27.8247 10 27.6658 10 27.5C10 27.3342 9.93415 27.1753 9.81694 27.0581C9.69973 26.9408 9.54076 26.875 9.375 26.875ZM16.25 27.5C16.25 27.3342 16.1842 27.1753 16.0669 27.0581C15.9497 26.9408 15.7908 26.875 15.625 26.875H11.875C11.7092 26.875 11.5503 26.9408 11.4331 27.0581C11.3158 27.1753 11.25 27.3342 11.25 27.5C11.25 27.6658 11.3158 27.8247 11.4331 27.9419C11.5503 28.0592 11.7092 28.125 11.875 28.125H15.625C15.7908 28.125 15.9497 28.0592 16.0669 27.9419C16.1842 27.8247 16.25 27.6658 16.25 27.5ZM9.375 30H8.125C7.95924 30 7.80027 30.0658 7.68306 30.1831C7.56585 30.3003 7.5 30.4592 7.5 30.625C7.5 30.7908 7.56585 30.9497 7.68306 31.0669C7.80027 31.1842 7.95924 31.25 8.125 31.25H9.375C9.54076 31.25 9.69973 31.1842 9.81694 31.0669C9.93415 30.9497 10 30.7908 10 30.625C10 30.4592 9.93415 30.3003 9.81694 30.1831C9.69973 30.0658 9.54076 30 9.375 30ZM11.875 30C11.7092 30 11.5503 30.0658 11.4331 30.1831C11.3158 30.3003 11.25 30.4592 11.25 30.625C11.25 30.7908 11.3158 30.9497 11.4331 31.0669C11.5503 31.1842 11.7092 31.25 11.875 31.25H13.125C13.2908 31.25 13.4497 31.1842 13.5669 31.0669C13.6842 30.9497 13.75 30.7908 13.75 30.625C13.75 30.4592 13.6842 30.3003 13.5669 30.1831C13.4497 30.0658 13.2908 30 13.125 30H11.875Z" fill="white"/>
<path d="M4.375 8.75C4.72018 8.75 5 8.47018 5 8.125C5 7.77982 4.72018 7.5 4.375 7.5C4.02982 7.5 3.75 7.77982 3.75 8.125C3.75 8.47018 4.02982 8.75 4.375 8.75Z" fill="white"/>
<path d="M24.375 8.75C24.7202 8.75 25 8.47018 25 8.125C25 7.77982 24.7202 7.5 24.375 7.5C24.0298 7.5 23.75 7.77982 23.75 8.125C23.75 8.47018 24.0298 8.75 24.375 8.75Z" fill="white"/>
<path d="M4.375 35C4.72018 35 5 34.7202 5 34.375C5 34.0298 4.72018 33.75 4.375 33.75C4.02982 33.75 3.75 34.0298 3.75 34.375C3.75 34.7202 4.02982 35 4.375 35Z" fill="white"/>
</svg>
