<svg width="41" height="40" viewBox="0 0 41 40" fill="none" xmlns="http://www.w3.org/2000/svg">
<g clip-path="url(#clip0_3555_37)">
<path d="M20.4998 0.975586V5.85363M20.4998 5.85363H21.4521V7.80485M20.4998 5.85363H19.5474V7.80485M21.4521 7.80485H19.5474M21.4521 7.80485L23.3569 11.2195M19.5474 7.80485L17.6426 11.2195L18.595 13.1707H22.4045L23.3569 11.2195M23.3569 11.2195H20.0236M8.11882 39.5122L8.85398 33.4874M8.85398 33.4874L9.0712 31.7073M8.85398 33.4874H16.9075M9.54739 27.8049H8.11882C8.11882 27.317 8.30929 26.3414 9.0712 26.3414C9.8331 26.3414 14.1505 26.3414 16.2141 26.3414H16.6902C17.0077 26.3414 17.6426 26.6341 17.6426 27.8049H16.2141M9.54739 27.8049H16.2141M9.54739 27.8049L9.0712 31.7073M16.2141 27.8049L16.6902 31.7073M9.0712 31.7073H16.6902M17.6426 39.5122L16.9075 33.4874M16.9075 33.4874L16.6902 31.7073M14.7855 24.878C14.4681 24.3902 14.1188 23.2195 15.2617 22.439M15.2617 22.439H10.4998M15.2617 22.439H16.2141C16.4128 22.439 16.9226 22.3243 17.2761 21.9512M10.4998 22.439C10.976 22.7642 11.7379 23.7073 10.976 24.878M10.4998 22.439H9.54739C9.24926 22.439 8.76448 22.3243 8.44362 21.9512M17.2761 21.9512C17.4873 21.7284 17.6426 21.4133 17.6426 20.9756C17.6426 20.7922 17.6193 20.6303 17.578 20.4878M17.2761 21.9512H23.6817M8.44362 21.9512H3.35691M8.44362 21.9512C8.25199 21.7284 8.11882 21.4133 8.11882 20.9756C8.11882 19.8049 9.0712 19.5122 9.54739 19.5122H16.2141C16.6157 19.5122 17.356 19.7204 17.578 20.4878M24.7855 27.8049H23.3569C23.3569 27.317 23.5474 26.3414 24.3093 26.3414H31.4521H31.9283C32.2458 26.3414 32.8807 26.6341 32.8807 27.8049H31.4521M24.7855 27.8049H31.4521M24.7855 27.8049L24.3093 31.7073M31.4521 27.8049L31.9283 31.7073M24.3093 31.7073H31.9283M24.3093 31.7073L24.0921 33.4874M31.9283 31.7073L32.1456 33.4874M24.0921 33.4874H32.1456M24.0921 33.4874L23.3569 39.5122M32.1456 33.4874L32.8807 39.5122M30.0236 24.878C29.7061 24.3902 29.3569 23.2195 30.4998 22.439M30.4998 22.439H25.7379M30.4998 22.439H31.4521C31.6509 22.439 32.1607 22.3243 32.5142 21.9512M25.7379 22.439C26.2141 22.7642 26.976 23.7073 26.2141 24.878M25.7379 22.439H24.7855C24.4874 22.439 24.0026 22.3243 23.6817 21.9512M32.5142 21.9512C32.7254 21.7284 32.8807 21.4133 32.8807 20.9756C32.8807 20.7922 32.8574 20.6303 32.8161 20.4878M32.5142 21.9512H38.1188M23.6817 21.9512C23.4901 21.7284 23.3569 21.4133 23.3569 20.9756C23.3569 20.7922 23.3802 20.6303 23.4216 20.4878M3.35691 39.5122V21.9512M3.35691 21.9512H1.45215V20.4878H8.11882M17.578 20.4878H23.4216M23.4216 20.4878C23.6436 19.7204 24.3839 19.5122 24.7855 19.5122H31.4521C31.8538 19.5122 32.5941 19.7204 32.8161 20.4878M32.8161 20.4878H39.5474V21.9512H38.1188M38.1188 21.9512V39.5122M3.8331 20H4.78548M4.78548 20H5.73786M4.78548 20V18.5366M4.78548 18.5366L7.16643 15.6097H3.8331M4.78548 18.5366L2.40453 15.6097H3.8331M3.8331 15.6097L2.40453 14.1463" stroke="white" stroke-linecap="round" stroke-linejoin="round"/>
</g>
<defs>
<clipPath id="clip0_3555_37">
<rect width="40" height="40" fill="white" transform="translate(0.5)"/>
</clipPath>
</defs>
</svg>
