<svg width="40" height="40" viewBox="0 0 40 40" fill="none" xmlns="http://www.w3.org/2000/svg">
<path d="M37.3774 16.7633C37.3614 16.5423 37.2582 16.3367 37.0906 16.1918C36.923 16.0468 36.7047 15.9744 36.4836 15.9904C36.2626 16.0064 36.057 16.1096 35.9121 16.2772C35.7671 16.4448 35.6947 16.6631 35.7107 16.8842L36.6041 29.1667H34.8091L31.2666 15.7233C31.9141 12.8067 32.6441 10.0858 33.0291 8.69666L34.6066 9.485C34.7396 9.55322 34.8524 9.65531 34.9334 9.78098C35.0145 9.90665 35.061 10.0515 35.0682 10.2008L35.2582 12.1667C35.2789 12.3721 35.375 12.5625 35.5281 12.7011C35.6811 12.8396 35.8801 12.9165 36.0866 12.9167C36.1143 12.9181 36.1421 12.9181 36.1699 12.9167C36.2789 12.9062 36.3848 12.8744 36.4815 12.823C36.5782 12.7716 36.6639 12.7016 36.7335 12.6171C36.8032 12.5326 36.8555 12.4352 36.8875 12.3304C36.9195 12.2257 36.9305 12.1157 36.9199 12.0067L36.7316 10.0683C36.7016 9.63356 36.559 9.21408 36.3177 8.85114C36.0765 8.4882 35.745 8.1943 35.3557 7.99833C32.1275 6.74782 29.3091 4.62711 27.2132 1.87166C27.1121 1.78495 26.9917 1.72374 26.8621 1.69314C26.7325 1.66255 26.5974 1.66347 26.4682 1.69583L19.9999 3.3075L13.5357 1.69166C13.4065 1.65931 13.2715 1.65838 13.1418 1.68898C13.0122 1.71957 12.8918 1.78079 12.7907 1.8675C9.99989 6.14583 4.64739 7.99416 4.64739 7.99416C4.25955 8.18878 3.92892 8.4808 3.68788 8.84163C3.44685 9.20245 3.30367 9.6197 3.27239 10.0525L1.66656 29.9325C1.65721 30.0475 1.67184 30.1631 1.70952 30.2722C1.74719 30.3812 1.80709 30.4812 1.88542 30.5659C1.96376 30.6506 2.05882 30.7181 2.16459 30.7641C2.27036 30.8101 2.38454 30.8337 2.49989 30.8333H5.83322C6.00819 30.8334 6.17874 30.7783 6.32068 30.676C6.46263 30.5737 6.56877 30.4293 6.62406 30.2633L9.12406 22.7633C9.15869 22.6594 9.17251 22.5496 9.16473 22.4403C9.15694 22.331 9.1277 22.2243 9.07868 22.1263C9.02966 22.0283 8.96182 21.9409 8.87902 21.8691C8.79623 21.7973 8.7001 21.7425 8.59614 21.7079C8.49218 21.6733 8.38241 21.6595 8.27311 21.6672C8.1638 21.675 8.0571 21.7043 7.9591 21.7533C7.86109 21.8023 7.7737 21.8702 7.70192 21.9529C7.63013 22.0357 7.57536 22.1319 7.54072 22.2358L5.23239 29.1667H3.39906L4.93406 10.175C4.9441 10.0299 4.9917 9.88993 5.07221 9.76881C5.15271 9.64769 5.26334 9.54959 5.39322 9.48416L6.97072 8.695C7.75906 11.5417 9.99989 20 9.99989 24.1667C9.98594 27.0366 8.88958 29.7957 6.92989 31.8925C6.7934 32.0205 6.70397 32.1907 6.67601 32.3758C6.64804 32.5608 6.68317 32.7499 6.77572 32.9125C6.90156 33.1333 9.91156 38.3333 14.1666 38.3333C14.7245 38.3092 15.2667 38.1406 15.74 37.8441C16.2133 37.5476 16.6015 37.1332 16.8666 36.6417L19.9999 35.8592L23.1307 36.6417C23.396 37.1336 23.7846 37.5482 24.2584 37.8447C24.7321 38.1413 25.2748 38.3096 25.8332 38.3333C30.0882 38.3333 33.0982 33.1333 33.2241 32.9125C33.3166 32.7499 33.3517 32.5608 33.3238 32.3758C33.2958 32.1907 33.2064 32.0205 33.0699 31.8925C31.1018 29.801 30.0041 27.0385 29.9999 24.1667C30.0465 22.578 30.2209 20.9957 30.5216 19.435L33.3616 30.2125C33.4084 30.3903 33.5128 30.5476 33.6584 30.6599C33.804 30.7722 33.9827 30.8332 34.1666 30.8333H37.4999C37.6146 30.8336 37.7281 30.8103 37.8333 30.7647C37.9385 30.7191 38.0332 30.6523 38.1114 30.5684C38.1896 30.4846 38.2497 30.3855 38.2879 30.2774C38.326 30.1692 38.3415 30.0544 38.3332 29.94L37.3774 16.7633ZM25.4591 3.66083C24.9348 4.78213 24.0728 5.71135 22.9941 6.31833C22.7265 5.67071 22.3487 5.07438 21.8774 4.55583L25.4591 3.66083ZM23.0682 8.15C23.9945 7.72922 24.8354 7.14167 25.5491 6.41666C24.9948 9.97953 24.1193 13.4849 22.9332 16.89L21.7132 10.1825L23.0682 8.15ZM21.1074 29.3908C21.0982 29.3992 21.0866 29.4017 21.0774 29.4108L19.9999 30.4883L18.9224 29.4108C18.9132 29.4017 18.9016 29.3992 18.8924 29.3908C19.0752 27.6554 19.1667 25.9116 19.1666 24.1667C19.0091 22.7973 18.6729 21.4545 18.1666 20.1725L19.8624 10.8333H20.1382L21.8332 20.1725C21.3269 21.4545 20.9907 22.7973 20.8332 24.1667C20.8331 25.9116 20.9246 27.6554 21.1074 29.3908ZM19.9999 5.14583C20.7588 5.68659 21.3201 6.46063 21.5982 7.35L20.3874 9.16666H19.6124L18.3999 7.3475C18.6744 6.4565 19.2372 5.68201 19.9999 5.14583ZM18.1232 4.55583C17.6519 5.07438 17.2741 5.67071 17.0066 6.31833C15.9279 5.71122 15.066 4.78204 14.5416 3.66083L18.1232 4.55583ZM16.9316 8.15L18.2866 10.1825L17.0666 16.89C15.8805 13.4849 15.005 9.97953 14.4507 6.41666C15.1644 7.14167 16.0053 7.72922 16.9316 8.15ZM14.1666 36.6667C11.5516 36.6667 9.35072 33.7942 8.54822 32.5983C10.5547 30.2465 11.6599 27.2581 11.6666 24.1667C11.6666 19.56 9.19572 10.4425 8.48489 7.91666C9.98156 6.964 11.3562 5.832 12.5782 4.54583C12.9807 10 14.8616 15.5833 16.1549 19.4217C16.7629 20.9537 17.2135 22.5435 17.4999 24.1667C17.4999 30.2258 16.3332 36.6667 14.1666 36.6667ZM20.2024 34.1917C20.0697 34.1585 19.9309 34.1585 19.7982 34.1917L17.7982 34.6917C18.1568 33.636 18.4266 32.5522 18.6049 31.4517L19.4099 32.2567C19.5662 32.4129 19.7781 32.5007 19.9991 32.5007C20.22 32.5007 20.432 32.4129 20.5882 32.2567L21.3932 31.4517C21.5715 32.5522 21.8413 33.636 22.1999 34.6917L20.2024 34.1917ZM28.3332 24.1667C28.3399 27.2587 29.4454 30.2478 31.4524 32.6C30.6524 33.795 28.4574 36.6667 25.8332 36.6667C23.6666 36.6667 22.4999 30.2258 22.4999 24.1667C22.7863 22.5435 23.2369 20.9537 23.8449 19.4217C25.1382 15.5883 27.0191 10.005 27.4224 4.54416C28.6441 5.83086 30.0184 6.96343 31.5149 7.91666C30.8041 10.4425 28.3332 19.56 28.3332 24.1667Z" fill="white"/>
<path d="M36.3092 15.2108C36.7694 15.2108 37.1425 14.8377 37.1425 14.3775C37.1425 13.9173 36.7694 13.5442 36.3092 13.5442C35.8489 13.5442 35.4758 13.9173 35.4758 14.3775C35.4758 14.8377 35.8489 15.2108 36.3092 15.2108Z" fill="white"/>
</svg>
