<svg width="41" height="40" viewBox="0 0 41 40" fill="none" xmlns="http://www.w3.org/2000/svg">
<path d="M17.3544 13.75H16.165V15H17.3544V13.75Z" fill="white"/>
<path d="M16.125 18.75H14.875V20.625H16.125V18.75Z" fill="white"/>
<path d="M18.625 18.75H17.375V20.625H18.625V18.75Z" fill="white"/>
<path d="M21.125 18.75H19.875V20.625H21.125V18.75Z" fill="white"/>
<path d="M23.625 18.75H22.375V20.625H23.625V18.75Z" fill="white"/>
<path d="M23.625 7.5H22.375V9.375H23.625V7.5Z" fill="white"/>
<path d="M26.125 7.5H24.875V9.375H26.125V7.5Z" fill="white"/>
<path d="M28.625 7.5H27.375V9.375H28.625V7.5Z" fill="white"/>
<path d="M31.125 7.5H29.875V9.375H31.125V7.5Z" fill="white"/>
<path d="M23.625 10.625H22.375V12.5H23.625V10.625Z" fill="white"/>
<path d="M26.125 10.625H24.875V12.5H26.125V10.625Z" fill="white"/>
<path d="M28.625 10.625H27.375V12.5H28.625V10.625Z" fill="white"/>
<path d="M31.125 10.625H29.875V12.5H31.125V10.625Z" fill="white"/>
<path d="M31.125 13.75H29.875V15.625H31.125V13.75Z" fill="white"/>
<path d="M31.125 16.875H29.875V18.75H31.125V16.875Z" fill="white"/>
<path d="M26.125 18.75H24.875V20.625H26.125V18.75Z" fill="white"/>
<path d="M16.125 21.875H14.875V23.75H16.125V21.875Z" fill="white"/>
<path d="M18.625 21.875H17.375V23.75H18.625V21.875Z" fill="white"/>
<path d="M21.125 21.875H19.875V23.75H21.125V21.875Z" fill="white"/>
<path d="M23.625 21.875H22.375V23.75H23.625V21.875Z" fill="white"/>
<path d="M26.125 21.875H24.875V23.75H26.125V21.875Z" fill="white"/>
<path d="M16.125 25H14.875V26.875H16.125V25Z" fill="white"/>
<path d="M18.625 25H17.375V26.875H18.625V25Z" fill="white"/>
<path d="M21.125 25H19.875V26.875H21.125V25Z" fill="white"/>
<path d="M23.625 25H22.375V26.875H23.625V25Z" fill="white"/>
<path d="M26.125 25H24.875V26.875H26.125V25Z" fill="white"/>
<path d="M16.125 28.125H14.875V30H16.125V28.125Z" fill="white"/>
<path d="M18.625 28.125H17.375V30H18.625V28.125Z" fill="white"/>
<path d="M8.625 15.625H7.375V17.5H8.625V15.625Z" fill="white"/>
<path d="M11.125 15.625H9.875V17.5H11.125V15.625Z" fill="white"/>
<path d="M8.625 12.5H7.375V14.375H8.625V12.5Z" fill="white"/>
<path d="M11.125 12.5H9.875V14.375H11.125V12.5Z" fill="white"/>
<path d="M8.625 31.25H7.375V33.125H8.625V31.25Z" fill="white"/>
<path d="M11.125 31.25H9.875V33.125H11.125V31.25Z" fill="white"/>
<path d="M8.625 18.75H7.375V20.625H8.625V18.75Z" fill="white"/>
<path d="M11.125 18.75H9.875V20.625H11.125V18.75Z" fill="white"/>
<path d="M8.625 21.875H7.375V23.75H8.625V21.875Z" fill="white"/>
<path d="M11.125 21.875H9.875V23.75H11.125V21.875Z" fill="white"/>
<path d="M8.625 25H7.375V26.875H8.625V25Z" fill="white"/>
<path d="M11.125 25H9.875V26.875H11.125V25Z" fill="white"/>
<path d="M8.625 28.125H7.375V30H8.625V28.125Z" fill="white"/>
<path d="M11.125 28.125H9.875V30H11.125V28.125Z" fill="white"/>
<path d="M21.125 28.125H19.875V30H21.125V28.125Z" fill="white"/>
<path d="M23.625 28.125H22.375V30H23.625V28.125Z" fill="white"/>
<path d="M26.125 28.125H24.875V30H26.125V28.125Z" fill="white"/>
<path d="M31.125 25H29.875V26.875H31.125V25Z" fill="white"/>
<path d="M33.625 25H32.375V26.875H33.625V25Z" fill="white"/>
<path d="M31.125 28.125H29.875V30H31.125V28.125Z" fill="white"/>
<path d="M33.625 28.125H32.375V30H33.625V28.125Z" fill="white"/>
<path d="M31.125 31.25H29.875V33.125H31.125V31.25Z" fill="white"/>
<path d="M33.625 31.25H32.375V33.125H33.625V31.25Z" fill="white"/>
<path d="M36.125 21.875C36.125 21.7092 36.0592 21.5503 35.9419 21.4331C35.8247 21.3158 35.6658 21.25 35.5 21.25H33.625V4.375C33.625 4.20924 33.5592 4.05027 33.4419 3.93306C33.3247 3.81585 33.1658 3.75 33 3.75H29.875V2.5H28.625V3.75H27.375V1.25H26.125V3.75H20.5C20.3342 3.75 20.1753 3.81585 20.0581 3.93306C19.9408 4.05027 19.875 4.20924 19.875 4.375V13.75H18.605V15H27.375V37.5H22.375V34.375C22.375 34.2092 22.3092 34.0503 22.1919 33.9331C22.0747 33.8158 21.9158 33.75 21.75 33.75H19.25C19.0842 33.75 18.9253 33.8158 18.8081 33.9331C18.6908 34.0503 18.625 34.2092 18.625 34.375V37.5H13.625V15H14.915V13.75H13.625V10.625C13.625 10.4592 13.5592 10.3003 13.4419 10.1831C13.3247 10.0658 13.1658 10 13 10H11.125V7.5H9.875V10H8.625V8.75H7.375V10H5.5C5.33424 10 5.17527 10.0658 5.05806 10.1831C4.94085 10.3003 4.875 10.4592 4.875 10.625V37.5H1.75V38.75H39.25V37.5H36.125V21.875ZM8.625 35.625V37.5H6.125V11.25H12.375V37.5H9.875V35.625H8.625ZM21.125 13.75V5H32.375V21.25H31.125V20H29.875V21.25H28.625V14.375C28.625 14.2092 28.5592 14.0503 28.4419 13.9331C28.3247 13.8158 28.1658 13.75 28 13.75H21.125ZM19.875 37.5V35H21.125V37.5H19.875ZM32.375 37.5V35.625H31.125V37.5H28.625V22.5H34.875V37.5H32.375Z" fill="white"/>
</svg>
