<svg width="40" height="40" viewBox="0 0 40 40" fill="none" xmlns="http://www.w3.org/2000/svg">
<path d="M37.5001 15.3314C37.4612 14.8711 37.3126 14.4268 37.0666 14.0358C36.8207 13.6447 36.4845 13.3184 36.0865 13.084C36.7967 12.3562 37.1932 11.3789 37.1907 10.3619C37.1841 9.64038 36.9791 8.93456 36.5982 8.32175C36.2172 7.70894 35.675 7.21278 35.0308 6.8876C34.3867 6.56241 33.6655 6.42076 32.9462 6.47814C32.2269 6.53552 31.5373 6.78972 30.9528 7.21291L30.0929 7.84819C28.0159 8.18541 27.281 9.36278 27.0295 10.0204C26.8961 10.0524 26.7736 10.097 26.6454 10.1349C26.8436 4.99885 20.3729 2.40093 16.9884 6.31912C14.8236 4.5928 11.0963 6.18569 10.7718 8.40141C10.1244 7.88412 9.32777 7.58895 8.49964 7.55955C7.67151 7.53015 6.85591 7.76809 6.17349 8.23816C5.49107 8.70824 4.97809 9.38549 4.71042 10.1697C4.44275 10.954 4.43462 11.8035 4.68722 12.5927C3.18343 13.4466 2.44011 14.3661 2.50681 15.5328C2.54997 18.6218 3.40789 21.6446 4.99384 24.2958C6.5798 26.9469 8.83757 29.1323 11.5389 30.6311C11.288 30.802 11.08 31.0286 10.9313 31.2932C10.7825 31.5578 10.6969 31.8532 10.6813 32.1564C10.6813 32.8595 11.1531 33.8614 13.4016 34.6405C13.4792 34.6676 13.5614 34.6791 13.6435 34.6744C13.7256 34.6697 13.8059 34.6489 13.8799 34.6131C13.9539 34.5773 14.0201 34.5272 14.0748 34.4658C14.1294 34.4043 14.1714 34.3327 14.1983 34.255C14.2252 34.1773 14.2365 34.0951 14.2315 34.013C14.2266 33.931 14.2055 33.8507 14.1695 33.7768C14.1335 33.7029 14.0832 33.6368 14.0216 33.5824C13.96 33.5279 13.8883 33.4861 13.8105 33.4595C11.9448 32.723 11.2148 32.1628 12.8266 31.2726C15.0834 32.282 17.5278 32.8037 20 32.8037C22.4723 32.8036 24.9167 32.2818 27.1734 31.2724C30.1167 32.7351 24.9456 34.3267 20.0002 34.3314C18.7113 34.3345 17.4243 34.2348 16.1513 34.0332C15.989 34.0093 15.8238 34.05 15.6913 34.1468C15.5589 34.2435 15.4697 34.3884 15.4432 34.5503C15.4166 34.7122 15.4547 34.878 15.5492 35.012C15.6438 35.146 15.7873 35.2375 15.9487 35.2667C19.7908 36.2495 32.7748 35.0814 28.4562 30.6265C31.5699 28.9121 34.0872 26.2897 35.6727 23.1085C35.7463 22.9599 35.7578 22.7882 35.7048 22.6311C35.6517 22.474 35.5384 22.3444 35.3898 22.2708C35.2412 22.1972 35.0695 22.1857 34.9124 22.2387C34.7553 22.2918 34.6257 22.4051 34.5521 22.5537C27.3505 36.7627 6.29158 33.3107 3.92198 17.6228C6.91576 19.5393 10.0697 20.0333 14.7156 20.5775C20.7265 21.1967 30.3087 20.6955 35.0013 18.2747C35.3781 18.086 35.739 17.8671 36.0805 17.6201C35.9557 18.5379 35.749 19.4426 35.4627 20.3235C35.4109 20.481 35.4238 20.6526 35.4986 20.8006C35.5733 20.9486 35.7038 21.0609 35.8613 21.1127C36.0188 21.1645 36.1904 21.1516 36.3384 21.0768C36.4864 21.0021 36.5987 20.8716 36.6505 20.7141C37.2127 18.9752 37.4994 17.159 37.5001 15.3314ZM27.6417 11.1667C27.7679 11.1403 27.8831 11.0765 27.9724 10.9835C28.0617 10.8906 28.1209 10.7729 28.1422 10.6457C28.1507 10.5926 28.3851 9.34142 30.4243 9.06249C30.6728 9.05811 31.4896 8.34086 31.6969 8.21749C34.4923 6.24164 37.5743 10.1905 34.9628 12.4204C34.6931 12.6507 34.5236 12.977 34.4905 13.3301C34.439 13.8187 34.2594 14.2851 33.9697 14.682C33.68 15.0789 33.2906 15.3922 32.8408 15.5902C31.6787 15.0726 30.3898 14.9091 29.1352 15.1199C27.9752 15.3159 26.8885 15.8179 25.9873 16.5743C25.0862 17.3306 24.4033 18.3138 24.0091 19.4223C23.1648 19.4799 22.3234 19.5191 21.4848 19.54C21.5445 19.4439 21.5763 19.3331 21.5766 19.22C21.5626 18.6331 21.6517 16.6742 23.3876 16.1096C23.52 16.0659 23.6342 15.9792 23.712 15.8634C23.7898 15.7476 23.8268 15.6092 23.8172 15.47C23.8019 14.4046 24.1859 13.372 24.8937 12.5756C25.6016 11.7791 26.5819 11.2765 27.6417 11.1667ZM32.3935 16.7576C32.8366 16.9615 33.2521 17.2208 33.63 17.5291C30.9822 18.5013 28.2122 19.1013 25.3994 19.3121C26.0065 18.0626 27.0753 17.0978 28.3801 16.6212C29.685 16.1446 31.124 16.1935 32.3935 16.7576ZM18.038 13.9437C18.7021 13.1584 19.5755 12.5778 20.5566 12.2695C21.5377 11.9611 22.5862 11.9376 23.5802 12.2017C22.9824 13.0516 22.6333 14.0512 22.5721 15.0885C21.9722 15.3912 21.4583 15.8403 21.0781 16.3944C20.6979 16.9485 20.4636 17.5895 20.3971 18.2582C20.0397 17.8274 19.5756 17.4979 19.051 17.3026C18.9532 16.1614 18.5446 15.0688 17.8696 14.1434C17.9182 14.0823 17.9751 14.0154 18.038 13.9437ZM20.8534 5.67839C21.497 5.63975 22.1411 5.74677 22.7377 5.99147C23.3342 6.23618 23.8679 6.61227 24.299 7.09176C24.7302 7.57125 25.0476 8.14179 25.2277 8.76092C25.4078 9.38006 25.446 10.0318 25.3394 10.6678C25.0662 10.8177 24.806 10.9899 24.5613 11.1828C23.36 10.7579 22.0663 10.6653 20.8167 10.915C20.0985 8.8376 18.9383 8.24754 18.2747 8.08962C18.1565 7.79205 18.0138 7.50482 17.848 7.23087C18.2164 6.78063 18.6732 6.41062 19.19 6.14361C19.7069 5.87661 20.273 5.71829 20.8534 5.67839ZM14.0644 6.91893C14.3964 6.82533 14.7441 6.80116 15.0858 6.84792C15.4275 6.89469 15.756 7.01139 16.0506 7.19074C16.3452 7.37009 16.5997 7.60824 16.7981 7.89033C16.9966 8.17241 17.1348 8.49238 17.2041 8.83026C17.2494 8.9615 17.3344 9.07537 17.4474 9.15604C17.5604 9.23671 17.6957 9.28017 17.8346 9.28038C17.882 9.27371 18.9146 9.28256 19.6253 11.2947C18.9879 11.572 18.3948 11.9419 17.8654 12.3924L17.3146 10.9381C17.2541 10.7854 17.1361 10.6627 16.9859 10.5963C16.8357 10.5299 16.6655 10.5253 16.5119 10.5834C16.3584 10.6415 16.2338 10.7577 16.1652 10.9069C16.0966 11.056 16.0894 11.2262 16.1451 11.3806L16.803 13.1174C16.196 12.7137 15.5024 12.4586 14.7786 12.3727C14.6404 11.8303 14.383 11.3255 14.0252 10.895C13.6674 10.4646 13.2181 10.1193 12.7101 9.8843C12.4558 9.77338 12.1884 9.69562 11.9143 9.65294C11.9486 9.56116 11.9605 9.4625 11.949 9.3652C11.9221 9.17144 11.753 7.45665 14.0644 6.91893ZM10.1509 14.7156C10.7406 14.6817 11.3305 14.7801 11.8773 15.0035C12.4242 15.2269 12.9142 15.5696 13.3117 16.0067C13.7091 16.4437 14.0038 16.964 14.1744 17.5296C14.3449 18.0952 14.387 18.6917 14.2974 19.2756C11.6728 19.0561 9.08744 18.4994 6.60514 17.6191C6.66975 17.3593 6.76467 17.108 6.88793 16.8704C7.19806 16.259 7.66198 15.7388 8.23408 15.3609C8.80618 14.9831 9.46676 14.7607 10.1509 14.7156ZM3.74438 15.3485C3.74376 15.3455 3.74481 15.3489 3.74523 15.3503L3.74438 15.3485ZM3.75438 15.4178C3.71738 14.8349 4.25931 14.2894 5.24019 13.714L5.48717 14.093C5.28847 14.863 5.37722 15.6791 5.7368 16.3884C5.62379 16.6184 5.53036 16.8575 5.45749 17.1031C4.41207 16.5508 3.79703 15.9532 3.75438 15.4178ZM15.5465 19.3842C15.7273 18.0974 15.4197 16.7896 14.6844 15.7182C13.949 14.6469 12.8391 13.8897 11.5734 13.5959L11.6542 12.5314C11.6664 12.3663 11.6126 12.2032 11.5046 12.0777C11.3966 11.9522 11.2433 11.8747 11.0782 11.8622C10.9131 11.8497 10.7498 11.9031 10.6242 12.0109C10.4985 12.1186 10.4207 12.2718 10.4078 12.4368L10.3294 13.4707C10.1949 13.4623 10.0599 13.4671 9.92633 13.485L9.0559 11.9281C8.97373 11.7859 8.83891 11.6817 8.68057 11.6382C8.52222 11.5946 8.35309 11.615 8.20971 11.6951C8.06634 11.7752 7.96026 11.9086 7.91439 12.0663C7.86852 12.224 7.88656 12.3934 7.9646 12.5379L8.65306 13.7693C7.8899 14.0412 7.20192 14.4899 6.64539 15.0786C6.5311 14.6698 6.9594 14.0691 6.69207 13.6523L6.15612 12.8299C4.41986 10.0349 8.28111 7.2398 10.3841 9.77301L11.0676 10.6332C11.4644 11.0362 11.5298 10.7296 12.2102 11.03C12.6055 11.2313 12.9461 11.5257 13.2024 11.8879C13.4587 12.25 13.6233 12.669 13.6817 13.1088C13.713 13.2532 13.795 13.3817 13.9127 13.471C14.0305 13.5603 14.1763 13.6045 14.3238 13.5956C15.1948 13.6149 16.0238 13.9736 16.634 14.5953C17.4092 15.4923 17.8381 16.637 17.8431 17.8225C17.8539 17.9608 17.9099 18.0917 18.0024 18.195C18.095 18.2983 18.2189 18.3683 18.3552 18.3941C18.6433 18.4554 18.9128 18.584 19.1416 18.7696C19.3703 18.9552 19.5518 19.1923 19.6711 19.4616C19.6872 19.497 19.7067 19.5308 19.7293 19.5624C18.2898 19.5568 16.8916 19.4925 15.5465 19.3842ZM34.8396 16.9404C34.6107 16.7135 34.3652 16.5039 34.1052 16.3134C34.8055 15.8078 35.3158 15.0818 35.5546 14.2518C36.8123 15.287 36.2197 16.1096 34.8396 16.9404Z" fill="white"/>
<path d="M10.6896 17.4979C10.8504 17.5375 11.0204 17.5119 11.1623 17.4266C11.3043 17.3413 11.4067 17.2032 11.4471 17.0425L11.5838 16.4932C11.6036 16.4136 11.6076 16.3308 11.5954 16.2496C11.5832 16.1684 11.5552 16.0903 11.5129 16.02C11.4706 15.9496 11.4148 15.8883 11.3488 15.8395C11.2828 15.7906 11.2078 15.7553 11.1281 15.7355C11.0485 15.7156 10.9657 15.7117 10.8845 15.7238C10.8033 15.736 10.7253 15.764 10.6549 15.8063C10.5845 15.8487 10.5232 15.9044 10.4744 15.9704C10.4256 16.0364 10.3902 16.1114 10.3704 16.1911L10.2337 16.7404C10.1937 16.9013 10.2193 17.0715 10.3048 17.2135C10.3903 17.3556 10.5287 17.4578 10.6896 17.4979ZM8.12186 17.6089C8.20887 17.7477 8.34684 17.8467 8.50611 17.8848C8.66537 17.9229 8.83323 17.897 8.9736 17.8127C9.11398 17.7283 9.21566 17.5923 9.2568 17.4338C9.29794 17.2753 9.27525 17.107 9.19361 16.965L8.90188 16.4798C8.81528 16.3402 8.67721 16.2403 8.51754 16.2017C8.35786 16.1631 8.1894 16.1889 8.04859 16.2735C7.90777 16.3581 7.80591 16.4947 7.76503 16.6538C7.72415 16.8129 7.74753 16.9817 7.83012 17.1237L8.12186 17.6089ZM12.5841 18.8892C12.8162 18.9147 13.196 18.6086 13.391 18.508C13.5301 18.4211 13.6295 18.2831 13.6677 18.1236C13.706 17.9641 13.68 17.796 13.5954 17.6555C13.5109 17.515 13.3745 17.4133 13.2157 17.3724C13.0569 17.3315 12.8884 17.3547 12.7465 17.4369L12.2613 17.7286C12.1468 17.8007 12.0586 17.9078 12.0099 18.034C11.9611 18.1602 11.9544 18.2988 11.9906 18.4291C12.0269 18.5594 12.1042 18.6746 12.2112 18.7575C12.3181 18.8404 12.4489 18.8865 12.5841 18.8892ZM28.2995 14.7852C28.4326 14.7852 28.5623 14.7425 28.6693 14.6634L31.0145 12.9362L32.8094 13.7247C32.9606 13.7885 33.131 13.7903 33.2835 13.7296C33.4361 13.6689 33.5586 13.5506 33.6247 13.4003C33.6908 13.2499 33.695 13.0796 33.6366 12.9262C33.5781 12.7728 33.4616 12.6485 33.3123 12.5802L32.1758 12.081L33.1682 11.3501C33.2345 11.3015 33.2905 11.2403 33.3331 11.1701C33.3757 11.0998 33.404 11.0218 33.4164 10.9406C33.4288 10.8594 33.4251 10.7766 33.4054 10.6968C33.3858 10.617 33.3506 10.5419 33.3019 10.4757C33.2532 10.4096 33.1919 10.3537 33.1216 10.3112C33.0512 10.2688 32.9732 10.2406 32.892 10.2283C32.8107 10.2161 32.7279 10.2199 32.6481 10.2397C32.5684 10.2595 32.4934 10.2948 32.4273 10.3436L31.506 11.0221L31.4739 10.3223C31.4636 10.1586 31.3894 10.0056 31.2673 9.89617C31.1453 9.78673 30.9851 9.72961 30.8213 9.73714C30.6575 9.74467 30.5033 9.81624 30.3918 9.93642C30.2803 10.0566 30.2204 10.2158 30.2252 10.3797L30.2953 11.9138L29.3429 12.6151L29.2657 12.1741C29.235 12.0127 29.1421 11.8699 29.007 11.7765C28.8719 11.683 28.7054 11.6465 28.5436 11.6748C28.3818 11.7031 28.2377 11.794 28.1423 11.9277C28.0469 12.0615 28.008 12.2274 28.034 12.3895L28.2186 13.4432L27.9284 13.6569C27.8247 13.7362 27.7482 13.8458 27.7097 13.9706C27.6711 14.0953 27.6722 14.2289 27.713 14.3529C27.7538 14.4769 27.8322 14.5851 27.9373 14.6626C28.0424 14.7401 28.1689 14.7829 28.2995 14.7852Z" fill="white"/>
</svg>
