<svg width="40" height="40" viewBox="0 0 40 40" fill="none" xmlns="http://www.w3.org/2000/svg">
<path d="M15 10V14.375C15 14.5408 15.0658 14.6997 15.1831 14.8169C15.3003 14.9342 15.4592 15 15.625 15C15.7908 15 15.9497 14.9342 16.0669 14.8169C16.1842 14.6997 16.25 14.5408 16.25 14.375V10H17.5V14.375C17.5 14.5408 17.5658 14.6997 17.6831 14.8169C17.8003 14.9342 17.9592 15 18.125 15C18.2908 15 18.4497 14.9342 18.5669 14.8169C18.6842 14.6997 18.75 14.5408 18.75 14.375V10C18.9158 10 19.0747 9.93415 19.1919 9.81694C19.3092 9.69973 19.375 9.54076 19.375 9.375V6.25C19.3735 5.86083 19.2813 5.47737 19.1055 5.13015C18.9297 4.78294 18.6753 4.48156 18.3625 4.25C18.6104 3.92702 18.7464 3.53213 18.75 3.125C18.75 2.62772 18.5525 2.15081 18.2008 1.79917C17.8492 1.44754 17.3723 1.25 16.875 1.25C16.3777 1.25 15.9008 1.44754 15.5492 1.79917C15.1975 2.15081 15 2.62772 15 3.125C15.0036 3.53213 15.1396 3.92702 15.3875 4.25C15.0747 4.48156 14.8203 4.78294 14.6445 5.13015C14.4687 5.47737 14.3765 5.86083 14.375 6.25V9.375C14.375 9.54076 14.4408 9.69973 14.5581 9.81694C14.6753 9.93415 14.8342 10 15 10ZM15.625 8.75V6.25C15.625 5.91848 15.7567 5.60054 15.9911 5.36612C16.2255 5.1317 16.5435 5 16.875 5C17.2065 5 17.5245 5.1317 17.7589 5.36612C17.9933 5.60054 18.125 5.91848 18.125 6.25V8.75H15.625ZM16.25 3.125C16.25 3.00139 16.2867 2.88055 16.3553 2.77777C16.424 2.67499 16.5216 2.59488 16.6358 2.54758C16.75 2.50027 16.8757 2.48789 16.9969 2.51201C17.1182 2.53612 17.2295 2.59565 17.3169 2.68306C17.4044 2.77047 17.4639 2.88183 17.488 3.00307C17.5121 3.12431 17.4997 3.24997 17.4524 3.36418C17.4051 3.47838 17.325 3.57599 17.2222 3.64467C17.1195 3.71334 16.9986 3.75 16.875 3.75C16.7092 3.75 16.5503 3.68415 16.4331 3.56694C16.3158 3.44973 16.25 3.29076 16.25 3.125ZM35 31.875H5C4.83424 31.875 4.67527 31.9408 4.55806 32.0581C4.44085 32.1753 4.375 32.3342 4.375 32.5V33.125C4.375 33.9538 4.70424 34.7487 5.29029 35.3347C5.87634 35.9208 6.6712 36.25 7.5 36.25H17.1125L16.3188 37.8438C16.2744 37.9174 16.2458 37.9994 16.2346 38.0846C16.2234 38.1698 16.2299 38.2564 16.2537 38.339C16.2775 38.4216 16.3181 38.4984 16.3729 38.5646C16.4277 38.6308 16.4956 38.685 16.5723 38.7237C16.649 38.7625 16.7328 38.7851 16.8186 38.79C16.9044 38.7949 16.9903 38.782 17.071 38.7522C17.1516 38.7224 17.2252 38.6763 17.2872 38.6168C17.3492 38.5573 17.3982 38.4856 17.4312 38.4062L18.5125 36.25H21.4875L22.5688 38.4062C22.6207 38.5093 22.7002 38.596 22.7983 38.6567C22.8965 38.7173 23.0096 38.7496 23.125 38.75C23.223 38.7512 23.3198 38.7275 23.4062 38.6813C23.5535 38.6063 23.665 38.4762 23.7165 38.3192C23.7681 38.1623 23.7554 37.9914 23.6812 37.8438L22.8875 36.25H32.5C33.3288 36.25 34.1237 35.9208 34.7097 35.3347C35.2958 34.7487 35.625 33.9538 35.625 33.125V32.5C35.625 32.3342 35.5592 32.1753 35.4419 32.0581C35.3247 31.9408 35.1658 31.875 35 31.875ZM32.5 35H7.5C7.00272 35 6.52581 34.8025 6.17417 34.4508C5.82254 34.0992 5.625 33.6223 5.625 33.125H34.375C34.375 33.6223 34.1775 34.0992 33.8258 34.4508C33.4742 34.8025 32.9973 35 32.5 35Z" fill="white"/>
<path d="M7.50001 26.9188V30C7.50001 30.1658 7.56586 30.3247 7.68307 30.4419C7.80028 30.5592 7.95925 30.625 8.12501 30.625C8.29077 30.625 8.44974 30.5592 8.56695 30.4419C8.68416 30.3247 8.75001 30.1658 8.75001 30V27.6562C9.60659 27.9651 10.5463 27.9518 11.3938 27.6187L12.2938 27.2563C12.8427 27.0369 13.4517 27.0192 14.0125 27.2062L15.5938 27.7312C16.434 28.0111 17.3462 27.9845 18.1688 27.6562L19.0688 27.2937C19.6701 27.0505 20.3424 27.0505 20.9438 27.2937C21.0979 27.3551 21.2701 27.3527 21.4225 27.287C21.5749 27.2214 21.6949 27.0979 21.7563 26.9438C21.8176 26.7896 21.8152 26.6174 21.7495 26.465C21.6839 26.3126 21.5604 26.1926 21.4063 26.1313C20.5116 25.7731 19.5134 25.7731 18.6188 26.1313L17.7188 26.4937C17.1698 26.7131 16.5608 26.7308 16 26.5438L14.4188 26.0188C13.5785 25.7389 12.6663 25.7655 11.8438 26.0938L10.9438 26.4563C10.3424 26.6995 9.67009 26.6995 9.06876 26.4563C8.60477 26.27 8.20727 25.9489 7.92763 25.5345C7.64798 25.12 7.49903 24.6312 7.50001 24.1313V23.75H32.5V24.1313C32.501 24.6312 32.352 25.12 32.0724 25.5345C31.7927 25.9489 31.3953 26.27 30.9313 26.4563C30.3299 26.6995 29.6576 26.6995 29.0563 26.4563L28.1563 26.0938C27.3467 25.776 26.4519 25.7495 25.625 26.0188L24.0438 26.5438C23.9657 26.5698 23.8935 26.6111 23.8314 26.6652C23.7693 26.7192 23.7185 26.785 23.6819 26.8588C23.6453 26.9326 23.6237 27.0128 23.6182 27.095C23.6127 27.1771 23.6235 27.2595 23.65 27.3375C23.7028 27.4938 23.8151 27.6228 23.9627 27.6966C24.1102 27.7703 24.2809 27.7828 24.4375 27.7312L26.0188 27.2062C26.5796 27.0192 27.1885 27.0369 27.7375 27.2563L28.6375 27.6187C29.485 27.9518 30.4247 27.9651 31.2813 27.6562V30C31.2813 30.1658 31.3471 30.3247 31.4643 30.4419C31.5815 30.5592 31.7405 30.625 31.9063 30.625C32.072 30.625 32.231 30.5592 32.3482 30.4419C32.4654 30.3247 32.5313 30.1658 32.5313 30V26.9188C32.9254 26.5694 33.2408 26.1401 33.4563 25.6595C33.6718 25.1789 33.7826 24.658 33.7813 24.1313V23.75C33.7813 23.4185 33.6496 23.1005 33.4151 22.8661C33.1807 22.6317 32.8628 22.5 32.5313 22.5H22.5V21.25H26.25C26.7473 21.25 27.2242 21.0525 27.5758 20.7008C27.9275 20.3492 28.125 19.8723 28.125 19.375V17.9062C28.5065 17.686 28.8231 17.3688 29.0426 16.9869C29.2621 16.6049 29.3768 16.1718 29.375 15.7312V15C29.375 14.6685 29.2433 14.3505 29.0089 14.1161C28.7745 13.8817 28.4565 13.75 28.125 13.75H26.7125L25.2063 8.7125C25.3125 8.67583 25.4069 8.6112 25.4795 8.52541C25.5521 8.43962 25.6002 8.33584 25.6188 8.225L26 5.93125C26.0446 5.66288 26.0302 5.38802 25.9579 5.12576C25.8856 4.8635 25.7571 4.62012 25.5813 4.4125C25.4191 4.22562 25.2216 4.07268 25 3.9625V3.125C25 2.62772 24.8025 2.15081 24.4508 1.79917C24.0992 1.44754 23.6223 1.25 23.125 1.25C22.6277 1.25 22.1508 1.44754 21.7992 1.79917C21.4476 2.15081 21.25 2.62772 21.25 3.125V3.9625C21.0285 4.07268 20.8309 4.22562 20.6688 4.4125C20.493 4.62012 20.3644 4.8635 20.2921 5.12576C20.2198 5.38802 20.2055 5.66288 20.25 5.93125L20.625 8.225C20.6436 8.33584 20.6917 8.43962 20.7643 8.52541C20.8369 8.6112 20.9313 8.67583 21.0375 8.7125L19.375 14.1937C19.3269 14.3529 19.3441 14.5246 19.4226 14.6711C19.5011 14.8176 19.6346 14.9269 19.7938 14.975C19.9529 15.0231 20.1246 15.006 20.2711 14.9274C20.4176 14.8489 20.5269 14.7154 20.575 14.5563L22.3375 8.75H23.9125L25.4125 13.75H23.125C22.9593 13.75 22.8003 13.8158 22.6831 13.9331C22.5659 14.0503 22.5 14.2092 22.5 14.375C22.5 14.5408 22.5659 14.6997 22.6831 14.8169C22.8003 14.9342 22.9593 15 23.125 15H28.125V15.7312C28.1271 15.966 28.0647 16.1968 27.9446 16.3985C27.8245 16.6003 27.6512 16.7651 27.4438 16.875L27.075 17.0687C26.8806 17.1692 26.6639 17.2185 26.4452 17.212C26.2264 17.2054 26.013 17.1432 25.825 17.0312L25.625 16.875C25.2521 16.6431 24.8248 16.5135 24.3859 16.4992C23.947 16.485 23.5122 16.5866 23.125 16.7938L22.5688 17.0687C22.3661 17.1703 22.1402 17.2163 21.914 17.202C21.6879 17.1877 21.4695 17.1137 21.2813 16.9875C20.9014 16.7343 20.4594 16.5899 20.0032 16.5701C19.5471 16.5502 19.0942 16.6557 18.6938 16.875L18.3375 17.0625C18.1431 17.163 17.9264 17.2123 17.7077 17.2057C17.4889 17.1991 17.2755 17.137 17.0875 17.025L16.875 16.9125C16.4968 16.6915 16.0679 16.572 15.6299 16.5654C15.1919 16.5588 14.7597 16.6655 14.375 16.875L13.9875 17.0875C13.8013 17.1845 13.5944 17.2351 13.3844 17.2351C13.1744 17.2351 12.9675 17.1845 12.7813 17.0875H12.7313L12.5 16.875C12.31 16.761 12.1526 16.5998 12.0431 16.4071C11.9336 16.2144 11.8757 15.9966 11.875 15.775V15H13.4875C13.6533 15 13.8122 14.9342 13.9295 14.8169C14.0467 14.6997 14.1125 14.5408 14.1125 14.375C14.1125 14.2092 14.0467 14.0503 13.9295 13.9331C13.8122 13.8158 13.6533 13.75 13.4875 13.75H11.875C11.5435 13.75 11.2255 13.8817 10.9911 14.1161C10.7567 14.3505 10.625 14.6685 10.625 15V15.8C10.6299 16.2383 10.7475 16.6681 10.9664 17.0478C11.1853 17.4276 11.4982 17.7448 11.875 17.9688H11.9063V19.375C11.9063 19.8723 12.1038 20.3492 12.4554 20.7008C12.8071 21.0525 13.284 21.25 13.7813 21.25H17.5313V22.5H7.50001C7.16849 22.5 6.85055 22.6317 6.61613 22.8661C6.38171 23.1005 6.25001 23.4185 6.25001 23.75V24.1313C6.2487 24.658 6.35949 25.1789 6.575 25.6595C6.79052 26.1401 7.10584 26.5694 7.50001 26.9188ZM22.5 3.125C22.5 2.95924 22.5659 2.80027 22.6831 2.68306C22.8003 2.56585 22.9593 2.5 23.125 2.5C23.2908 2.5 23.4497 2.56585 23.567 2.68306C23.6842 2.80027 23.75 2.95924 23.75 3.125V3.75H22.5V3.125ZM21.7813 7.5L21.4813 5.725C21.4667 5.63496 21.4719 5.54281 21.4967 5.45503C21.5215 5.36724 21.5653 5.28595 21.6248 5.21686C21.6844 5.14777 21.7583 5.09255 21.8415 5.05509C21.9247 5.01763 22.015 4.99882 22.1063 5H24.1563C24.2475 4.99882 24.3378 5.01763 24.421 5.05509C24.5042 5.09255 24.5781 5.14777 24.6377 5.21686C24.6973 5.28595 24.741 5.36724 24.7658 5.45503C24.7906 5.54281 24.7959 5.63496 24.7813 5.725L24.4688 7.5H21.7813ZM13.125 19.375V18.4438C13.622 18.4899 14.1216 18.39 14.5625 18.1562L14.9563 17.9437C15.1549 17.8388 15.3773 17.787 15.6018 17.7936C15.8264 17.8002 16.0454 17.8648 16.2375 17.9813L16.4125 18.0875C16.788 18.3133 17.2155 18.4383 17.6535 18.4503C18.0915 18.4624 18.5252 18.3611 18.9125 18.1562L19.2688 17.9688C19.4735 17.8585 19.7045 17.8061 19.9368 17.8171C20.1691 17.8281 20.3941 17.9021 20.5875 18.0312C20.9596 18.2776 21.3899 18.4217 21.8353 18.4491C22.2807 18.4765 22.7255 18.3863 23.125 18.1875L23.6875 17.9125C23.8819 17.8103 24.0998 17.7611 24.3192 17.7699C24.5387 17.7787 24.7519 17.8451 24.9375 17.9625L25.1313 18.0812C25.6482 18.4004 26.2636 18.5203 26.8625 18.4187V19.375C26.8625 19.5408 26.7967 19.6997 26.6795 19.8169C26.5622 19.9342 26.4033 20 26.2375 20H13.75C13.5843 20 13.4253 19.9342 13.3081 19.8169C13.1909 19.6997 13.125 19.5408 13.125 19.375ZM18.75 21.25H21.25V22.5H18.75V21.25Z" fill="white"/>
<path d="M20 30.625C20.3452 30.625 20.625 30.3452 20.625 30C20.625 29.6548 20.3452 29.375 20 29.375C19.6548 29.375 19.375 29.6548 19.375 30C19.375 30.3452 19.6548 30.625 20 30.625Z" fill="white"/>
<path d="M23.125 30.625C23.4702 30.625 23.75 30.3452 23.75 30C23.75 29.6548 23.4702 29.375 23.125 29.375C22.7798 29.375 22.5 29.6548 22.5 30C22.5 30.3452 22.7798 30.625 23.125 30.625Z" fill="white"/>
<path d="M26.25 30.625C26.5952 30.625 26.875 30.3452 26.875 30C26.875 29.6548 26.5952 29.375 26.25 29.375C25.9048 29.375 25.625 29.6548 25.625 30C25.625 30.3452 25.9048 30.625 26.25 30.625Z" fill="white"/>
<path d="M29.375 30.625C29.7202 30.625 30 30.3452 30 30C30 29.6548 29.7202 29.375 29.375 29.375C29.0298 29.375 28.75 29.6548 28.75 30C28.75 30.3452 29.0298 30.625 29.375 30.625Z" fill="white"/>
<path d="M10.625 30.625C10.9702 30.625 11.25 30.3452 11.25 30C11.25 29.6548 10.9702 29.375 10.625 29.375C10.2798 29.375 10 29.6548 10 30C10 30.3452 10.2798 30.625 10.625 30.625Z" fill="white"/>
<path d="M13.75 30.625C14.0952 30.625 14.375 30.3452 14.375 30C14.375 29.6548 14.0952 29.375 13.75 29.375C13.4048 29.375 13.125 29.6548 13.125 30C13.125 30.3452 13.4048 30.625 13.75 30.625Z" fill="white"/>
<path d="M16.875 30.625C17.2202 30.625 17.5 30.3452 17.5 30C17.5 29.6548 17.2202 29.375 16.875 29.375C16.5298 29.375 16.25 29.6548 16.25 30C16.25 30.3452 16.5298 30.625 16.875 30.625Z" fill="white"/>
</svg>
