<svg width="41" height="40" viewBox="0 0 41 40" fill="none" xmlns="http://www.w3.org/2000/svg">
<path d="M9.98046 39C10.0242 39.0445 10.0763 39.0799 10.1339 39.104C10.1914 39.1282 10.2531 39.1406 10.3155 39.1407H30.6852C30.7475 39.1407 30.8092 39.1283 30.8667 39.1042C30.9241 39.0801 30.9762 39.0447 31.0198 39.0003C31.0635 38.9558 31.0978 38.9031 31.1209 38.8452C31.1439 38.7873 31.1551 38.7254 31.154 38.6631L30.8883 24.4402C30.8883 24.4357 30.8902 24.4311 30.89 24.4265C30.7644 21.8087 29.4066 18.6042 27.766 16.8672V13.6776L28.6817 8.65512C28.8858 8.5105 29.0772 8.34869 29.2537 8.17145C29.6561 7.77117 29.9742 7.29419 30.189 6.76876C30.4038 6.24333 30.511 5.68014 30.5041 5.11254C30.4906 3.98364 30.0342 2.90524 29.2331 2.10969C28.432 1.31414 27.3505 0.865132 26.2215 0.859414L25.9766 0.867617C25.3242 0.910718 24.6908 1.10598 24.1273 1.43777C23.5639 1.76956 23.0859 2.22866 22.7317 2.77832L21.0473 5.34504C20.9872 5.43415 20.9056 5.50657 20.8099 5.55554C20.7143 5.60451 20.6078 5.62842 20.5004 5.62504C20.3931 5.62834 20.2867 5.60438 20.1912 5.55542C20.0957 5.50645 20.0141 5.43407 19.9541 5.34504L18.2691 2.76965C17.9148 2.22073 17.4369 1.76241 16.8736 1.43139C16.3103 1.10036 15.6773 0.905842 15.0254 0.863398L14.7792 0.858398C12.4433 0.858398 10.5221 2.76871 10.4966 5.11621C10.4894 5.68346 10.5962 6.24638 10.8107 6.77157C11.0251 7.29676 11.3429 7.77352 11.7451 8.17355C11.9218 8.35095 12.1134 8.51282 12.3178 8.65738L13.2348 13.6776V16.8672C11.5941 18.6041 10.2366 21.8085 10.1108 24.4264C10.1108 24.431 10.1125 24.4355 10.1124 24.4401L9.84577 38.6631C9.84472 38.7254 9.8561 38.7873 9.87922 38.8451C9.90235 38.903 9.93676 38.9556 9.98046 39ZM29.9492 24.4503L30.2076 38.2032H26.7328L26.474 24.4402C26.474 24.4357 26.474 24.4168 26.4735 24.4122C26.3623 22.0981 25.307 19.375 23.9106 17.5H27.0924C28.5913 19.0625 29.8332 22.0799 29.9492 24.4505V24.4503ZM14.1723 14.1407H26.8285V16.5625H14.1723V14.1407ZM14.1027 13.2032L13.3733 9.20496C13.844 9.37012 14.3394 9.45405 14.8383 9.45316H14.8582C16.0591 9.45316 17.7364 9.32723 18.9064 8.72426C19.3845 8.48173 19.9136 8.35666 20.4497 8.35941H20.5505C21.0935 8.35971 21.6288 8.48803 22.113 8.73395C23.2824 9.32902 24.9495 9.45316 26.1422 9.45316H26.1619C26.6617 9.45403 27.158 9.36948 27.6293 9.20316L26.898 13.2032H14.1027ZM23.5168 3.29035C23.7905 2.86363 24.1604 2.50691 24.5967 2.24873C25.033 1.99056 25.5237 1.8381 26.0295 1.80355L26.2215 1.79691C26.8847 1.80025 27.532 1.99983 28.0819 2.3705C28.6318 2.74118 29.0597 3.26634 29.3115 3.8798C28.9125 3.46267 28.4328 3.13105 27.9016 2.90509C27.3704 2.67914 26.7988 2.56358 26.2215 2.56543L25.9766 2.57324C25.3571 2.61395 24.7544 2.79216 24.2124 3.09494C23.6703 3.39772 23.2026 3.81745 22.843 4.32363L23.5168 3.29035ZM14.7792 1.79691L14.9719 1.80363C15.4775 1.83831 15.9681 1.99083 16.4042 2.24899C16.8404 2.50716 17.2101 2.86382 17.4838 3.29043L18.1557 4.32168C17.7953 3.81438 17.326 3.39407 16.7823 3.09151C16.2385 2.78895 15.634 2.6118 15.0129 2.57301L14.7792 2.5652C14.2018 2.56345 13.6301 2.67916 13.0989 2.90527C12.5676 3.13139 12.0879 3.46319 11.6889 3.88051C11.9407 3.26687 12.3686 2.74153 12.9185 2.37072C13.4685 1.99992 14.1159 1.80026 14.7792 1.79691ZM12.4101 7.51285C11.9933 7.09698 11.6943 6.57785 11.5438 6.00855C11.7266 5.28982 12.1442 4.65274 12.7304 4.1984C13.3165 3.74407 14.0376 3.49853 14.7792 3.50074L14.9621 3.50855C15.4688 3.54136 15.9608 3.69271 16.3983 3.95041C16.8359 4.20811 17.2068 4.56496 17.4812 4.99223L17.6647 5.26566C17.9711 5.73708 18.3907 6.12422 18.8852 6.39171C19.3798 6.65919 19.9335 6.7985 20.4957 6.79691H20.5004C21.0634 6.79914 21.618 6.66013 22.1134 6.39263C22.6089 6.12512 23.0293 5.73765 23.3363 5.26566L23.5172 4.99223C23.7911 4.56584 24.161 4.2095 24.5973 3.95174C25.0337 3.69398 25.5243 3.54196 26.0299 3.50785L26.2217 3.50301C26.9628 3.50023 27.6836 3.74508 28.2697 4.19868C28.8557 4.65228 29.2735 5.28865 29.4566 6.00676C29.3053 6.57596 29.0057 7.09487 28.5886 7.51066C28.2713 7.83119 27.8933 8.08518 27.4766 8.25775C27.0599 8.43032 26.613 8.518 26.162 8.51566H26.1464C25.0554 8.51566 23.5437 8.41004 22.5383 7.89848C21.9223 7.58568 21.2413 7.42242 20.5505 7.42191H20.4489C19.7635 7.41926 19.0874 7.57994 18.4766 7.89066C17.4719 8.4084 15.9519 8.51566 14.8537 8.51566H14.838C14.387 8.51837 13.9399 8.43107 13.5231 8.25888C13.1062 8.08669 12.7278 7.83306 12.4101 7.51285ZM11.0518 24.4504C11.1678 22.0797 12.4096 19.0625 13.9083 17.5H17.0931C15.6954 19.375 14.6387 22.0982 14.5274 24.4141V24.4497L14.4749 27.2534C14.4722 27.3777 14.519 27.498 14.605 27.5878C14.6911 27.6776 14.8092 27.7296 14.9335 27.7323C15.0579 27.7349 15.1782 27.6881 15.268 27.6021C15.3578 27.5161 15.4097 27.398 15.4124 27.2736L15.4648 24.4657C15.5804 22.0908 16.8263 19.0625 18.3285 17.5H22.6801C24.1789 19.0625 25.4208 22.0799 25.5369 24.4506L25.7951 38.2032H15.206L15.353 30.3995C15.3554 30.2752 15.3082 30.155 15.222 30.0654C15.1357 29.9759 15.0174 29.9243 14.8931 29.9219C14.8316 29.9208 14.7704 29.9317 14.7131 29.9542C14.6557 29.9767 14.6034 30.0103 14.5591 30.053C14.4695 30.1392 14.4179 30.2575 14.4155 30.3818L14.2683 38.2032H10.7932L11.0518 24.4504Z" fill="white"/>
<path d="M12.2969 29.3148C12.1726 29.3148 12.0533 29.3642 11.9654 29.4521C11.8775 29.54 11.8281 29.6592 11.8281 29.7835V36.4096C11.8281 36.5339 11.8775 36.6532 11.9654 36.7411C12.0533 36.829 12.1726 36.8784 12.2969 36.8784C12.4212 36.8784 12.5404 36.829 12.6283 36.7411C12.7162 36.6532 12.7656 36.5339 12.7656 36.4096V29.7835C12.7656 29.6592 12.7162 29.54 12.6283 29.4521C12.5404 29.3642 12.4212 29.3148 12.2969 29.3148ZM12.2969 27.0513C12.1726 27.0513 12.0533 27.1007 11.9654 27.1886C11.8775 27.2765 11.8281 27.3957 11.8281 27.52V27.9888C11.8281 28.1131 11.8775 28.2323 11.9654 28.3202C12.0533 28.4081 12.1726 28.4575 12.2969 28.4575C12.4212 28.4575 12.5404 28.4081 12.6283 28.3202C12.7162 28.2323 12.7656 28.1131 12.7656 27.9888V27.52C12.7656 27.3957 12.7162 27.2765 12.6283 27.1886C12.5404 27.1007 12.4212 27.0513 12.2969 27.0513Z" fill="white"/>
</svg>
